<svg id="Layer_1" data-name="Layer 1" xmlns="http://www.w3.org/2000/svg" viewBox="0 0 410.18 708.82"><defs><style>.cls-1{fill:#231f20;}</style></defs><path class="cls-1" d="M292.38,74c-2.24-3.58-8.53-4.75-13.08-2.45-4.76,2.4-6,5.94-3.8,11.24L280,85.25a57.59,57.59,0,0,1-13.56,30.25C256,128,245.47,140.32,235,152.72l-.57,1.5,0,0a.62.62,0,0,1-.13.24.56.56,0,0,1-.35.15,2.44,2.44,0,0,1-1.34-.34,3.06,3.06,0,0,1-.94-.77.51.51,0,0,1-.21-.58c-.63,1.73-1.26,3.47-1.85,5.21-3.83,11.16-3.94,22.89-1.06,34.5a14.33,14.33,0,0,1,.32,5.37c-3.3-11.42-11.73-21.22-11-33.79.31-5.2,2.17-10.29,3.21-15.46a.66.66,0,0,1-.37.05,17.59,17.59,0,0,0-3.33-.06.5.5,0,0,1-.46-.33l-1.77-.08c-.77-3.12-1.53-6.25-2.3-9.38-1.31-5.35-2.42-10.77-4-16-.44-1.41-2.44-2.33-4.38-4.07-1.71,2.4-3.57,4-4.13,6-1.45,5.1-2.23,10.37-3.45,15.54-.67,2.84-1.68,5.6-2.54,8.39l-1.64-.18a.58.58,0,0,1-.53.18h-.5a3.7,3.7,0,0,0-.55.14l-.26.1-.1,0-.12.05-.45.22a.43.43,0,0,1-.41.25.45.45,0,0,1-.44-.3h0a36.14,36.14,0,0,1,.27,28.75c-2.81,7-5.69,14-8.66,21.37a19.69,19.69,0,0,1,0-4.43c3.64-14.86,2.3-28.88-1.83-42.39a.52.52,0,0,1-.31.12l-.34,0h-.1l-.14,0-.61.1a10.55,10.55,0,0,1-1.13.12l.05.11-.09-.11-.2,0a.51.51,0,0,1-.5-.5.48.48,0,0,1,.07-.24C165.93,141,156.66,130,146.92,119.36c-9-9.81-15.19-20.81-17-33.87l5.71-4.09c0-6.09-2.71-9.81-7.46-10.83s-9.89.92-11.1,4.49c-1.74,5.15,1.57,7.62,5.38,9.36,1.74,15.93,7.12,30.06,17.47,42,5.57,6.39,11.93,12.09,17.56,18.42,4.09,4.6,7.93,9.54,9.41,16-7.69-5.73-15.09-11.43-22.57-16.89a12.3,12.3,0,0,1-2-.44c-.79-.24-1.55-.65-2.35-.84a13.26,13.26,0,0,1-2.32-.55,5.84,5.84,0,0,0-1.28-.43l-1.05-.13c10.05,5.88,19.87,18.6,20.22,26.62a1.13,1.13,0,0,0-.1-.13.08.08,0,0,1,0,0s0,0,0,0a.39.39,0,0,1,0,.16.5.5,0,0,1,0,.13c.28.82.36,1.69.57,2.55a28.82,28.82,0,0,0,1,3.55.39.39,0,0,1,0,.41c0,.35,0,.71.06,1.06A67.79,67.79,0,0,1,161.9,191c2.42,11,4.34,22.16,8,32.74,3.35,9.72,9.25,18,22,16.8.73,1.65,1.72,3.06,2,4.59,1.11,6.7,2.62,13.41,2.89,20.15.86,22.13,1.29,44.28,1.78,66.43.17,7.41,0,14.83,0,23.31-7.31-8.42-11.61-17.39-12.57-27.31-1.38-14.22-1.44-28.56-2.22-42.84-.67-12.13-1.49-24.28-7-35.43-3.82-7.74-9.39-13.74-18-16.21-6.09-1.76-11.63-.48-16,4.16-5.44,5.77-6.68,17.53-2.55,24.32.86,1.41,2.78,2.16,4.22,3.22l1.35-1c0-2.12-.6-4.48.14-6.29,1.17-2.89,2.64-6.42,5.06-7.82,3.25-1.89,6.16,1.2,7.47,4.05,2.2,4.77,4.64,9.78,5.2,14.88,1.56,14,2,28.18,3.22,42.26,1.29,15.48,6.57,29.35,17,41.1a34.7,34.7,0,0,0,16.3,10.08V631.46h9.59v-269a31.22,31.22,0,0,0,9.34-4.79c12.94-9.09,20.2-22.22,22.44-37.49,2-13.77,1.72-27.88,3.38-41.72,1-7.94,3.5-15.74,5.91-23.41,1-3.28,3.53-6.35,7.83-5.53,4,.75,4.75,4.24,5.36,7.55.45,2.4.62,4.86,1.1,8.8,2.13-1.93,4.08-2.89,4.6-4.35a37.65,37.65,0,0,0,2.19-10c.47-7.33-2.05-13.42-8.81-17.11s-12.83-1.83-18.72,2c-11.21,7.34-15,19-16.37,31.14-1.56,14.36-1.63,28.89-2.2,43.35-.46,11.54-1.76,22.89-7.16,33.32-1.82,3.51-4.22,6.73-6.35,10.08a56.26,56.26,0,0,1-.67-11c.68-28.64,1.3-57.28,2.17-85.92.18-5.89,1-11.84,4.65-17.23,10.29,1.85,15.92-4.43,19.5-12.25,3.41-7.45,5.56-15.53,7.72-23.48,2.34-8.61,3.64-17.52,6.16-26.06.13-.43.29-.85.44-1.27a35,35,0,0,1,.4-4.09c.34-2,1.38-3.9,1.54-5.95l-.9,1c2.4-11,11.26-21,21.37-26.14l-.06,0a24.36,24.36,0,0,0-5.26,1.66,45.87,45.87,0,0,0-4.85,2.32c-1.46.84-2.75,1.93-4.12,2.9a21.45,21.45,0,0,1-4.35,2.46.42.42,0,0,1-.29,0q-6.42,4.78-12.83,9.58c1.79-4.35,3.81-8.89,6.85-12.59a200.75,200.75,0,0,1,15.32-16.37c13.44-13.11,20.13-29.37,22.65-47.48C293,81.37,294.62,77.56,292.38,74Z"/></svg>