<svg id="Layer_1" data-name="Layer 1" xmlns="http://www.w3.org/2000/svg" viewBox="0 0 410.18 708.82"><defs><style>.cls-1{fill:#e5e1df;}.cls-2{fill:#fff;}.cls-3{fill:#231f20;}</style></defs><path class="cls-1" d="M326.29,177.88l0,.08-1.51-2.36v0l-1.14-1.14.14.15-1.13-1.14.13.13-1.13-1.13.13.14-1.14-1.14.14.14-1.14-1.16,0,.15a56.37,56.37,0,0,0-5.21-2.75c-4.45-1.8-6.06-4.86-5.63-9.7.28-3.17-.66-6.45-1.05-9.68-4.44-4.44-8.75-8.95-15.47-10.05-5.59-.92-11.75.43-17.52,3.33a.42.42,0,0,1-.16.09C264.58,147,255.72,157,253.32,168l.9-1c0-.13,0-.26,0-.39a.5.5,0,0,1,.73-.43c5.58-5.94,11.48-10.54,20.19-7.11,3.18,4.68,2.52,8.6-.33,12.4l0,0-1.14,2.18.12,0c-1.59,5.32-5.5,10.14-3.49,16.23l0,0c3.81,2.74,5.46-2.14,8.42-2.39l-.13.15.61-.56.56.5c.31,1.21,1,2.47.79,3.59-1.09,6.52-2.76,13-3.51,19.51a11.64,11.64,0,0,0,5.26,11.62l10.2-8.51c3.37,3.65,1.85,7.68,2.42,11.28.67,4.22.82,8.65,2.29,12.58,2.39,6.37,7.7,7.26,12.51,2.4,5.63-5.66,7.6-12.55,6.61-20.53-.36-2.92-.27-6.44,1.05-8.91,2.38-4.48,5.84-8.37,8.86-12.51v.08l.15-1.16-.15-.12A26.67,26.67,0,0,0,326.29,177.88Z"/><path class="cls-1" d="M135.32,141.47l-.2,0a.39.39,0,0,1-.34-.29,22.62,22.62,0,0,0-6.87-2.63c-13.47-2.44-24.18,3.78-26.69,16-.66,3.21-.44,6.6-.68,10.7-3.09,1.88-6.23,3.7-9.29,5.66-5.69,3.65-9.25,8.84-9.12,15.64.13,7.25,1.83,14.51,7.05,19.74,4.48,4.48,5,9.12,4.43,14.9-.7,7.51.87,14.58,7.49,19.51,5.18,3.86,9.41,3.29,11.29-2.74,1.78-5.72,1.78-12,2.6-18,.24-1.82.59-3.63.89-5.45l1.51-.72,9.76,8.28c5.62-2.79,6-7.71,5.42-12.51-.71-5.9-2.31-11.69-3.32-17.56-.29-1.66.11-3.44.24-6.13l9.75,6c0-3.66.6-6.24-.12-8.38-1.64-4.85-4.39-9.34-5.79-14.24-.78-2.72-.86-7.06.75-8.68,1.85-1.85,6-2.3,9-1.88s5.77,2.37,8.24,4.2c1.59,1.17,2.63,3.08,3.83,4.77a.27.27,0,0,1,.1.11,0,0,0,0,1,0,0l.13.15,0,0v0l0,.08a1.13,1.13,0,0,1,.1.13C155.19,160.07,145.37,147.35,135.32,141.47Z"/><path class="cls-1" d="M189.26,149.28a.3.3,0,0,1,0-.1c-.1-.23-.19-.46-.3-.68a20.7,20.7,0,0,1-1.14-15c2.58-9.17.33-17.39-5.68-24.68-1.24-1.51-2.27-3.18-3.25-4.56,1-3.53,2-6.53,2.66-9.61,2.39-11.85-1.68-18.68-12.39-21.09-.3-.06-.55-.35-1-.64-2.47-3.92-1.32-10.33-8.19-12.69-1.1,2.12-2.78,4-3,6.05-.81,7.72-2,15.54-1.47,23.21,1,14.53,7.59,27.36,14.1,40.14a144.64,144.64,0,0,1,9.24,22.05.5.5,0,0,1,.47.49.43.43,0,0,1-.19.38c4.13,13.51,5.47,27.53,1.83,42.39a19.69,19.69,0,0,0,0,4.43c3-7.33,5.85-14.34,8.66-21.37A36.14,36.14,0,0,0,189.26,149.28Z"/><path class="cls-1" d="M253.68,68.72c-.64-3-2.51-5.7-3.8-8.54l-2.32,0q-3.23,6.67-6.48,13.35c-12.39-.2-16.33,12.48-10.18,30.82a22.39,22.39,0,0,1-1.93,3c-7.4,8.26-9.14,17.59-6.57,28.35.89,3.73-.44,8.07-1.16,12.06,0,.08,0,.15,0,.23a.53.53,0,0,1,.1.44.5.5,0,0,1-.25.3c-1,5.17-2.9,10.26-3.21,15.46-.75,12.57,7.68,22.37,11,33.79a14.33,14.33,0,0,0-.32-5.37c-2.88-11.61-2.77-23.34,1.06-34.5.59-1.74,1.22-3.48,1.85-5.21l0-.08c4-10.84,8.63-21.46,13.42-32C252.46,104.17,257.6,87.21,253.68,68.72Z"/><path class="cls-2" d="M277.34,198.56a8.21,8.21,0,0,1-.32-.8,2,2,0,0,1,.32-.17Z"/><polygon class="cls-2" points="276.29 201.89 276.19 201.56 276.46 201.6 276.29 201.89"/><path class="cls-2" d="M274.38,168.11l.57-.36-.55.27Z"/><path class="cls-2" d="M273.85,173.62c0-.68-.07-1.37-.1-2.05l0-.09c0,.72,0,1.45,0,2.17Z"/><path class="cls-2" d="M273.75,171.57l1.1-.08,0,0h-1.15Z"/><polygon class="cls-2" points="274.4 168.01 274.58 168.38 274.38 168.11 274.4 168.01"/><path class="cls-2" d="M211.89,197.5l-.14.13Z"/><path class="cls-2" d="M279.92,187.59h-1.24l.61-.56Z"/><path class="cls-3" d="M292.38,74c-2.24-3.58-8.53-4.75-13.08-2.45-4.76,2.4-6,5.94-3.8,11.24L280,85.25a57.59,57.59,0,0,1-13.56,30.25C256,128,245.47,140.32,235,152.72l-.57,1.5,0,0a.62.62,0,0,1-.13.24.56.56,0,0,1-.35.15,2.44,2.44,0,0,1-1.34-.34,3.06,3.06,0,0,1-.94-.77.51.51,0,0,1-.21-.58c-.63,1.73-1.26,3.47-1.85,5.21-3.83,11.16-3.94,22.89-1.06,34.5a14.33,14.33,0,0,1,.32,5.37c-3.3-11.42-11.73-21.22-11-33.79.31-5.2,2.17-10.29,3.21-15.46a.66.66,0,0,1-.37.05,17.59,17.59,0,0,0-3.33-.06.5.5,0,0,1-.46-.33l-1.77-.08c-.77-3.12-1.53-6.25-2.3-9.38-1.31-5.35-2.42-10.77-4-16-.44-1.41-2.44-2.33-4.38-4.07-1.71,2.4-3.57,4-4.13,6-1.45,5.1-2.23,10.37-3.45,15.54-.67,2.84-1.68,5.6-2.54,8.39l-1.64-.18a.58.58,0,0,1-.53.18h-.5a3.7,3.7,0,0,0-.55.14l-.26.1-.1,0-.12.05-.45.22a.43.43,0,0,1-.41.25.45.45,0,0,1-.44-.3h0a36.14,36.14,0,0,1,.27,28.75c-2.81,7-5.69,14-8.66,21.37a19.69,19.69,0,0,1,0-4.43c3.64-14.86,2.3-28.88-1.83-42.39a.52.52,0,0,1-.31.12l-.34,0h-.1l-.14,0-.61.1a10.55,10.55,0,0,1-1.13.12l.05.11-.09-.11-.2,0a.51.51,0,0,1-.5-.5.48.48,0,0,1,.07-.24C165.93,141,156.66,130,146.92,119.36c-9-9.81-15.19-20.81-17-33.87l5.71-4.09c0-6.09-2.71-9.81-7.46-10.83s-9.89.92-11.1,4.49c-1.74,5.15,1.57,7.62,5.38,9.36,1.74,15.93,7.12,30.06,17.47,42,5.57,6.39,11.93,12.09,17.56,18.42,4.09,4.6,7.93,9.54,9.41,16-7.69-5.73-15.09-11.43-22.57-16.89a12.3,12.3,0,0,1-2-.44c-.79-.24-1.55-.65-2.35-.84a13.26,13.26,0,0,1-2.32-.55,5.84,5.84,0,0,0-1.28-.43l-1.05-.13c10.05,5.88,19.87,18.6,20.22,26.62a1.13,1.13,0,0,0-.1-.13.08.08,0,0,1,0,0s0,0,0,0a.39.39,0,0,1,0,.16.5.5,0,0,1,0,.13c.28.82.36,1.69.57,2.55a28.82,28.82,0,0,0,1,3.55.39.39,0,0,1,0,.41c0,.35,0,.71.06,1.06A67.79,67.79,0,0,1,161.9,191c2.42,11,4.34,22.16,8,32.74,3.35,9.72,9.25,18,22,16.8.73,1.65,1.72,3.06,2,4.59,1.11,6.7,2.62,13.41,2.89,20.15.86,22.13,1.29,44.28,1.78,66.43.17,7.41,0,14.83,0,23.31-7.31-8.42-11.61-17.39-12.57-27.31-1.38-14.22-1.44-28.56-2.22-42.84-.67-12.13-1.49-24.28-7-35.43-3.82-7.74-9.39-13.74-18-16.21-6.09-1.76-11.63-.48-16,4.16-5.44,5.77-6.68,17.53-2.55,24.32.86,1.41,2.78,2.16,4.22,3.22l1.35-1c0-2.12-.6-4.48.14-6.29,1.17-2.89,2.64-6.42,5.06-7.82,3.25-1.89,6.16,1.2,7.47,4.05,2.2,4.77,4.64,9.78,5.2,14.88,1.56,14,2,28.18,3.22,42.26,1.29,15.48,6.57,29.35,17,41.1a34.7,34.7,0,0,0,16.3,10.08V631.46h9.59v-269a31.22,31.22,0,0,0,9.34-4.79c12.94-9.09,20.2-22.22,22.44-37.49,2-13.77,1.72-27.88,3.38-41.72,1-7.94,3.5-15.74,5.91-23.41,1-3.28,3.53-6.35,7.83-5.53,4,.75,4.75,4.24,5.36,7.55.45,2.4.62,4.86,1.1,8.8,2.13-1.93,4.08-2.89,4.6-4.35a37.65,37.65,0,0,0,2.19-10c.47-7.33-2.05-13.42-8.81-17.11s-12.83-1.83-18.72,2c-11.21,7.34-15,19-16.37,31.14-1.56,14.36-1.63,28.89-2.2,43.35-.46,11.54-1.76,22.89-7.16,33.32-1.82,3.51-4.22,6.73-6.35,10.08a56.26,56.26,0,0,1-.67-11c.68-28.64,1.3-57.28,2.17-85.92.18-5.89,1-11.84,4.65-17.23,10.29,1.85,15.92-4.43,19.5-12.25,3.41-7.45,5.56-15.53,7.72-23.48,2.34-8.61,3.64-17.52,6.16-26.06.13-.43.29-.85.44-1.27a35,35,0,0,1,.4-4.09c.34-2,1.38-3.9,1.54-5.95l-.9,1c2.4-11,11.26-21,21.37-26.14l-.06,0a24.36,24.36,0,0,0-5.26,1.66,45.87,45.87,0,0,0-4.85,2.32c-1.46.84-2.75,1.93-4.12,2.9a21.45,21.45,0,0,1-4.35,2.46.42.42,0,0,1-.29,0q-6.42,4.78-12.83,9.58c1.79-4.35,3.81-8.89,6.85-12.59a200.75,200.75,0,0,1,15.32-16.37c13.44-13.11,20.13-29.37,22.65-47.48C293,81.37,294.62,77.56,292.38,74Z"/></svg>