<svg id="Layer_1" data-name="Layer 1" xmlns="http://www.w3.org/2000/svg" viewBox="0 0 293.23 642.94"><path d="M140,139.82c-3.12,33.65,9.7,60.78,33.15,83-2.4-13.28-5.41-27.21-7.3-41.29-1.87-13.89-4.14-27.88-1.34-42.07,1.66,47.46,14.14,92.8,25.87,138.28l2,0c.41-14.85,1.86-29.76.94-44.52-.88-14-4.69-27.7-6.38-41.63-2.2-18.07.95-35.75,5.54-53.2a6.22,6.22,0,0,1,.8-1.85c.2-.29.73-.36,1.88-.86,0,1.71.3,3.18-.05,4.47-6.85,25.75-6.37,51.32-1.16,77.5,2.92,14.66,2.67,30.3,1.62,45.34-1.44,20.7.85,40.65,5.6,60.72,9.8,41.36,16.54,83.29,18.73,125.77,1.56,30.42,2,60.91,2.54,91.38.19,10-.72,20-1.2,30-.05,1-.59,1.94-2.5,2.93a44.66,44.66,0,0,1-.66-5.24c-.29-39.57.9-79.21-1.14-118.68-2.85-55-13.5-109-27.38-162.23-4.68-17.95-9.08-36.12-15.77-53.36-3.91-10.07-11.31-19.16-18.52-27.49C140.15,189.33,136.06,164.26,140,139.82Z"/><path d="M183.61,95.83c-3.78,8.59-7.23,17.35-11.47,25.71-2.14,4.21-13.95,4-16-.24-3.62-7.72-7.21-15.63-9.27-23.84-2.11-8.38,5-19.54,12.9-22.64C168,71.59,180.6,80.88,181.74,91c.15,1.35.15,2.71.21,4.07Z"/><path d="M226.92,50.89c4,2.8,9.24,4.79,11.72,8.58,4,6.15,1.65,16.74-3.84,22A43,43,0,0,1,210,93.18c-4.57.6-11.65-6.57-10.18-10.81a146.12,146.12,0,0,1,9.58-22.26C212.71,54,219.09,52.37,226.92,50.89Z"/><path d="M131.46,85.33c-5.08,3.44-8.72,7.93-11.75,7.54-6.73-.84-13.5-3.45-19.63-6.57C90.8,81.55,87.4,73.57,88.6,63.79c.74-6,3.74-9.45,9.58-10.65,8.1-1.65,15.94-.9,20.53,6.54C123.6,67.6,127.09,76.38,131.46,85.33Z"/><path d="M154.81,129.83c-4.85-3.16-9.57-5.75-13.68-9.08a41.73,41.73,0,0,1-7.48-8.7c-3.69-5.27-.62-14.85,5.42-17,1-.36,3.39.49,3.7,1.33C146.75,107,150.48,117.65,154.81,129.83Z"/><path d="M173.27,129l14.46-34.09c8.89,3.27,11.84,11.24,6.19,18.67C188.63,120.58,182.42,126.49,173.27,129Z"/><path d="M151,134c-8.82-2-17.79-3.59-26.42-6.29-2.36-.74-5.45-5.06-5.11-7.26.56-3.6,3.58-6.86,5.87-10,.14-.2,3.26,1.2,4.48,2.39C136.63,119.5,143.31,126.33,151,134Z"/><path d="M177.84,133.82c7.28-7.38,14.21-14,20.61-21.11,2.61-2.9,4.22-3.42,7-.58,7.13,7.25,6,13.6-3.75,16.61C193.82,131.16,185.52,132.24,177.84,133.82Z"/><path d="M135,87,121.55,54.46c7.87-4.08,15.47-.56,16.67,8.45C139.3,71,138.91,78.94,135,87Z"/><path d="M122.71,99.33c-9.49,4.34-18.91,5-28,2-7.77-2.53-5.25-9.83-5.39-15.88Z"/><path d="M207.08,54.3c-4.45,10.76-8.73,21.08-13.5,32.61-1.15-3.22-2.69-6-3.08-9A70.12,70.12,0,0,1,190.21,65C190.75,54.69,197.23,50.75,207.08,54.3Z"/><path d="M238.79,85.58c2.38,12.4-1,17.12-12.82,17.12-6.47,0-12.94-1.22-19.4-1.89L206.8,99Z"/><path d="M205.14,105.28c10.23,0,19.57-.07,28.92.08,1.49,0,4.3,1.21,4.25,1.54-.52,3.69-.67,7.87-2.64,10.73-1.12,1.64-6.09,2.39-8.16,1.3C219.8,114.89,212.57,109.92,205.14,105.28Z"/><path d="M186.47,86.59c-4.37-7.42-9.05-14.68-12.88-22.37-.9-1.8.29-6.39,1.89-7.3,3.05-1.74,7.08-1.84,10.75-2.3a13,13,0,0,1,1.09,4.59c.12,8.68.06,17.35.06,26Z"/><path d="M141.05,85.82c0-8.85-.07-17.7.07-26.55,0-1.62,1-4.65,1.4-4.62,3.48.27,7.3.38,10.24,2,1.7.92,3.35,5,2.64,6.73a121.17,121.17,0,0,1-9.09,16.55C144.82,82.29,142.54,84.18,141.05,85.82Z"/><path d="M122.69,105.46c-6.85,4.62-12.32,9.05-18.47,12.13-3.09,1.55-9.19,2.27-10.77.52-2.62-2.92-2.69-8.12-3.91-12.65Z"/><path d="M200.82,101.09l-8.79-9,.2-2c2.72.39,6.36-.15,7.91,1.41,2,2,2.29,5.64,3.32,8.58Z"/><path d="M156.66,132c2.21-1.51,4.24-3.76,6.68-4.36,4.35-1.06,7.09,1.37,8.43,6.13H157.68Z"/><path d="M136.68,91.82l-11.29,10.09c.93-4.28.73-8,2.49-10,1.54-1.75,5.31-1.54,8.09-2.19C136.2,90.4,136.44,91.11,136.68,91.82Z"/></svg>