<svg id="Layer_1" data-name="Layer 1" xmlns="http://www.w3.org/2000/svg" viewBox="0 0 410.18 708.82"><defs><style>.cls-1{fill:#231f20;}</style></defs><path class="cls-1" d="M326.32,178.29l.05.08L324.86,176v0l-1.14-1.13.14.14-1.14-1.14.14.13-1.13-1.13.13.14-1.15-1.14.15.14-1.15-1.15.05.14a54,54,0,0,0-5.21-2.74c-4.45-1.81-6.06-4.87-5.63-9.71.28-3.17-.66-6.45-1.05-9.68-4.45-4.44-8.75-8.94-15.47-10-5.6-.92-11.76.43-17.52,3.34a.54.54,0,0,1-.17.08,40.81,40.81,0,0,0-3.66,2.12,40.81,40.81,0,0,1,3.66-2.12l0,0A24.19,24.19,0,0,0,269.4,144a50.17,50.17,0,0,0-4.85,2.32c-1.46.84-2.76,1.93-4.13,2.91a21.07,21.07,0,0,1-4.34,2.45.37.37,0,0,1-.29,0L243,161.23c1.8-4.35,3.82-8.89,6.85-12.59a204.2,204.2,0,0,1,15.32-16.37c13.44-13.11,20.13-29.37,22.66-47.47,5.22-3,6.87-6.83,4.63-10.4s-8.54-4.75-13.09-2.45c-4.75,2.41-6,5.94-3.8,11.25L280,85.66a57.75,57.75,0,0,1-13.56,30.25C256,128.36,245.5,140.73,235,153.13l-.56,1.5h0a.51.51,0,0,1-.12.23.58.58,0,0,1-.35.15,2.55,2.55,0,0,1-1.35-.33,3.17,3.17,0,0,1-.93-.78.51.51,0,0,1-.21-.58h0a.14.14,0,0,1,0-.07c4-10.85,8.63-21.47,13.43-32,7.6-16.67,12.73-33.64,8.81-52.13-.63-3-2.5-5.7-3.8-8.54l-2.31,0q-3.24,6.67-6.48,13.35c-12.39-.2-16.34,12.49-10.19,30.83a22.24,22.24,0,0,1-1.92,3c-7.4,8.26-9.14,17.59-6.57,28.36.89,3.72-.45,8.06-1.16,12,0,.08,0,.15-.05.23a.5.5,0,0,1,.1.44.47.47,0,0,1-.25.3.64.64,0,0,1-.36.05,17.62,17.62,0,0,0-3.33-.06.52.52,0,0,1-.47-.33l-1.76-.07q-1.16-4.69-2.3-9.39c-1.31-5.35-2.43-10.76-4-16-.44-1.41-2.44-2.33-4.39-4.07-1.7,2.4-3.56,4-4.13,6-1.44,5.1-2.23,10.38-3.44,15.54-.67,2.84-1.68,5.6-2.54,8.4l-1.64-.18a.58.58,0,0,1-.53.17h-.5a3.87,3.87,0,0,0-.56.15l-.25.1-.11,0-.11.05-.45.23a.47.47,0,0,1-.41.24.45.45,0,0,1-.44-.29h0a.93.93,0,0,1,0-.1l-.29-.69a20.65,20.65,0,0,1-1.14-15c2.58-9.17.32-17.38-5.68-24.68-1.24-1.5-2.27-3.17-3.25-4.56,1-3.53,2-6.53,2.66-9.61,2.38-11.85-1.69-18.67-12.4-21.08a4.18,4.18,0,0,1-1-.65C165.68,69.44,166.83,63,160,60.67c-1.09,2.12-2.78,4-3,6-.81,7.72-2,15.54-1.48,23.22,1,14.53,7.6,27.35,14.1,40.13a144.7,144.7,0,0,1,9.25,22.05.53.53,0,0,1,.47.5.47.47,0,0,1-.2.38l-.74.17-.14,0-.61.1c-.38.05-1.31.13-1.37.13-.28,0-19.56-23-29.29-33.64-9-9.82-15.19-20.82-17-33.88l5.72-4.08c0-6.09-2.71-9.82-7.47-10.84s-9.88.92-11.09,4.49c-1.75,5.15,1.57,7.62,5.37,9.36,1.75,15.94,7.12,30.06,17.48,42,5.56,6.4,11.92,12.09,17.56,18.42,4.09,4.6,7.92,9.55,9.41,16-7.7-5.74-15.09-11.43-22.58-16.89a15,15,0,0,1-2-.44c-.8-.25-1.55-.66-2.36-.85a13.24,13.24,0,0,1-2.32-.54c-.42-.18-2.83-.74-2.87-.88a22.79,22.79,0,0,0-6.87-2.63c-13.47-2.43-24.17,3.79-26.68,16-.66,3.21-.45,6.6-.68,10.7-3.1,1.88-6.24,3.7-9.29,5.66-5.69,3.65-9.25,8.84-9.13,15.64.13,7.25,1.83,14.52,7.06,19.74,4.47,4.48,5,9.12,4.43,14.9-.7,7.51.86,14.59,7.48,19.51,5.19,3.87,9.42,3.3,11.29-2.74,1.78-5.72,1.79-12,2.6-18,.25-1.82.6-3.63.9-5.45l1.51-.72,9.75,8.28c5.63-2.78,6-7.7,5.42-12.5-.71-5.91-2.3-11.69-3.32-17.57-.28-1.66.12-3.43.25-6.12l9.74,5.95c0-3.65.61-6.24-.12-8.38-1.64-4.85-4.38-9.34-5.78-14.23-.78-2.73-.86-7.07.75-8.69,1.85-1.85,6-2.29,9-1.88s5.77,2.37,8.25,4.2c1.59,1.18,4.12,5.15,4.13,5.18s.37,2.08.58,2.93c.29,1.2,1.07,3.86,1,4,0,.36,0,.71.07,1.06a67.77,67.77,0,0,1,4.82,15.06c2.43,11,4.35,22.16,8,32.74,3.34,9.73,9.24,18,22,16.8.73,1.65,1.72,3.06,2,4.6,1.12,6.69,2.63,13.4,2.89,20.15.86,22.13,1.29,44.28,1.79,66.42.16,7.42,0,14.84,0,23.31C191.23,347,186.93,338,186,328.09c-1.38-14.22-1.43-28.56-2.22-42.84-.66-12.13-1.48-24.28-7-35.43-3.83-7.73-9.4-13.74-18-16.21-6.08-1.75-11.62-.48-16,4.16-5.45,5.77-6.68,17.54-2.55,24.32.85,1.41,2.78,2.16,4.21,3.22l1.36-1c0-2.11-.6-4.47.14-6.29,1.16-2.88,2.63-6.42,5.05-7.82,3.25-1.89,6.17,1.21,7.48,4.05,2.19,4.77,4.63,9.78,5.2,14.89,1.55,14,2.05,28.18,3.22,42.26,1.29,15.47,6.56,29.34,17,41.09a34.69,34.69,0,0,0,16.29,10.09V631.87h9.6v-269a31.49,31.49,0,0,0,9.33-4.78c12.94-9.1,20.2-22.23,22.45-37.49,2-13.78,1.72-27.88,3.38-41.73.95-7.93,3.49-15.73,5.9-23.41,1-3.28,3.53-6.34,7.83-5.53,4,.75,4.75,4.25,5.37,7.55.45,2.41.62,4.86,1.1,8.8,2.13-1.93,4.08-2.88,4.6-4.34a37.7,37.7,0,0,0,2.18-10.05c.47-7.33-2.05-13.41-8.8-17.11s-12.84-1.82-18.72,2c-11.21,7.34-15,19-16.37,31.15-1.57,14.35-1.63,28.88-2.2,43.34-.46,11.54-1.76,22.89-7.17,33.32-1.82,3.51-4.21,6.73-6.34,10.08a54.67,54.67,0,0,1-.67-11c.68-28.64,1.3-57.28,2.17-85.92.18-5.89,1-11.84,4.65-17.22,10.29,1.85,15.91-4.44,19.5-12.26,3.41-7.44,5.56-15.53,7.71-23.48,2.34-8.61,3.64-17.51,6.17-26.06.13-.43.29-.84.44-1.26a34.91,34.91,0,0,1,.4-4.1c.33-2,1.38-3.89,1.54-5.95h0c0-.13,0-.26,0-.39a.5.5,0,0,1,.73-.43c5.59-5.94,11.48-10.54,20.2-7.11,3.17,4.67,2.52,8.59-.32,12.38-.38,0-1.14,1.46-1.13,2.19h0l.12,0c-1.59,5.32-5.51,10.14-3.5,16.23l0,0c3.81,2.74,5.46-2.14,8.42-2.39l-.13.15.62-.56.56.51h0l-.56-.51-.62.56h1.19c.32,1.19,1,2.43.78,3.53-1.09,6.52-2.77,13-3.51,19.51a11.6,11.6,0,0,0,5.25,11.62l10.2-8.51c3.38,3.65,1.86,7.68,2.43,11.28.67,4.22.81,8.65,2.29,12.58,2.39,6.37,7.69,7.26,12.51,2.41,5.62-5.67,7.6-12.56,6.61-20.54-.36-2.92-.28-6.43,1-8.91,2.38-4.47,5.85-8.37,8.86-12.51l0,.08.14-1.16-.14-.12A26.72,26.72,0,0,0,326.32,178.29Zm-73-9.87Zm20.52,5.43c0-.62.64-1.92,1-1.95h0l0,0Z"/></svg>