<svg id="Layer_1" data-name="Layer 1" xmlns="http://www.w3.org/2000/svg" viewBox="0 0 461.86 642.94"><defs><style>.cls-1{fill:#231f20;}</style></defs><path class="cls-1" d="M194.48,278.2l-.15.08c0-.13,0-.27,0-.41Z"/><path class="cls-1" d="M264.41,275.68Z"/><path class="cls-1" d="M412.48,277.32l-.19.07-4.33-3c-2.45-.94-5-1.73-7.34-2.85-16-7.58-32.21-11.27-49.38-3.78-2.63,1.14-5.59,1.49-8.4,2.2l-3,1.49-5.79,3.18.1-.22-3.2,1.69-.11-.07c-10.86,9.62-23.4,10.55-36.72,6.91-3.72-1-7.37-2.31-11-3.56a.55.55,0,0,1-.18-.06l-1.9-.64-.44.49c11.54,8,24.73,10.17,38.34,10.16a81.3,81.3,0,0,1,39.31,10.35,64.36,64.36,0,0,1,5.59,3.77l-.78,1.61c-14.61-10.24-31.35-11.44-48.19-12.07-13-.49-25-4.33-36.32-10.63-4.33-2.4-9-4.25-13.47-6.33.5.87.91,1.92,1.66,2.3,4.1,2.08,8.17,4.23,12.24,6.37l0,0c7.85,4.1,15.72,8.14,23.89,11.44,9.6,3.87,18.27,8.51,24.72,16.53,5.68,7.07,10.81,14.58,16.05,22,6.21,8.82,13.81,16,23.82,20.25,3.13,1.33,6.69,1.64,10.54,2.53l-3.38-13.37,9.53-2-3.79-11.5,14.17-5.7-4-8.12c2.87-1.6,5.44-2.54,7.32-4.24,1.13-1,1.17-3.23,1.7-4.91h.06l-.48-2.13c-2.34-2.62-2.51-4.71,1.43-5.79l3-1.47,4.48-3c-1.15-1.63-2.28-3.28-3.45-4.9-1.71-2.34-3.45-4.65-6.27-8.43l12.51-3.06-.06.16Z"/><path class="cls-1" d="M204.33,276.05a47.85,47.85,0,0,0-5.26,2.64c-16.49,10.39-34.56,15-54,15-11.09,0-21.25,3.53-30.94,8.68-2.4,1.27-4.92,2.3-7.38,3.44L106,304.1a49.31,49.31,0,0,1,30-13.38c19.9-1.92,40.17-1.68,58.17-12.36-3.38.63-7,.71-10.08,2v0a.75.75,0,0,1-.74.74.68.68,0,0,1-.54-.25c-14.08,5.7-27.64,5.31-41.19-2.42a160,160,0,0,0-21.94-10.41c-21.65-8.29-41.2-3.1-59.55,9.63l12,5.13-8.69,11.42L74.86,301l-4,9.64,9.5,6.27c-1.81,3.31-3,5.55-4.35,7.93l14.91,6C89,335.45,87.55,339,86,342.6l9.71.55c-.84,4.78-1.59,9-2.49,14.1,3-.57,6.2-.37,8.44-1.74,6.63-4.08,13.78-7.92,19-13.45,6.71-7.06,11.8-15.67,17.56-23.63,8.35-11.56,19.21-19.48,33-23.38a86.53,86.53,0,0,0,13.15-5.12h0c9.72-4.62,19.36-10.76,22.73-14.89C206.09,275.42,205.17,275.66,204.33,276.05Z"/><path class="cls-1" d="M403.57,225.63l-3-1.29c-1.06-.54-2.11-1.09-3.16-1.64l.2.22-6.28-2.63c.72-4.82,1.36-9,2-13.53L381,204.53l-1.1-4.75c0-.05-.09-.09-.13-.15a.68.68,0,0,1,0-.62c-.6-2.58-1.15-5-1.71-7.44l-10.75-1.89c-1.58-3.65-3.16-7.33-4.43-10.27h-13.1c-1-3.3-1.78-6-2.56-8.69-7.84,1.84-11.2,4.93-13,11.93-1.17,4.5-2.14,9-3.05,13.61-5.27,26.27-19.1,44.57-46.25,51.45-7,1.78-13.34,6-20,9.13,8.26-.4,15.78-2.56,23.44-3.52,14.84-1.85,27.05-8,36.89-19.35,9.5-10.92,22.5-15.36,36.13-18.28,1.53-.33,3.3.49,4.95.77-16.61,4-30.74,11.07-41.8,23.86-8.41,9.72-19.21,14.83-31.9,16.6-7,1-13.8,2.88-20.69,4.37l.28,3.08c10.86,0,22,1.38,32.68.42l.08,0h0a59,59,0,0,0,7.15-1.07c10.45-2.25,19.65-10.28,29.41-15.75,18.34-14.72,38.34-22,62.2-12.49l2-6.08Z"/><path class="cls-1" d="M143.2,237.12c-7.6-9.1-18-14.2-29.38-17.28-3-.82-6.08-1.57-9.12-2.35l.34-1.83c2,.16,4,.18,6,.5,15.69,2.52,27.94,10.89,39.2,21.77,5.49,5.29,12.44,10.09,19.6,12.39,11.39,3.68,23.51,5.08,35.32,7.44a94.22,94.22,0,0,0-24-11.74c-19.17-5.85-31.84-17.93-37.71-37-2.81-9.11-4.84-18.46-7.47-27.63-2.16-7.54-5.87-10.16-12.71-9.71-.83,2.73-1.66,5.42-2.56,8.35l-13.1-.73c-1.22,3.71-2.35,7.12-3.48,10.54l-11.55,2.25L89.81,204.4l-1,.2a1.09,1.09,0,0,1-.31.08h0l-11.36,2.24c1,4.89,1.91,8.91,2.7,12.56-3.45,5.82-14.41,3.21-13.16,14.42,3.47-.59,6.25-1.28,9.06-1.52,6.54-.54,13.19-1.8,19.62-1.11,14.42,1.55,26.61,8.85,37,18.37,10.26,9.38,21.25,14.14,32.83,15.59a.7.7,0,0,1,.75,0l.18.14c10.46,1.14,21.4-.37,32.71-3.58a68,68,0,0,0-14.05-3.57C168.22,256.35,154.15,250.24,143.2,237.12Z"/><path class="cls-1" d="M200.82,245.11C186,236,180.91,221.18,177.25,205.3c-2.57-11.18-5-22.59-9.56-33-3.36-7.76-9.95-14.12-15.38-21.49l9.48-.77c2.79-7.12,7.55-10.48,15.88-9.09,2.82.48,6.3-3,9-4.48l21.65-3.3L225,136.26c-.6,2.86-1.06,7.45-2.56,11.67a63.83,63.83,0,0,0-2.23,36.17c3.68,16.35,3.06,32.54-1.15,48.84-1.91,7.38-1.76,15.29-3.74,23.22-.82-5.35-2.67-10.78-2.26-16,1.71-22-4.19-42.83-7.94-64-1.4-7.92-1.27-16.12-1.79-24.19-.11-1.73,0-3.48-.89-5.24-4.39,8.75-3.38,18-2.13,27s4.22,17.65,5.5,26.6c1.65,11.61,2.42,23.34,3.5,35a56.36,56.36,0,0,1-.18,14.69c-3.78-7.26-8.69-14.17-11.08-21.86-4.7-15.17-7.74-30.83-12-46.15a83.16,83.16,0,0,0-9.13-20.53c9.42,27.44,9.59,57.52,24.26,83.35Z"/><path class="cls-1" d="M255.51,257.86c-2.58-14.69-6.08-27.55-6.77-40.56-.67-12.59.81-25.45,2.72-38,1.66-10.87,0-20.94-3.09-31.12-1.33-4.34-2.22-8.81-3.08-12.28l17.71-2.7,20.48,3.12-.24,1.22c5.16,1,10.58,1.32,15.4,3.19,4,1.53,7.25,4.88,10.84,7.42-.23.54-.47,1.08-.71,1.62l9.88,1.05c0,.73.2,1.45,0,1.63-18.19,13.9-22,34.61-25.82,55.16-2.93,15.84-10.12,28.72-23.68,38,16.09-25.74,14.37-56.85,26.4-83.79l-2-1c-1.85,3.57-4.39,7-5.43,10.75-3.68,13.45-6.15,27.25-10.41,40.5-3.72,11.56-9.19,22.56-14,33.76a7.81,7.81,0,0,1-1.94,2.35c-3.71-27.59,5.7-54.1,9.15-81.38.82-6.44-.48-13.16-2.11-19.71,0,18.86-5.06,36.7-8.22,54.9C257.51,219.88,257.18,238.22,255.51,257.86Z"/><path class="cls-1" d="M280.59,279.18,278.42,277l-.18.14,2.79,1.51Z"/><path class="cls-1" d="M264.86,275.68h-.45l.28.19Z"/><path class="cls-1" d="M194.33,278.33v-.46l.14.33Z"/><polygon class="cls-1" points="278.42 277.04 277.8 277.23 278.24 277.18 278.42 277.04"/><path class="cls-1" d="M201.17,244.76l1.08,1-.55.5-.88-1.16Z"/></svg>