<svg id="Layer_1" data-name="Layer 1" xmlns="http://www.w3.org/2000/svg" viewBox="0 0 461.86 642.94"><defs><style>.cls-1{fill:#231f20;}</style></defs><path class="cls-1" d="M389.57,164.56c-.65-2.25-5-3.32-7.46-5.19-3.35-2.53-6.45-5.38-9.76-8-3.08-2.41-6.22-4.74-9.44-7q-5.24-3.57-10.67-6.84c-3.39-2.06-6.72-4.39-10.4-5.73-2.64-1-5.81-.51-7.06-.58L315,116.78c-9.94,2.94-10.93,12-15,19.3l-10.35,1.15c3.53-10.61,6.54-19.63,9.8-29.42l-11.24-.58c-10.15-6.91-10.15-6.91-24.79-3-19.07-8.85-37.38-8.74-52.86-1.34-9,0-15.25-.79-21.21.24-5.25.9-10.15,3.84-17,6.62-2.28,8.62,9.22,15.89,7.23,27.21l-9-1.33c-4.59-7.15-4.6-16.52-14.74-19l-19.79,14.64a4,4,0,0,1-2.44.48c-7.55-.68-13.21,1.68-17.3,8.49-1.28,2.12-4.86,3.73-7.52,3.94-5.43.44-7.92,3.56-10.8,7.61-2.32,3.26-6.5,5.2-9.88,7.7-2.48,1.83-6.48,3.14-7.22,5.49-2.11,6.72-5.65,11-14.27,11.45,2.17,3.28,3.21,5.85,5.08,7.45,3.71,3.19,8.1,5.6,11.78,8.83,1.61,1.41,2.51,3.63,3.83,6a.76.76,0,0,1,.82.33,9.05,9.05,0,0,1,1.08,4.9.73.73,0,0,1-.43.66l1-.2,2.77-12.28,11.55-2.25c1.13-3.42,2.26-6.83,3.48-10.54l13.1.73c.9-2.93,1.73-5.62,2.56-8.35,6.84-.45,10.55,2.17,12.71,9.71,2.63,9.17,4.66,18.52,7.47,27.63,5.87,19,18.54,31.12,37.71,37a94.22,94.22,0,0,1,24,11.74c-11.81-2.36-23.93-3.76-35.32-7.44-7.16-2.3-14.11-7.1-19.6-12.39C139,227.05,126.7,218.68,111,216.16c-2-.32-4-.34-6-.5l-.34,1.83c3,.78,6.09,1.53,9.12,2.35,11.38,3.08,21.78,8.18,29.38,17.28,11,13.12,25,19.23,41.55,21.07a68,68,0,0,1,14.05,3.57c-11.31,3.21-22.25,4.72-32.71,3.58,2.24,1.54,4.15,3.5,6.26,5.22,2.89.84,5.87,3.21,9.66,5.08l-.21.1a.29.29,0,0,1,.13.08,6.6,6.6,0,0,1,1.51,2,5.92,5.92,0,0,1,.68,2.56c3.08-1.32,6.7-1.4,10.08-2C176.2,289,155.93,288.8,136,290.72a49.31,49.31,0,0,0-30,13.38l.75,1.75c2.46-1.14,5-2.17,7.38-3.44,9.69-5.15,19.85-8.68,30.94-8.68,19.4,0,37.47-4.65,54-15a47.85,47.85,0,0,1,5.26-2.64c.84-.39,1.76-.63,2.9-1-3.37,4.13-13,10.27-22.73,14.89,0,0,.06,0,.08,0h0a.74.74,0,0,1,.14,0h.06l.08,0a.7.7,0,0,1,.14,0h.06a15.1,15.1,0,0,1,5.88-1.13,15.68,15.68,0,0,1,4.85.73l1.76-.7,20,6.27,3.62,15.83c-9.93-1.83-11.6-1.44-16.14,3.75,8.34,4.3,9.87,12.45,10.36,20.47.62,10.25,3.8,18.65,13.28,24.26v24.85c-6.65-6.83-11.34-15-22.18-17,1.74,17.16,6.81,30.7,22.48,36.56V553.31h14.19V403c14.59-6.52,19-19.7,21.32-35.83-11.6,1.75-16.16,11.14-23.81,18.31.73-9.91,1.36-18.42,1.83-24.82a3.59,3.59,0,0,0,.26-.46c8.23-5.6,11.08-13.6,11.67-23.24,4.08-6.11,2-16.17,10.36-20.47-4.2-4.8-6-5.49-14-4.12,1.19-8.8,2.12-15.71,2.5-17.24l20.12-6.53h0c1.47-1.27,3.18-2.24,4.55-3.6a.53.53,0,0,1,.1-.06.67.67,0,0,1,.57-.3.65.65,0,0,1,.29.06c-4.07-2.14-8.14-4.29-12.24-6.37-.75-.38-1.16-1.43-1.66-2.3,4.51,2.08,9.14,3.93,13.47,6.33,11.33,6.3,23.3,10.14,36.32,10.63,16.84.63,33.58,1.83,48.19,12.07l.78-1.61a64.36,64.36,0,0,0-5.59-3.77,81.3,81.3,0,0,0-39.31-10.35c-13.61,0-26.8-2.12-38.34-10.16h0l.44-.49c-.7-.37-1.39-.75-2.08-1.13h0c.69.38,1.38.76,2.08,1.13l1.9.65a.75.75,0,0,1-.32-.86.65.65,0,0,1,.34-.59c1.2-.52,2.28-1.29,3.42-1.92a7.66,7.66,0,0,1,3.77-1.23l.1,0c3-1.69,5.39-3.59,7.69-4.29a.7.7,0,0,1,.16-.14,18.58,18.58,0,0,0,6.15-5.28.55.55,0,0,1,.3-.18.77.77,0,0,1,.28-.08c-10.65,1-21.82-.42-32.68-.42l-.28-3.08c6.89-1.49,13.73-3.4,20.69-4.37,12.69-1.77,23.49-6.88,31.9-16.6,11.06-12.79,25.19-19.84,41.8-23.86-1.65-.28-3.42-1.1-4.95-.77-13.63,2.92-26.63,7.36-36.13,18.28-9.84,11.3-22.05,17.5-36.89,19.35-7.66,1-15.18,3.12-23.44,3.52,6.65-3.11,13-7.35,20-9.13,27.15-6.89,41-25.18,46.25-51.45.91-4.56,1.88-9.11,3.05-13.61,1.82-7,5.18-10.09,13-11.93.78,2.68,1.58,5.39,2.56,8.69h13.1c1.26,2.94,2.85,6.62,4.43,10.27L378,191.57c.56,2.43,1.11,4.86,1.71,7.44a.78.78,0,0,1,.3-.39,21.7,21.7,0,0,1,2.08-1.09,9.88,9.88,0,0,1,2-.61c4.59-8.42,16.91-10,19.22-20.71C395.55,176.08,391.66,171.74,389.57,164.56ZM222.42,147.93a63.83,63.83,0,0,0-2.23,36.17c3.68,16.35,3.06,32.54-1.15,48.84-1.91,7.38-1.76,15.29-3.74,23.22-.82-5.35-2.67-10.78-2.26-16,1.71-22-4.19-42.83-7.94-64-1.4-7.92-1.27-16.12-1.79-24.19-.11-1.73,0-3.48-.89-5.24-4.39,8.75-3.38,18-2.13,27s4.22,17.65,5.5,26.6c1.66,11.61,2.42,23.34,3.5,35a56.36,56.36,0,0,1-.18,14.69c-3.78-7.26-8.69-14.17-11.08-21.86-4.7-15.17-7.74-30.83-12-46.15a83.16,83.16,0,0,0-9.13-20.53c9.42,27.44,9.59,57.52,24.26,83.35l1.08,1-.55.5h0l.55-.5-1.08-1-.35.35C186,236,180.91,221.18,177.25,205.3c-2.57-11.18-5-22.59-9.56-33-3.36-7.76-9.95-14.12-15.38-21.49l9.48-.77c2.79-7.12,7.55-10.48,15.88-9.09,2.82.48,6.3-3,9-4.48l21.65-3.3L225,136.26C224.38,139.12,223.92,143.71,222.42,147.93Zm96.21,4.54c-18.19,13.9-22,34.61-25.82,55.16-2.93,15.84-10.12,28.72-23.68,38,16.09-25.74,14.37-56.85,26.4-83.79l-2-1c-1.85,3.57-4.39,7-5.43,10.75-3.68,13.45-6.15,27.25-10.41,40.5-3.72,11.56-9.19,22.56-14,33.76a7.81,7.81,0,0,1-1.94,2.35c-3.71-27.59,5.7-54.1,9.15-81.38.82-6.44-.48-13.16-2.11-19.71,0,18.86-5.06,36.7-8.22,54.9-3.1,17.85-3.43,36.19-5.1,55.83-2.58-14.69-6.08-27.55-6.77-40.56-.67-12.59.81-25.45,2.72-38,1.66-10.87,0-20.94-3.09-31.12-1.33-4.34-2.22-8.81-3.08-12.28l17.71-2.7,20.49,3.12c-.09.41-.17.81-.25,1.22,5.16,1,10.58,1.32,15.4,3.19,4,1.53,7.25,4.88,10.84,7.42-.23.54-.47,1.08-.71,1.62l9.88,1.05C318.65,151.57,318.85,152.29,318.63,152.47Z"/></svg>