<svg id="Layer_1" data-name="Layer 1" xmlns="http://www.w3.org/2000/svg" viewBox="0 0 461.86 708.82"><defs><style>.cls-1{fill:#231f20;}</style></defs><path class="cls-1" d="M277.27,368.86c19.08.57,38.72-7.59,48.72-23.1,4.47-6.94,8.17-14.37,12.32-21.52,4.53-7.84,10.57-13.84,18.12-17.54a38.88,38.88,0,0,0-5.59,3.36,30.14,30.14,0,0,1,15.05-3.79H366c1.28-.32,2.59-.61,3.95-.84,25.24-4.16,39.91-36.39,37.41-62-.72.42-1.61.63-1.93,1.17-8.78,14.85-22.62,20-39,21.22a91.38,91.38,0,0,0-17.28,2.79,47,47,0,0,0-12.26,8.8h0c-8.44,5.66-15.45,13.93-20.57,24.63-4.25,8.86-4.32,12-13.29,15.87,2.16-.94-1.84,1.22,0,0a13.05,13.05,0,0,1-5.28.78A.78.78,0,0,1,297,318c-.53.14-1.06.28-1.61.39,4.45-11.79,10-23.05,12.89-35,4.44-18.38,13.6-32.77,29.22-43.28a76,76,0,0,0,27.09-31c1.82-3.84,4.6-7.22,8.05-12.54l-3.33-5.93-5.88,4.65a25.8,25.8,0,0,1-1.68,13,64.12,64.12,0,0,1-24.14,28.2c-17.52,11.34-28,27.12-32.22,47.62-2.55,12.31-7.16,24.07-14.12,32.66-.08-1.7-.14-3.43-.19-5.18-.4-2.27-.94-4.52-1.37-6.78a.85.85,0,0,1-.73,0,68.78,68.78,0,0,0-2.06-22.26c-3.83-15.3-2.56-28.44,9.49-40.4,8.73-8.66,11.64-27.21,8.47-39.11-.13-2.49-.23-5-.19-7.48-4.24-13.47-9.62-26.9-1.62-42.06-2.62,0-3.91-.22-5.09,0-15.47,3.3-27.9,16.61-27.46,33a68.26,68.26,0,0,1-.21,7.61c0,.15.07.3.1.46a66.27,66.27,0,0,1,1.2,7.42l.06.63v-.06c-1.28,6.85-2.57,14.4-6.39,19.86A83.71,83.71,0,0,0,257,237.21c-1.62.72-3.23,1.44-4.87,2.11a.67.67,0,0,1-.64-.1l-.6.83c-1.11-11.4,2.93-21.23,7.72-30.76,4.47-8.9,6.79-18.31,4.7-27.9-2.42-11.15-.9-21.48,4.68-30.87,9.16-15.42,4.26-30.28-.46-45.3-.28-.91-2.06-1.35-4.63-2.9-1.38,3.09-3.9,6-3.34,8.18s4.17,3.58,6.44,5.33c5.74,9.32,5.29,19.35.41,29.25-5.56,11.27-8.48,22.67-6.08,35.55a45.41,45.41,0,0,1-3.28,26.6c-4.47,10.37-7.64,21.3-11,31a44.68,44.68,0,0,1,1-29.35c5.63-15.14,6.22-30.47-1-45s-15.7-28.49-22.91-41.42c-4.17,7.38-8.29,16.06-13.64,23.91-14.31,21-19.1,43-8.91,67.22a30.14,30.14,0,0,1-.64,24.45c-3.58-10.19-8-21.14-11.2-32.43-2.08-7.28-4.28-15.37-3.1-22.56a59.4,59.4,0,0,0-5.82-37.95c-5-9.83-5.4-19.9-.46-30l8.5-2.61c-2-3.68-3.6-6.71-5.56-10.34-2.35,2-3.6,2.6-3.86,3.45-4.44,14.49-9.54,28.91-.65,43.73A43.34,43.34,0,0,1,182.93,181c-1.88,9.16-.05,17.42,3.52,25.63,2,4.63,4.52,9.12,5.91,13.93,1.89,6.54,2.94,13.34,4.35,20l-2.07.48c-.23-.43-.45-.87-.68-1.31a.75.75,0,0,1-.6-.36c-1.55-2.4-4.05-4-6-6h0a86.13,86.13,0,0,0-4.5-7.95c-4.68-7.31-5.68-12-7.69-20.66.35,1.51-.37-1.54,0,0,0-.26,0-.53,0-.79a26.2,26.2,0,0,1,.5-6.61,32.37,32.37,0,0,0,.94-5.94c0-11.69-4-22.62-13.52-30.6-5.52-4.62-11.61-7.76-20.16-7.07,5.95,11.14,4.51,21.57,1.61,32-1,3.55-2.35,7-3.48,10.5-.32,1.28-.63,2.56-.83,3.87a20.44,20.44,0,0,0,.53,7.39c-2.32,14,1.06,26.88,11.44,37.6,9.27,9.56,9.9,20.36,8,32.54-1.51,9.67-2.66,19.61-2.14,29.33.06,1.11.16,2.19.28,3.26h0a14.57,14.57,0,0,0-.92,5.66.75.75,0,0,1-1,.73c.17.58.32,1.16.52,1.74-9.17-10.76-13.67-23.38-16.67-36.63-4-17.63-12.67-32.18-27.89-42.33S86,216.41,80.46,199c3.89-4.56.37-5.61-4.32-7.38L71.73,196c3.53,4.13,7.13,6.82,8.67,10.41,6.47,15,16.92,26.4,30.28,35.42,12.66,8.56,20.75,20.29,25.29,34.9,4.39,14.17,9.62,28.07,14.36,41.72a16.79,16.79,0,0,1-4.67-1.66.74.74,0,0,1-.87.37,18.18,18.18,0,0,1-8-5c-.56-.56-1.12-1.13-1.67-1.7.51.66,1.05,1.31,1.6,1.94a65.6,65.6,0,0,1-9.2-14.77c-6.92-14.28-18.59-23.08-34-26.82m0,0c.53.13,1,.28,1.55.42-1.9-1-3.78-2.12-5.64-3.22a28.31,28.31,0,0,1-5.26-1c-1.07-.29-2.12-.62-3.18-1l-2.77-.26c-15-1.34-28.06-6.27-36.45-19.85-.7-1.14-2.15-1.81-5-4.09,1.58,9.81,2,17.85,4.25,25.34,5.49,18.12,14.52,32.89,33.47,38,3.5-.06,7-.3,10.49-.21,10.15,3.05,17.32,10.3,22.87,19.46,4.56,7.52,8.36,15.53,13.26,22.81,9.37,13.92,22,21.7,39.61,21.48,7.23-.09,4.48-.36,11.63.82-3.82-.62,2.33.29-1.53-.18a22.19,22.19,0,0,1,2.68,1.1c1.28.62,2.55,1.33,3.84,2a56,56,0,0,1,7.16,2.21h0a.77.77,0,0,1,.51.21c12,4.7,25.7,14.26,30.76,27.83v77q-.08,8.93-.13,17.85a9.85,9.85,0,0,0,.13,1.52V606.7h15.41V404.2a9.64,9.64,0,0,1,.54-1c4.52-7.22,4.3-10.13,13.6-17.38,8.86-7.7,15.57-11.94,23.79-13.68,2.68-1.15,5.38-2.25,8.1-3.28M79.32,196.17l.42-.14c.2.86.39,1.73.59,2.6Zm3.53,108.15c.73.17,1.44.36,2.14.57C84.29,304.68,83.58,304.49,82.85,304.32ZM263.79,354h0Zm0-.13ZM303,198.1a2.15,2.15,0,0,0-.14-.26A2.15,2.15,0,0,1,303,198.1Z"/></svg>