<svg id="Layer_1" data-name="Layer 1" xmlns="http://www.w3.org/2000/svg" viewBox="0 0 293.23 683.12"><defs><style>.cls-1{fill:#231f20;}</style></defs><path class="cls-1" d="M113,64.69c2.91,1.56,4.88,2.39,6.6,3.57,10.78,7.43,38.21,40,44.21,52.41C148.34,112.88,118,80,113,64.69Z"/><path class="cls-1" d="M177.23,120.48c14-20.44,27.85-41.09,48.57-55.5l1.79,1.62C215.58,88.87,197.62,105.78,177.23,120.48Z"/><path class="cls-1" d="M102.67,128.9c-22.85,3.9-45.57,4.78-68-2.49l-.24-1.78c3.28-.77,6.53-2,9.84-2.23C60.64,121.21,85.63,123.92,102.67,128.9Z"/><path class="cls-1" d="M109.71,119.6c-14.77-17.66-25-42.44-23.29-55.86,3.39,4.69,6.5,8.13,8.58,12.1a113.86,113.86,0,0,1,7.57,17.64C105.34,102.06,107.37,110.88,109.71,119.6Z"/><path class="cls-1" d="M48.87,101.5C70,102.91,86.26,114,103.46,124.19,91.09,126.46,54.51,111.47,48.87,101.5Z"/><path class="cls-1" d="M195.68,66c-.19,20.54-10.86,36.65-21.76,52.67C178.08,99.85,181.73,80.8,195.68,66Z"/><path class="cls-1" d="M66.77,83.68c11.14.61,31.66,24.7,39.56,39.24C89.68,112.57,74.76,102.15,66.77,83.68Z"/><path class="cls-1" d="M145,66c13.89,14.52,17.53,33.24,21.54,51.81C155.52,102.14,145.31,86.14,145,66Z"/><path class="cls-1" d="M112.6,119.76c-5.73-18.88-10.29-46.13-3.77-53.59C115.48,72.94,118.48,100.83,112.6,119.76Z"/><path class="cls-1" d="M170.3,118.29c-4.33-17.47-7.78-34.94.12-52.36C178.3,83.43,174.68,100.86,170.3,118.29Z"/></svg>