<svg id="Layer_1" data-name="Layer 1" xmlns="http://www.w3.org/2000/svg" viewBox="0 0 461.86 642.94"><defs><style>.cls-1{fill:#231f20;}</style></defs><path class="cls-1" d="M412.48,277.32l-.19.07-4.33-3c-2.45-.94-5-1.73-7.34-2.85-16-7.58-32.21-11.27-49.38-3.78-2.63,1.14-5.59,1.49-8.4,2.2l-3,1.49-5.79,3.18.1-.22-3.2,1.69-.11-.07c-10.86,9.62-23.4,10.55-36.72,6.91-3.72-1-7.37-2.31-11-3.56a.55.55,0,0,1-.18-.06.73.73,0,0,1-.32-.85.65.65,0,0,1,.34-.59c1.2-.52,2.28-1.29,3.42-1.92a7.66,7.66,0,0,1,3.77-1.23l.1,0c3-1.69,5.39-3.59,7.69-4.29a1.07,1.07,0,0,1,.16-.14,18.58,18.58,0,0,0,6.15-5.28.55.55,0,0,1,.3-.18.77.77,0,0,1,.28-.08l.08,0h0a59,59,0,0,0,7.15-1.07c10.45-2.25,19.65-10.28,29.41-15.75,18.34-14.72,38.34-22,62.2-12.49l2-6.08-2.15-3.76-3-1.29c-1.06-.54-2.11-1.09-3.16-1.64l.2.22-6.28-2.63c.72-4.82,1.36-9,2-13.53L381,204.53l-1.1-4.75c0-.05-.09-.09-.13-.15a.68.68,0,0,1,0-.62.78.78,0,0,1,.3-.39,21.7,21.7,0,0,1,2.08-1.09,9.88,9.88,0,0,1,2-.61c4.59-8.42,16.91-10,19.22-20.71-7.71-.13-11.6-4.47-13.69-11.65-.65-2.25-5-3.32-7.46-5.19-3.35-2.53-6.45-5.38-9.76-8-3.08-2.41-6.22-4.74-9.44-7q-5.24-3.57-10.67-6.84c-3.39-2.06-6.72-4.39-10.4-5.73-2.64-1-5.81-.51-7.06-.58L315,116.78c-9.94,2.94-10.93,12-15,19.3l-10.35,1.15c3.53-10.61,6.54-19.63,9.8-29.42l-11.24-.58c-10.15-6.91-10.15-6.91-24.79-3-19.07-8.85-37.38-8.74-52.86-1.34-9,0-15.25-.79-21.21.24-5.25.9-10.15,3.84-17,6.62-2.28,8.62,9.22,15.89,7.23,27.21l-9-1.33c-4.59-7.15-4.6-16.52-14.74-19l-19.79,14.64a4,4,0,0,1-2.44.48c-7.55-.68-13.21,1.68-17.3,8.49-1.28,2.12-4.86,3.73-7.52,3.94-5.43.44-7.92,3.56-10.8,7.61-2.32,3.26-6.5,5.2-9.88,7.7-2.48,1.83-6.48,3.14-7.22,5.49-2.11,6.72-5.65,11-14.28,11.45,2.18,3.28,3.22,5.85,5.09,7.45,3.71,3.19,8.1,5.6,11.78,8.83,1.61,1.41,2.51,3.63,3.83,6a.76.76,0,0,1,.82.33,9.05,9.05,0,0,1,1.08,4.9.73.73,0,0,1-.43.66h0a1.09,1.09,0,0,1-.31.08h0l-11.36,2.24c1,4.89,1.91,8.91,2.7,12.56-3.45,5.82-14.41,3.21-13.16,14.42,3.47-.59,6.25-1.28,9.06-1.52,6.54-.54,13.19-1.8,19.62-1.11,14.42,1.55,26.61,8.85,37,18.37,10.26,9.38,21.25,14.14,32.83,15.59a.72.72,0,0,1,.75,0l.18.14c2.24,1.54,4.15,3.5,6.26,5.22,2.89.84,5.87,3.21,9.66,5.08l-.21.1a.29.29,0,0,1,.13.08,6.6,6.6,0,0,1,1.51,2,5.92,5.92,0,0,1,.68,2.56v0a.75.75,0,0,1-.74.74.68.68,0,0,1-.54-.25c-14.08,5.7-27.64,5.31-41.19-2.42a160,160,0,0,0-21.94-10.41c-21.65-8.29-41.2-3.1-59.55,9.63l12,5.13-8.69,11.42L74.86,301l-4,9.64,9.5,6.27c-1.81,3.31-3,5.55-4.35,7.93l14.91,6C89,335.45,87.55,339,86,342.6l9.71.55c-.85,4.78-1.59,9-2.49,14.1,3-.57,6.2-.37,8.44-1.74,6.63-4.08,13.78-7.92,19-13.45,6.71-7.06,11.8-15.67,17.56-23.63,8.35-11.56,19.21-19.48,33-23.38a86.53,86.53,0,0,0,13.15-5.12h0s.06,0,.08,0h0a.74.74,0,0,1,.14,0h.06l.08,0a.7.7,0,0,1,.14,0h.06a15.1,15.1,0,0,1,5.88-1.13,15.68,15.68,0,0,1,4.85.73l1.76-.7,20,6.27,3.62,15.83c-9.93-1.83-11.6-1.44-16.14,3.75,8.34,4.3,9.87,12.45,10.36,20.47.62,10.25,3.8,18.65,13.28,24.26v24.85c-6.65-6.83-11.34-15-22.18-17,1.74,17.16,6.81,30.7,22.48,36.56V553.31h14.19V403c14.59-6.52,19-19.7,21.32-35.83-11.6,1.75-16.16,11.14-23.81,18.31.73-9.91,1.36-18.42,1.83-24.82a3.59,3.59,0,0,0,.26-.46c8.23-5.6,11.08-13.6,11.67-23.24,4.08-6.11,2-16.17,10.36-20.47-4.2-4.8-6-5.49-14-4.12,1.19-8.8,2.12-15.71,2.51-17.24l20.11-6.53h0c1.47-1.27,3.18-2.24,4.55-3.6a.53.53,0,0,1,.1-.06.67.67,0,0,1,.57-.3.65.65,0,0,1,.29.06l0,0c7.85,4.1,15.72,8.14,23.89,11.44,9.6,3.87,18.27,8.51,24.72,16.53,5.68,7.07,10.81,14.58,16.05,22,6.21,8.82,13.81,16,23.82,20.25,3.13,1.33,6.69,1.64,10.54,2.53l-3.38-13.37,9.53-2-3.79-11.5,14.17-5.7-4-8.12c2.87-1.6,5.44-2.54,7.32-4.24,1.13-1,1.17-3.23,1.7-4.91h.06l-.48-2.13c-2.34-2.62-2.51-4.71,1.43-5.79l3-1.47,4.48-3c-1.15-1.63-2.28-3.28-3.45-4.9-1.71-2.34-3.45-4.65-6.27-8.43l12.51-3.06-.06.16Z"/></svg>