<svg id="Layer_1" data-name="Layer 1" xmlns="http://www.w3.org/2000/svg" viewBox="0 0 293.23 642.94"><path d="M154.81,129.83c-4.85-3.16-9.57-5.75-13.68-9.08a41.73,41.73,0,0,1-7.48-8.7c-3.69-5.27-.62-14.85,5.42-17,1-.36,3.39.49,3.7,1.33C146.75,107,150.48,117.65,154.81,129.83Z"/><path d="M173.27,129l14.46-34.09c8.89,3.27,11.84,11.24,6.19,18.67C188.63,120.58,182.42,126.49,173.27,129Z"/><path d="M135,87,121.55,54.46c7.87-4.08,15.47-.56,16.67,8.45C139.3,71,138.91,78.94,135,87Z"/><path d="M122.71,99.33c-9.49,4.34-18.91,5-28,2-7.77-2.53-5.25-9.83-5.39-15.88Z"/><path d="M207.08,54.3c-4.45,10.76-8.73,21.08-13.5,32.61-1.15-3.22-2.69-6-3.08-9A70.12,70.12,0,0,1,190.21,65C190.75,54.69,197.23,50.75,207.08,54.3Z"/><path d="M238.79,85.58c2.38,12.4-1,17.12-12.82,17.12-6.47,0-12.94-1.22-19.4-1.89L206.8,99Z"/><path d="M200.82,101.09l-8.79-9,.2-2c2.72.39,6.36-.15,7.91,1.41,2,2,2.29,5.64,3.32,8.58Z"/><path d="M156.66,132c2.21-1.51,4.24-3.76,6.68-4.36,4.35-1.06,7.09,1.37,8.43,6.13H157.68Z"/><path d="M136.68,91.82l-11.29,10.09c.93-4.28.73-8,2.49-10,1.54-1.75,5.31-1.54,8.09-2.19C136.2,90.4,136.44,91.11,136.68,91.82Z"/></svg>