<svg id="Layer_1" data-name="Layer 1" xmlns="http://www.w3.org/2000/svg" viewBox="0 0 293.23 683.12"><defs><style>.cls-1{fill:#231f20;}</style></defs><path class="cls-1" d="M209.17,171.54c-1.23,8.82-2,17.71-3.86,26.39-.9,4.27-2.81,9-5.77,12.06-14.68,15.09-20.67,34-25.22,53.77-2.45,10.64-2.87,21.37-2.86,32.23q.14,140.76,0,281.5c0,1.73-.25,3.45-.38,5.18l-1.4-.08V133.78l1.49,0v76.18c4.83-34,11.49-66.86,37.36-92.54-1.12,9.08-1.84,17.72-3.38,26.22-.67,3.7-2.18,7.92-4.73,10.52-16.16,16.49-22.43,37.32-27,59-3.55,16.92-1.23,34-1.63,51C176.12,229.84,183.12,196.73,209.17,171.54Z"/><path class="cls-1" d="M83.38,146.84c38.23,4.73,53.21,34.18,65.47,66.55-6.25-28-15.52-54.69-31.82-78.68l1.37-.9a41.32,41.32,0,0,1,3.54,4.09c8.74,13.15,15,27.51,20.2,42.35a322.89,322.89,0,0,1,17.1,83.49c1.06,14.86,1.86,29.78,1.89,44.67q.27,134.1.11,268.21V583l-1.61.13c-.21-2.09-.59-4.18-.6-6.27q0-53.5,0-107c0-55.15.45-110.3-.15-165.44a451.87,451.87,0,0,0-4.71-62.83c-3.25-21.32-14.26-39.46-30.77-53.66-10.4-9-19.93-18.43-27.48-30.08C92.88,153.17,87.26,150.15,83.38,146.84Z"/><path class="cls-1" d="M113,64.69c2.91,1.56,4.88,2.39,6.6,3.57,10.78,7.43,38.21,40,44.21,52.41C148.34,112.88,118,80,113,64.69Z"/><path class="cls-1" d="M177.23,120.48c14-20.44,27.85-41.09,48.57-55.5l1.79,1.62C215.58,88.87,197.62,105.78,177.23,120.48Z"/><path class="cls-1" d="M102.67,128.9c-22.85,3.9-45.57,4.78-68-2.49l-.24-1.78c3.28-.77,6.53-2,9.84-2.23C60.64,121.21,85.63,123.92,102.67,128.9Z"/><path class="cls-1" d="M109.71,119.6c-14.77-17.66-25-42.44-23.29-55.86,3.39,4.69,6.5,8.13,8.58,12.1a113.86,113.86,0,0,1,7.57,17.64C105.34,102.06,107.37,110.88,109.71,119.6Z"/><path class="cls-1" d="M48.87,101.5C70,102.91,86.26,114,103.46,124.19,91.09,126.46,54.51,111.47,48.87,101.5Z"/><path class="cls-1" d="M195.68,66c-.19,20.54-10.86,36.65-21.76,52.67C178.08,99.85,181.73,80.8,195.68,66Z"/><path class="cls-1" d="M66.77,83.68c11.14.61,31.66,24.7,39.56,39.24C89.68,112.57,74.76,102.15,66.77,83.68Z"/><path class="cls-1" d="M145,66c13.89,14.52,17.53,33.24,21.54,51.81C155.52,102.14,145.31,86.14,145,66Z"/><path class="cls-1" d="M112.6,119.76c-5.73-18.88-10.29-46.13-3.77-53.59C115.48,72.94,118.48,100.83,112.6,119.76Z"/><path class="cls-1" d="M170.3,118.29c-4.33-17.47-7.78-34.94.12-52.36C178.3,83.43,174.68,100.86,170.3,118.29Z"/><path class="cls-1" d="M210.53,65.24c-.7,11.9-9.89,17.1-16.38,25.68C196.87,79.83,199.94,70.52,210.53,65.24Z"/><path class="cls-1" d="M146.47,90.55c-5.75-8-15.64-13.25-16.19-25.21C141.19,70.68,144,80.51,146.47,90.55Z"/><path class="cls-1" d="M40.75,112.08c7.34-2.26,13.15-.77,27.33,7.07C58.81,118,48.5,121.12,40.75,112.08Z"/><path class="cls-1" d="M76.77,74.54c9.69,3.53,10.13,13.35,14.12,20.74C80,87.79,76.34,82.4,76.77,74.54Z"/><path class="cls-1" d="M79.71,106.8c-16.07-5.82-18.1-7.16-20.9-13.65C69.46,91.7,73,100.86,79.71,106.8Z"/><path class="cls-1" d="M162.67,90.81c-2.41-8.87-9-15.6-5.1-24.65C163,69.56,163.8,73.17,162.67,90.81Z"/><path class="cls-1" d="M183.14,65.72c3.3,8.59-1.2,15.27-4.49,22.32C176.31,75.4,177.21,70.82,183.14,65.72Z"/><path class="cls-1" d="M102.42,83c-3.41-5.45-7.09-10.52-5-17.27C102.57,69.21,103.8,73.36,102.42,83Z"/><path class="cls-1" d="M116.56,128.76c-2,1.27-3.22,2.72-4.24,2.57s-2.72-1.91-2.66-2.86a4,4,0,0,1,2.86-2.72C113.54,125.68,114.68,127.27,116.56,128.76Z"/><path class="cls-1" d="M174.63,127.14c-2.13,1.27-3.3,2.49-4.48,2.49-.81,0-2.29-1.72-2.25-2.62s1.55-2.65,2.35-2.61C171.43,124.46,172.56,125.75,174.63,127.14Z"/></svg>