<svg id="Layer_1" data-name="Layer 1" xmlns="http://www.w3.org/2000/svg" viewBox="0 0 461.86 708.82"><defs><style>.cls-1{fill:#fff;}.cls-2{fill:#e5e1df;}.cls-3{fill:#231f20;}</style></defs><path class="cls-1" d="M263.68,354.23l-.06.11Z"/><path class="cls-1" d="M263.41,354.1l.38-.18Z"/><path class="cls-2" d="M287.34,175.05c5.17,7.58,9.83,14.59,14.67,21.47,7.05,10,5,35.2-5.58,45.73-12.05,12-13.32,25.1-9.49,40.4,5,20,1.95,38.67-11.69,54.77-3.41,4-7.68,7.29-12.42,11.73V333.37c15-12.86,13.05-30.59,10.13-48.2-2.34-14.13-1.37-27.63,4.72-40.58,8.38-17.8,12.35-36.15,8.88-55.89C285.79,184.3,287,179.54,287.34,175.05Z"/><path class="cls-2" d="M183.44,333.42V348.7C168.77,337.91,159,324.87,158,307c-.52-9.72.63-19.66,2.14-29.33,1.91-12.18,1.28-23-8-32.54-11.69-12.07-14.52-26.82-10.31-43a20.52,20.52,0,0,1,2.46-5.8c4.56-7,9.29-13.95,15-22.39,0,7.7.68,14.71-.14,21.55a77.66,77.66,0,0,0,7.8,44.9c7.63,15.23,8.57,30.88,6,47.4C170.47,304.16,169.24,320.57,183.44,333.42Z"/><path class="cls-2" d="M263.8,353.91c1.77-2.21,3.48-4.48,5.32-6.62,5-5.83,9.86-11.8,15.2-17.3,3-3.14,6.52-6.55,10.48-8,10.23-3.67,16.92-10.42,21.52-20,12.71-26.53,37-38.18,65.9-31.95,2.8.6,5.75.51,9.52,2.27-4,2.56-7.83,5.69-12.16,7.56-7.3,3.15-15.08,5.17-22.4,8.25-12.62,5.32-22.77,13.38-29.22,26-3.6,7.05-7.65,14.36-13.23,19.77-5.32,5.16-12.51,9.07-19.56,11.64-10.12,3.7-20.86,5.69-31.33,8.41Z"/><path class="cls-2" d="M182.7,354c-7.29-2-15.3-4.86-23.55-6.28-17-2.92-30.27-11-37.25-26.88-9.19-20.93-25.94-31.5-46.75-37.91-7.27-2.25-14-6.37-20.54-10.42a68,68,0,0,1,38.9-1.75c15.4,3.74,27.07,12.54,34,26.82,5.65,11.68,12.34,21.78,26,25.08a11.14,11.14,0,0,1,5.24,3.58C167.1,335.72,175.3,345.37,182.7,354Z"/><path class="cls-2" d="M162.25,174.34c7.1,7.42,9.63,16.41,11.82,25.89,2,8.67,4.09,17.94,8.77,25.26,11.74,18.34,14.67,37.19,9.1,58.11-3.38,12.69-4.42,25.77.81,38.61l-8.57,8.18c-9.76-9.66-12.33-21.89-9.61-34.54,4.69-21.82,2.41-42.14-7.88-62-6.58-12.71-6.06-26.85-5.27-40.79C161.76,187,162,180.94,162.25,174.34Z"/><path class="cls-2" d="M284.46,173.46c-.9,18.54,3.21,37.34-3,55.58a53.85,53.85,0,0,1-3.16,8.18c-9.25,17.2-11.09,35.13-7.36,54.28,2.68,13.78,2.81,27.76-9.09,38.41l-8.36-7.75c4.88-11.3,5-23.34,1.45-35-7.13-23.43-3.66-44.51,10.39-64.62,3.89-5.56,5.15-13.29,6.46-20.24,2-10.65,4.43-20.86,12.72-28.6Z"/><path class="cls-2" d="M54.3,278.1c7.71,3,14.71,6.28,22,8.6,18.86,6,33.93,15.94,42.48,34.84,7.75,17.14,22.33,25.92,40.55,29.15,4.19.75,8.3,1.9,12.45,2.9,10.7,2.59,16.94,9.19,18,18.58-9.54-1.24-19.32-3.65-29.08-3.53-17.6.22-30.24-7.56-39.61-21.48-4.9-7.28-8.7-15.29-13.26-22.81-6.32-10.43-14.74-18.39-27.26-20.48C65.61,301.36,59.13,290.62,54.3,278.1Z"/><path class="cls-2" d="M256.1,372.37c1.58-12.15,11.07-17.48,23.41-20.22,8.54-1.9,17.17-4,25.22-7.34C316.37,340,324,330.26,329,319.16c6.88-15.28,18.58-24.22,33.81-29.69,9.74-3.5,19.3-7.5,29.31-11.42-5.24,11.11-9.94,22.51-24.94,25.18-12.74,2.27-22.34,9.76-28.84,21-4.15,7.15-7.85,14.58-12.32,21.52-10,15.51-23.86,23.46-42.94,22.89C274.09,368.38,265,371,256.1,372.37Z"/><path class="cls-1" d="M263.84,354c-.21.37-.43.74.05-.08-.85.42-.47.23-.09,0Z"/><path class="cls-3" d="M407.34,243.4c-.72.42-1.61.63-1.93,1.17-8.78,14.85-22.62,20-39,21.22a91.38,91.38,0,0,0-17.28,2.79,47,47,0,0,0-12.26,8.8c12.49-8.38,28.1-11,45.33-7.32,2.8.6,5.75.51,9.52,2.27-4,2.56-7.83,5.69-12.16,7.56-7.3,3.15-15.08,5.17-22.4,8.25-12.62,5.32-22.77,13.38-29.22,26-3.6,7.05-7.65,14.36-13.23,19.77-5.32,5.16-12.51,9.07-19.56,11.64-10.12,3.7-20.86,5.69-31.33,8.41l0,.09.1-.17-.09,0c1.77-2.21,3.48-4.48,5.32-6.62,5-5.83,9.86-11.8,15.2-17.3,3-3.14,6.52-6.55,10.48-8a37.3,37.3,0,0,0,8.23-4.14,13.05,13.05,0,0,1-5.28.78A.78.78,0,0,1,297,318c-.53.14-1.06.28-1.61.39,4.45-11.79,10-23.05,12.89-35,4.44-18.38,13.6-32.77,29.22-43.28a76,76,0,0,0,27.09-31c1.82-3.84,4.6-7.22,8.05-12.54l-3.33-5.93-5.88,4.65a25.8,25.8,0,0,1-1.68,13,64.12,64.12,0,0,1-24.14,28.2c-17.52,11.34-28,27.12-32.22,47.62-2.55,12.31-7.16,24.07-14.12,32.66-.08-1.7-.14-3.43-.19-5.18-.4-2.27-.94-4.52-1.37-6.78a.85.85,0,0,1-.73,0,56.39,56.39,0,0,1-13.75,32.51c-3.41,4-7.68,7.29-12.42,11.73V333.37c15-12.86,13.05-30.59,10.13-48.2-2.34-14.13-1.37-27.63,4.72-40.58,8.38-17.8,12.35-36.15,8.88-55.89-.77-4.4.47-9.16.78-13.65,5.17,7.58,9.83,14.59,14.67,21.47a21.09,21.09,0,0,1,2.9,6.66c-.14-2.51-.24-5-.2-7.52-4.24-13.47-9.62-26.9-1.62-42.06-2.62,0-3.91-.22-5.09,0-15.47,3.3-27.9,16.61-27.46,33a68.26,68.26,0,0,1-.21,7.61c0,.15.07.3.1.46a66.27,66.27,0,0,1,1.2,7.42l.06.63.09-.44c2-10.62,4.41-20.82,12.67-28.56-.84,18.44,3.19,37.15-3,55.29a53.85,53.85,0,0,1-3.16,8.18c-9.25,17.2-11.09,35.13-7.36,54.28,2.68,13.78,2.81,27.76-9.09,38.41l-8.36-7.75c4.88-11.3,5-23.34,1.45-35-5.42-17.82-4.7-34.27,2.13-50-1.63.73-3.25,1.45-4.89,2.12a.67.67,0,0,1-.64-.1l-.6.83c-1.11-11.4,2.93-21.23,7.72-30.76,4.47-8.9,6.79-18.31,4.7-27.9-2.42-11.15-.9-21.48,4.68-30.87,9.16-15.42,4.26-30.28-.46-45.3-.28-.91-2.06-1.35-4.63-2.9-1.38,3.09-3.9,6-3.34,8.18s4.17,3.58,6.44,5.33c5.74,9.32,5.29,19.35.41,29.25-5.56,11.27-8.48,22.67-6.08,35.55a45.41,45.41,0,0,1-3.28,26.6c-4.47,10.37-7.64,21.3-11,31a44.68,44.68,0,0,1,1-29.35c5.63-15.14,6.22-30.47-1-45s-15.7-28.49-22.91-41.42c-4.17,7.38-8.29,16.06-13.64,23.91-14.31,21-19.1,43-8.91,67.22a30.14,30.14,0,0,1-.64,24.45c-3.58-10.19-8-21.14-11.2-32.43-2.08-7.28-4.28-15.37-3.1-22.56a59.4,59.4,0,0,0-5.82-37.95c-5-9.83-5.4-19.9-.46-30l8.5-2.61c-2-3.68-3.6-6.71-5.56-10.34-2.35,2-3.6,2.6-3.86,3.45-4.44,14.49-9.54,28.91-.65,43.73A43.34,43.34,0,0,1,182.93,181c-1.88,9.16-.05,17.42,3.52,25.63,2,4.63,4.52,9.12,5.91,13.93,1.89,6.54,2.94,13.34,4.35,20l-2.07.48c-.23-.43-.45-.87-.68-1.31a.75.75,0,0,1-.6-.36c-1.55-2.4-4.05-4-6-6,7.89,15.86,9.38,32.25,4.61,50.17-3.38,12.69-4.42,25.77.81,38.61l-8.57,8.18c-9.76-9.66-12.33-21.89-9.61-34.54,4.69-21.82,2.41-42.14-7.88-62-6.58-12.71-6.06-26.85-5.27-40.79.34-6,.54-12.1.83-18.7,7.1,7.42,9.63,16.41,11.82,25.89.35,1.52.71,3.06,1.08,4.6,0-.26,0-.53,0-.79a26.2,26.2,0,0,1,.5-6.61,32.37,32.37,0,0,0,.94-5.94c0-11.69-4-22.62-13.52-30.6-5.52-4.62-11.61-7.76-20.16-7.07,5.95,11.14,4.51,21.57,1.61,32-1,3.55-2.35,7-3.48,10.5-.32,1.28-.63,2.56-.83,3.87a20.44,20.44,0,0,0,.53,7.39c.29-1.77.66-3.55,1.13-5.36a20.52,20.52,0,0,1,2.46-5.8c4.56-7,9.29-13.95,15-22.39,0,7.7.68,14.71-.14,21.55a77.66,77.66,0,0,0,7.8,44.9c7.63,15.23,8.57,30.88,6,47.4-.22,1.46-.43,2.92-.62,4.39a.84.84,0,0,1-.13,1c-1.81,14.47-1.39,28.72,11.24,40.15V348.7c-13.76-10.12-23.26-22.22-25.17-38.4a14.57,14.57,0,0,0-.92,5.66.75.75,0,0,1-1,.73c.17.58.32,1.16.52,1.74-9.17-10.76-13.67-23.38-16.67-36.63-4-17.63-12.67-32.18-27.89-42.33S86,216.41,80.46,199c3.89-4.56.37-5.61-4.32-7.38L71.73,196c3.53,4.13,7.13,6.82,8.67,10.41,6.47,15,16.92,26.4,30.28,35.42,12.66,8.56,20.75,20.29,25.29,34.9,4.39,14.17,9.62,28.07,14.36,41.72a16.79,16.79,0,0,1-4.67-1.66.74.74,0,0,1-.87.37,18.18,18.18,0,0,1-8-5c-.56-.56-1.12-1.13-1.67-1.7a32,32,0,0,0,18.39,12.25,11.14,11.14,0,0,1,5.24,3.58c8.37,9.51,16.57,19.16,24,27.76-7.29-2-15.3-4.86-23.55-6.28-17-2.92-30.27-11-37.25-26.88-9.19-20.93-25.94-31.5-46.75-37.91-7.27-2.25-14-6.37-20.54-10.42a68,68,0,0,1,38.9-1.75c.53.13,1,.28,1.55.42-1.9-1-3.78-2.12-5.64-3.22a27.52,27.52,0,0,1-5.26-1c-1.07-.29-2.12-.62-3.18-1l-2.77-.26c-15-1.34-28.06-6.27-36.45-19.85-.7-1.14-2.15-1.81-5-4.09,1.58,9.81,2,17.85,4.25,25.34,5.49,18.12,14.52,32.89,33.47,38,3.5-.06,7-.3,10.49-.21a35.16,35.16,0,0,0-4.39-1c-15-2.51-21.48-13.25-26.31-25.77,7.71,3,14.71,6.28,22,8.6,18.86,6,33.93,15.94,42.48,34.84,7.75,17.14,22.33,25.92,40.55,29.15,4.19.75,8.31,1.9,12.45,2.9,10.7,2.59,16.94,9.19,18,18.58-6.25-.81-12.6-2.11-19-2.89a22.19,22.19,0,0,1,2.68,1.1c1.28.62,2.55,1.33,3.84,2a56,56,0,0,1,7.16,2.21h0a.77.77,0,0,1,.51.21c12,4.7,25.7,14.26,30.76,27.83v77q-.08,8.93-.13,17.85a9.85,9.85,0,0,0,.13,1.52V606.7h15.41V404.2a9.64,9.64,0,0,1,.54-1c4.52-7.22,4.3-10.13,13.6-17.38,8.86-7.7,15.57-11.94,23.79-13.68,2.68-1.15,5.38-2.25,8.1-3.28-7.06.62-14.15,2.47-21.17,3.51,1.58-12.15,11.07-17.48,23.41-20.22,8.54-1.9,17.17-4,25.22-7.34C316.37,340,324,330.26,329,319.16c6.88-15.28,18.58-24.22,33.81-29.69,9.74-3.5,19.3-7.5,29.31-11.42-5.24,11.11-9.94,22.51-24.94,25.18a39.32,39.32,0,0,0-16.31,6.83,30.14,30.14,0,0,1,15.05-3.79H366c1.28-.32,2.59-.61,3.95-.84C395.17,301.28,409.84,269.05,407.34,243.4Zm-328-47.23.42-.14c.2.86.39,1.73.59,2.6Z"/></svg>