<svg id="Layer_1" data-name="Layer 1" xmlns="http://www.w3.org/2000/svg" viewBox="0 0 410.18 642.94"><defs><style>.cls-1{fill:#231f20;}.cls-2{fill:#e5e1df;}</style></defs><path class="cls-1" d="M332.64,181.4l0,0-.05,0Z"/><path class="cls-1" d="M357.88,146.09c2.89-8.3,3.81-17.29,5.75-26.61l-5.64.28.19-.16c-8.07,6.21-17,6.33-26.52,4.28-20.15-4.35-38.22.23-52.91,14.82-8,7.93-14.75,17.11-22,25.76-3.68,4.37-7.69,8.15-12.77,9.75,3.53-5.57,8.62-10.59,10.15-16.53,6.6-25.59,2.26-49.62-12.77-71.58-9.21-13.45-18.27-27-26.64-39.38-6.14,9.4-13,20-20,30.61-3.53,5.33-7.66,10.28-10.84,15.8a80.25,80.25,0,0,0-11,41.49c.13,14.47-.1,29,12.89,39.59a52.35,52.35,0,0,1-13-10.11c-4.75-5.29-8.7-11.28-13.2-16.8-16.72-20.48-37.68-28.64-64.12-23.45-6.75,1.32-14.28-1.17-21.42-2.15-1.94-.26-3.76-1.37-6-2.25-1.21,24,9.17,42.05,25,57.65s35.11,24.16,57.93,25.32a19.9,19.9,0,0,1-7.61,4.34c-7.79,2.14-15.88,3.37-23.45,6.1-17,6.14-29.82,17.19-35,35.13-2.62,9.09-4,18.55-5.62,26.6,9,2.53,18.38,4.76,27.49,7.92,7.62,2.64,14.71,2.35,22.24-.13,23.89-7.87,41.9-23.17,56.18-43.39,2.15-3,4.51-5.93,6.77-8.89l1.66,1.31c-5.28,11.86-14.55,20.8-24,30.84.34,5.93.15,12.61,1.2,19.08,4.56,28.18,23.78,46.77,42.18,65.37V615.84h9.6V340.71c21.58-21.47,39.55-44.61,37.62-78.32-8.43-9.72-18.77-18.42-22.67-31.85q12.71,15.47,25.39,30.94l.21-.11c.58.57,1.15,1.15,1.72,1.73l-.06.1c1.86,1.08,3.7,2.22,5.6,3.21,10.39,5.44,20.41,11.88,31.33,15.83,6.17,2.24,14,1.38,20.77.12,9.68-1.8,19.06-5.23,27.9-7.77-1.38-7.2-2.91-15.81-4.73-24.36a35.21,35.21,0,0,0-3.16-9c-7.54-14.34-19-24.37-34.48-29.2-7.2-2.25-14.76-3.32-22.06-5.29-2.42-.65-4.54-2.44-8.13-4.46l28.1-4.33-.18-.06,26.9-16.47C343.53,171.43,353,160.17,357.88,146.09Z"/><path class="cls-2" d="M96.08,147.73c.69.12,1.68,0,2,.41,9.8,12,22.92,16.7,37.79,19.06,14.57,2.31,27.62,8.6,37.85,20.46l6.65-.93c4.12-9.51,4.12-9.51,15.24-9.71-2.85-4.73-5.48-9.11-8.11-13.49l1.37-.88c2.81,3.73,1.94-6.51-2.07-14.94l1.27-.78c4,6.83,6.24-1.38,1.38-11.55l2-1,13,27.27c1-16.16-5.94-30.14-13.44-43.94l1.77-.86c3.31,6.57,35.26,12.19,45.82.25-7.29,14.08-13.84,28.35-13.28,44.72l13.85-29,1.35.63c-4.4,11-2.31,20.73,2.15,14.21l-.14-.15c-2.48,5.47-5,10.92-7.41,16.43-1.23,2.78,3.82,3.3,7.07.65h0l-8.71,13c8.66-1.78,14.36.39,15.65,9.16l6.82.88c11.56-12.26,25.67-18.84,42.08-21.06,15.26-2.07,27.61-9.53,37.39-21.52a37.52,37.52,0,0,1-17.66,17.23,89.44,89.44,0,0,1-22.24,7.17c-13.42,2.2-24.5,8.4-34.49,17a10.51,10.51,0,0,0-3.15,5.57c-1.29,6.48-2.12,13-3.26,20.44,17,4.68,29.79,17.72,41.46,32.16a87.47,87.47,0,0,0,30.47,23.79c-9.06-1.52-16.65-6-23.08-12.12-10.49-10-20.2-20.86-30.94-30.57-6.27-5.67-13.6-10.54-21.17-10.38-7,4.37-8.19,7.84-14.64,11.85-.66,11.85,3.08,21.78,6.65,33.17-8.77-9.11-9.17,9.3-7.6,17.93-7.55-15.56-10.34-17.51-12.52-34.52-2.14,22.87,2.12,30.13,8.48,52-10-20.78-22.84-21.17-33.29-.43,6.49-21.67,9.69-29,8.79-51.68-3.58,16.59-7.16,18.38-10.74,35l-2.57-.51c3.34-16.63-.82-28.07-5.28-17l-1.85-.73c4.23-11,5.49-22,9.52-32.5-7.65-4.69-10.91-8.51-18-12.88-10.2,1.51-18.66,8.24-26.62,15.48a199.73,199.73,0,0,0-16.2,17.2,67.43,67.43,0,0,1-31.89,21c5.71-3.76,12-6.93,17-11.43a253,253,0,0,0,21.13-21.56c9.68-10.9,20.81-19.4,34.35-23.39-1.82-7.59-3.61-15-5.93-24.68a65.31,65.31,0,0,0-37.32-18.45,54.49,54.49,0,0,1-31.45-14.82c-2-2-3.4-4.58-5.07-6.89Z"/><path class="cls-2" d="M290,97.4c1.46,19.12-4.15,31-22.16,47.9C268.43,126.5,273.57,109.66,290,97.4Z"/><path class="cls-2" d="M133.52,205c-16.19,4.35-32.05,15.11-51.17,5.34C99.13,200.89,115.3,192.71,133.52,205Z"/><path class="cls-2" d="M141.68,97.13c16.2,13.14,20.24,29.92,22.32,48.39C148.63,133.19,139.69,118.63,141.68,97.13Z"/><path class="cls-2" d="M295.94,204.68l17.43-6.39.48-1.95,34.66,12.55C329.64,220.08,313.77,209.36,295.94,204.68Z"/><path class="cls-2" d="M161.31,270c1.75,13.77-5.84,22.48-14.69,30.91C144,287.59,148.73,277.4,161.31,270Z"/><path class="cls-2" d="M284.82,300.6c-12.43-11.07-15.49-17.31-14.39-29.35C281.08,273.9,288.5,289,284.82,300.6Z"/></svg>