<svg id="Layer_1" data-name="Layer 1" xmlns="http://www.w3.org/2000/svg" viewBox="0 0 410.18 642.94"><defs><style>.cls-1{fill:#231f20;}</style></defs><path class="cls-1" d="M96.08,147.73c.69.12,1.68,0,2,.41,9.8,12,22.92,16.7,37.79,19.06,14.57,2.31,27.62,8.6,37.85,20.46l6.65-.93c4.12-9.51,4.12-9.51,15.24-9.71-2.85-4.73-5.48-9.11-8.11-13.49l1.37-.88c2.81,3.73,1.94-6.51-2.07-14.94l1.27-.78c4,6.83,6.24-1.38,1.38-11.55l2-1,13,27.27c1-16.16-5.94-30.14-13.44-43.94l1.77-.86c3.31,6.57,35.26,12.19,45.82.25-7.29,14.08-13.84,28.35-13.28,44.72l13.85-29,1.35.63c-4.4,11-2.31,20.73,2.15,14.21l-.14-.15c-2.48,5.47-5,10.92-7.41,16.43-1.23,2.78,3.82,3.3,7.07.65h0l-8.71,13c8.66-1.78,14.36.39,15.65,9.16l6.82.88c11.56-12.26,25.67-18.84,42.08-21.06,15.26-2.07,27.61-9.53,37.39-21.52a37.52,37.52,0,0,1-17.66,17.23,89.44,89.44,0,0,1-22.24,7.17c-13.42,2.2-24.5,8.4-34.49,17a10.51,10.51,0,0,0-3.15,5.57c-1.29,6.48-2.12,13-3.26,20.44,17,4.68,29.79,17.72,41.46,32.16a87.47,87.47,0,0,0,30.47,23.79c-9.06-1.52-16.65-6-23.08-12.12-10.49-10-20.2-20.86-30.94-30.57-6.27-5.67-13.6-10.54-21.17-10.38-7,4.37-8.19,7.84-14.64,11.85-.66,11.85,3.08,21.78,6.65,33.17-8.77-9.11-9.17,9.3-7.6,17.93-7.55-15.56-10.34-17.51-12.52-34.52-2.14,22.87,2.12,30.13,8.48,52-10-20.78-22.84-21.17-33.29-.43,6.49-21.67,9.69-29,8.79-51.68-3.58,16.59-7.16,18.38-10.74,35l-2.57-.51c3.34-16.63-.82-28.07-5.28-17l-1.85-.73c4.23-11,5.49-22,9.52-32.5-7.65-4.69-10.91-8.51-18-12.88-10.2,1.51-18.66,8.24-26.62,15.48a199.73,199.73,0,0,0-16.2,17.2,67.43,67.43,0,0,1-31.89,21c5.71-3.76,12-6.93,17-11.43a253,253,0,0,0,21.13-21.56c9.68-10.9,20.81-19.4,34.35-23.39-1.82-7.59-3.61-15-5.93-24.68a65.31,65.31,0,0,0-37.32-18.45,54.49,54.49,0,0,1-31.45-14.82c-2-2-3.4-4.58-5.07-6.89Z"/><path class="cls-1" d="M290,97.4c1.46,19.12-4.15,31-22.16,47.9C268.43,126.5,273.57,109.66,290,97.4Z"/><path class="cls-1" d="M133.52,205c-16.19,4.35-32.05,15.11-51.17,5.34C99.13,200.89,115.3,192.71,133.52,205Z"/><path class="cls-1" d="M141.68,97.13c16.2,13.14,20.24,29.92,22.32,48.39C148.63,133.19,139.69,118.63,141.68,97.13Z"/><path class="cls-1" d="M295.94,204.68l17.43-6.39.48-1.95,34.66,12.55C329.64,220.08,313.77,209.36,295.94,204.68Z"/><path class="cls-1" d="M161.31,270c1.75,13.77-5.84,22.48-14.69,30.91C144,287.59,148.73,277.4,161.31,270Z"/><path class="cls-1" d="M284.82,300.6c-12.43-11.07-15.49-17.31-14.39-29.35C281.08,273.9,288.5,289,284.82,300.6Z"/></svg>