<svg id="Layer_1" data-name="Layer 1" xmlns="http://www.w3.org/2000/svg" viewBox="0 0 410.18 642.94"><defs><style>.cls-1{fill:#231f20;}</style></defs><path class="cls-1" d="M363.63,119.48l-5.64.28.19-.16c-8.07,6.21-17,6.33-26.52,4.28-20.15-4.35-38.22.23-52.91,14.82-8,7.93-14.75,17.11-22,25.76-3.68,4.37-7.69,8.15-12.77,9.75,3.53-5.57,8.62-10.59,10.15-16.53,6.6-25.59,2.26-49.62-12.77-71.58-9.21-13.45-18.27-27-26.64-39.38-6.14,9.4-13,20-20,30.61-3.53,5.33-7.66,10.28-10.84,15.8a80.25,80.25,0,0,0-11,41.49c.13,14.47-.1,29,12.89,39.59a52.35,52.35,0,0,1-13-10.11c-4.75-5.29-8.7-11.28-13.2-16.8-16.72-20.48-37.68-28.64-64.12-23.45-6.75,1.32-14.28-1.17-21.42-2.15-1.94-.26-3.76-1.37-6-2.25-1.21,24,9.17,42.05,25,57.65s35.11,24.16,57.93,25.32a19.9,19.9,0,0,1-7.61,4.34c-7.79,2.14-15.88,3.37-23.45,6.1-17,6.14-29.82,17.19-35,35.13-2.62,9.09-4,18.55-5.62,26.6,9,2.53,18.38,4.76,27.49,7.92,7.62,2.64,14.71,2.35,22.24-.13,23.89-7.87,41.9-23.17,56.18-43.39,2.15-3,4.51-5.93,6.77-8.89l1.66,1.31c-5.28,11.86-14.55,20.8-24,30.84.34,5.93.15,12.61,1.2,19.08,4.56,28.18,23.78,46.77,42.18,65.37V615.84h9.6V340.71c21.58-21.47,39.55-44.61,37.62-78.32-8.43-9.72-18.77-18.42-22.67-31.85q12.71,15.47,25.39,30.94l.21-.11c.58.57,1.15,1.15,1.72,1.73l-.06.1c1.86,1.08,3.7,2.22,5.6,3.21,10.39,5.44,20.41,11.88,31.33,15.83,6.17,2.24,14,1.38,20.77.12,9.68-1.8,19.06-5.23,27.9-7.77-1.38-7.2-2.91-15.81-4.73-24.36a35.21,35.21,0,0,0-3.16-9c-7.54-14.34-19-24.37-34.48-29.2-7.2-2.25-14.76-3.32-22.06-5.29-2.42-.65-4.54-2.44-8.13-4.46l28.1-4.33-.18-.06,26.9-16.47c10.93-10,20.37-21.26,25.28-35.34C360.77,137.79,361.69,128.8,363.63,119.48Z"/><path class="cls-1" d="M332.64,181.4l0,0-.05,0Z"/><path class="cls-1" d="M290,97.4c-16.38,12.26-21.52,29.1-22.16,47.9C285.8,128.4,291.41,116.52,290,97.4Z"/><path class="cls-1" d="M133.52,205c-18.22-12.24-34.39-4.06-51.17,5.34C101.47,220.06,117.33,209.3,133.52,205Z"/><path class="cls-1" d="M164,145.52c-2.08-18.47-6.12-35.25-22.32-48.39C139.69,118.63,148.63,133.19,164,145.52Z"/><path class="cls-1" d="M313.37,198.29l-17.43,6.39c17.83,4.68,33.7,15.4,52.57,4.21l-34.66-12.55Z"/><path class="cls-1" d="M146.62,301c8.85-8.43,16.44-17.14,14.68-30.91C148.73,277.4,144,287.59,146.62,301Z"/><path class="cls-1" d="M270.43,271.25c-1.1,12,2,18.28,14.39,29.35C288.5,289,281.08,273.9,270.43,271.25Z"/></svg>