<svg id="Layer_1" data-name="Layer 1" xmlns="http://www.w3.org/2000/svg" viewBox="0 0 461.86 708.82"><defs><style>.cls-1{fill:#231f20;}</style></defs><path class="cls-1" d="M263.68,354.23l-.06.11Z"/><path class="cls-1" d="M263.41,354.1l.38-.18Z"/><path class="cls-1" d="M287.34,175.05c5.17,7.58,9.83,14.59,14.67,21.47,7.05,10,5,35.2-5.58,45.73-12.05,12-13.32,25.1-9.49,40.4,5,20,1.95,38.67-11.69,54.77-3.41,4-7.68,7.29-12.42,11.73V333.37c15-12.86,13.05-30.59,10.13-48.2-2.34-14.13-1.37-27.63,4.72-40.58,8.38-17.8,12.35-36.15,8.88-55.89C285.79,184.3,287,179.54,287.34,175.05Z"/><path class="cls-1" d="M183.44,333.42V348.7C168.77,337.91,159,324.87,158,307c-.52-9.72.63-19.66,2.14-29.33,1.91-12.18,1.28-23-8-32.54-11.69-12.07-14.52-26.82-10.31-43a20.52,20.52,0,0,1,2.46-5.8c4.56-7,9.29-13.95,15-22.39,0,7.7.68,14.71-.14,21.55a77.66,77.66,0,0,0,7.8,44.9c7.63,15.23,8.57,30.88,6,47.4C170.47,304.16,169.24,320.57,183.44,333.42Z"/><path class="cls-1" d="M263.8,353.91c1.77-2.21,3.48-4.48,5.32-6.62,5-5.83,9.86-11.8,15.2-17.3,3-3.14,6.52-6.55,10.48-8,10.23-3.67,16.92-10.42,21.52-20,12.71-26.53,37-38.18,65.9-31.95,2.8.6,5.75.51,9.52,2.27-4,2.56-7.83,5.69-12.16,7.56-7.3,3.15-15.08,5.17-22.4,8.25-12.62,5.32-22.77,13.38-29.22,26-3.6,7.05-7.65,14.36-13.23,19.77-5.32,5.16-12.51,9.07-19.56,11.64-10.12,3.7-20.86,5.69-31.33,8.41Z"/><path class="cls-1" d="M182.7,354c-7.29-2-15.3-4.86-23.55-6.28-17-2.92-30.27-11-37.25-26.88-9.19-20.93-25.94-31.5-46.75-37.91-7.27-2.25-14-6.37-20.54-10.42a68,68,0,0,1,38.9-1.75c15.4,3.74,27.07,12.54,34,26.82,5.65,11.68,12.34,21.78,26,25.08a11.14,11.14,0,0,1,5.24,3.58C167.1,335.72,175.3,345.37,182.7,354Z"/><path class="cls-1" d="M162.25,174.34c7.1,7.42,9.63,16.41,11.82,25.89,2,8.67,4.09,17.94,8.77,25.26,11.74,18.34,14.67,37.19,9.1,58.11-3.38,12.69-4.42,25.77.81,38.61l-8.57,8.18c-9.76-9.66-12.33-21.89-9.61-34.54,4.69-21.82,2.41-42.14-7.88-62-6.58-12.71-6.06-26.85-5.27-40.79C161.76,187,162,180.94,162.25,174.34Z"/><path class="cls-1" d="M284.46,173.46c-.9,18.54,3.21,37.34-3,55.58a53.85,53.85,0,0,1-3.16,8.18c-9.25,17.2-11.09,35.13-7.36,54.28,2.68,13.78,2.81,27.76-9.09,38.41l-8.36-7.75c4.88-11.3,5-23.34,1.45-35-7.13-23.43-3.66-44.51,10.39-64.62,3.89-5.56,5.15-13.29,6.46-20.24,2-10.65,4.43-20.86,12.72-28.6Z"/><path class="cls-1" d="M54.3,278.1c7.71,3,14.71,6.28,22,8.6,18.86,6,33.93,15.94,42.48,34.84,7.75,17.14,22.33,25.92,40.55,29.15,4.19.75,8.3,1.9,12.45,2.9,10.7,2.59,16.94,9.19,18,18.58-9.54-1.24-19.32-3.65-29.08-3.53-17.6.22-30.24-7.56-39.61-21.48-4.9-7.28-8.7-15.29-13.26-22.81-6.32-10.43-14.74-18.39-27.26-20.48C65.61,301.36,59.13,290.62,54.3,278.1Z"/><path class="cls-1" d="M256.1,372.37c1.58-12.15,11.07-17.48,23.41-20.22,8.54-1.9,17.17-4,25.22-7.34C316.37,340,324,330.26,329,319.16c6.88-15.28,18.58-24.22,33.81-29.69,9.74-3.5,19.3-7.5,29.31-11.42-5.24,11.11-9.94,22.51-24.94,25.18-12.74,2.27-22.34,9.76-28.84,21-4.15,7.15-7.85,14.58-12.32,21.52-10,15.51-23.86,23.46-42.94,22.89C274.09,368.38,265,371,256.1,372.37Z"/><path class="cls-1" d="M263.84,354c-.21.37-.43.74.05-.08-.85.42-.47.23-.09,0Z"/></svg>