%TF.GenerationSoftware,KiCad,Pcbnew,(6.0.5)*%
%TF.CreationDate,2022-08-10T18:54:24-07:00*%
%TF.ProjectId,AlpenglowSMTGarden,416c7065-6e67-46c6-9f77-534d54476172,rev?*%
%TF.SameCoordinates,Original*%
%TF.FileFunction,Soldermask,Top*%
%TF.FilePolarity,Negative*%
%FSLAX46Y46*%
G04 Gerber Fmt 4.6, Leading zero omitted, Abs format (unit mm)*
G04 Created by KiCad (PCBNEW (6.0.5)) date 2022-08-10 18:54:24*
%MOMM*%
%LPD*%
G01*
G04 APERTURE LIST*
G04 Aperture macros list*
%AMRoundRect*
0 Rectangle with rounded corners*
0 $1 Rounding radius*
0 $2 $3 $4 $5 $6 $7 $8 $9 X,Y pos of 4 corners*
0 Add a 4 corners polygon primitive as box body*
4,1,4,$2,$3,$4,$5,$6,$7,$8,$9,$2,$3,0*
0 Add four circle primitives for the rounded corners*
1,1,$1+$1,$2,$3*
1,1,$1+$1,$4,$5*
1,1,$1+$1,$6,$7*
1,1,$1+$1,$8,$9*
0 Add four rect primitives between the rounded corners*
20,1,$1+$1,$2,$3,$4,$5,0*
20,1,$1+$1,$4,$5,$6,$7,0*
20,1,$1+$1,$6,$7,$8,$9,0*
20,1,$1+$1,$8,$9,$2,$3,0*%
G04 Aperture macros list end*
%ADD10O,2.000000X1.000000*%
%ADD11O,3.500000X1.800000*%
%ADD12RoundRect,0.250000X0.119744X-0.557370X0.569696X-0.021139X-0.119744X0.557370X-0.569696X0.021139X0*%
%ADD13RoundRect,0.250000X0.503745X-0.233165X0.379719X0.404893X-0.503745X0.233165X-0.379719X-0.404893X0*%
%ADD14RoundRect,0.250000X0.386728X-0.398204X0.499599X0.241921X-0.386728X0.398204X-0.499599X-0.241921X0*%
%ADD15RoundRect,0.250000X0.499599X-0.241921X0.386728X0.398204X-0.499599X0.241921X-0.386728X-0.398204X0*%
%ADD16RoundRect,0.250000X0.056458X0.552211X-0.506458X0.227211X-0.056458X-0.552211X0.506458X-0.227211X0*%
%ADD17RoundRect,0.250000X0.554409X-0.027480X0.200394X0.517656X-0.554409X0.027480X-0.200394X-0.517656X0*%
%ADD18RoundRect,0.250000X0.335316X-0.442366X0.525358X0.179232X-0.335316X0.442366X-0.525358X-0.179232X0*%
%ADD19C,6.985000*%
%ADD20RoundRect,0.250000X-0.242056X0.516148X-0.559850X-0.107557X0.242056X-0.516148X0.559850X0.107557X0*%
%ADD21RoundRect,0.250000X0.276182X0.481507X-0.370257X0.413563X-0.276182X-0.481507X0.370257X-0.413563X0*%
%ADD22RoundRect,0.250000X-0.450000X0.350000X-0.450000X-0.350000X0.450000X-0.350000X0.450000X0.350000X0*%
%ADD23RoundRect,0.250000X0.450000X-0.325000X0.450000X0.325000X-0.450000X0.325000X-0.450000X-0.325000X0*%
%ADD24RoundRect,0.250000X0.197457X0.518783X-0.430394X0.350550X-0.197457X-0.518783X0.430394X-0.350550X0*%
%ADD25RoundRect,0.250000X0.163796X-0.530373X0.554976X-0.011260X-0.163796X0.530373X-0.554976X0.011260X0*%
%ADD26RoundRect,0.250000X-0.545540X0.165488X-0.294682X-0.488019X0.545540X-0.165488X0.294682X0.488019X0*%
%ADD27RoundRect,0.250000X0.398204X0.386728X-0.241921X0.499599X-0.398204X-0.386728X0.241921X-0.499599X0*%
%ADD28RoundRect,0.250000X-0.040290X0.553626X-0.538219X0.135814X0.040290X-0.553626X0.538219X-0.135814X0*%
%ADD29RoundRect,0.250000X-0.309448X-0.478792X0.387888X-0.417783X0.309448X0.478792X-0.387888X0.417783X0*%
%ADD30RoundRect,0.250000X-0.557370X-0.119744X-0.021139X-0.569696X0.557370X0.119744X0.021139X0.569696X0*%
%ADD31RoundRect,0.250000X0.419962X-0.362983X0.476613X0.284543X-0.419962X0.362983X-0.476613X-0.284543X0*%
%ADD32RoundRect,0.250000X0.430394X0.350550X-0.197457X0.518783X-0.430394X-0.350550X0.197457X-0.518783X0*%
%ADD33RoundRect,0.250000X-0.135814X0.538219X-0.553626X0.040290X0.135814X-0.538219X0.553626X-0.040290X0*%
%ADD34RoundRect,0.250000X-0.386728X0.398204X-0.499599X-0.241921X0.386728X-0.398204X0.499599X0.241921X0*%
%ADD35RoundRect,0.250000X0.459309X0.311705X-0.151491X0.534018X-0.459309X-0.311705X0.151491X-0.534018X0*%
%ADD36RoundRect,0.250000X-0.403991X0.402232X-0.489300X-0.292550X0.403991X-0.402232X0.489300X0.292550X0*%
%ADD37RoundRect,0.250000X-0.008115X-0.555031X0.524334X-0.182206X0.008115X0.555031X-0.524334X0.182206X0*%
%ADD38RoundRect,0.250000X-0.569240X-0.031078X-0.109999X-0.559375X0.569240X0.031078X0.109999X0.559375X0*%
%ADD39RoundRect,0.250000X-0.538219X-0.135814X-0.040290X-0.553626X0.538219X0.135814X0.040290X0.553626X0*%
G04 APERTURE END LIST*
%TO.C,G\u002A\u002A\u002A*%
G36*
X155646232Y-82902431D02*
G01*
X155925083Y-83017429D01*
X156389919Y-83208614D01*
X156981917Y-83451812D01*
X157642254Y-83722848D01*
X157822723Y-83796882D01*
X158436894Y-84056637D01*
X158943416Y-84285945D01*
X159301618Y-84465182D01*
X159470831Y-84574725D01*
X159476369Y-84594739D01*
X159121849Y-84781857D01*
X158583860Y-84922709D01*
X157940765Y-85009101D01*
X157270926Y-85032838D01*
X156652705Y-84985728D01*
X156346257Y-84922043D01*
X155773510Y-84698908D01*
X155421785Y-84382493D01*
X155250583Y-83919647D01*
X155216285Y-83439104D01*
X155216285Y-82724380D01*
X155646232Y-82902431D01*
G37*
G36*
X162129163Y-84086483D02*
G01*
X162298958Y-84238295D01*
X162439464Y-84525257D01*
X162547948Y-84801841D01*
X162711740Y-85239640D01*
X162911849Y-85785636D01*
X163129285Y-86386811D01*
X163345057Y-86990148D01*
X163540175Y-87542627D01*
X163695648Y-87991231D01*
X163792487Y-88282943D01*
X163815243Y-88366187D01*
X163750662Y-88416682D01*
X163542253Y-88334766D01*
X163168011Y-88109117D01*
X162691868Y-87788087D01*
X161929509Y-87181616D01*
X161372715Y-86567722D01*
X161037566Y-85969178D01*
X160940144Y-85408756D01*
X160948360Y-85319072D01*
X161107559Y-84759162D01*
X161394024Y-84333682D01*
X161765652Y-84098862D01*
X161879984Y-84074848D01*
X162129163Y-84086483D01*
G37*
G36*
X175034424Y-82797204D02*
G01*
X175076710Y-82963312D01*
X175085316Y-83297667D01*
X175065505Y-83706816D01*
X175022537Y-84097301D01*
X174961674Y-84375670D01*
X174943119Y-84418991D01*
X174721705Y-84647870D01*
X174386473Y-84828979D01*
X174381628Y-84830683D01*
X173990323Y-84907631D01*
X173414623Y-84947503D01*
X172732211Y-84949568D01*
X172020766Y-84913095D01*
X171498432Y-84857801D01*
X171135369Y-84781273D01*
X170903691Y-84681051D01*
X170867669Y-84639026D01*
X170970362Y-84556508D01*
X171270196Y-84395036D01*
X171719386Y-84175733D01*
X172270146Y-83919722D01*
X172874691Y-83648124D01*
X173485235Y-83382063D01*
X174053993Y-83142661D01*
X174533179Y-82951040D01*
X174875008Y-82828324D01*
X175031694Y-82795634D01*
X175034424Y-82797204D01*
G37*
G36*
X160859744Y-78536046D02*
G01*
X161211074Y-78736418D01*
X161222393Y-78746816D01*
X161517089Y-79183267D01*
X161707622Y-79803335D01*
X161788257Y-80545043D01*
X161753258Y-81346414D01*
X161596888Y-82145471D01*
X161551047Y-82297983D01*
X161434296Y-82586794D01*
X161330298Y-82725733D01*
X161320159Y-82727931D01*
X161241013Y-82612013D01*
X161081617Y-82291352D01*
X160860670Y-81806589D01*
X160596874Y-81198364D01*
X160397856Y-80723618D01*
X160063120Y-79893282D01*
X159837385Y-79281498D01*
X159714383Y-78868661D01*
X159687844Y-78635171D01*
X159711289Y-78576885D01*
X160005428Y-78444536D01*
X160423054Y-78434837D01*
X160859744Y-78536046D01*
G37*
G36*
X165649254Y-88382500D02*
G01*
X165921940Y-88613950D01*
X166061334Y-88884498D01*
X166064201Y-88922983D01*
X165935928Y-89017163D01*
X165549817Y-89067979D01*
X165138160Y-89077931D01*
X164654534Y-89060102D01*
X164327716Y-89011887D01*
X164212118Y-88943695D01*
X164322164Y-88779351D01*
X164591959Y-88581607D01*
X164930988Y-88402923D01*
X165248735Y-88295762D01*
X165349166Y-88284675D01*
X165649254Y-88382500D01*
G37*
G36*
X169713195Y-83468124D02*
G01*
X170029692Y-83669721D01*
X170166284Y-83942269D01*
X170167049Y-83961078D01*
X170200966Y-84207556D01*
X170248624Y-84414650D01*
X170259833Y-84657029D01*
X170121421Y-84700683D01*
X169851631Y-84551401D01*
X169468705Y-84214971D01*
X169399037Y-84145059D01*
X169103108Y-83829019D01*
X168901206Y-83585638D01*
X168842326Y-83483600D01*
X168958561Y-83420790D01*
X169243597Y-83390016D01*
X169295898Y-83389389D01*
X169713195Y-83468124D01*
G37*
G36*
X161408820Y-83425631D02*
G01*
X161339207Y-83618289D01*
X161065138Y-83948903D01*
X160877282Y-84145059D01*
X160505230Y-84505634D01*
X160273409Y-84673313D01*
X160152601Y-84658402D01*
X160113589Y-84471206D01*
X160113026Y-84414650D01*
X160221203Y-83892607D01*
X160525152Y-83536407D01*
X160940933Y-83378892D01*
X161275541Y-83352106D01*
X161408820Y-83425631D01*
G37*
G36*
X168733641Y-84170450D02*
G01*
X169059459Y-84480273D01*
X169313476Y-84906840D01*
X169448969Y-85376676D01*
X169443603Y-85719228D01*
X169266497Y-86147739D01*
X168912113Y-86649674D01*
X168435369Y-87171611D01*
X167891179Y-87660128D01*
X167334462Y-88061801D01*
X166820133Y-88323209D01*
X166738720Y-88350509D01*
X166515866Y-88393652D01*
X166482205Y-88295686D01*
X166512999Y-88200228D01*
X166727088Y-87649685D01*
X166986566Y-87019182D01*
X167271299Y-86353401D01*
X167561153Y-85697025D01*
X167835993Y-85094736D01*
X168075686Y-84591218D01*
X168260098Y-84231152D01*
X168369093Y-84059221D01*
X168382741Y-84050848D01*
X168733641Y-84170450D01*
G37*
G36*
X170603014Y-78532196D02*
G01*
X170739567Y-78593816D01*
X170707377Y-78733520D01*
X170592059Y-79067786D01*
X170413294Y-79547383D01*
X170190759Y-80123078D01*
X169944134Y-80745640D01*
X169693096Y-81365839D01*
X169457326Y-81934441D01*
X169256500Y-82402216D01*
X169110299Y-82719931D01*
X169044527Y-82834410D01*
X168982507Y-82749106D01*
X168876546Y-82474638D01*
X168785180Y-82187802D01*
X168636069Y-81475100D01*
X168587241Y-80733608D01*
X168631299Y-80020478D01*
X168760850Y-79392864D01*
X168968499Y-78907919D01*
X169246413Y-78623030D01*
X169510043Y-78546679D01*
X169888771Y-78504824D01*
X170285471Y-78499362D01*
X170603014Y-78532196D01*
G37*
G36*
X182916502Y-83487244D02*
G01*
X183011519Y-83493697D01*
X183044033Y-83496143D01*
X183516634Y-83552936D01*
X184009248Y-83653186D01*
X184519986Y-83796320D01*
X185046958Y-83981766D01*
X185588274Y-84208951D01*
X185931182Y-84370967D01*
X186108497Y-84459282D01*
X186279702Y-84546900D01*
X186450920Y-84637236D01*
X186628277Y-84733708D01*
X186817898Y-84839731D01*
X187025908Y-84958723D01*
X187258432Y-85094101D01*
X187521595Y-85249280D01*
X187762379Y-85392406D01*
X187952615Y-85506035D01*
X188104145Y-85597310D01*
X188220669Y-85668786D01*
X188305884Y-85723014D01*
X188363487Y-85762550D01*
X188397178Y-85789947D01*
X188410655Y-85807758D01*
X188407614Y-85818536D01*
X188391755Y-85824837D01*
X188389388Y-85825366D01*
X188303234Y-85835984D01*
X188182175Y-85840578D01*
X188040076Y-85839429D01*
X187890801Y-85832821D01*
X187748218Y-85821036D01*
X187664676Y-85810584D01*
X187441100Y-85774040D01*
X187223367Y-85730522D01*
X186995837Y-85676521D01*
X186742868Y-85608528D01*
X186663453Y-85585961D01*
X186263401Y-85462378D01*
X185856970Y-85320255D01*
X185450797Y-85162712D01*
X185051519Y-84992868D01*
X184665776Y-84813842D01*
X184300205Y-84628753D01*
X183961445Y-84440720D01*
X183656133Y-84252863D01*
X183390909Y-84068301D01*
X183323102Y-84016360D01*
X183214733Y-83926139D01*
X183105058Y-83825875D01*
X183003089Y-83724680D01*
X182917839Y-83631666D01*
X182858320Y-83555946D01*
X182842719Y-83530667D01*
X182831484Y-83506637D01*
X182834615Y-83492319D01*
X182860244Y-83486320D01*
X182916502Y-83487244D01*
G37*
G36*
X197888795Y-79870440D02*
G01*
X197892223Y-79934673D01*
X197889568Y-80032971D01*
X197881516Y-80158062D01*
X197868754Y-80302672D01*
X197851967Y-80459530D01*
X197831841Y-80621364D01*
X197809064Y-80780901D01*
X197784320Y-80930870D01*
X197768425Y-81015190D01*
X197686721Y-81372108D01*
X197583000Y-81731140D01*
X197455498Y-82096026D01*
X197302453Y-82470508D01*
X197122101Y-82858327D01*
X196912678Y-83263224D01*
X196672420Y-83688941D01*
X196399565Y-84139218D01*
X196092349Y-84617797D01*
X196015501Y-84733986D01*
X195896481Y-84911802D01*
X195801944Y-85050140D01*
X195730204Y-85151160D01*
X195679573Y-85217019D01*
X195648365Y-85249877D01*
X195634892Y-85251891D01*
X195637469Y-85225220D01*
X195640607Y-85213689D01*
X195649471Y-85177659D01*
X195667139Y-85101323D01*
X195691862Y-84992407D01*
X195721889Y-84858635D01*
X195755472Y-84707734D01*
X195767301Y-84654299D01*
X195892447Y-84108409D01*
X196016854Y-83607816D01*
X196141869Y-83148685D01*
X196268838Y-82727181D01*
X196399108Y-82339469D01*
X196534025Y-81981713D01*
X196674938Y-81650078D01*
X196823191Y-81340728D01*
X196980132Y-81049828D01*
X197108357Y-80835011D01*
X197192085Y-80705471D01*
X197286687Y-80567274D01*
X197387582Y-80426294D01*
X197490188Y-80288405D01*
X197589924Y-80159478D01*
X197682210Y-80045389D01*
X197762462Y-79952010D01*
X197826101Y-79885214D01*
X197868545Y-79850875D01*
X197878598Y-79847542D01*
X197888795Y-79870440D01*
G37*
G36*
X183337087Y-85614810D02*
G01*
X183636452Y-85615772D01*
X183895801Y-85618057D01*
X184124288Y-85622206D01*
X184331068Y-85628760D01*
X184525296Y-85638258D01*
X184716125Y-85651242D01*
X184912710Y-85668252D01*
X185124207Y-85689828D01*
X185359769Y-85716512D01*
X185628552Y-85748842D01*
X185648413Y-85751278D01*
X185911604Y-85785979D01*
X186199559Y-85828106D01*
X186496749Y-85875136D01*
X186787645Y-85924544D01*
X187056717Y-85973807D01*
X187234376Y-86009040D01*
X187338613Y-86031452D01*
X187465757Y-86060114D01*
X187607839Y-86093086D01*
X187756893Y-86128425D01*
X187904951Y-86164192D01*
X188044047Y-86198446D01*
X188166212Y-86229247D01*
X188263479Y-86254652D01*
X188327881Y-86272722D01*
X188351107Y-86281066D01*
X188355596Y-86289927D01*
X188342671Y-86298958D01*
X188306524Y-86309437D01*
X188241347Y-86322640D01*
X188141330Y-86339847D01*
X188000666Y-86362335D01*
X187935151Y-86372561D01*
X187379447Y-86450600D01*
X186817749Y-86513441D01*
X186258647Y-86560599D01*
X185710733Y-86591592D01*
X185182599Y-86605935D01*
X184682836Y-86603146D01*
X184220036Y-86582739D01*
X184211466Y-86582165D01*
X183670052Y-86533374D01*
X183126652Y-86460823D01*
X182593686Y-86366683D01*
X182083575Y-86253130D01*
X181642995Y-86132737D01*
X181384279Y-86054802D01*
X181364459Y-85959407D01*
X181354585Y-85896192D01*
X181354472Y-85856579D01*
X181356457Y-85852192D01*
X181385677Y-85840010D01*
X181453185Y-85818950D01*
X181549437Y-85791562D01*
X181664890Y-85760393D01*
X181790001Y-85727992D01*
X181915225Y-85696907D01*
X182031020Y-85669686D01*
X182083069Y-85658177D01*
X182139624Y-85647015D01*
X182199046Y-85637861D01*
X182266633Y-85630532D01*
X182347687Y-85624844D01*
X182447509Y-85620616D01*
X182571398Y-85617662D01*
X182724655Y-85615801D01*
X182912582Y-85614848D01*
X183140477Y-85614621D01*
X183337087Y-85614810D01*
G37*
G36*
X189484339Y-79740726D02*
G01*
X189565233Y-79777659D01*
X189665257Y-79827892D01*
X189776779Y-79887346D01*
X189892168Y-79951940D01*
X190003792Y-80017594D01*
X190104020Y-80080228D01*
X190185220Y-80135761D01*
X190192764Y-80141337D01*
X190384563Y-80294444D01*
X190600362Y-80484404D01*
X190836766Y-80707230D01*
X191090379Y-80958936D01*
X191357806Y-81235535D01*
X191635651Y-81533040D01*
X191920520Y-81847464D01*
X192209016Y-82174822D01*
X192497745Y-82511125D01*
X192783312Y-82852388D01*
X193062319Y-83194623D01*
X193331374Y-83533844D01*
X193587079Y-83866065D01*
X193826040Y-84187298D01*
X194044861Y-84493557D01*
X194240147Y-84780854D01*
X194408503Y-85045205D01*
X194498595Y-85197092D01*
X194565781Y-85315792D01*
X194606498Y-85395369D01*
X194619199Y-85439095D01*
X194602335Y-85450242D01*
X194554357Y-85432083D01*
X194473715Y-85387891D01*
X194422411Y-85358077D01*
X194131980Y-85174396D01*
X193821311Y-84952247D01*
X193494452Y-84695924D01*
X193155454Y-84409721D01*
X192808363Y-84097930D01*
X192457230Y-83764847D01*
X192106103Y-83414764D01*
X191759032Y-83051974D01*
X191420064Y-82680773D01*
X191093249Y-82305452D01*
X190782636Y-81930306D01*
X190492274Y-81559629D01*
X190226211Y-81197713D01*
X189988496Y-80848854D01*
X189783179Y-80517343D01*
X189674160Y-80322835D01*
X189609080Y-80196858D01*
X189547044Y-80068854D01*
X189492113Y-79948058D01*
X189448343Y-79843700D01*
X189419796Y-79765013D01*
X189410465Y-79723082D01*
X189430205Y-79721173D01*
X189484339Y-79740726D01*
G37*
G36*
X192735399Y-79879998D02*
G01*
X192798044Y-79943569D01*
X192878289Y-80034122D01*
X192970767Y-80145051D01*
X193070110Y-80269752D01*
X193170953Y-80401618D01*
X193267927Y-80534044D01*
X193355666Y-80660423D01*
X193362709Y-80670949D01*
X193547081Y-80963183D01*
X193718031Y-81268086D01*
X193877255Y-81590148D01*
X194026449Y-81933859D01*
X194167308Y-82303708D01*
X194301527Y-82704185D01*
X194430803Y-83139781D01*
X194556830Y-83614985D01*
X194681304Y-84134287D01*
X194697584Y-84205817D01*
X194751570Y-84444550D01*
X194795552Y-84639710D01*
X194830421Y-84795677D01*
X194857073Y-84916833D01*
X194876398Y-85007558D01*
X194889292Y-85072232D01*
X194896646Y-85115238D01*
X194899355Y-85140956D01*
X194898311Y-85153766D01*
X194894408Y-85158051D01*
X194891792Y-85158365D01*
X194871979Y-85139080D01*
X194829716Y-85085698D01*
X194769998Y-85004931D01*
X194697819Y-84903489D01*
X194640155Y-84820272D01*
X194308131Y-84324068D01*
X194012162Y-83855828D01*
X193750598Y-83411945D01*
X193521788Y-82988812D01*
X193324082Y-82582821D01*
X193155830Y-82190366D01*
X193015382Y-81807839D01*
X192901089Y-81431634D01*
X192811299Y-81058142D01*
X192744363Y-80683757D01*
X192742662Y-80672275D01*
X192724937Y-80538201D01*
X192709709Y-80396878D01*
X192697439Y-80256411D01*
X192688591Y-80124903D01*
X192683627Y-80010459D01*
X192683009Y-79921183D01*
X192687200Y-79865179D01*
X192695721Y-79850016D01*
X192735399Y-79879998D01*
G37*
G36*
X195340909Y-79920998D02*
G01*
X195392253Y-80048762D01*
X195449874Y-80208172D01*
X195508473Y-80383079D01*
X195562753Y-80557335D01*
X195607416Y-80714788D01*
X195627258Y-80793892D01*
X195714503Y-81257587D01*
X195763760Y-81739772D01*
X195775058Y-82243435D01*
X195748428Y-82771559D01*
X195683901Y-83327132D01*
X195655246Y-83511244D01*
X195623070Y-83698303D01*
X195586486Y-83897007D01*
X195546847Y-84101205D01*
X195505506Y-84304750D01*
X195463819Y-84501492D01*
X195423138Y-84685283D01*
X195384817Y-84849973D01*
X195350210Y-84989413D01*
X195320670Y-85097454D01*
X195297551Y-85167948D01*
X195285082Y-85192657D01*
X195266840Y-85187999D01*
X195249731Y-85146636D01*
X195248985Y-85143480D01*
X195235194Y-85085101D01*
X195213842Y-84996783D01*
X195189233Y-84896312D01*
X195185939Y-84882958D01*
X195046225Y-84271374D01*
X194938129Y-83694794D01*
X194861510Y-83150681D01*
X194816225Y-82636493D01*
X194802133Y-82149690D01*
X194819090Y-81687734D01*
X194866955Y-81248083D01*
X194945586Y-80828198D01*
X194956467Y-80781598D01*
X195011434Y-80575313D01*
X195080408Y-80353499D01*
X195156460Y-80136992D01*
X195232665Y-79946628D01*
X195238499Y-79933292D01*
X195292686Y-79810349D01*
X195340909Y-79920998D01*
G37*
G36*
X184749224Y-81655565D02*
G01*
X184848249Y-81677209D01*
X184979468Y-81716523D01*
X184996816Y-81722275D01*
X185210526Y-81811405D01*
X185444178Y-81941202D01*
X185694801Y-82108820D01*
X185959424Y-82311413D01*
X186235076Y-82546137D01*
X186518784Y-82810144D01*
X186807579Y-83100590D01*
X187098488Y-83414629D01*
X187388541Y-83749415D01*
X187674765Y-84102103D01*
X187954190Y-84469846D01*
X188148110Y-84740359D01*
X188263115Y-84907372D01*
X188372088Y-85070368D01*
X188472092Y-85224512D01*
X188560190Y-85364972D01*
X188633443Y-85486914D01*
X188688913Y-85585506D01*
X188723663Y-85655914D01*
X188734755Y-85693304D01*
X188730248Y-85698098D01*
X188701831Y-85685048D01*
X188642471Y-85651011D01*
X188562353Y-85601960D01*
X188512982Y-85570653D01*
X188054059Y-85271199D01*
X187637037Y-84988174D01*
X187258608Y-84718653D01*
X186915464Y-84459709D01*
X186604298Y-84208417D01*
X186321803Y-83961849D01*
X186064670Y-83717081D01*
X185829594Y-83471186D01*
X185613266Y-83221238D01*
X185412378Y-82964311D01*
X185223624Y-82697478D01*
X185164336Y-82608131D01*
X185101312Y-82507553D01*
X185030486Y-82387717D01*
X184956010Y-82256437D01*
X184882036Y-82121529D01*
X184812717Y-81990806D01*
X184752205Y-81872084D01*
X184704651Y-81773177D01*
X184674209Y-81701901D01*
X184664870Y-81668087D01*
X184686672Y-81652292D01*
X184749224Y-81655565D01*
G37*
G36*
X189056852Y-79934976D02*
G01*
X189158054Y-80081527D01*
X189254769Y-80272945D01*
X189345743Y-80505026D01*
X189429721Y-80773567D01*
X189505448Y-81074363D01*
X189571669Y-81403210D01*
X189627129Y-81755906D01*
X189647215Y-81912673D01*
X189662341Y-82073374D01*
X189674402Y-82270729D01*
X189683335Y-82494726D01*
X189689076Y-82735356D01*
X189691564Y-82982607D01*
X189690733Y-83226470D01*
X189686522Y-83456934D01*
X189678866Y-83663989D01*
X189667703Y-83837623D01*
X189659882Y-83916642D01*
X189616270Y-84248417D01*
X189565406Y-84564725D01*
X189509318Y-84853996D01*
X189455326Y-85084451D01*
X189421480Y-85213637D01*
X189397221Y-85301020D01*
X189380235Y-85352510D01*
X189368204Y-85374019D01*
X189358815Y-85371456D01*
X189350351Y-85352446D01*
X189315233Y-85243119D01*
X189272265Y-85093457D01*
X189223359Y-84911322D01*
X189170425Y-84704576D01*
X189115375Y-84481082D01*
X189060121Y-84248703D01*
X189006574Y-84015302D01*
X188956647Y-83788740D01*
X188912250Y-83576881D01*
X188884431Y-83436025D01*
X188805718Y-82999594D01*
X188744192Y-82600955D01*
X188699054Y-82232133D01*
X188669504Y-81885148D01*
X188654746Y-81552024D01*
X188653980Y-81224784D01*
X188655674Y-81150427D01*
X188666926Y-80879912D01*
X188685609Y-80651378D01*
X188713169Y-80457992D01*
X188751053Y-80292923D01*
X188800705Y-80149339D01*
X188863571Y-80020409D01*
X188911229Y-79942699D01*
X188978276Y-79841383D01*
X189056852Y-79934976D01*
G37*
G36*
X201169528Y-79915150D02*
G01*
X200979203Y-80243873D01*
X200611937Y-80840859D01*
X200209367Y-81423360D01*
X199769703Y-81993294D01*
X199291157Y-82552581D01*
X198771939Y-83103142D01*
X198210260Y-83646895D01*
X197604330Y-84185761D01*
X196952359Y-84721659D01*
X196430504Y-85123982D01*
X196285387Y-85232858D01*
X196174845Y-85315360D01*
X196094198Y-85374740D01*
X196038768Y-85414250D01*
X196003876Y-85437140D01*
X195984843Y-85446662D01*
X195976992Y-85446067D01*
X195975615Y-85440096D01*
X195989430Y-85412900D01*
X196028852Y-85350087D01*
X196090847Y-85256014D01*
X196172380Y-85135040D01*
X196270417Y-84991522D01*
X196381923Y-84829818D01*
X196503864Y-84654287D01*
X196633206Y-84469286D01*
X196766914Y-84279175D01*
X196901954Y-84088310D01*
X197035291Y-83901049D01*
X197163891Y-83721752D01*
X197284720Y-83554775D01*
X197361654Y-83449459D01*
X197783259Y-82888723D01*
X198193586Y-82371521D01*
X198595913Y-81894411D01*
X198993518Y-81453954D01*
X199389675Y-81046708D01*
X199787663Y-80669233D01*
X200190758Y-80318088D01*
X200602237Y-79989832D01*
X200790815Y-79848811D01*
X200971068Y-79716690D01*
X201169528Y-79915150D01*
G37*
G36*
X186708608Y-79647702D02*
G01*
X186745698Y-79683943D01*
X186800081Y-79747658D01*
X186875210Y-79842697D01*
X186974535Y-79972915D01*
X187004978Y-80013313D01*
X187145616Y-80201711D01*
X187261219Y-80360577D01*
X187357454Y-80498794D01*
X187439990Y-80625243D01*
X187514494Y-80748807D01*
X187586637Y-80878368D01*
X187662084Y-81022808D01*
X187710848Y-81119411D01*
X187820835Y-81343347D01*
X187922177Y-81559277D01*
X188016568Y-81772153D01*
X188105702Y-81986929D01*
X188191270Y-82208555D01*
X188274967Y-82441985D01*
X188358485Y-82692169D01*
X188443517Y-82964061D01*
X188531757Y-83262612D01*
X188624897Y-83592775D01*
X188724630Y-83959501D01*
X188832650Y-84367744D01*
X188868934Y-84506767D01*
X188917792Y-84694244D01*
X188963116Y-84867669D01*
X189003312Y-85020979D01*
X189036785Y-85148112D01*
X189061942Y-85243008D01*
X189077188Y-85299604D01*
X189080718Y-85312043D01*
X189085450Y-85349102D01*
X189064493Y-85345686D01*
X189018927Y-85302573D01*
X188949828Y-85220543D01*
X188944277Y-85213540D01*
X188580323Y-84729015D01*
X188239928Y-84227849D01*
X187925564Y-83715077D01*
X187639701Y-83195737D01*
X187384810Y-82674865D01*
X187163362Y-82157498D01*
X186977828Y-81648672D01*
X186830678Y-81153423D01*
X186727840Y-80695538D01*
X186709676Y-80579616D01*
X186693491Y-80442145D01*
X186679762Y-80292194D01*
X186668965Y-80138834D01*
X186661576Y-79991134D01*
X186658072Y-79858164D01*
X186658929Y-79748993D01*
X186664624Y-79672693D01*
X186672503Y-79642229D01*
X186685361Y-79635082D01*
X186708608Y-79647702D01*
G37*
G36*
X167860004Y-63971717D02*
G01*
X168226147Y-64048121D01*
X168319420Y-64070883D01*
X168698760Y-64182132D01*
X169060989Y-64317528D01*
X169357009Y-64454603D01*
X169537724Y-64570889D01*
X169561213Y-64639192D01*
X169452299Y-64681474D01*
X169176323Y-64779089D01*
X168772995Y-64918224D01*
X168282023Y-65085065D01*
X168195734Y-65114167D01*
X167234723Y-65405547D01*
X166423719Y-65577196D01*
X165732833Y-65632565D01*
X165132175Y-65575100D01*
X164843004Y-65500964D01*
X164517631Y-65388675D01*
X164281551Y-65289474D01*
X164213518Y-65248399D01*
X164253198Y-65161172D01*
X164458049Y-65019395D01*
X164787770Y-64841430D01*
X165202057Y-64645640D01*
X165660609Y-64450387D01*
X166123125Y-64274033D01*
X166549301Y-64134940D01*
X166797622Y-64071044D01*
X167238758Y-63983169D01*
X167561880Y-63950063D01*
X167860004Y-63971717D01*
G37*
G36*
X172724060Y-71873523D02*
G01*
X172733634Y-72122208D01*
X172686993Y-72474046D01*
X172592234Y-72877788D01*
X172457453Y-73282184D01*
X172386189Y-73450098D01*
X172164100Y-73845360D01*
X171860991Y-74278449D01*
X171627994Y-74559067D01*
X171359678Y-74841473D01*
X171195921Y-74976584D01*
X171102308Y-74985102D01*
X171051282Y-74905990D01*
X171006529Y-74607795D01*
X171029993Y-74186920D01*
X171110001Y-73723546D01*
X171234879Y-73297853D01*
X171310770Y-73123657D01*
X171490863Y-72846142D01*
X171753223Y-72528507D01*
X172051015Y-72217760D01*
X172337405Y-71960911D01*
X172565560Y-71804969D01*
X172650173Y-71779239D01*
X172724060Y-71873523D01*
G37*
G36*
X189445451Y-63819772D02*
G01*
X189723936Y-63891355D01*
X190140241Y-64019682D01*
X190661295Y-64194613D01*
X191194507Y-64384259D01*
X191776337Y-64602293D01*
X192275033Y-64800651D01*
X192659233Y-64965902D01*
X192897572Y-65084615D01*
X192961283Y-65140849D01*
X192796072Y-65252051D01*
X192472049Y-65362752D01*
X192048064Y-65459878D01*
X191582966Y-65530354D01*
X191135607Y-65561107D01*
X191068068Y-65561459D01*
X190650676Y-65535475D01*
X190184456Y-65454692D01*
X189617773Y-65307907D01*
X188962103Y-65104547D01*
X188451751Y-64933855D01*
X188025662Y-64782947D01*
X187721896Y-64665943D01*
X187578514Y-64596963D01*
X187572188Y-64588912D01*
X187667472Y-64526524D01*
X187921514Y-64414509D01*
X188286605Y-64273276D01*
X188438506Y-64218331D01*
X188837782Y-64067167D01*
X189148366Y-63932042D01*
X189319966Y-63835507D01*
X189337862Y-63815070D01*
X189445451Y-63819772D01*
G37*
G36*
X171171903Y-53499751D02*
G01*
X171852819Y-54378030D01*
X172361425Y-55386691D01*
X172630854Y-56229258D01*
X172773654Y-56839113D01*
X172872945Y-57355877D01*
X172924368Y-57748515D01*
X172923564Y-57985995D01*
X172885659Y-58043616D01*
X172769742Y-57970791D01*
X172549530Y-57778724D01*
X172270060Y-57507032D01*
X172235012Y-57471299D01*
X171501125Y-56587259D01*
X170979647Y-55656138D01*
X170669638Y-54675777D01*
X170570155Y-53644365D01*
X170574130Y-52865505D01*
X171171903Y-53499751D01*
G37*
G36*
X185009876Y-72041412D02*
G01*
X185496986Y-72476139D01*
X185893232Y-73052137D01*
X186160906Y-73699230D01*
X186262302Y-74347243D01*
X186262365Y-74372384D01*
X186239622Y-74740945D01*
X186162232Y-74917405D01*
X186010686Y-74905472D01*
X185765476Y-74708858D01*
X185566211Y-74504788D01*
X185038311Y-73824314D01*
X184705902Y-73106872D01*
X184572899Y-72527965D01*
X184551710Y-72143255D01*
X184631942Y-71949075D01*
X184817703Y-71940849D01*
X185009876Y-72041412D01*
G37*
G36*
X176888927Y-74232028D02*
G01*
X176834420Y-74286535D01*
X176779914Y-74232028D01*
X176834420Y-74177522D01*
X176888927Y-74232028D01*
G37*
G36*
X166641716Y-71506707D02*
G01*
X166587210Y-71561213D01*
X166532703Y-71506707D01*
X166587210Y-71452200D01*
X166641716Y-71506707D01*
G37*
G36*
X186672926Y-53864119D02*
G01*
X186643621Y-54379338D01*
X186588700Y-54765560D01*
X186486155Y-55111784D01*
X186313981Y-55507010D01*
X186217863Y-55704468D01*
X185733362Y-56510929D01*
X185083659Y-57283531D01*
X185046265Y-57322163D01*
X184290674Y-58098123D01*
X184364220Y-57389539D01*
X184547255Y-56274918D01*
X184857784Y-55310127D01*
X185312268Y-54457362D01*
X185927167Y-53678822D01*
X186024702Y-53575961D01*
X186711980Y-52865505D01*
X186672926Y-53864119D01*
G37*
G36*
X176103857Y-55144638D02*
G01*
X176368401Y-55259128D01*
X176605529Y-55371079D01*
X177304950Y-55624626D01*
X178096713Y-55768831D01*
X178917023Y-55802623D01*
X179702083Y-55724926D01*
X180388099Y-55534668D01*
X180598763Y-55438292D01*
X181010732Y-55223562D01*
X180582865Y-56149677D01*
X180356537Y-56679482D01*
X180140787Y-57252304D01*
X179975109Y-57761763D01*
X179948054Y-57859490D01*
X179850188Y-58279019D01*
X179766399Y-58726275D01*
X179703380Y-59150722D01*
X179667825Y-59501829D01*
X179666426Y-59729061D01*
X179692639Y-59787822D01*
X179753151Y-59694859D01*
X179889153Y-59438677D01*
X180083317Y-59053340D01*
X180318313Y-58572911D01*
X180446911Y-58305164D01*
X180695440Y-57794188D01*
X180912470Y-57365988D01*
X181080752Y-57053198D01*
X181183037Y-56888453D01*
X181204380Y-56872088D01*
X181211177Y-56997418D01*
X181175417Y-57266065D01*
X181132373Y-57488627D01*
X181066156Y-57963262D01*
X181086363Y-58326503D01*
X181187631Y-58543116D01*
X181299823Y-58588681D01*
X181354804Y-58644439D01*
X181320326Y-58828151D01*
X181189787Y-59164473D01*
X181078574Y-59414832D01*
X180913202Y-59807110D01*
X180802616Y-60128003D01*
X180764434Y-60323937D01*
X180770515Y-60351707D01*
X180917893Y-60418929D01*
X181098700Y-60412776D01*
X181295861Y-60390410D01*
X181358455Y-60406811D01*
X181302285Y-60512765D01*
X181155870Y-60745577D01*
X180975225Y-61018518D01*
X180591996Y-61586535D01*
X181133700Y-61619310D01*
X181502812Y-61666913D01*
X181751033Y-61782116D01*
X181952981Y-61981966D01*
X182131835Y-62228498D01*
X182226198Y-62424834D01*
X182230558Y-62455339D01*
X182329240Y-62618434D01*
X182592228Y-62715085D01*
X182795774Y-62731170D01*
X182986088Y-62661318D01*
X183268653Y-62478677D01*
X183565440Y-62237284D01*
X184198243Y-61730170D01*
X184879648Y-61315928D01*
X185651916Y-60975921D01*
X186557307Y-60691512D01*
X187626695Y-60446332D01*
X188816754Y-60120181D01*
X189860236Y-59642135D01*
X190774857Y-59003631D01*
X190974752Y-58827773D01*
X191285737Y-58550251D01*
X191450790Y-58423700D01*
X191476898Y-58443688D01*
X191409696Y-58551900D01*
X190894026Y-59150892D01*
X190238630Y-59663400D01*
X189425258Y-60099193D01*
X188435659Y-60468040D01*
X187251582Y-60779712D01*
X187245150Y-60781142D01*
X186696637Y-60921462D01*
X186138008Y-61094842D01*
X185665237Y-61270619D01*
X185540787Y-61325632D01*
X185065620Y-61576924D01*
X184565362Y-61887277D01*
X184091455Y-62219965D01*
X183695345Y-62538259D01*
X183428474Y-62805433D01*
X183384665Y-62864934D01*
X183303086Y-63067882D01*
X183208742Y-63419312D01*
X183112220Y-63861232D01*
X183024110Y-64335649D01*
X182955001Y-64784571D01*
X182915480Y-65150006D01*
X182916137Y-65373961D01*
X182922276Y-65397346D01*
X183049149Y-65505160D01*
X183307996Y-65622008D01*
X183413660Y-65656833D01*
X183713548Y-65781005D01*
X184115340Y-65992499D01*
X184544121Y-66251087D01*
X184651402Y-66321485D01*
X184964819Y-66541922D01*
X185274021Y-66785760D01*
X185602656Y-67076041D01*
X185974375Y-67435805D01*
X186412827Y-67888092D01*
X186941661Y-68455944D01*
X187584528Y-69162401D01*
X187709140Y-69300472D01*
X188113531Y-69729189D01*
X188515755Y-70106548D01*
X188961411Y-70468987D01*
X189496095Y-70852944D01*
X190165406Y-71294856D01*
X190362388Y-71420743D01*
X190443058Y-71489111D01*
X190366126Y-71484372D01*
X190173047Y-71422373D01*
X189905270Y-71318966D01*
X189604249Y-71189998D01*
X189311435Y-71051320D01*
X189101941Y-70938805D01*
X188893892Y-70786562D01*
X188557518Y-70503297D01*
X188118499Y-70112317D01*
X187602516Y-69636931D01*
X187035249Y-69100443D01*
X186442381Y-68526163D01*
X186427553Y-68511621D01*
X185642710Y-67751004D01*
X184986175Y-67137826D01*
X184439452Y-66658329D01*
X183984045Y-66298757D01*
X183601459Y-66045352D01*
X183273198Y-65884358D01*
X182980765Y-65802017D01*
X182759760Y-65783531D01*
X182488987Y-65860464D01*
X182103728Y-66095811D01*
X181696010Y-66410355D01*
X181335371Y-66710420D01*
X181110816Y-66922531D01*
X180989779Y-67096907D01*
X180939691Y-67283763D01*
X180927983Y-67533319D01*
X180927378Y-67595518D01*
X180954257Y-67932842D01*
X181029683Y-68411938D01*
X181139313Y-68965821D01*
X181268805Y-69527505D01*
X181403817Y-70030004D01*
X181528273Y-70402006D01*
X181564652Y-70540290D01*
X181472614Y-70529718D01*
X181382555Y-70483982D01*
X181164746Y-70422040D01*
X180990964Y-70527109D01*
X180855969Y-70774358D01*
X180760341Y-71166997D01*
X180715261Y-71634222D01*
X180731911Y-72105226D01*
X180736185Y-72140486D01*
X180755427Y-72331771D01*
X180739742Y-72399669D01*
X180674285Y-72326572D01*
X180544214Y-72094870D01*
X180334685Y-71686956D01*
X180305865Y-71630010D01*
X180059892Y-71103274D01*
X179828736Y-70538593D01*
X179651173Y-70032934D01*
X179608316Y-69885804D01*
X179399737Y-69108423D01*
X179438950Y-70362071D01*
X179469915Y-70995408D01*
X179528115Y-71528981D01*
X179628427Y-72052649D01*
X179785731Y-72656273D01*
X179863123Y-72923874D01*
X180007740Y-73420856D01*
X180124754Y-73833641D01*
X180203004Y-74122065D01*
X180231333Y-74245961D01*
X180230951Y-74247797D01*
X180169778Y-74173169D01*
X180031450Y-73964760D01*
X179919179Y-73786019D01*
X179510956Y-73288332D01*
X179025002Y-72978352D01*
X178482930Y-72869799D01*
X178475783Y-72869775D01*
X178236736Y-72887808D01*
X178032225Y-72964948D01*
X177805915Y-73134970D01*
X177501466Y-73431654D01*
X177449570Y-73485046D01*
X177185833Y-73743538D01*
X177002494Y-73896060D01*
X176928538Y-73919647D01*
X176933605Y-73893844D01*
X177068569Y-73487838D01*
X177205367Y-72973917D01*
X177338231Y-72387876D01*
X177461395Y-71765512D01*
X177569092Y-71142621D01*
X177655555Y-70555000D01*
X177715017Y-70038445D01*
X177741710Y-69628753D01*
X177729869Y-69361720D01*
X177678081Y-69272773D01*
X177606874Y-69372343D01*
X177485976Y-69648377D01*
X177327209Y-70068169D01*
X177142395Y-70599016D01*
X176943356Y-71208212D01*
X176742753Y-71860245D01*
X176616849Y-72237898D01*
X176498280Y-72517392D01*
X176409512Y-72647163D01*
X176398369Y-72650643D01*
X176347307Y-72547045D01*
X176321614Y-72252565D01*
X176323197Y-71793085D01*
X176326998Y-71682527D01*
X176326658Y-71027872D01*
X176266602Y-70582785D01*
X176146795Y-70347133D01*
X175967203Y-70320787D01*
X175964804Y-70321695D01*
X175801954Y-70468498D01*
X175740593Y-70591751D01*
X175645609Y-70734075D01*
X175571145Y-70737667D01*
X175507044Y-70621747D01*
X175516858Y-70595319D01*
X175582129Y-70429200D01*
X175679667Y-70107269D01*
X175798909Y-69672735D01*
X175929294Y-69168809D01*
X176060257Y-68638702D01*
X176181237Y-68125625D01*
X176281671Y-67672789D01*
X176350995Y-67323404D01*
X176378649Y-67120681D01*
X176374144Y-67088263D01*
X176033474Y-66809539D01*
X175632519Y-66514636D01*
X175218254Y-66234139D01*
X174837651Y-65998632D01*
X174537683Y-65838699D01*
X174371926Y-65784596D01*
X173947534Y-65871187D01*
X173419357Y-66115900D01*
X172811903Y-66500575D01*
X172149681Y-67007051D01*
X171457201Y-67617168D01*
X170758971Y-68312764D01*
X170339744Y-68772379D01*
X169921271Y-69232294D01*
X169492344Y-69676248D01*
X169102827Y-70054198D01*
X168802583Y-70316102D01*
X168797994Y-70319686D01*
X168481378Y-70545611D01*
X168099081Y-70788459D01*
X167696761Y-71023152D01*
X167320078Y-71224615D01*
X167014693Y-71367770D01*
X166826264Y-71427541D01*
X166792389Y-71421185D01*
X166854238Y-71344913D01*
X167059079Y-71184339D01*
X167365483Y-70971450D01*
X167430244Y-70928719D01*
X167790638Y-70675801D01*
X168176145Y-70368301D01*
X168609247Y-69985324D01*
X169112424Y-69505973D01*
X169708158Y-68909352D01*
X170418930Y-68174566D01*
X170620686Y-67963206D01*
X171491677Y-67108385D01*
X172294191Y-66447057D01*
X173040291Y-65970107D01*
X173588765Y-65720985D01*
X173904785Y-65597017D01*
X174133013Y-65493501D01*
X174194611Y-65456523D01*
X174205321Y-65327697D01*
X174170619Y-65031788D01*
X174097205Y-64613421D01*
X173996786Y-64139134D01*
X173871892Y-63603387D01*
X173769628Y-63229064D01*
X173665818Y-62964646D01*
X173536288Y-62758612D01*
X173356862Y-62559444D01*
X173171400Y-62380159D01*
X172475004Y-61840115D01*
X171618268Y-61373134D01*
X170653387Y-61003662D01*
X169748583Y-60777139D01*
X168608408Y-60507745D01*
X167655703Y-60161877D01*
X166870401Y-59729881D01*
X166232437Y-59202104D01*
X166040081Y-58992774D01*
X165802081Y-58692698D01*
X165718844Y-58537335D01*
X165781088Y-58527786D01*
X165979531Y-58665153D01*
X166304890Y-58950536D01*
X166315180Y-58960147D01*
X167032875Y-59502360D01*
X167920802Y-59956935D01*
X168943081Y-60307323D01*
X169541273Y-60447973D01*
X170677542Y-60714956D01*
X171629174Y-61030506D01*
X172426833Y-61408838D01*
X173101185Y-61864166D01*
X173612672Y-62335307D01*
X173967780Y-62632763D01*
X174285392Y-62731151D01*
X174289704Y-62731170D01*
X174488244Y-62713662D01*
X174646662Y-62634173D01*
X174813119Y-62452253D01*
X175035774Y-62127452D01*
X175068467Y-62077093D01*
X175253077Y-61835397D01*
X175455309Y-61715482D01*
X175768287Y-61666606D01*
X175829669Y-61662322D01*
X176130428Y-61624329D01*
X176315575Y-61565190D01*
X176343862Y-61531515D01*
X176291082Y-61394762D01*
X176152812Y-61130700D01*
X175962042Y-60801651D01*
X175763459Y-60453420D01*
X175680877Y-60248041D01*
X175703116Y-60151279D01*
X175744017Y-60134121D01*
X175862514Y-60057258D01*
X175897540Y-59874908D01*
X175847894Y-59556248D01*
X175712376Y-59070454D01*
X175701216Y-59034445D01*
X175608438Y-58694840D01*
X175567727Y-58455525D01*
X175585770Y-58370655D01*
X175721927Y-58449328D01*
X175744291Y-58479668D01*
X175891580Y-58584660D01*
X175924333Y-58588681D01*
X175976198Y-58492053D01*
X175993535Y-58245133D01*
X175979542Y-57912365D01*
X175937423Y-57558191D01*
X175870377Y-57247057D01*
X175855299Y-57198767D01*
X175828582Y-57007763D01*
X175878827Y-56953488D01*
X175960530Y-57046685D01*
X176114494Y-57303151D01*
X176321614Y-57688199D01*
X176562784Y-58167138D01*
X176674395Y-58397908D01*
X176937516Y-58931021D01*
X177153745Y-59333898D01*
X177310891Y-59585712D01*
X177396766Y-59665637D01*
X177407465Y-59650398D01*
X177421705Y-59281374D01*
X177348250Y-58764599D01*
X177200905Y-58145280D01*
X176993471Y-57468626D01*
X176739753Y-56779844D01*
X176453554Y-56124142D01*
X176160730Y-55567194D01*
X176019727Y-55301863D01*
X175957676Y-55132702D01*
X175968346Y-55100269D01*
X176103857Y-55144638D01*
G37*
G36*
X128199816Y-84102020D02*
G01*
X128481662Y-84133654D01*
X128600892Y-84152549D01*
X128893726Y-84204086D01*
X129132292Y-84251161D01*
X129269780Y-84284463D01*
X129277208Y-84287070D01*
X129327589Y-84332454D01*
X129344101Y-84431921D01*
X129323608Y-84606730D01*
X129262971Y-84878140D01*
X129159051Y-85267413D01*
X129103160Y-85466177D01*
X128955979Y-86228166D01*
X128920885Y-87055142D01*
X128998826Y-87903543D01*
X129044593Y-88156723D01*
X129153938Y-88986466D01*
X129169283Y-89905528D01*
X129091315Y-90880062D01*
X128974665Y-91613298D01*
X128892823Y-92047166D01*
X128815848Y-92472188D01*
X128751951Y-92841946D01*
X128709340Y-93110021D01*
X128706773Y-93127977D01*
X128669244Y-93374257D01*
X128641229Y-93482487D01*
X128614023Y-93468896D01*
X128581781Y-93361004D01*
X128559553Y-93210976D01*
X128533640Y-92934820D01*
X128506189Y-92561651D01*
X128479346Y-92120582D01*
X128455771Y-91652136D01*
X128420678Y-91001907D01*
X128375399Y-90446450D01*
X128312635Y-89925211D01*
X128225087Y-89377638D01*
X128105458Y-88743178D01*
X128104689Y-88739292D01*
X127993494Y-88132395D01*
X127893537Y-87501909D01*
X127812471Y-86901084D01*
X127757948Y-86383170D01*
X127748494Y-86260478D01*
X127719490Y-85874818D01*
X127690320Y-85548009D01*
X127663977Y-85309724D01*
X127643453Y-85189634D01*
X127639692Y-85181663D01*
X127588255Y-85217714D01*
X127513367Y-85355391D01*
X127507477Y-85369039D01*
X127439446Y-85648803D01*
X127412386Y-86049283D01*
X127424726Y-86541781D01*
X127474896Y-87097598D01*
X127561327Y-87688036D01*
X127662101Y-88195561D01*
X127757039Y-88636533D01*
X127836948Y-89053639D01*
X127906006Y-89477367D01*
X127968391Y-89938204D01*
X128028283Y-90466639D01*
X128089858Y-91093159D01*
X128147967Y-91740798D01*
X128186831Y-92247224D01*
X128199735Y-92606340D01*
X128183325Y-92824538D01*
X128134248Y-92908205D01*
X128049151Y-92863732D01*
X127924679Y-92697509D01*
X127776217Y-92449090D01*
X127639248Y-92198937D01*
X127519581Y-91955669D01*
X127410010Y-91697444D01*
X127303332Y-91402421D01*
X127192341Y-91048756D01*
X127069832Y-90614608D01*
X126928601Y-90078134D01*
X126761442Y-89417493D01*
X126715549Y-89233551D01*
X126563645Y-88649003D01*
X126408947Y-88099706D01*
X126257501Y-87603253D01*
X126115352Y-87177232D01*
X125988547Y-86839234D01*
X125883132Y-86606849D01*
X125805152Y-86497666D01*
X125775120Y-86497477D01*
X125775340Y-86585496D01*
X125814725Y-86771588D01*
X125852626Y-86907614D01*
X125903805Y-87100896D01*
X125979037Y-87415534D01*
X126071303Y-87820672D01*
X126173583Y-88285454D01*
X126278858Y-88779024D01*
X126284733Y-88807048D01*
X126500793Y-89781164D01*
X126711223Y-90610524D01*
X126919065Y-91305480D01*
X127127362Y-91876386D01*
X127298069Y-92254123D01*
X127403343Y-92481267D01*
X127460566Y-92642086D01*
X127458088Y-92700760D01*
X127336115Y-92644332D01*
X127150742Y-92495588D01*
X126933304Y-92285335D01*
X126715135Y-92044381D01*
X126527570Y-91803532D01*
X126491259Y-91750185D01*
X126324746Y-91474246D01*
X126175565Y-91171123D01*
X126034676Y-90815615D01*
X125893041Y-90382523D01*
X125741620Y-89846648D01*
X125573761Y-89192410D01*
X125406789Y-88536170D01*
X125259510Y-88005016D01*
X125120249Y-87571882D01*
X124977334Y-87209701D01*
X124819091Y-86891409D01*
X124633847Y-86589937D01*
X124409929Y-86278220D01*
X124202104Y-86012047D01*
X124015348Y-85772595D01*
X123873166Y-85579842D01*
X123798310Y-85465047D01*
X123792224Y-85448897D01*
X123861634Y-85419081D01*
X124036960Y-85401361D01*
X124136531Y-85399230D01*
X124369728Y-85382599D01*
X124490118Y-85323017D01*
X124525804Y-85257555D01*
X124609481Y-85113449D01*
X124759504Y-84936418D01*
X124797635Y-84898529D01*
X124973249Y-84763322D01*
X125185331Y-84681595D01*
X125491374Y-84631771D01*
X125515243Y-84629190D01*
X125809653Y-84580737D01*
X126067934Y-84508659D01*
X126202605Y-84446684D01*
X126360827Y-84379804D01*
X126630277Y-84303800D01*
X126968142Y-84229703D01*
X127212391Y-84186472D01*
X127620103Y-84127088D01*
X127930937Y-84099384D01*
X128199816Y-84102020D01*
G37*
G36*
X121755826Y-87057786D02*
G01*
X121921985Y-87091989D01*
X122058297Y-87146654D01*
X122173911Y-87239512D01*
X122277980Y-87388292D01*
X122379653Y-87610724D01*
X122488080Y-87924536D01*
X122612411Y-88347459D01*
X122761798Y-88897221D01*
X122821751Y-89123091D01*
X123027126Y-89830101D01*
X123239252Y-90409760D01*
X123471295Y-90889935D01*
X123736424Y-91298494D01*
X123996467Y-91609020D01*
X124500179Y-92066161D01*
X125095181Y-92443612D01*
X125808639Y-92758215D01*
X125907696Y-92794029D01*
X126191452Y-92902997D01*
X126514790Y-93040526D01*
X126849190Y-93192693D01*
X127166135Y-93345574D01*
X127437106Y-93485245D01*
X127633586Y-93597782D01*
X127727056Y-93669262D01*
X127729128Y-93683326D01*
X127641194Y-93683562D01*
X127431751Y-93653763D01*
X127130353Y-93600155D01*
X126766550Y-93528965D01*
X126369894Y-93446418D01*
X125969939Y-93358740D01*
X125596235Y-93272158D01*
X125278335Y-93192898D01*
X125045791Y-93127186D01*
X124975524Y-93103186D01*
X124606967Y-92933948D01*
X124217369Y-92693202D01*
X123782098Y-92363911D01*
X123276528Y-91929037D01*
X123271122Y-91924176D01*
X122538134Y-91344579D01*
X121791344Y-90910011D01*
X121039297Y-90625354D01*
X120962287Y-90604850D01*
X120554932Y-90507539D01*
X120280571Y-90459631D01*
X120125284Y-90460029D01*
X120075149Y-90507639D01*
X120079907Y-90535366D01*
X120163129Y-90594498D01*
X120360661Y-90678047D01*
X120636400Y-90771560D01*
X120766043Y-90810099D01*
X121259188Y-90963160D01*
X121666674Y-91124508D01*
X122027555Y-91317436D01*
X122380884Y-91565236D01*
X122765716Y-91891202D01*
X123099254Y-92201697D01*
X123620424Y-92671389D01*
X124092780Y-93030085D01*
X124551751Y-93297317D01*
X125032771Y-93492614D01*
X125571269Y-93635506D01*
X125772958Y-93675476D01*
X126149547Y-93749980D01*
X126527004Y-93832783D01*
X126837271Y-93908764D01*
X126899258Y-93925739D01*
X127326475Y-94046828D01*
X126899258Y-94154672D01*
X126512415Y-94226026D01*
X126038367Y-94274164D01*
X125525045Y-94298037D01*
X125020385Y-94296593D01*
X124572319Y-94268785D01*
X124228782Y-94213562D01*
X124227296Y-94213187D01*
X123622836Y-94009571D01*
X123024759Y-93700553D01*
X122405164Y-93270652D01*
X122132953Y-93051283D01*
X121550999Y-92608446D01*
X120955544Y-92235138D01*
X120380345Y-91950231D01*
X119859159Y-91772598D01*
X119836045Y-91767086D01*
X119582634Y-91732586D01*
X119218560Y-91714077D01*
X118787598Y-91710687D01*
X118333517Y-91721544D01*
X117900091Y-91745776D01*
X117531092Y-91782508D01*
X117325710Y-91817123D01*
X117171768Y-91833186D01*
X117116810Y-91766964D01*
X117112102Y-91694922D01*
X117150528Y-91471421D01*
X117282878Y-91292656D01*
X117534757Y-91128858D01*
X117646077Y-91074136D01*
X117907651Y-90937678D01*
X118046144Y-90812956D01*
X118085553Y-90661694D01*
X118049877Y-90445615D01*
X118047089Y-90434536D01*
X117967127Y-90110761D01*
X117925761Y-89908652D01*
X117921050Y-89799904D01*
X117951054Y-89756213D01*
X118000071Y-89749078D01*
X118139182Y-89733476D01*
X118365557Y-89693759D01*
X118502105Y-89665896D01*
X118889969Y-89582714D01*
X118985167Y-89141584D01*
X119040114Y-88899152D01*
X119084113Y-88726803D01*
X119103341Y-88670766D01*
X119185739Y-88640769D01*
X119375426Y-88593665D01*
X119569586Y-88552283D01*
X119819968Y-88496751D01*
X119965226Y-88431682D01*
X120052717Y-88317822D01*
X120129800Y-88115917D01*
X120142898Y-88077078D01*
X120272943Y-87690668D01*
X121297319Y-87690668D01*
X121392012Y-87352391D01*
X121457119Y-87145799D01*
X121527162Y-87054181D01*
X121645914Y-87042089D01*
X121755826Y-87057786D01*
G37*
G36*
X133162087Y-84173086D02*
G01*
X133873814Y-84332802D01*
X133928921Y-84350466D01*
X134190214Y-84426092D01*
X134510181Y-84505010D01*
X134678850Y-84541491D01*
X135006531Y-84640540D01*
X135341977Y-84795406D01*
X135639599Y-84979853D01*
X135853805Y-85167645D01*
X135914223Y-85252414D01*
X136037701Y-85362716D01*
X136268412Y-85399105D01*
X136287822Y-85399230D01*
X136492229Y-85411798D01*
X136622645Y-85442857D01*
X136634818Y-85451203D01*
X136611098Y-85527249D01*
X136497314Y-85673116D01*
X136345359Y-85830324D01*
X135918360Y-86303648D01*
X135559446Y-86847509D01*
X135259239Y-87481992D01*
X135008362Y-88227184D01*
X134797437Y-89103169D01*
X134782268Y-89178199D01*
X134627466Y-89895352D01*
X134471046Y-90484051D01*
X134301584Y-90970882D01*
X134107660Y-91382434D01*
X133877849Y-91745293D01*
X133600730Y-92086047D01*
X133474897Y-92221261D01*
X133213476Y-92481822D01*
X133045496Y-92620185D01*
X132968646Y-92636486D01*
X132980614Y-92530859D01*
X133079087Y-92303440D01*
X133109322Y-92242635D01*
X133277301Y-91883247D01*
X133431585Y-91491273D01*
X133579671Y-91042157D01*
X133729055Y-90511341D01*
X133887235Y-89874270D01*
X134048456Y-89166509D01*
X134166445Y-88650147D01*
X134291696Y-88132441D01*
X134414067Y-87653269D01*
X134523419Y-87252512D01*
X134598331Y-87004000D01*
X134708613Y-86665123D01*
X134776690Y-86447422D01*
X134807819Y-86324148D01*
X134807259Y-86268554D01*
X134780268Y-86253891D01*
X134745826Y-86253665D01*
X134643566Y-86329301D01*
X134519537Y-86551832D01*
X134376133Y-86914691D01*
X134215746Y-87411311D01*
X134040768Y-88035126D01*
X133909649Y-88548966D01*
X133614543Y-89646166D01*
X133285905Y-90659878D01*
X132898916Y-91661721D01*
X132567179Y-92422599D01*
X132430967Y-92697867D01*
X132329289Y-92838787D01*
X132257953Y-92841178D01*
X132212766Y-92700861D01*
X132189534Y-92413655D01*
X132183921Y-92040515D01*
X132202036Y-91490349D01*
X132257526Y-90864999D01*
X132352836Y-90145698D01*
X132490413Y-89313678D01*
X132649550Y-88467426D01*
X132795503Y-87649683D01*
X132892574Y-86935316D01*
X132939776Y-86335706D01*
X132936123Y-85862232D01*
X132898651Y-85593420D01*
X132826707Y-85282717D01*
X132770601Y-85826448D01*
X132734286Y-86115700D01*
X132676249Y-86507233D01*
X132604328Y-86950811D01*
X132526356Y-87396200D01*
X132522222Y-87418802D01*
X132433619Y-87903217D01*
X132338176Y-88426982D01*
X132247913Y-88924030D01*
X132180522Y-89296804D01*
X132114620Y-89711179D01*
X132047634Y-90215045D01*
X131987677Y-90742813D01*
X131945153Y-91199862D01*
X131894466Y-91821120D01*
X131847771Y-92370270D01*
X131806494Y-92832094D01*
X131772061Y-93191371D01*
X131745898Y-93432879D01*
X131729430Y-93541401D01*
X131725623Y-93543094D01*
X131543071Y-92609998D01*
X131405861Y-91795976D01*
X131312042Y-91072123D01*
X131259666Y-90409534D01*
X131246782Y-89779305D01*
X131271440Y-89152530D01*
X131331692Y-88500304D01*
X131366415Y-88217412D01*
X131444462Y-87456190D01*
X131461985Y-86792438D01*
X131416596Y-86179561D01*
X131305903Y-85570965D01*
X131211963Y-85205587D01*
X131125688Y-84885176D01*
X131058803Y-84612505D01*
X131021022Y-84428365D01*
X131016077Y-84383079D01*
X131051677Y-84314904D01*
X131174732Y-84258057D01*
X131409626Y-84204364D01*
X131681088Y-84160170D01*
X132406463Y-84113449D01*
X133162087Y-84173086D01*
G37*
G36*
X138958636Y-87284329D02*
G01*
X139067908Y-87612992D01*
X139574289Y-87635692D01*
X140080669Y-87658393D01*
X140260478Y-88042292D01*
X140373955Y-88264869D01*
X140485619Y-88398562D01*
X140643369Y-88477212D01*
X140895102Y-88534657D01*
X140978728Y-88549741D01*
X141186423Y-88610163D01*
X141288637Y-88718327D01*
X141316640Y-88806329D01*
X141397824Y-89163384D01*
X141466790Y-89399100D01*
X141549085Y-89542829D01*
X141670252Y-89623924D01*
X141855838Y-89671739D01*
X142104304Y-89711393D01*
X142280320Y-89745794D01*
X142383913Y-89803069D01*
X142426116Y-89915056D01*
X142417961Y-90113596D01*
X142370480Y-90430525D01*
X142365009Y-90463789D01*
X142304853Y-90828959D01*
X142727831Y-91000633D01*
X143072636Y-91160524D01*
X143281544Y-91313800D01*
X143371722Y-91480411D01*
X143360337Y-91680305D01*
X143348626Y-91722016D01*
X143270740Y-91975791D01*
X142757169Y-91833382D01*
X142250024Y-91735427D01*
X141686249Y-91695851D01*
X141128715Y-91715197D01*
X140640294Y-91794007D01*
X140564885Y-91814458D01*
X140234116Y-91925470D01*
X139892986Y-92072013D01*
X139516404Y-92267579D01*
X139079275Y-92525662D01*
X138556506Y-92859756D01*
X138278769Y-93043745D01*
X137886979Y-93299615D01*
X137498120Y-93543276D01*
X137149224Y-93752206D01*
X136877325Y-93903881D01*
X136802928Y-93941327D01*
X136391159Y-94094889D01*
X135889739Y-94216970D01*
X135363149Y-94295529D01*
X134875867Y-94318528D01*
X134797154Y-94315831D01*
X134570071Y-94305677D01*
X134245443Y-94292555D01*
X133880987Y-94278768D01*
X133749030Y-94274011D01*
X133408335Y-94258622D01*
X133196014Y-94237795D01*
X133085091Y-94205440D01*
X133048588Y-94155468D01*
X133050809Y-94116408D01*
X133092259Y-94058192D01*
X133206319Y-93999351D01*
X133412145Y-93934019D01*
X133728889Y-93856328D01*
X134175704Y-93760412D01*
X134288593Y-93737254D01*
X134908199Y-93601852D01*
X135408110Y-93466017D01*
X135823071Y-93312523D01*
X136187830Y-93124140D01*
X136537131Y-92883641D01*
X136905722Y-92573798D01*
X137214954Y-92286280D01*
X137741297Y-91810341D01*
X138220331Y-91439953D01*
X138689815Y-91150680D01*
X139187509Y-90918083D01*
X139521582Y-90793417D01*
X139913361Y-90648622D01*
X140155556Y-90539398D01*
X140250672Y-90469661D01*
X140201218Y-90443329D01*
X140009700Y-90464315D01*
X139678625Y-90536536D01*
X139403507Y-90609000D01*
X138825508Y-90792474D01*
X138335618Y-91007976D01*
X137886056Y-91282968D01*
X137429043Y-91644906D01*
X137132564Y-91914114D01*
X136675581Y-92327399D01*
X136284044Y-92639979D01*
X135927095Y-92873046D01*
X135573874Y-93047792D01*
X135363379Y-93129071D01*
X135180388Y-93180543D01*
X134886437Y-93248683D01*
X134516973Y-93326735D01*
X134107443Y-93407944D01*
X133693294Y-93485555D01*
X133309973Y-93552811D01*
X132992927Y-93602957D01*
X132777604Y-93629238D01*
X132726908Y-93631545D01*
X132691599Y-93603819D01*
X132774836Y-93531626D01*
X132950841Y-93427979D01*
X133193835Y-93305895D01*
X133478039Y-93178389D01*
X133777675Y-93058475D01*
X134045435Y-92965852D01*
X134836891Y-92672073D01*
X135500867Y-92323354D01*
X136059269Y-91907386D01*
X136250960Y-91726488D01*
X136582876Y-91358360D01*
X136864411Y-90963802D01*
X137106395Y-90518731D01*
X137319656Y-89999061D01*
X137515023Y-89380708D01*
X137703323Y-88639586D01*
X137768674Y-88350759D01*
X137888421Y-87887294D01*
X138022563Y-87551170D01*
X138188505Y-87314405D01*
X138403658Y-87149018D01*
X138564066Y-87072222D01*
X138849364Y-86955665D01*
X138958636Y-87284329D01*
G37*
G36*
X120329166Y-94309942D02*
G01*
X120812941Y-94415553D01*
X121064817Y-94504635D01*
X121419084Y-94647304D01*
X121839053Y-94827930D01*
X122288037Y-95030880D01*
X122583441Y-95169942D01*
X123030860Y-95383186D01*
X123368961Y-95538625D01*
X123628288Y-95646074D01*
X123839386Y-95715345D01*
X124032802Y-95756252D01*
X124239080Y-95778609D01*
X124488765Y-95792228D01*
X124525401Y-95793842D01*
X124913233Y-95802405D01*
X125215043Y-95782669D01*
X125498908Y-95726010D01*
X125811860Y-95630825D01*
X126131746Y-95530017D01*
X126431461Y-95445113D01*
X126650849Y-95393050D01*
X126666230Y-95390271D01*
X126789254Y-95374826D01*
X126802114Y-95395050D01*
X126694312Y-95460710D01*
X126466517Y-95576070D01*
X126041991Y-95750877D01*
X125523087Y-95900202D01*
X124894548Y-96027150D01*
X124141115Y-96134824D01*
X123286859Y-96222878D01*
X122667515Y-96284626D01*
X122181324Y-96349815D01*
X121806088Y-96422037D01*
X121519610Y-96504882D01*
X121500314Y-96511908D01*
X121222908Y-96631009D01*
X120915428Y-96788271D01*
X120617011Y-96960573D01*
X120366793Y-97124794D01*
X120203909Y-97257813D01*
X120172377Y-97296449D01*
X120145678Y-97389777D01*
X120231584Y-97406915D01*
X120436217Y-97346597D01*
X120765699Y-97207557D01*
X120898755Y-97146112D01*
X121378145Y-96932305D01*
X121797888Y-96775417D01*
X122205052Y-96663949D01*
X122646705Y-96586400D01*
X123169915Y-96531272D01*
X123520359Y-96505626D01*
X124474352Y-96408347D01*
X125317230Y-96244523D01*
X126082311Y-96004813D01*
X126802915Y-95679878D01*
X127144983Y-95489603D01*
X127401180Y-95346062D01*
X127632701Y-95228976D01*
X127753077Y-95177531D01*
X127847720Y-95153474D01*
X127841464Y-95191339D01*
X127726259Y-95306197D01*
X127645241Y-95379423D01*
X127379410Y-95577992D01*
X127003767Y-95806551D01*
X126555872Y-96045944D01*
X126073286Y-96277015D01*
X125593569Y-96480606D01*
X125219331Y-96616690D01*
X124625702Y-96843313D01*
X124100084Y-97118863D01*
X123618156Y-97463151D01*
X123155595Y-97895985D01*
X122688077Y-98437174D01*
X122230449Y-99050942D01*
X121980786Y-99399077D01*
X121740336Y-99725801D01*
X121534316Y-99997393D01*
X121387948Y-100180133D01*
X121372802Y-100197675D01*
X121158288Y-100403001D01*
X120860389Y-100637590D01*
X120516578Y-100877178D01*
X120164328Y-101097502D01*
X119841110Y-101274300D01*
X119584399Y-101383308D01*
X119513281Y-101401692D01*
X119318680Y-101430011D01*
X119232800Y-101404518D01*
X119212470Y-101304013D01*
X119212732Y-101254091D01*
X119230001Y-101044504D01*
X119268432Y-100783319D01*
X119278873Y-100726833D01*
X119301028Y-100514139D01*
X119247805Y-100389487D01*
X119093179Y-100330325D01*
X118811127Y-100314102D01*
X118802531Y-100314053D01*
X118589902Y-100312992D01*
X118784907Y-99872050D01*
X118889898Y-99613006D01*
X118924343Y-99458579D01*
X118894091Y-99378115D01*
X118881023Y-99368346D01*
X118762859Y-99310641D01*
X118733541Y-99304395D01*
X118641983Y-99274601D01*
X118452921Y-99198344D01*
X118248497Y-99110186D01*
X117812045Y-98917166D01*
X117966676Y-98663550D01*
X118066938Y-98485482D01*
X118119382Y-98365760D01*
X118121597Y-98352651D01*
X118061451Y-98282179D01*
X117907590Y-98165567D01*
X117791765Y-98089754D01*
X117597178Y-97967495D01*
X117465715Y-97882906D01*
X117435734Y-97862207D01*
X117449655Y-97785478D01*
X117513330Y-97612328D01*
X117573390Y-97470510D01*
X117660504Y-97265730D01*
X117684456Y-97133323D01*
X117626183Y-97034290D01*
X117466622Y-96929632D01*
X117253305Y-96815685D01*
X117061696Y-96702187D01*
X116934754Y-96604698D01*
X116917714Y-96584231D01*
X116937384Y-96487424D01*
X117036794Y-96311326D01*
X117191492Y-96097898D01*
X117514847Y-95691782D01*
X117138704Y-95517817D01*
X116912052Y-95413866D01*
X116740530Y-95336776D01*
X116684885Y-95312871D01*
X116672828Y-95254827D01*
X116780373Y-95153414D01*
X116982386Y-95021705D01*
X117253733Y-94872770D01*
X117569277Y-94719680D01*
X117903886Y-94575508D01*
X118232425Y-94453324D01*
X118482641Y-94377937D01*
X119062762Y-94279479D01*
X119700968Y-94257180D01*
X120329166Y-94309942D01*
G37*
G36*
X141140325Y-94223430D02*
G01*
X141472447Y-94279468D01*
X141769762Y-94356646D01*
X142140566Y-94473344D01*
X142547679Y-94615514D01*
X142953921Y-94769112D01*
X143322115Y-94920090D01*
X143615079Y-95054400D01*
X143793375Y-95156325D01*
X143880372Y-95243651D01*
X143863959Y-95316195D01*
X143729190Y-95384576D01*
X143461124Y-95459414D01*
X143321422Y-95491704D01*
X143091362Y-95549535D01*
X142938467Y-95600126D01*
X142900481Y-95624674D01*
X142942468Y-95701761D01*
X143053811Y-95871423D01*
X143212582Y-96100534D01*
X143254910Y-96160128D01*
X143609338Y-96656815D01*
X143218496Y-96873130D01*
X142827653Y-97089445D01*
X142873250Y-97484382D01*
X142887188Y-97722979D01*
X142846035Y-97893702D01*
X142724447Y-98037387D01*
X142497081Y-98194865D01*
X142393451Y-98257454D01*
X142309232Y-98323408D01*
X142305109Y-98410099D01*
X142379644Y-98573274D01*
X142385037Y-98583719D01*
X142470274Y-98767285D01*
X142511418Y-98892703D01*
X142512102Y-98901499D01*
X142445032Y-98963452D01*
X142269701Y-99055002D01*
X142038957Y-99150506D01*
X141788887Y-99256786D01*
X141603073Y-99359578D01*
X141526288Y-99430449D01*
X141526794Y-99559970D01*
X141572594Y-99773251D01*
X141611054Y-99898220D01*
X141682556Y-100111778D01*
X141727489Y-100253116D01*
X141735343Y-100283232D01*
X141666445Y-100305594D01*
X141491977Y-100339008D01*
X141385802Y-100355890D01*
X141191897Y-100390722D01*
X141085021Y-100445289D01*
X141053203Y-100553304D01*
X141084470Y-100748480D01*
X141152775Y-101012075D01*
X141215062Y-101246700D01*
X141257087Y-101409908D01*
X141268366Y-101458711D01*
X141242372Y-101473016D01*
X141143112Y-101458852D01*
X140942483Y-101410785D01*
X140725558Y-101353756D01*
X140289309Y-101199338D01*
X139874361Y-100968294D01*
X139464410Y-100646357D01*
X139043150Y-100219261D01*
X138594278Y-99672739D01*
X138218447Y-99159964D01*
X137831598Y-98622115D01*
X137502981Y-98195105D01*
X137209617Y-97857341D01*
X136928524Y-97587229D01*
X136636722Y-97363175D01*
X136311229Y-97163586D01*
X135929064Y-96966869D01*
X135837975Y-96923197D01*
X135247209Y-96639957D01*
X134675595Y-96361036D01*
X134140668Y-96095405D01*
X133659966Y-95852033D01*
X133251026Y-95639891D01*
X132931383Y-95467950D01*
X132718576Y-95345179D01*
X132632307Y-95283465D01*
X132633235Y-95243745D01*
X132767379Y-95280374D01*
X133035185Y-95393537D01*
X133437098Y-95583419D01*
X133841557Y-95783689D01*
X134338315Y-96012647D01*
X134822706Y-96187691D01*
X135333675Y-96318205D01*
X135910166Y-96413569D01*
X136591123Y-96483167D01*
X136814657Y-96499938D01*
X137659961Y-96581153D01*
X138374809Y-96699104D01*
X138980798Y-96858659D01*
X139499519Y-97064686D01*
X139644449Y-97137936D01*
X139909814Y-97267763D01*
X140084214Y-97330528D01*
X140154992Y-97326447D01*
X140109491Y-97255737D01*
X139954887Y-97132617D01*
X139654669Y-96951767D01*
X139258062Y-96758206D01*
X138819631Y-96575910D01*
X138393944Y-96428855D01*
X138275967Y-96394947D01*
X138024617Y-96343384D01*
X137662503Y-96290514D01*
X137234065Y-96241886D01*
X136783738Y-96203053D01*
X136686414Y-96196393D01*
X136236903Y-96160784D01*
X135799204Y-96114761D01*
X135417870Y-96063744D01*
X135137455Y-96013151D01*
X135094059Y-96002700D01*
X134857938Y-95930002D01*
X134577934Y-95826818D01*
X134287512Y-95707919D01*
X134020140Y-95588079D01*
X133809284Y-95482068D01*
X133688410Y-95404658D01*
X133674470Y-95376108D01*
X133755531Y-95386229D01*
X133950615Y-95436416D01*
X134226362Y-95517617D01*
X134417807Y-95577831D01*
X135160588Y-95764146D01*
X135835504Y-95818677D01*
X136459721Y-95739651D01*
X137050409Y-95525298D01*
X137504214Y-95259399D01*
X137854715Y-95041689D01*
X138244295Y-94847377D01*
X138710403Y-94659822D01*
X139290488Y-94462384D01*
X139317073Y-94453893D01*
X139982413Y-94277366D01*
X140575790Y-94201708D01*
X141140325Y-94223430D01*
G37*
G36*
X141164691Y-46983150D02*
G01*
X141193863Y-47002306D01*
X141372433Y-47198093D01*
X141563467Y-47522865D01*
X141666183Y-47755782D01*
X141825249Y-48116671D01*
X141991467Y-48327731D01*
X142226176Y-48458312D01*
X142316802Y-48491369D01*
X142639260Y-48623141D01*
X142887743Y-48760584D01*
X142916913Y-48782710D01*
X143214661Y-49170456D01*
X143378945Y-49706660D01*
X143404871Y-50354188D01*
X143287548Y-51075904D01*
X143241183Y-51243794D01*
X143065967Y-51833812D01*
X143471420Y-52386150D01*
X143913872Y-53117734D01*
X144142838Y-53824911D01*
X144165577Y-54530669D01*
X144161003Y-54569787D01*
X144102748Y-55035906D01*
X144042839Y-55512364D01*
X144023939Y-55661867D01*
X144018283Y-56116517D01*
X144134093Y-56597480D01*
X144206009Y-56790756D01*
X144497738Y-57748584D01*
X144590480Y-58642121D01*
X144537735Y-59207040D01*
X144466869Y-59483078D01*
X144337956Y-59891022D01*
X144168896Y-60382849D01*
X143977588Y-60910537D01*
X143781930Y-61426065D01*
X143599822Y-61881410D01*
X143449162Y-62228551D01*
X143347849Y-62419464D01*
X143334530Y-62435200D01*
X143318083Y-62369062D01*
X143340411Y-62138551D01*
X143373712Y-61927200D01*
X143411179Y-61592971D01*
X143440044Y-61099369D01*
X143457472Y-60512725D01*
X143460628Y-59899370D01*
X143460593Y-59895200D01*
X143439975Y-59193727D01*
X143382917Y-58558250D01*
X143277891Y-57948546D01*
X143113366Y-57324391D01*
X142877811Y-56645561D01*
X142559696Y-55871833D01*
X142147492Y-54962984D01*
X141892172Y-54423709D01*
X141452650Y-53486600D01*
X141111129Y-52705679D01*
X140856755Y-52039330D01*
X140678671Y-51445937D01*
X140566024Y-50883885D01*
X140507958Y-50311558D01*
X140493620Y-49687341D01*
X140506716Y-49112064D01*
X140540893Y-48398907D01*
X140587763Y-47874509D01*
X140652138Y-47501991D01*
X140738831Y-47244472D01*
X140754638Y-47212358D01*
X140892506Y-46974740D01*
X141006073Y-46909393D01*
X141164691Y-46983150D01*
G37*
G36*
X155856541Y-55711016D02*
G01*
X156512994Y-55929755D01*
X157129706Y-56365082D01*
X157134515Y-56369430D01*
X157412631Y-56632136D01*
X157575646Y-56843489D01*
X157661037Y-57084308D01*
X157706279Y-57435411D01*
X157722493Y-57637423D01*
X157774412Y-58156297D01*
X157856371Y-58507443D01*
X158000439Y-58748900D01*
X158238690Y-58938710D01*
X158529504Y-59097880D01*
X159079355Y-59456113D01*
X159514347Y-59897263D01*
X159790483Y-60371912D01*
X159850987Y-60582164D01*
X159881582Y-60926385D01*
X159878219Y-61374152D01*
X159856406Y-61675010D01*
X159783865Y-62123549D01*
X159646649Y-62480449D01*
X159398619Y-62858011D01*
X159337236Y-62938659D01*
X158925051Y-63532091D01*
X158680877Y-64041402D01*
X158587616Y-64511741D01*
X158606683Y-64867829D01*
X158610442Y-65618485D01*
X158402363Y-66324893D01*
X157995072Y-66947040D01*
X157927587Y-67020232D01*
X157562497Y-67350858D01*
X157259804Y-67494119D01*
X156976775Y-67462456D01*
X156782594Y-67353606D01*
X156559943Y-67080477D01*
X156388824Y-66605069D01*
X156266891Y-65919709D01*
X156227345Y-65539645D01*
X156170590Y-64955267D01*
X156115904Y-64565718D01*
X156056880Y-64340209D01*
X155987113Y-64247951D01*
X155957207Y-64241423D01*
X155824563Y-64308425D01*
X155577891Y-64482812D01*
X155315086Y-64690689D01*
X154771411Y-65139956D01*
X154518428Y-64902290D01*
X154331929Y-64676830D01*
X154224376Y-64400136D01*
X154192742Y-64032026D01*
X154233999Y-63532315D01*
X154345118Y-62860822D01*
X154359058Y-62787367D01*
X154473803Y-62104442D01*
X154522150Y-61607745D01*
X154503974Y-61306200D01*
X154419150Y-61208734D01*
X154380935Y-61220496D01*
X153913169Y-61435205D01*
X153600027Y-61506906D01*
X153420250Y-61434155D01*
X153352579Y-61215509D01*
X153350622Y-61150566D01*
X153394783Y-60878780D01*
X153508622Y-60482601D01*
X153664173Y-60041209D01*
X153833471Y-59633784D01*
X153988549Y-59339503D01*
X153992282Y-59333860D01*
X154108000Y-59022449D01*
X154133642Y-58639807D01*
X154071565Y-58286944D01*
X153963447Y-58097042D01*
X153713277Y-57973911D01*
X153342493Y-57923854D01*
X152945317Y-57950506D01*
X152637644Y-58045881D01*
X152412310Y-58196325D01*
X152114917Y-58437879D01*
X151955056Y-58582103D01*
X151707364Y-58808801D01*
X151589689Y-58888790D01*
X151570798Y-58833394D01*
X151602652Y-58709867D01*
X151928433Y-57968780D01*
X152431468Y-57272106D01*
X153067467Y-56657589D01*
X153792142Y-56162971D01*
X154561204Y-55825997D01*
X155134294Y-55700149D01*
X155856541Y-55711016D01*
G37*
G36*
X137046429Y-55695213D02*
G01*
X137734298Y-55870369D01*
X138424415Y-56234462D01*
X139079226Y-56754189D01*
X139661173Y-57396246D01*
X140132698Y-58127329D01*
X140362723Y-58635924D01*
X140420310Y-58804161D01*
X140404297Y-58854242D01*
X140284927Y-58776106D01*
X140032444Y-58559691D01*
X139966971Y-58502113D01*
X139463363Y-58132560D01*
X138995281Y-57957969D01*
X138517194Y-57962574D01*
X138448349Y-57976295D01*
X138129258Y-58105815D01*
X137946836Y-58336821D01*
X137899661Y-58688572D01*
X137986313Y-59180327D01*
X138205371Y-59831347D01*
X138294912Y-60056231D01*
X138510697Y-60625228D01*
X138622638Y-61031301D01*
X138639185Y-61307398D01*
X138629357Y-61360174D01*
X138553733Y-61661483D01*
X138061306Y-61372902D01*
X137800843Y-61233865D01*
X137623395Y-61188604D01*
X137522561Y-61260241D01*
X137491940Y-61471898D01*
X137525128Y-61846700D01*
X137615726Y-62407768D01*
X137678650Y-62755059D01*
X137794481Y-63448405D01*
X137846996Y-63964045D01*
X137833412Y-64341786D01*
X137750942Y-64621435D01*
X137596804Y-64842797D01*
X137527802Y-64911646D01*
X137286382Y-65136563D01*
X136841929Y-64773660D01*
X136478240Y-64481004D01*
X136248506Y-64311329D01*
X136114827Y-64241184D01*
X136039306Y-64247118D01*
X136018352Y-64264063D01*
X135976668Y-64398630D01*
X135918082Y-64709042D01*
X135850880Y-65146771D01*
X135793175Y-65582695D01*
X135676517Y-66364051D01*
X135539126Y-66933558D01*
X135369428Y-67304960D01*
X135155848Y-67491999D01*
X134886813Y-67508419D01*
X134550746Y-67367963D01*
X134379864Y-67260817D01*
X134029291Y-66974317D01*
X133781818Y-66634795D01*
X133618738Y-66196642D01*
X133521347Y-65614251D01*
X133480824Y-65068673D01*
X133450463Y-64541836D01*
X133412427Y-64183029D01*
X133351150Y-63934642D01*
X133251065Y-63739065D01*
X133096606Y-63538688D01*
X133053772Y-63488229D01*
X132650429Y-62927303D01*
X132378106Y-62314088D01*
X132223735Y-61714875D01*
X132167618Y-61032053D01*
X132299438Y-60430415D01*
X132629628Y-59890168D01*
X133168623Y-59391516D01*
X133601525Y-59101055D01*
X133953433Y-58880785D01*
X134153989Y-58717694D01*
X134245735Y-58553284D01*
X134271215Y-58329056D01*
X134272399Y-58178569D01*
X134366991Y-57392225D01*
X134639292Y-56735227D01*
X135072090Y-56222981D01*
X135648173Y-55870896D01*
X136350328Y-55694381D01*
X137046429Y-55695213D01*
G37*
G36*
X151149968Y-46962812D02*
G01*
X151307469Y-47255287D01*
X151446153Y-47694422D01*
X151554419Y-48240678D01*
X151620668Y-48854518D01*
X151631066Y-49057867D01*
X151621121Y-49864040D01*
X151523582Y-50669461D01*
X151327913Y-51517401D01*
X151023581Y-52451130D01*
X150600052Y-53513920D01*
X150476785Y-53799200D01*
X150059762Y-54767036D01*
X149671237Y-55697605D01*
X149324166Y-56558070D01*
X149031501Y-57315592D01*
X148806198Y-57937332D01*
X148661209Y-58390453D01*
X148650975Y-58427645D01*
X148561565Y-58931001D01*
X148512417Y-59573671D01*
X148504349Y-60272664D01*
X148538179Y-60944988D01*
X148614728Y-61507651D01*
X148620313Y-61534323D01*
X148683152Y-61866052D01*
X148710561Y-62093177D01*
X148704980Y-62151331D01*
X148647369Y-62070146D01*
X148519246Y-61820123D01*
X148339412Y-61439783D01*
X148126668Y-60967651D01*
X148121003Y-60954805D01*
X147821629Y-60238439D01*
X147626581Y-59648790D01*
X147529277Y-59117677D01*
X147523138Y-58576917D01*
X147601581Y-57958326D01*
X147757989Y-57193880D01*
X147897814Y-56527373D01*
X147977386Y-56023777D01*
X148002750Y-55630180D01*
X147979953Y-55293668D01*
X147977278Y-55274769D01*
X147904778Y-54437929D01*
X147964386Y-53730784D01*
X148169575Y-53090931D01*
X148533818Y-52455967D01*
X148608976Y-52348960D01*
X148955361Y-51866627D01*
X148783993Y-51139580D01*
X148667974Y-50590504D01*
X148621342Y-50175735D01*
X148641697Y-49815522D01*
X148726637Y-49430113D01*
X148731938Y-49410903D01*
X148970184Y-48914349D01*
X149350168Y-48558138D01*
X149774373Y-48391781D01*
X149984200Y-48327252D01*
X150151589Y-48193363D01*
X150320906Y-47941301D01*
X150503425Y-47589684D01*
X150695530Y-47231429D01*
X150865012Y-46970266D01*
X150978056Y-46857647D01*
X150985249Y-46856534D01*
X151149968Y-46962812D01*
G37*
%TD*%
D10*
%TO.C,J1*%
X124452999Y-61846997D03*
X122252999Y-61046997D03*
X124452999Y-60246997D03*
X122252999Y-59446997D03*
X124452999Y-58646997D03*
D11*
X118302999Y-56546998D03*
X123052999Y-63946996D03*
X118302999Y-63946996D03*
X123052999Y-56546998D03*
%TD*%
D12*
%TO.C,R12*%
X153713012Y-89872335D03*
X154998588Y-88340247D03*
%TD*%
D13*
%TO.C,D16*%
X128328421Y-77606832D03*
X128719579Y-79619168D03*
%TD*%
D14*
%TO.C,D20*%
X152273189Y-62871572D03*
X151917211Y-64890428D03*
%TD*%
D15*
%TO.C,D9*%
X156921011Y-73793572D03*
X157276989Y-75812428D03*
%TD*%
D16*
%TO.C,D7*%
X185040324Y-78871500D03*
X186815676Y-77846500D03*
%TD*%
D17*
%TO.C,D13*%
X121869745Y-79658363D03*
X122986255Y-81377637D03*
%TD*%
D18*
%TO.C,D15*%
X135935681Y-78267788D03*
X135336319Y-80228212D03*
%TD*%
D19*
%TO.C,H4*%
X199390000Y-49530000D03*
%TD*%
D20*
%TO.C,R14*%
X139264990Y-79753993D03*
X138357010Y-81536007D03*
%TD*%
D15*
%TO.C,D19*%
X139496611Y-62846172D03*
X139852589Y-64865028D03*
%TD*%
D21*
%TO.C,D6*%
X190623615Y-76815142D03*
X192662385Y-76600858D03*
%TD*%
D22*
%TO.C,R9*%
X160528000Y-73549000D03*
X160528000Y-75549000D03*
%TD*%
D19*
%TO.C,H1*%
X118110000Y-49530000D03*
%TD*%
D23*
%TO.C,D2*%
X162839400Y-63999000D03*
X162839400Y-66049000D03*
%TD*%
D24*
%TO.C,D11*%
X151333726Y-86069581D03*
X153313874Y-85539001D03*
%TD*%
D25*
%TO.C,D14*%
X142094860Y-81731399D03*
X140861140Y-83368601D03*
%TD*%
D19*
%TO.C,H3*%
X118110000Y-105410000D03*
%TD*%
D26*
%TO.C,R16*%
X124863632Y-78441420D03*
X125580368Y-80308580D03*
%TD*%
D27*
%TO.C,D5*%
X197364572Y-76911011D03*
X199383428Y-77266989D03*
%TD*%
D28*
%TO.C,D17*%
X156745604Y-52703457D03*
X158315996Y-51385743D03*
%TD*%
D29*
%TO.C,R11*%
X150819605Y-82843447D03*
X152811995Y-82669135D03*
%TD*%
D30*
%TO.C,R10*%
X153081756Y-76017503D03*
X154613844Y-77303079D03*
%TD*%
D31*
%TO.C,D4*%
X194221535Y-64137073D03*
X194042865Y-66179273D03*
%TD*%
D32*
%TO.C,D3*%
X186346491Y-51068110D03*
X188326639Y-51598690D03*
%TD*%
D33*
%TO.C,D8*%
X180824143Y-83208196D03*
X182141857Y-81637804D03*
%TD*%
D34*
%TO.C,D12*%
X157225811Y-91639719D03*
X157581789Y-89620863D03*
%TD*%
D35*
%TO.C,D10*%
X151106615Y-79103720D03*
X153032985Y-79804862D03*
%TD*%
D36*
%TO.C,R15*%
X132201869Y-77620454D03*
X131958131Y-79605546D03*
%TD*%
D37*
%TO.C,D1*%
X170384631Y-51228084D03*
X168705369Y-52403916D03*
%TD*%
D38*
%TO.C,R13*%
X118850941Y-81668290D03*
X120163059Y-83177710D03*
%TD*%
D39*
%TO.C,D18*%
X135731352Y-53051269D03*
X134160960Y-51733555D03*
%TD*%
D19*
%TO.C,H2*%
X199390000Y-105410000D03*
%TD*%
M02*
