%TF.GenerationSoftware,KiCad,Pcbnew,(6.0.5)*%
%TF.CreationDate,2022-08-10T18:54:24-07:00*%
%TF.ProjectId,AlpenglowSMTGarden,416c7065-6e67-46c6-9f77-534d54476172,rev?*%
%TF.SameCoordinates,Original*%
%TF.FileFunction,Legend,Bot*%
%TF.FilePolarity,Positive*%
%FSLAX46Y46*%
G04 Gerber Fmt 4.6, Leading zero omitted, Abs format (unit mm)*
G04 Created by KiCad (PCBNEW (6.0.5)) date 2022-08-10 18:54:24*
%MOMM*%
%LPD*%
G01*
G04 APERTURE LIST*
%ADD10C,0.150000*%
%ADD11C,0.152400*%
%ADD12C,0.381000*%
%ADD13C,0.200000*%
%ADD14C,0.120000*%
%ADD15C,0.343981*%
G04 APERTURE END LIST*
D10*
X140653400Y-89132000D02*
X140653400Y-104372000D01*
X192786000Y-84709000D02*
X192786000Y-99949000D01*
X175037750Y-107950000D02*
X173259750Y-107950000D01*
X153289000Y-98933000D02*
X153289000Y-108585000D01*
X174720250Y-98298000D02*
X173259750Y-98298000D01*
X129794000Y-91313000D02*
X129794000Y-101600000D01*
X119761000Y-101219000D02*
X118237000Y-101219000D01*
X164465000Y-98552000D02*
X164465000Y-108204000D01*
X173259750Y-98298000D02*
X173259750Y-107950000D01*
X142431400Y-104372000D02*
X140653400Y-104372000D01*
X131572000Y-101600000D02*
X129794000Y-101600000D01*
X183192250Y-96774000D02*
X183192250Y-106426000D01*
X131254500Y-91313000D02*
X129794000Y-91313000D01*
X154749500Y-98933000D02*
X153289000Y-98933000D01*
X194564000Y-99949000D02*
X192786000Y-99949000D01*
X118237000Y-85979000D02*
X118237000Y-101219000D01*
X194183000Y-84709000D02*
X192786000Y-84709000D01*
X142050400Y-89132000D02*
X140653400Y-89132000D01*
X166243000Y-108204000D02*
X164465000Y-108204000D01*
X155067000Y-108585000D02*
X153289000Y-108585000D01*
X184652750Y-96774000D02*
X183192250Y-96774000D01*
X165925500Y-98552000D02*
X164465000Y-98552000D01*
X119888000Y-85979000D02*
X118237000Y-85979000D01*
X184970250Y-106426000D02*
X183192250Y-106426000D01*
D11*
X191262000Y-91554904D02*
X191213619Y-91458142D01*
X191213619Y-91313000D01*
X191262000Y-91167857D01*
X191358761Y-91071095D01*
X191455523Y-91022714D01*
X191649047Y-90974333D01*
X191794190Y-90974333D01*
X191987714Y-91022714D01*
X192084476Y-91071095D01*
X192181238Y-91167857D01*
X192229619Y-91313000D01*
X192229619Y-91409761D01*
X192181238Y-91554904D01*
X192132857Y-91603285D01*
X191794190Y-91603285D01*
X191794190Y-91409761D01*
X192229619Y-92038714D02*
X191213619Y-92038714D01*
X192229619Y-92619285D01*
X191213619Y-92619285D01*
X192229619Y-93103095D02*
X191213619Y-93103095D01*
X191213619Y-93345000D01*
X191262000Y-93490142D01*
X191358761Y-93586904D01*
X191455523Y-93635285D01*
X191649047Y-93683666D01*
X191794190Y-93683666D01*
X191987714Y-93635285D01*
X192084476Y-93586904D01*
X192181238Y-93490142D01*
X192229619Y-93345000D01*
X192229619Y-93103095D01*
D12*
X124234205Y-47203033D02*
X122782776Y-47203033D01*
X116978720Y-54383080D02*
X115527291Y-54383080D01*
D10*
X125475523Y-70683380D02*
X125475523Y-69683380D01*
X125142190Y-70397666D01*
X124808857Y-69683380D01*
X124808857Y-70683380D01*
X124332666Y-70683380D02*
X124332666Y-69683380D01*
X123856476Y-70683380D02*
X123856476Y-69683380D01*
X123285047Y-70683380D01*
X123285047Y-69683380D01*
X122808857Y-70683380D02*
X122808857Y-69683380D01*
X122332666Y-70302428D02*
X121570761Y-70302428D01*
X121094571Y-70683380D02*
X121094571Y-69683380D01*
X120761238Y-70397666D01*
X120427904Y-69683380D01*
X120427904Y-70683380D01*
X119951714Y-70159571D02*
X119618380Y-70159571D01*
X119475523Y-70683380D02*
X119951714Y-70683380D01*
X119951714Y-69683380D01*
X119475523Y-69683380D01*
X118570761Y-70683380D02*
X119046952Y-70683380D01*
X119046952Y-69683380D01*
X117904095Y-70159571D02*
X118237428Y-70159571D01*
X118237428Y-70683380D02*
X118237428Y-69683380D01*
X117761238Y-69683380D01*
D12*
X202078714Y-68383077D02*
X200627285Y-68383077D01*
X116578721Y-100683063D02*
X115127292Y-100683063D01*
X115853007Y-101408777D02*
X115853007Y-99957349D01*
D11*
X163068000Y-102603904D02*
X163019619Y-102507142D01*
X163019619Y-102362000D01*
X163068000Y-102216857D01*
X163164761Y-102120095D01*
X163261523Y-102071714D01*
X163455047Y-102023333D01*
X163600190Y-102023333D01*
X163793714Y-102071714D01*
X163890476Y-102120095D01*
X163987238Y-102216857D01*
X164035619Y-102362000D01*
X164035619Y-102458761D01*
X163987238Y-102603904D01*
X163938857Y-102652285D01*
X163600190Y-102652285D01*
X163600190Y-102458761D01*
X164035619Y-103087714D02*
X163019619Y-103087714D01*
X164035619Y-103668285D01*
X163019619Y-103668285D01*
X164035619Y-104152095D02*
X163019619Y-104152095D01*
X163019619Y-104394000D01*
X163068000Y-104539142D01*
X163164761Y-104635904D01*
X163261523Y-104684285D01*
X163455047Y-104732666D01*
X163600190Y-104732666D01*
X163793714Y-104684285D01*
X163890476Y-104635904D01*
X163987238Y-104539142D01*
X164035619Y-104394000D01*
X164035619Y-104152095D01*
D10*
X177474285Y-87733142D02*
X177521904Y-87780761D01*
X177664761Y-87828380D01*
X177760000Y-87828380D01*
X177902857Y-87780761D01*
X177998095Y-87685523D01*
X178045714Y-87590285D01*
X178093333Y-87399809D01*
X178093333Y-87256952D01*
X178045714Y-87066476D01*
X177998095Y-86971238D01*
X177902857Y-86876000D01*
X177760000Y-86828380D01*
X177664761Y-86828380D01*
X177521904Y-86876000D01*
X177474285Y-86923619D01*
X177045714Y-87447428D02*
X176283809Y-87447428D01*
X175617142Y-86828380D02*
X175521904Y-86828380D01*
X175426666Y-86876000D01*
X175379047Y-86923619D01*
X175331428Y-87018857D01*
X175283809Y-87209333D01*
X175283809Y-87447428D01*
X175331428Y-87637904D01*
X175379047Y-87733142D01*
X175426666Y-87780761D01*
X175521904Y-87828380D01*
X175617142Y-87828380D01*
X175712380Y-87780761D01*
X175760000Y-87733142D01*
X175807619Y-87637904D01*
X175855238Y-87447428D01*
X175855238Y-87209333D01*
X175807619Y-87018857D01*
X175760000Y-86923619D01*
X175712380Y-86876000D01*
X175617142Y-86828380D01*
X174426666Y-87161714D02*
X174426666Y-87828380D01*
X174664761Y-86780761D02*
X174902857Y-87495047D01*
X174283809Y-87495047D01*
X173712380Y-86828380D02*
X173617142Y-86828380D01*
X173521904Y-86876000D01*
X173474285Y-86923619D01*
X173426666Y-87018857D01*
X173379047Y-87209333D01*
X173379047Y-87447428D01*
X173426666Y-87637904D01*
X173474285Y-87733142D01*
X173521904Y-87780761D01*
X173617142Y-87828380D01*
X173712380Y-87828380D01*
X173807619Y-87780761D01*
X173855238Y-87733142D01*
X173902857Y-87637904D01*
X173950476Y-87447428D01*
X173950476Y-87209333D01*
X173902857Y-87018857D01*
X173855238Y-86923619D01*
X173807619Y-86876000D01*
X173712380Y-86828380D01*
X172998095Y-86923619D02*
X172950476Y-86876000D01*
X172855238Y-86828380D01*
X172617142Y-86828380D01*
X172521904Y-86876000D01*
X172474285Y-86923619D01*
X172426666Y-87018857D01*
X172426666Y-87114095D01*
X172474285Y-87256952D01*
X173045714Y-87828380D01*
X172426666Y-87828380D01*
X128105380Y-82594619D02*
X127105380Y-82594619D01*
X127105380Y-82832714D01*
X127153000Y-82975571D01*
X127248238Y-83070809D01*
X127343476Y-83118428D01*
X127533952Y-83166047D01*
X127676809Y-83166047D01*
X127867285Y-83118428D01*
X127962523Y-83070809D01*
X128057761Y-82975571D01*
X128105380Y-82832714D01*
X128105380Y-82594619D01*
X128105380Y-83594619D02*
X127105380Y-83594619D01*
X127105380Y-84261285D02*
X127105380Y-84451761D01*
X127153000Y-84547000D01*
X127248238Y-84642238D01*
X127438714Y-84689857D01*
X127772047Y-84689857D01*
X127962523Y-84642238D01*
X128057761Y-84547000D01*
X128105380Y-84451761D01*
X128105380Y-84261285D01*
X128057761Y-84166047D01*
X127962523Y-84070809D01*
X127772047Y-84023190D01*
X127438714Y-84023190D01*
X127248238Y-84070809D01*
X127153000Y-84166047D01*
X127105380Y-84261285D01*
X128105380Y-85118428D02*
X127105380Y-85118428D01*
X127105380Y-85356523D01*
X127153000Y-85499380D01*
X127248238Y-85594619D01*
X127343476Y-85642238D01*
X127533952Y-85689857D01*
X127676809Y-85689857D01*
X127867285Y-85642238D01*
X127962523Y-85594619D01*
X128057761Y-85499380D01*
X128105380Y-85356523D01*
X128105380Y-85118428D01*
X127581571Y-86118428D02*
X127581571Y-86451761D01*
X128105380Y-86594619D02*
X128105380Y-86118428D01*
X127105380Y-86118428D01*
X127105380Y-86594619D01*
X128057761Y-86975571D02*
X128105380Y-87118428D01*
X128105380Y-87356523D01*
X128057761Y-87451761D01*
X128010142Y-87499380D01*
X127914904Y-87547000D01*
X127819666Y-87547000D01*
X127724428Y-87499380D01*
X127676809Y-87451761D01*
X127629190Y-87356523D01*
X127581571Y-87166047D01*
X127533952Y-87070809D01*
X127486333Y-87023190D01*
X127391095Y-86975571D01*
X127295857Y-86975571D01*
X127200619Y-87023190D01*
X127153000Y-87070809D01*
X127105380Y-87166047D01*
X127105380Y-87404142D01*
X127153000Y-87547000D01*
X168673795Y-88082380D02*
X169007129Y-87606190D01*
X169245224Y-88082380D02*
X169245224Y-87082380D01*
X168864271Y-87082380D01*
X168769033Y-87130000D01*
X168721414Y-87177619D01*
X168673795Y-87272857D01*
X168673795Y-87415714D01*
X168721414Y-87510952D01*
X168769033Y-87558571D01*
X168864271Y-87606190D01*
X169245224Y-87606190D01*
X168245224Y-87701428D02*
X167483319Y-87701428D01*
X166816652Y-87082380D02*
X166721414Y-87082380D01*
X166626176Y-87130000D01*
X166578557Y-87177619D01*
X166530938Y-87272857D01*
X166483319Y-87463333D01*
X166483319Y-87701428D01*
X166530938Y-87891904D01*
X166578557Y-87987142D01*
X166626176Y-88034761D01*
X166721414Y-88082380D01*
X166816652Y-88082380D01*
X166911890Y-88034761D01*
X166959510Y-87987142D01*
X167007129Y-87891904D01*
X167054748Y-87701428D01*
X167054748Y-87463333D01*
X167007129Y-87272857D01*
X166959510Y-87177619D01*
X166911890Y-87130000D01*
X166816652Y-87082380D01*
X165626176Y-87415714D02*
X165626176Y-88082380D01*
X165864271Y-87034761D02*
X166102367Y-87749047D01*
X165483319Y-87749047D01*
X164911890Y-87082380D02*
X164816652Y-87082380D01*
X164721414Y-87130000D01*
X164673795Y-87177619D01*
X164626176Y-87272857D01*
X164578557Y-87463333D01*
X164578557Y-87701428D01*
X164626176Y-87891904D01*
X164673795Y-87987142D01*
X164721414Y-88034761D01*
X164816652Y-88082380D01*
X164911890Y-88082380D01*
X165007129Y-88034761D01*
X165054748Y-87987142D01*
X165102367Y-87891904D01*
X165149986Y-87701428D01*
X165149986Y-87463333D01*
X165102367Y-87272857D01*
X165054748Y-87177619D01*
X165007129Y-87130000D01*
X164911890Y-87082380D01*
X164197605Y-87177619D02*
X164149986Y-87130000D01*
X164054748Y-87082380D01*
X163816652Y-87082380D01*
X163721414Y-87130000D01*
X163673795Y-87177619D01*
X163626176Y-87272857D01*
X163626176Y-87368095D01*
X163673795Y-87510952D01*
X164245224Y-88082380D01*
X163626176Y-88082380D01*
D11*
X181795250Y-100825904D02*
X181746869Y-100729142D01*
X181746869Y-100584000D01*
X181795250Y-100438857D01*
X181892011Y-100342095D01*
X181988773Y-100293714D01*
X182182297Y-100245333D01*
X182327440Y-100245333D01*
X182520964Y-100293714D01*
X182617726Y-100342095D01*
X182714488Y-100438857D01*
X182762869Y-100584000D01*
X182762869Y-100680761D01*
X182714488Y-100825904D01*
X182666107Y-100874285D01*
X182327440Y-100874285D01*
X182327440Y-100680761D01*
X182762869Y-101309714D02*
X181746869Y-101309714D01*
X182762869Y-101890285D01*
X181746869Y-101890285D01*
X182762869Y-102374095D02*
X181746869Y-102374095D01*
X181746869Y-102616000D01*
X181795250Y-102761142D01*
X181892011Y-102857904D01*
X181988773Y-102906285D01*
X182182297Y-102954666D01*
X182327440Y-102954666D01*
X182520964Y-102906285D01*
X182617726Y-102857904D01*
X182714488Y-102761142D01*
X182762869Y-102616000D01*
X182762869Y-102374095D01*
D10*
X198556285Y-69318142D02*
X198603904Y-69365761D01*
X198746761Y-69413380D01*
X198842000Y-69413380D01*
X198984857Y-69365761D01*
X199080095Y-69270523D01*
X199127714Y-69175285D01*
X199175333Y-68984809D01*
X199175333Y-68841952D01*
X199127714Y-68651476D01*
X199080095Y-68556238D01*
X198984857Y-68461000D01*
X198842000Y-68413380D01*
X198746761Y-68413380D01*
X198603904Y-68461000D01*
X198556285Y-68508619D01*
X198127714Y-69032428D02*
X197365809Y-69032428D01*
X196365809Y-69413380D02*
X196937238Y-69413380D01*
X196651523Y-69413380D02*
X196651523Y-68413380D01*
X196746761Y-68556238D01*
X196842000Y-68651476D01*
X196937238Y-68699095D01*
X195984857Y-68508619D02*
X195937238Y-68461000D01*
X195842000Y-68413380D01*
X195603904Y-68413380D01*
X195508666Y-68461000D01*
X195461047Y-68508619D01*
X195413428Y-68603857D01*
X195413428Y-68699095D01*
X195461047Y-68841952D01*
X196032476Y-69413380D01*
X195413428Y-69413380D01*
X194794380Y-68413380D02*
X194699142Y-68413380D01*
X194603904Y-68461000D01*
X194556285Y-68508619D01*
X194508666Y-68603857D01*
X194461047Y-68794333D01*
X194461047Y-69032428D01*
X194508666Y-69222904D01*
X194556285Y-69318142D01*
X194603904Y-69365761D01*
X194699142Y-69413380D01*
X194794380Y-69413380D01*
X194889619Y-69365761D01*
X194937238Y-69318142D01*
X194984857Y-69222904D01*
X195032476Y-69032428D01*
X195032476Y-68794333D01*
X194984857Y-68603857D01*
X194937238Y-68508619D01*
X194889619Y-68461000D01*
X194794380Y-68413380D01*
X193603904Y-68413380D02*
X193794380Y-68413380D01*
X193889619Y-68461000D01*
X193937238Y-68508619D01*
X194032476Y-68651476D01*
X194080095Y-68841952D01*
X194080095Y-69222904D01*
X194032476Y-69318142D01*
X193984857Y-69365761D01*
X193889619Y-69413380D01*
X193699142Y-69413380D01*
X193603904Y-69365761D01*
X193556285Y-69318142D01*
X193508666Y-69222904D01*
X193508666Y-68984809D01*
X193556285Y-68889571D01*
X193603904Y-68841952D01*
X193699142Y-68794333D01*
X193889619Y-68794333D01*
X193984857Y-68841952D01*
X194032476Y-68889571D01*
X194080095Y-68984809D01*
D12*
X201778703Y-100183064D02*
X200327274Y-100183064D01*
D11*
X139129400Y-95977904D02*
X139081019Y-95881142D01*
X139081019Y-95736000D01*
X139129400Y-95590857D01*
X139226161Y-95494095D01*
X139322923Y-95445714D01*
X139516447Y-95397333D01*
X139661590Y-95397333D01*
X139855114Y-95445714D01*
X139951876Y-95494095D01*
X140048638Y-95590857D01*
X140097019Y-95736000D01*
X140097019Y-95832761D01*
X140048638Y-95977904D01*
X140000257Y-96026285D01*
X139661590Y-96026285D01*
X139661590Y-95832761D01*
X140097019Y-96461714D02*
X139081019Y-96461714D01*
X140097019Y-97042285D01*
X139081019Y-97042285D01*
X140097019Y-97526095D02*
X139081019Y-97526095D01*
X139081019Y-97768000D01*
X139129400Y-97913142D01*
X139226161Y-98009904D01*
X139322923Y-98058285D01*
X139516447Y-98106666D01*
X139661590Y-98106666D01*
X139855114Y-98058285D01*
X139951876Y-98009904D01*
X140048638Y-97913142D01*
X140097019Y-97768000D01*
X140097019Y-97526095D01*
D12*
X194830634Y-47571689D02*
X193379205Y-47571689D01*
X194104920Y-48297403D02*
X194104920Y-46845975D01*
X123278707Y-103383083D02*
X121827278Y-103383083D01*
X122552993Y-104108797D02*
X122552993Y-102657369D01*
X194742344Y-107451350D02*
X193290915Y-107451350D01*
D10*
X187634285Y-86209142D02*
X187681904Y-86256761D01*
X187824761Y-86304380D01*
X187920000Y-86304380D01*
X188062857Y-86256761D01*
X188158095Y-86161523D01*
X188205714Y-86066285D01*
X188253333Y-85875809D01*
X188253333Y-85732952D01*
X188205714Y-85542476D01*
X188158095Y-85447238D01*
X188062857Y-85352000D01*
X187920000Y-85304380D01*
X187824761Y-85304380D01*
X187681904Y-85352000D01*
X187634285Y-85399619D01*
X187205714Y-85923428D02*
X186443809Y-85923428D01*
X185777142Y-85304380D02*
X185681904Y-85304380D01*
X185586666Y-85352000D01*
X185539047Y-85399619D01*
X185491428Y-85494857D01*
X185443809Y-85685333D01*
X185443809Y-85923428D01*
X185491428Y-86113904D01*
X185539047Y-86209142D01*
X185586666Y-86256761D01*
X185681904Y-86304380D01*
X185777142Y-86304380D01*
X185872380Y-86256761D01*
X185920000Y-86209142D01*
X185967619Y-86113904D01*
X186015238Y-85923428D01*
X186015238Y-85685333D01*
X185967619Y-85494857D01*
X185920000Y-85399619D01*
X185872380Y-85352000D01*
X185777142Y-85304380D01*
X184586666Y-85304380D02*
X184777142Y-85304380D01*
X184872380Y-85352000D01*
X184920000Y-85399619D01*
X185015238Y-85542476D01*
X185062857Y-85732952D01*
X185062857Y-86113904D01*
X185015238Y-86209142D01*
X184967619Y-86256761D01*
X184872380Y-86304380D01*
X184681904Y-86304380D01*
X184586666Y-86256761D01*
X184539047Y-86209142D01*
X184491428Y-86113904D01*
X184491428Y-85875809D01*
X184539047Y-85780571D01*
X184586666Y-85732952D01*
X184681904Y-85685333D01*
X184872380Y-85685333D01*
X184967619Y-85732952D01*
X185015238Y-85780571D01*
X185062857Y-85875809D01*
X183872380Y-85304380D02*
X183777142Y-85304380D01*
X183681904Y-85352000D01*
X183634285Y-85399619D01*
X183586666Y-85494857D01*
X183539047Y-85685333D01*
X183539047Y-85923428D01*
X183586666Y-86113904D01*
X183634285Y-86209142D01*
X183681904Y-86256761D01*
X183777142Y-86304380D01*
X183872380Y-86304380D01*
X183967619Y-86256761D01*
X184015238Y-86209142D01*
X184062857Y-86113904D01*
X184110476Y-85923428D01*
X184110476Y-85685333D01*
X184062857Y-85494857D01*
X184015238Y-85399619D01*
X183967619Y-85352000D01*
X183872380Y-85304380D01*
X183205714Y-85304380D02*
X182586666Y-85304380D01*
X182920000Y-85685333D01*
X182777142Y-85685333D01*
X182681904Y-85732952D01*
X182634285Y-85780571D01*
X182586666Y-85875809D01*
X182586666Y-86113904D01*
X182634285Y-86209142D01*
X182681904Y-86256761D01*
X182777142Y-86304380D01*
X183062857Y-86304380D01*
X183158095Y-86256761D01*
X183205714Y-86209142D01*
D11*
X171862750Y-102349904D02*
X171814369Y-102253142D01*
X171814369Y-102108000D01*
X171862750Y-101962857D01*
X171959511Y-101866095D01*
X172056273Y-101817714D01*
X172249797Y-101769333D01*
X172394940Y-101769333D01*
X172588464Y-101817714D01*
X172685226Y-101866095D01*
X172781988Y-101962857D01*
X172830369Y-102108000D01*
X172830369Y-102204761D01*
X172781988Y-102349904D01*
X172733607Y-102398285D01*
X172394940Y-102398285D01*
X172394940Y-102204761D01*
X172830369Y-102833714D02*
X171814369Y-102833714D01*
X172830369Y-103414285D01*
X171814369Y-103414285D01*
X172830369Y-103898095D02*
X171814369Y-103898095D01*
X171814369Y-104140000D01*
X171862750Y-104285142D01*
X171959511Y-104381904D01*
X172056273Y-104430285D01*
X172249797Y-104478666D01*
X172394940Y-104478666D01*
X172588464Y-104430285D01*
X172685226Y-104381904D01*
X172781988Y-104285142D01*
X172830369Y-104140000D01*
X172830369Y-103898095D01*
X151892000Y-102984904D02*
X151843619Y-102888142D01*
X151843619Y-102743000D01*
X151892000Y-102597857D01*
X151988761Y-102501095D01*
X152085523Y-102452714D01*
X152279047Y-102404333D01*
X152424190Y-102404333D01*
X152617714Y-102452714D01*
X152714476Y-102501095D01*
X152811238Y-102597857D01*
X152859619Y-102743000D01*
X152859619Y-102839761D01*
X152811238Y-102984904D01*
X152762857Y-103033285D01*
X152424190Y-103033285D01*
X152424190Y-102839761D01*
X152859619Y-103468714D02*
X151843619Y-103468714D01*
X152859619Y-104049285D01*
X151843619Y-104049285D01*
X152859619Y-104533095D02*
X151843619Y-104533095D01*
X151843619Y-104775000D01*
X151892000Y-104920142D01*
X151988761Y-105016904D01*
X152085523Y-105065285D01*
X152279047Y-105113666D01*
X152424190Y-105113666D01*
X152617714Y-105065285D01*
X152714476Y-105016904D01*
X152811238Y-104920142D01*
X152859619Y-104775000D01*
X152859619Y-104533095D01*
X116713000Y-92824904D02*
X116664619Y-92728142D01*
X116664619Y-92583000D01*
X116713000Y-92437857D01*
X116809761Y-92341095D01*
X116906523Y-92292714D01*
X117100047Y-92244333D01*
X117245190Y-92244333D01*
X117438714Y-92292714D01*
X117535476Y-92341095D01*
X117632238Y-92437857D01*
X117680619Y-92583000D01*
X117680619Y-92679761D01*
X117632238Y-92824904D01*
X117583857Y-92873285D01*
X117245190Y-92873285D01*
X117245190Y-92679761D01*
X117680619Y-93308714D02*
X116664619Y-93308714D01*
X117680619Y-93889285D01*
X116664619Y-93889285D01*
X117680619Y-94373095D02*
X116664619Y-94373095D01*
X116664619Y-94615000D01*
X116713000Y-94760142D01*
X116809761Y-94856904D01*
X116906523Y-94905285D01*
X117100047Y-94953666D01*
X117245190Y-94953666D01*
X117438714Y-94905285D01*
X117535476Y-94856904D01*
X117632238Y-94760142D01*
X117680619Y-94615000D01*
X117680619Y-94373095D01*
X128397000Y-95618904D02*
X128348619Y-95522142D01*
X128348619Y-95377000D01*
X128397000Y-95231857D01*
X128493761Y-95135095D01*
X128590523Y-95086714D01*
X128784047Y-95038333D01*
X128929190Y-95038333D01*
X129122714Y-95086714D01*
X129219476Y-95135095D01*
X129316238Y-95231857D01*
X129364619Y-95377000D01*
X129364619Y-95473761D01*
X129316238Y-95618904D01*
X129267857Y-95667285D01*
X128929190Y-95667285D01*
X128929190Y-95473761D01*
X129364619Y-96102714D02*
X128348619Y-96102714D01*
X129364619Y-96683285D01*
X128348619Y-96683285D01*
X129364619Y-97167095D02*
X128348619Y-97167095D01*
X128348619Y-97409000D01*
X128397000Y-97554142D01*
X128493761Y-97650904D01*
X128590523Y-97699285D01*
X128784047Y-97747666D01*
X128929190Y-97747666D01*
X129122714Y-97699285D01*
X129219476Y-97650904D01*
X129316238Y-97554142D01*
X129364619Y-97409000D01*
X129364619Y-97167095D01*
D10*
X146067285Y-73999380D02*
X146400619Y-73523190D01*
X146638714Y-73999380D02*
X146638714Y-72999380D01*
X146257761Y-72999380D01*
X146162523Y-73047000D01*
X146114904Y-73094619D01*
X146067285Y-73189857D01*
X146067285Y-73332714D01*
X146114904Y-73427952D01*
X146162523Y-73475571D01*
X146257761Y-73523190D01*
X146638714Y-73523190D01*
X145638714Y-73618428D02*
X144876809Y-73618428D01*
X143876809Y-73999380D02*
X144448238Y-73999380D01*
X144162523Y-73999380D02*
X144162523Y-72999380D01*
X144257761Y-73142238D01*
X144353000Y-73237476D01*
X144448238Y-73285095D01*
X143495857Y-73094619D02*
X143448238Y-73047000D01*
X143353000Y-72999380D01*
X143114904Y-72999380D01*
X143019666Y-73047000D01*
X142972047Y-73094619D01*
X142924428Y-73189857D01*
X142924428Y-73285095D01*
X142972047Y-73427952D01*
X143543476Y-73999380D01*
X142924428Y-73999380D01*
X142305380Y-72999380D02*
X142210142Y-72999380D01*
X142114904Y-73047000D01*
X142067285Y-73094619D01*
X142019666Y-73189857D01*
X141972047Y-73380333D01*
X141972047Y-73618428D01*
X142019666Y-73808904D01*
X142067285Y-73904142D01*
X142114904Y-73951761D01*
X142210142Y-73999380D01*
X142305380Y-73999380D01*
X142400619Y-73951761D01*
X142448238Y-73904142D01*
X142495857Y-73808904D01*
X142543476Y-73618428D01*
X142543476Y-73380333D01*
X142495857Y-73189857D01*
X142448238Y-73094619D01*
X142400619Y-73047000D01*
X142305380Y-72999380D01*
X141114904Y-72999380D02*
X141305380Y-72999380D01*
X141400619Y-73047000D01*
X141448238Y-73094619D01*
X141543476Y-73237476D01*
X141591095Y-73427952D01*
X141591095Y-73808904D01*
X141543476Y-73904142D01*
X141495857Y-73951761D01*
X141400619Y-73999380D01*
X141210142Y-73999380D01*
X141114904Y-73951761D01*
X141067285Y-73904142D01*
X141019666Y-73808904D01*
X141019666Y-73570809D01*
X141067285Y-73475571D01*
X141114904Y-73427952D01*
X141210142Y-73380333D01*
X141400619Y-73380333D01*
X141495857Y-73427952D01*
X141543476Y-73475571D01*
X141591095Y-73570809D01*
D12*
X202078714Y-54783071D02*
X200627285Y-54783071D01*
X201353000Y-55508785D02*
X201353000Y-54057357D01*
D10*
X157535285Y-88336380D02*
X157868619Y-87860190D01*
X158106714Y-88336380D02*
X158106714Y-87336380D01*
X157725761Y-87336380D01*
X157630523Y-87384000D01*
X157582904Y-87431619D01*
X157535285Y-87526857D01*
X157535285Y-87669714D01*
X157582904Y-87764952D01*
X157630523Y-87812571D01*
X157725761Y-87860190D01*
X158106714Y-87860190D01*
X157106714Y-87955428D02*
X156344809Y-87955428D01*
X155678142Y-87336380D02*
X155582904Y-87336380D01*
X155487666Y-87384000D01*
X155440047Y-87431619D01*
X155392428Y-87526857D01*
X155344809Y-87717333D01*
X155344809Y-87955428D01*
X155392428Y-88145904D01*
X155440047Y-88241142D01*
X155487666Y-88288761D01*
X155582904Y-88336380D01*
X155678142Y-88336380D01*
X155773380Y-88288761D01*
X155821000Y-88241142D01*
X155868619Y-88145904D01*
X155916238Y-87955428D01*
X155916238Y-87717333D01*
X155868619Y-87526857D01*
X155821000Y-87431619D01*
X155773380Y-87384000D01*
X155678142Y-87336380D01*
X154487666Y-87336380D02*
X154678142Y-87336380D01*
X154773380Y-87384000D01*
X154821000Y-87431619D01*
X154916238Y-87574476D01*
X154963857Y-87764952D01*
X154963857Y-88145904D01*
X154916238Y-88241142D01*
X154868619Y-88288761D01*
X154773380Y-88336380D01*
X154582904Y-88336380D01*
X154487666Y-88288761D01*
X154440047Y-88241142D01*
X154392428Y-88145904D01*
X154392428Y-87907809D01*
X154440047Y-87812571D01*
X154487666Y-87764952D01*
X154582904Y-87717333D01*
X154773380Y-87717333D01*
X154868619Y-87764952D01*
X154916238Y-87812571D01*
X154963857Y-87907809D01*
X153773380Y-87336380D02*
X153678142Y-87336380D01*
X153582904Y-87384000D01*
X153535285Y-87431619D01*
X153487666Y-87526857D01*
X153440047Y-87717333D01*
X153440047Y-87955428D01*
X153487666Y-88145904D01*
X153535285Y-88241142D01*
X153582904Y-88288761D01*
X153678142Y-88336380D01*
X153773380Y-88336380D01*
X153868619Y-88288761D01*
X153916238Y-88241142D01*
X153963857Y-88145904D01*
X154011476Y-87955428D01*
X154011476Y-87717333D01*
X153963857Y-87526857D01*
X153916238Y-87431619D01*
X153868619Y-87384000D01*
X153773380Y-87336380D01*
X153106714Y-87336380D02*
X152487666Y-87336380D01*
X152821000Y-87717333D01*
X152678142Y-87717333D01*
X152582904Y-87764952D01*
X152535285Y-87812571D01*
X152487666Y-87907809D01*
X152487666Y-88145904D01*
X152535285Y-88241142D01*
X152582904Y-88288761D01*
X152678142Y-88336380D01*
X152963857Y-88336380D01*
X153059095Y-88288761D01*
X153106714Y-88241142D01*
X136010142Y-80551761D02*
X135867285Y-80599380D01*
X135629190Y-80599380D01*
X135533952Y-80551761D01*
X135486333Y-80504142D01*
X135438714Y-80408904D01*
X135438714Y-80313666D01*
X135486333Y-80218428D01*
X135533952Y-80170809D01*
X135629190Y-80123190D01*
X135819666Y-80075571D01*
X135914904Y-80027952D01*
X135962523Y-79980333D01*
X136010142Y-79885095D01*
X136010142Y-79789857D01*
X135962523Y-79694619D01*
X135914904Y-79647000D01*
X135819666Y-79599380D01*
X135581571Y-79599380D01*
X135438714Y-79647000D01*
X134819666Y-79599380D02*
X134629190Y-79599380D01*
X134533952Y-79647000D01*
X134438714Y-79742238D01*
X134391095Y-79932714D01*
X134391095Y-80266047D01*
X134438714Y-80456523D01*
X134533952Y-80551761D01*
X134629190Y-80599380D01*
X134819666Y-80599380D01*
X134914904Y-80551761D01*
X135010142Y-80456523D01*
X135057761Y-80266047D01*
X135057761Y-79932714D01*
X135010142Y-79742238D01*
X134914904Y-79647000D01*
X134819666Y-79599380D01*
X133962523Y-80599380D02*
X133962523Y-79599380D01*
X133724428Y-79599380D01*
X133581571Y-79647000D01*
X133486333Y-79742238D01*
X133438714Y-79837476D01*
X133391095Y-80027952D01*
X133391095Y-80170809D01*
X133438714Y-80361285D01*
X133486333Y-80456523D01*
X133581571Y-80551761D01*
X133724428Y-80599380D01*
X133962523Y-80599380D01*
X132962523Y-80218428D02*
X132200619Y-80218428D01*
X131819666Y-79599380D02*
X131200619Y-79599380D01*
X131533952Y-79980333D01*
X131391095Y-79980333D01*
X131295857Y-80027952D01*
X131248238Y-80075571D01*
X131200619Y-80170809D01*
X131200619Y-80408904D01*
X131248238Y-80504142D01*
X131295857Y-80551761D01*
X131391095Y-80599380D01*
X131676809Y-80599380D01*
X131772047Y-80551761D01*
X131819666Y-80504142D01*
X130819666Y-79694619D02*
X130772047Y-79647000D01*
X130676809Y-79599380D01*
X130438714Y-79599380D01*
X130343476Y-79647000D01*
X130295857Y-79694619D01*
X130248238Y-79789857D01*
X130248238Y-79885095D01*
X130295857Y-80027952D01*
X130867285Y-80599380D01*
X130248238Y-80599380D01*
X129914904Y-79599380D02*
X129295857Y-79599380D01*
X129629190Y-79980333D01*
X129486333Y-79980333D01*
X129391095Y-80027952D01*
X129343476Y-80075571D01*
X129295857Y-80170809D01*
X129295857Y-80408904D01*
X129343476Y-80504142D01*
X129391095Y-80551761D01*
X129486333Y-80599380D01*
X129772047Y-80599380D01*
X129867285Y-80551761D01*
X129914904Y-80504142D01*
%TO.C,J1*%
X126586333Y-56099380D02*
X126586333Y-56813666D01*
X126633952Y-56956523D01*
X126729190Y-57051761D01*
X126872047Y-57099380D01*
X126967285Y-57099380D01*
X125586333Y-57099380D02*
X126157761Y-57099380D01*
X125872047Y-57099380D02*
X125872047Y-56099380D01*
X125967285Y-56242238D01*
X126062523Y-56337476D01*
X126157761Y-56385095D01*
%TO.C,R21*%
X180532435Y-56011695D02*
X180865768Y-55535505D01*
X181103863Y-56011695D02*
X181103863Y-55011695D01*
X180722911Y-55011695D01*
X180627673Y-55059315D01*
X180580054Y-55106934D01*
X180532435Y-55202172D01*
X180532435Y-55345029D01*
X180580054Y-55440267D01*
X180627673Y-55487886D01*
X180722911Y-55535505D01*
X181103863Y-55535505D01*
X180151482Y-55106934D02*
X180103863Y-55059315D01*
X180008625Y-55011695D01*
X179770530Y-55011695D01*
X179675292Y-55059315D01*
X179627673Y-55106934D01*
X179580054Y-55202172D01*
X179580054Y-55297410D01*
X179627673Y-55440267D01*
X180199101Y-56011695D01*
X179580054Y-56011695D01*
X178627673Y-56011695D02*
X179199101Y-56011695D01*
X178913387Y-56011695D02*
X178913387Y-55011695D01*
X179008625Y-55154553D01*
X179103863Y-55249791D01*
X179199101Y-55297410D01*
%TO.C,D24*%
X193414885Y-52145180D02*
X193414885Y-51145180D01*
X193176790Y-51145180D01*
X193033933Y-51192800D01*
X192938695Y-51288038D01*
X192891076Y-51383276D01*
X192843457Y-51573752D01*
X192843457Y-51716609D01*
X192891076Y-51907085D01*
X192938695Y-52002323D01*
X193033933Y-52097561D01*
X193176790Y-52145180D01*
X193414885Y-52145180D01*
X192462504Y-51240419D02*
X192414885Y-51192800D01*
X192319647Y-51145180D01*
X192081552Y-51145180D01*
X191986314Y-51192800D01*
X191938695Y-51240419D01*
X191891076Y-51335657D01*
X191891076Y-51430895D01*
X191938695Y-51573752D01*
X192510123Y-52145180D01*
X191891076Y-52145180D01*
X191033933Y-51478514D02*
X191033933Y-52145180D01*
X191272028Y-51097561D02*
X191510123Y-51811847D01*
X190891076Y-51811847D01*
%TO.C,C10*%
X146995857Y-66304142D02*
X147043476Y-66351761D01*
X147186333Y-66399380D01*
X147281571Y-66399380D01*
X147424428Y-66351761D01*
X147519666Y-66256523D01*
X147567285Y-66161285D01*
X147614904Y-65970809D01*
X147614904Y-65827952D01*
X147567285Y-65637476D01*
X147519666Y-65542238D01*
X147424428Y-65447000D01*
X147281571Y-65399380D01*
X147186333Y-65399380D01*
X147043476Y-65447000D01*
X146995857Y-65494619D01*
X146043476Y-66399380D02*
X146614904Y-66399380D01*
X146329190Y-66399380D02*
X146329190Y-65399380D01*
X146424428Y-65542238D01*
X146519666Y-65637476D01*
X146614904Y-65685095D01*
X145424428Y-65399380D02*
X145329190Y-65399380D01*
X145233952Y-65447000D01*
X145186333Y-65494619D01*
X145138714Y-65589857D01*
X145091095Y-65780333D01*
X145091095Y-66018428D01*
X145138714Y-66208904D01*
X145186333Y-66304142D01*
X145233952Y-66351761D01*
X145329190Y-66399380D01*
X145424428Y-66399380D01*
X145519666Y-66351761D01*
X145567285Y-66304142D01*
X145614904Y-66208904D01*
X145662523Y-66018428D01*
X145662523Y-65780333D01*
X145614904Y-65589857D01*
X145567285Y-65494619D01*
X145519666Y-65447000D01*
X145424428Y-65399380D01*
%TO.C,D23*%
X135580285Y-74620380D02*
X135580285Y-73620380D01*
X135342190Y-73620380D01*
X135199333Y-73668000D01*
X135104095Y-73763238D01*
X135056476Y-73858476D01*
X135008857Y-74048952D01*
X135008857Y-74191809D01*
X135056476Y-74382285D01*
X135104095Y-74477523D01*
X135199333Y-74572761D01*
X135342190Y-74620380D01*
X135580285Y-74620380D01*
X134627904Y-73715619D02*
X134580285Y-73668000D01*
X134485047Y-73620380D01*
X134246952Y-73620380D01*
X134151714Y-73668000D01*
X134104095Y-73715619D01*
X134056476Y-73810857D01*
X134056476Y-73906095D01*
X134104095Y-74048952D01*
X134675523Y-74620380D01*
X134056476Y-74620380D01*
X133723142Y-73620380D02*
X133104095Y-73620380D01*
X133437428Y-74001333D01*
X133294571Y-74001333D01*
X133199333Y-74048952D01*
X133151714Y-74096571D01*
X133104095Y-74191809D01*
X133104095Y-74429904D01*
X133151714Y-74525142D01*
X133199333Y-74572761D01*
X133294571Y-74620380D01*
X133580285Y-74620380D01*
X133675523Y-74572761D01*
X133723142Y-74525142D01*
%TO.C,R2*%
X162919666Y-62699380D02*
X163253000Y-62223190D01*
X163491095Y-62699380D02*
X163491095Y-61699380D01*
X163110142Y-61699380D01*
X163014904Y-61747000D01*
X162967285Y-61794619D01*
X162919666Y-61889857D01*
X162919666Y-62032714D01*
X162967285Y-62127952D01*
X163014904Y-62175571D01*
X163110142Y-62223190D01*
X163491095Y-62223190D01*
X162538714Y-61794619D02*
X162491095Y-61747000D01*
X162395857Y-61699380D01*
X162157761Y-61699380D01*
X162062523Y-61747000D01*
X162014904Y-61794619D01*
X161967285Y-61889857D01*
X161967285Y-61985095D01*
X162014904Y-62127952D01*
X162586333Y-62699380D01*
X161967285Y-62699380D01*
%TO.C,C11*%
X135389857Y-64238142D02*
X135437476Y-64285761D01*
X135580333Y-64333380D01*
X135675571Y-64333380D01*
X135818428Y-64285761D01*
X135913666Y-64190523D01*
X135961285Y-64095285D01*
X136008904Y-63904809D01*
X136008904Y-63761952D01*
X135961285Y-63571476D01*
X135913666Y-63476238D01*
X135818428Y-63381000D01*
X135675571Y-63333380D01*
X135580333Y-63333380D01*
X135437476Y-63381000D01*
X135389857Y-63428619D01*
X134437476Y-64333380D02*
X135008904Y-64333380D01*
X134723190Y-64333380D02*
X134723190Y-63333380D01*
X134818428Y-63476238D01*
X134913666Y-63571476D01*
X135008904Y-63619095D01*
X133485095Y-64333380D02*
X134056523Y-64333380D01*
X133770809Y-64333380D02*
X133770809Y-63333380D01*
X133866047Y-63476238D01*
X133961285Y-63571476D01*
X134056523Y-63619095D01*
%TO.C,U1*%
X177926904Y-61047380D02*
X177926904Y-61856904D01*
X177879285Y-61952142D01*
X177831666Y-61999761D01*
X177736428Y-62047380D01*
X177545952Y-62047380D01*
X177450714Y-61999761D01*
X177403095Y-61952142D01*
X177355476Y-61856904D01*
X177355476Y-61047380D01*
X176355476Y-62047380D02*
X176926904Y-62047380D01*
X176641190Y-62047380D02*
X176641190Y-61047380D01*
X176736428Y-61190238D01*
X176831666Y-61285476D01*
X176926904Y-61333095D01*
%TO.C,R28*%
X137100619Y-53789857D02*
X137576809Y-54123190D01*
X137100619Y-54361285D02*
X138100619Y-54361285D01*
X138100619Y-53980333D01*
X138053000Y-53885095D01*
X138005380Y-53837476D01*
X137910142Y-53789857D01*
X137767285Y-53789857D01*
X137672047Y-53837476D01*
X137624428Y-53885095D01*
X137576809Y-53980333D01*
X137576809Y-54361285D01*
X138005380Y-53408904D02*
X138053000Y-53361285D01*
X138100619Y-53266047D01*
X138100619Y-53027952D01*
X138053000Y-52932714D01*
X138005380Y-52885095D01*
X137910142Y-52837476D01*
X137814904Y-52837476D01*
X137672047Y-52885095D01*
X137100619Y-53456523D01*
X137100619Y-52837476D01*
X137672047Y-52266047D02*
X137719666Y-52361285D01*
X137767285Y-52408904D01*
X137862523Y-52456523D01*
X137910142Y-52456523D01*
X138005380Y-52408904D01*
X138053000Y-52361285D01*
X138100619Y-52266047D01*
X138100619Y-52075571D01*
X138053000Y-51980333D01*
X138005380Y-51932714D01*
X137910142Y-51885095D01*
X137862523Y-51885095D01*
X137767285Y-51932714D01*
X137719666Y-51980333D01*
X137672047Y-52075571D01*
X137672047Y-52266047D01*
X137624428Y-52361285D01*
X137576809Y-52408904D01*
X137481571Y-52456523D01*
X137291095Y-52456523D01*
X137195857Y-52408904D01*
X137148238Y-52361285D01*
X137100619Y-52266047D01*
X137100619Y-52075571D01*
X137148238Y-51980333D01*
X137195857Y-51932714D01*
X137291095Y-51885095D01*
X137481571Y-51885095D01*
X137576809Y-51932714D01*
X137624428Y-51980333D01*
X137672047Y-52075571D01*
%TO.C,D22*%
X173667285Y-84999380D02*
X173667285Y-83999380D01*
X173429190Y-83999380D01*
X173286333Y-84047000D01*
X173191095Y-84142238D01*
X173143476Y-84237476D01*
X173095857Y-84427952D01*
X173095857Y-84570809D01*
X173143476Y-84761285D01*
X173191095Y-84856523D01*
X173286333Y-84951761D01*
X173429190Y-84999380D01*
X173667285Y-84999380D01*
X172714904Y-84094619D02*
X172667285Y-84047000D01*
X172572047Y-83999380D01*
X172333952Y-83999380D01*
X172238714Y-84047000D01*
X172191095Y-84094619D01*
X172143476Y-84189857D01*
X172143476Y-84285095D01*
X172191095Y-84427952D01*
X172762523Y-84999380D01*
X172143476Y-84999380D01*
X171762523Y-84094619D02*
X171714904Y-84047000D01*
X171619666Y-83999380D01*
X171381571Y-83999380D01*
X171286333Y-84047000D01*
X171238714Y-84094619D01*
X171191095Y-84189857D01*
X171191095Y-84285095D01*
X171238714Y-84427952D01*
X171810142Y-84999380D01*
X171191095Y-84999380D01*
%TO.C,C2*%
X189131137Y-71876491D02*
X189178756Y-71924110D01*
X189321613Y-71971729D01*
X189416851Y-71971729D01*
X189559709Y-71924110D01*
X189654947Y-71828872D01*
X189702566Y-71733634D01*
X189750185Y-71543158D01*
X189750185Y-71400301D01*
X189702566Y-71209825D01*
X189654947Y-71114587D01*
X189559709Y-71019349D01*
X189416851Y-70971729D01*
X189321613Y-70971729D01*
X189178756Y-71019349D01*
X189131137Y-71066968D01*
X188750185Y-71066968D02*
X188702566Y-71019349D01*
X188607328Y-70971729D01*
X188369232Y-70971729D01*
X188273994Y-71019349D01*
X188226375Y-71066968D01*
X188178756Y-71162206D01*
X188178756Y-71257444D01*
X188226375Y-71400301D01*
X188797804Y-71971729D01*
X188178756Y-71971729D01*
%TO.C,J2*%
X196586333Y-61099380D02*
X196586333Y-61813666D01*
X196633952Y-61956523D01*
X196729190Y-62051761D01*
X196872047Y-62099380D01*
X196967285Y-62099380D01*
X196157761Y-61194619D02*
X196110142Y-61147000D01*
X196014904Y-61099380D01*
X195776809Y-61099380D01*
X195681571Y-61147000D01*
X195633952Y-61194619D01*
X195586333Y-61289857D01*
X195586333Y-61385095D01*
X195633952Y-61527952D01*
X196205380Y-62099380D01*
X195586333Y-62099380D01*
%TO.C,R5*%
X190463466Y-78871580D02*
X190796800Y-78395390D01*
X191034895Y-78871580D02*
X191034895Y-77871580D01*
X190653942Y-77871580D01*
X190558704Y-77919200D01*
X190511085Y-77966819D01*
X190463466Y-78062057D01*
X190463466Y-78204914D01*
X190511085Y-78300152D01*
X190558704Y-78347771D01*
X190653942Y-78395390D01*
X191034895Y-78395390D01*
X189558704Y-77871580D02*
X190034895Y-77871580D01*
X190082514Y-78347771D01*
X190034895Y-78300152D01*
X189939657Y-78252533D01*
X189701561Y-78252533D01*
X189606323Y-78300152D01*
X189558704Y-78347771D01*
X189511085Y-78443009D01*
X189511085Y-78681104D01*
X189558704Y-78776342D01*
X189606323Y-78823961D01*
X189701561Y-78871580D01*
X189939657Y-78871580D01*
X190034895Y-78823961D01*
X190082514Y-78776342D01*
%TO.C,C3*%
X185493713Y-66933832D02*
X185541332Y-66981451D01*
X185684189Y-67029070D01*
X185779427Y-67029070D01*
X185922285Y-66981451D01*
X186017523Y-66886213D01*
X186065142Y-66790975D01*
X186112761Y-66600499D01*
X186112761Y-66457642D01*
X186065142Y-66267166D01*
X186017523Y-66171928D01*
X185922285Y-66076690D01*
X185779427Y-66029070D01*
X185684189Y-66029070D01*
X185541332Y-66076690D01*
X185493713Y-66124309D01*
X185160380Y-66029070D02*
X184541332Y-66029070D01*
X184874666Y-66410023D01*
X184731808Y-66410023D01*
X184636570Y-66457642D01*
X184588951Y-66505261D01*
X184541332Y-66600499D01*
X184541332Y-66838594D01*
X184588951Y-66933832D01*
X184636570Y-66981451D01*
X184731808Y-67029070D01*
X185017523Y-67029070D01*
X185112761Y-66981451D01*
X185160380Y-66933832D01*
%TO.C,C7*%
X144057666Y-48236142D02*
X144105285Y-48283761D01*
X144248142Y-48331380D01*
X144343380Y-48331380D01*
X144486238Y-48283761D01*
X144581476Y-48188523D01*
X144629095Y-48093285D01*
X144676714Y-47902809D01*
X144676714Y-47759952D01*
X144629095Y-47569476D01*
X144581476Y-47474238D01*
X144486238Y-47379000D01*
X144343380Y-47331380D01*
X144248142Y-47331380D01*
X144105285Y-47379000D01*
X144057666Y-47426619D01*
X143724333Y-47331380D02*
X143057666Y-47331380D01*
X143486238Y-48331380D01*
%TO.C,D21*%
X173667285Y-82240380D02*
X173667285Y-81240380D01*
X173429190Y-81240380D01*
X173286333Y-81288000D01*
X173191095Y-81383238D01*
X173143476Y-81478476D01*
X173095857Y-81668952D01*
X173095857Y-81811809D01*
X173143476Y-82002285D01*
X173191095Y-82097523D01*
X173286333Y-82192761D01*
X173429190Y-82240380D01*
X173667285Y-82240380D01*
X172714904Y-81335619D02*
X172667285Y-81288000D01*
X172572047Y-81240380D01*
X172333952Y-81240380D01*
X172238714Y-81288000D01*
X172191095Y-81335619D01*
X172143476Y-81430857D01*
X172143476Y-81526095D01*
X172191095Y-81668952D01*
X172762523Y-82240380D01*
X172143476Y-82240380D01*
X171191095Y-82240380D02*
X171762523Y-82240380D01*
X171476809Y-82240380D02*
X171476809Y-81240380D01*
X171572047Y-81383238D01*
X171667285Y-81478476D01*
X171762523Y-81526095D01*
%TO.C,R17*%
X161678857Y-48585380D02*
X162012190Y-48109190D01*
X162250285Y-48585380D02*
X162250285Y-47585380D01*
X161869333Y-47585380D01*
X161774095Y-47633000D01*
X161726476Y-47680619D01*
X161678857Y-47775857D01*
X161678857Y-47918714D01*
X161726476Y-48013952D01*
X161774095Y-48061571D01*
X161869333Y-48109190D01*
X162250285Y-48109190D01*
X160726476Y-48585380D02*
X161297904Y-48585380D01*
X161012190Y-48585380D02*
X161012190Y-47585380D01*
X161107428Y-47728238D01*
X161202666Y-47823476D01*
X161297904Y-47871095D01*
X160393142Y-47585380D02*
X159726476Y-47585380D01*
X160155047Y-48585380D01*
%TO.C,C5*%
X166919666Y-67604142D02*
X166967285Y-67651761D01*
X167110142Y-67699380D01*
X167205380Y-67699380D01*
X167348238Y-67651761D01*
X167443476Y-67556523D01*
X167491095Y-67461285D01*
X167538714Y-67270809D01*
X167538714Y-67127952D01*
X167491095Y-66937476D01*
X167443476Y-66842238D01*
X167348238Y-66747000D01*
X167205380Y-66699380D01*
X167110142Y-66699380D01*
X166967285Y-66747000D01*
X166919666Y-66794619D01*
X166014904Y-66699380D02*
X166491095Y-66699380D01*
X166538714Y-67175571D01*
X166491095Y-67127952D01*
X166395857Y-67080333D01*
X166157761Y-67080333D01*
X166062523Y-67127952D01*
X166014904Y-67175571D01*
X165967285Y-67270809D01*
X165967285Y-67508904D01*
X166014904Y-67604142D01*
X166062523Y-67651761D01*
X166157761Y-67699380D01*
X166395857Y-67699380D01*
X166491095Y-67651761D01*
X166538714Y-67604142D01*
%TO.C,R23*%
X167266857Y-61539380D02*
X167600190Y-61063190D01*
X167838285Y-61539380D02*
X167838285Y-60539380D01*
X167457333Y-60539380D01*
X167362095Y-60587000D01*
X167314476Y-60634619D01*
X167266857Y-60729857D01*
X167266857Y-60872714D01*
X167314476Y-60967952D01*
X167362095Y-61015571D01*
X167457333Y-61063190D01*
X167838285Y-61063190D01*
X166885904Y-60634619D02*
X166838285Y-60587000D01*
X166743047Y-60539380D01*
X166504952Y-60539380D01*
X166409714Y-60587000D01*
X166362095Y-60634619D01*
X166314476Y-60729857D01*
X166314476Y-60825095D01*
X166362095Y-60967952D01*
X166933523Y-61539380D01*
X166314476Y-61539380D01*
X165981142Y-60539380D02*
X165362095Y-60539380D01*
X165695428Y-60920333D01*
X165552571Y-60920333D01*
X165457333Y-60967952D01*
X165409714Y-61015571D01*
X165362095Y-61110809D01*
X165362095Y-61348904D01*
X165409714Y-61444142D01*
X165457333Y-61491761D01*
X165552571Y-61539380D01*
X165838285Y-61539380D01*
X165933523Y-61491761D01*
X165981142Y-61444142D01*
%TO.C,R7*%
X184773866Y-78684380D02*
X185107200Y-78208190D01*
X185345295Y-78684380D02*
X185345295Y-77684380D01*
X184964342Y-77684380D01*
X184869104Y-77732000D01*
X184821485Y-77779619D01*
X184773866Y-77874857D01*
X184773866Y-78017714D01*
X184821485Y-78112952D01*
X184869104Y-78160571D01*
X184964342Y-78208190D01*
X185345295Y-78208190D01*
X184440533Y-77684380D02*
X183773866Y-77684380D01*
X184202438Y-78684380D01*
%TO.C,D26*%
X193717285Y-56299380D02*
X193717285Y-55299380D01*
X193479190Y-55299380D01*
X193336333Y-55347000D01*
X193241095Y-55442238D01*
X193193476Y-55537476D01*
X193145857Y-55727952D01*
X193145857Y-55870809D01*
X193193476Y-56061285D01*
X193241095Y-56156523D01*
X193336333Y-56251761D01*
X193479190Y-56299380D01*
X193717285Y-56299380D01*
X192764904Y-55394619D02*
X192717285Y-55347000D01*
X192622047Y-55299380D01*
X192383952Y-55299380D01*
X192288714Y-55347000D01*
X192241095Y-55394619D01*
X192193476Y-55489857D01*
X192193476Y-55585095D01*
X192241095Y-55727952D01*
X192812523Y-56299380D01*
X192193476Y-56299380D01*
X191336333Y-55299380D02*
X191526809Y-55299380D01*
X191622047Y-55347000D01*
X191669666Y-55394619D01*
X191764904Y-55537476D01*
X191812523Y-55727952D01*
X191812523Y-56108904D01*
X191764904Y-56204142D01*
X191717285Y-56251761D01*
X191622047Y-56299380D01*
X191431571Y-56299380D01*
X191336333Y-56251761D01*
X191288714Y-56204142D01*
X191241095Y-56108904D01*
X191241095Y-55870809D01*
X191288714Y-55775571D01*
X191336333Y-55727952D01*
X191431571Y-55680333D01*
X191622047Y-55680333D01*
X191717285Y-55727952D01*
X191764904Y-55775571D01*
X191812523Y-55870809D01*
%TO.C,R4*%
X191200066Y-67000380D02*
X191533400Y-66524190D01*
X191771495Y-67000380D02*
X191771495Y-66000380D01*
X191390542Y-66000380D01*
X191295304Y-66048000D01*
X191247685Y-66095619D01*
X191200066Y-66190857D01*
X191200066Y-66333714D01*
X191247685Y-66428952D01*
X191295304Y-66476571D01*
X191390542Y-66524190D01*
X191771495Y-66524190D01*
X190342923Y-66333714D02*
X190342923Y-67000380D01*
X190581019Y-65952761D02*
X190819114Y-66667047D01*
X190200066Y-66667047D01*
%TO.C,R26*%
X152280857Y-48331380D02*
X152614190Y-47855190D01*
X152852285Y-48331380D02*
X152852285Y-47331380D01*
X152471333Y-47331380D01*
X152376095Y-47379000D01*
X152328476Y-47426619D01*
X152280857Y-47521857D01*
X152280857Y-47664714D01*
X152328476Y-47759952D01*
X152376095Y-47807571D01*
X152471333Y-47855190D01*
X152852285Y-47855190D01*
X151899904Y-47426619D02*
X151852285Y-47379000D01*
X151757047Y-47331380D01*
X151518952Y-47331380D01*
X151423714Y-47379000D01*
X151376095Y-47426619D01*
X151328476Y-47521857D01*
X151328476Y-47617095D01*
X151376095Y-47759952D01*
X151947523Y-48331380D01*
X151328476Y-48331380D01*
X150471333Y-47331380D02*
X150661809Y-47331380D01*
X150757047Y-47379000D01*
X150804666Y-47426619D01*
X150899904Y-47569476D01*
X150947523Y-47759952D01*
X150947523Y-48140904D01*
X150899904Y-48236142D01*
X150852285Y-48283761D01*
X150757047Y-48331380D01*
X150566571Y-48331380D01*
X150471333Y-48283761D01*
X150423714Y-48236142D01*
X150376095Y-48140904D01*
X150376095Y-47902809D01*
X150423714Y-47807571D01*
X150471333Y-47759952D01*
X150566571Y-47712333D01*
X150757047Y-47712333D01*
X150852285Y-47759952D01*
X150899904Y-47807571D01*
X150947523Y-47902809D01*
%TO.C,R24*%
X166717794Y-65222380D02*
X167051127Y-64746190D01*
X167289222Y-65222380D02*
X167289222Y-64222380D01*
X166908270Y-64222380D01*
X166813032Y-64270000D01*
X166765413Y-64317619D01*
X166717794Y-64412857D01*
X166717794Y-64555714D01*
X166765413Y-64650952D01*
X166813032Y-64698571D01*
X166908270Y-64746190D01*
X167289222Y-64746190D01*
X166336841Y-64317619D02*
X166289222Y-64270000D01*
X166193984Y-64222380D01*
X165955889Y-64222380D01*
X165860651Y-64270000D01*
X165813032Y-64317619D01*
X165765413Y-64412857D01*
X165765413Y-64508095D01*
X165813032Y-64650952D01*
X166384460Y-65222380D01*
X165765413Y-65222380D01*
X164908270Y-64555714D02*
X164908270Y-65222380D01*
X165146365Y-64174761D02*
X165384460Y-64889047D01*
X164765413Y-64889047D01*
%TO.C,C1*%
X173652439Y-55722430D02*
X173700058Y-55770049D01*
X173842915Y-55817668D01*
X173938153Y-55817668D01*
X174081011Y-55770049D01*
X174176249Y-55674811D01*
X174223868Y-55579573D01*
X174271487Y-55389097D01*
X174271487Y-55246240D01*
X174223868Y-55055764D01*
X174176249Y-54960526D01*
X174081011Y-54865288D01*
X173938153Y-54817668D01*
X173842915Y-54817668D01*
X173700058Y-54865288D01*
X173652439Y-54912907D01*
X172700058Y-55817668D02*
X173271487Y-55817668D01*
X172985773Y-55817668D02*
X172985773Y-54817668D01*
X173081011Y-54960526D01*
X173176249Y-55055764D01*
X173271487Y-55103383D01*
%TO.C,R6*%
X187415466Y-78836780D02*
X187748800Y-78360590D01*
X187986895Y-78836780D02*
X187986895Y-77836780D01*
X187605942Y-77836780D01*
X187510704Y-77884400D01*
X187463085Y-77932019D01*
X187415466Y-78027257D01*
X187415466Y-78170114D01*
X187463085Y-78265352D01*
X187510704Y-78312971D01*
X187605942Y-78360590D01*
X187986895Y-78360590D01*
X186558323Y-77836780D02*
X186748800Y-77836780D01*
X186844038Y-77884400D01*
X186891657Y-77932019D01*
X186986895Y-78074876D01*
X187034514Y-78265352D01*
X187034514Y-78646304D01*
X186986895Y-78741542D01*
X186939276Y-78789161D01*
X186844038Y-78836780D01*
X186653561Y-78836780D01*
X186558323Y-78789161D01*
X186510704Y-78741542D01*
X186463085Y-78646304D01*
X186463085Y-78408209D01*
X186510704Y-78312971D01*
X186558323Y-78265352D01*
X186653561Y-78217733D01*
X186844038Y-78217733D01*
X186939276Y-78265352D01*
X186986895Y-78312971D01*
X187034514Y-78408209D01*
%TO.C,C6*%
X154725666Y-76176142D02*
X154773285Y-76223761D01*
X154916142Y-76271380D01*
X155011380Y-76271380D01*
X155154238Y-76223761D01*
X155249476Y-76128523D01*
X155297095Y-76033285D01*
X155344714Y-75842809D01*
X155344714Y-75699952D01*
X155297095Y-75509476D01*
X155249476Y-75414238D01*
X155154238Y-75319000D01*
X155011380Y-75271380D01*
X154916142Y-75271380D01*
X154773285Y-75319000D01*
X154725666Y-75366619D01*
X153868523Y-75271380D02*
X154059000Y-75271380D01*
X154154238Y-75319000D01*
X154201857Y-75366619D01*
X154297095Y-75509476D01*
X154344714Y-75699952D01*
X154344714Y-76080904D01*
X154297095Y-76176142D01*
X154249476Y-76223761D01*
X154154238Y-76271380D01*
X153963761Y-76271380D01*
X153868523Y-76223761D01*
X153820904Y-76176142D01*
X153773285Y-76080904D01*
X153773285Y-75842809D01*
X153820904Y-75747571D01*
X153868523Y-75699952D01*
X153963761Y-75652333D01*
X154154238Y-75652333D01*
X154249476Y-75699952D01*
X154297095Y-75747571D01*
X154344714Y-75842809D01*
%TO.C,C8*%
X154979666Y-48236142D02*
X155027285Y-48283761D01*
X155170142Y-48331380D01*
X155265380Y-48331380D01*
X155408238Y-48283761D01*
X155503476Y-48188523D01*
X155551095Y-48093285D01*
X155598714Y-47902809D01*
X155598714Y-47759952D01*
X155551095Y-47569476D01*
X155503476Y-47474238D01*
X155408238Y-47379000D01*
X155265380Y-47331380D01*
X155170142Y-47331380D01*
X155027285Y-47379000D01*
X154979666Y-47426619D01*
X154408238Y-47759952D02*
X154503476Y-47712333D01*
X154551095Y-47664714D01*
X154598714Y-47569476D01*
X154598714Y-47521857D01*
X154551095Y-47426619D01*
X154503476Y-47379000D01*
X154408238Y-47331380D01*
X154217761Y-47331380D01*
X154122523Y-47379000D01*
X154074904Y-47426619D01*
X154027285Y-47521857D01*
X154027285Y-47569476D01*
X154074904Y-47664714D01*
X154122523Y-47712333D01*
X154217761Y-47759952D01*
X154408238Y-47759952D01*
X154503476Y-47807571D01*
X154551095Y-47855190D01*
X154598714Y-47950428D01*
X154598714Y-48140904D01*
X154551095Y-48236142D01*
X154503476Y-48283761D01*
X154408238Y-48331380D01*
X154217761Y-48331380D01*
X154122523Y-48283761D01*
X154074904Y-48236142D01*
X154027285Y-48140904D01*
X154027285Y-47950428D01*
X154074904Y-47855190D01*
X154122523Y-47807571D01*
X154217761Y-47759952D01*
%TO.C,R25*%
X148766138Y-48331380D02*
X149099471Y-47855190D01*
X149337566Y-48331380D02*
X149337566Y-47331380D01*
X148956614Y-47331380D01*
X148861376Y-47379000D01*
X148813757Y-47426619D01*
X148766138Y-47521857D01*
X148766138Y-47664714D01*
X148813757Y-47759952D01*
X148861376Y-47807571D01*
X148956614Y-47855190D01*
X149337566Y-47855190D01*
X148385185Y-47426619D02*
X148337566Y-47379000D01*
X148242328Y-47331380D01*
X148004233Y-47331380D01*
X147908995Y-47379000D01*
X147861376Y-47426619D01*
X147813757Y-47521857D01*
X147813757Y-47617095D01*
X147861376Y-47759952D01*
X148432804Y-48331380D01*
X147813757Y-48331380D01*
X146908995Y-47331380D02*
X147385185Y-47331380D01*
X147432804Y-47807571D01*
X147385185Y-47759952D01*
X147289947Y-47712333D01*
X147051852Y-47712333D01*
X146956614Y-47759952D01*
X146908995Y-47807571D01*
X146861376Y-47902809D01*
X146861376Y-48140904D01*
X146908995Y-48236142D01*
X146956614Y-48283761D01*
X147051852Y-48331380D01*
X147289947Y-48331380D01*
X147385185Y-48283761D01*
X147432804Y-48236142D01*
%TO.C,U3*%
X146837304Y-51877980D02*
X146837304Y-52687504D01*
X146789685Y-52782742D01*
X146742066Y-52830361D01*
X146646828Y-52877980D01*
X146456352Y-52877980D01*
X146361114Y-52830361D01*
X146313495Y-52782742D01*
X146265876Y-52687504D01*
X146265876Y-51877980D01*
X145884923Y-51877980D02*
X145265876Y-51877980D01*
X145599209Y-52258933D01*
X145456352Y-52258933D01*
X145361114Y-52306552D01*
X145313495Y-52354171D01*
X145265876Y-52449409D01*
X145265876Y-52687504D01*
X145313495Y-52782742D01*
X145361114Y-52830361D01*
X145456352Y-52877980D01*
X145742066Y-52877980D01*
X145837304Y-52830361D01*
X145884923Y-52782742D01*
%TO.C,D25*%
X131663485Y-68794380D02*
X131663485Y-67794380D01*
X131425390Y-67794380D01*
X131282533Y-67842000D01*
X131187295Y-67937238D01*
X131139676Y-68032476D01*
X131092057Y-68222952D01*
X131092057Y-68365809D01*
X131139676Y-68556285D01*
X131187295Y-68651523D01*
X131282533Y-68746761D01*
X131425390Y-68794380D01*
X131663485Y-68794380D01*
X130711104Y-67889619D02*
X130663485Y-67842000D01*
X130568247Y-67794380D01*
X130330152Y-67794380D01*
X130234914Y-67842000D01*
X130187295Y-67889619D01*
X130139676Y-67984857D01*
X130139676Y-68080095D01*
X130187295Y-68222952D01*
X130758723Y-68794380D01*
X130139676Y-68794380D01*
X129234914Y-67794380D02*
X129711104Y-67794380D01*
X129758723Y-68270571D01*
X129711104Y-68222952D01*
X129615866Y-68175333D01*
X129377771Y-68175333D01*
X129282533Y-68222952D01*
X129234914Y-68270571D01*
X129187295Y-68365809D01*
X129187295Y-68603904D01*
X129234914Y-68699142D01*
X129282533Y-68746761D01*
X129377771Y-68794380D01*
X129615866Y-68794380D01*
X129711104Y-68746761D01*
X129758723Y-68699142D01*
%TO.C,R20*%
X155887657Y-63790580D02*
X156220990Y-63314390D01*
X156459085Y-63790580D02*
X156459085Y-62790580D01*
X156078133Y-62790580D01*
X155982895Y-62838200D01*
X155935276Y-62885819D01*
X155887657Y-62981057D01*
X155887657Y-63123914D01*
X155935276Y-63219152D01*
X155982895Y-63266771D01*
X156078133Y-63314390D01*
X156459085Y-63314390D01*
X155506704Y-62885819D02*
X155459085Y-62838200D01*
X155363847Y-62790580D01*
X155125752Y-62790580D01*
X155030514Y-62838200D01*
X154982895Y-62885819D01*
X154935276Y-62981057D01*
X154935276Y-63076295D01*
X154982895Y-63219152D01*
X155554323Y-63790580D01*
X154935276Y-63790580D01*
X154316228Y-62790580D02*
X154220990Y-62790580D01*
X154125752Y-62838200D01*
X154078133Y-62885819D01*
X154030514Y-62981057D01*
X153982895Y-63171533D01*
X153982895Y-63409628D01*
X154030514Y-63600104D01*
X154078133Y-63695342D01*
X154125752Y-63742961D01*
X154220990Y-63790580D01*
X154316228Y-63790580D01*
X154411466Y-63742961D01*
X154459085Y-63695342D01*
X154506704Y-63600104D01*
X154554323Y-63409628D01*
X154554323Y-63171533D01*
X154506704Y-62981057D01*
X154459085Y-62885819D01*
X154411466Y-62838200D01*
X154316228Y-62790580D01*
%TO.C,R1*%
X169719666Y-50199380D02*
X170053000Y-49723190D01*
X170291095Y-50199380D02*
X170291095Y-49199380D01*
X169910142Y-49199380D01*
X169814904Y-49247000D01*
X169767285Y-49294619D01*
X169719666Y-49389857D01*
X169719666Y-49532714D01*
X169767285Y-49627952D01*
X169814904Y-49675571D01*
X169910142Y-49723190D01*
X170291095Y-49723190D01*
X168767285Y-50199380D02*
X169338714Y-50199380D01*
X169053000Y-50199380D02*
X169053000Y-49199380D01*
X169148238Y-49342238D01*
X169243476Y-49437476D01*
X169338714Y-49485095D01*
%TO.C,R8*%
X181934078Y-78665561D02*
X182267412Y-78189371D01*
X182505507Y-78665561D02*
X182505507Y-77665561D01*
X182124554Y-77665561D01*
X182029316Y-77713181D01*
X181981697Y-77760800D01*
X181934078Y-77856038D01*
X181934078Y-77998895D01*
X181981697Y-78094133D01*
X182029316Y-78141752D01*
X182124554Y-78189371D01*
X182505507Y-78189371D01*
X181362650Y-78094133D02*
X181457888Y-78046514D01*
X181505507Y-77998895D01*
X181553126Y-77903657D01*
X181553126Y-77856038D01*
X181505507Y-77760800D01*
X181457888Y-77713181D01*
X181362650Y-77665561D01*
X181172173Y-77665561D01*
X181076935Y-77713181D01*
X181029316Y-77760800D01*
X180981697Y-77856038D01*
X180981697Y-77903657D01*
X181029316Y-77998895D01*
X181076935Y-78046514D01*
X181172173Y-78094133D01*
X181362650Y-78094133D01*
X181457888Y-78141752D01*
X181505507Y-78189371D01*
X181553126Y-78284609D01*
X181553126Y-78475085D01*
X181505507Y-78570323D01*
X181457888Y-78617942D01*
X181362650Y-78665561D01*
X181172173Y-78665561D01*
X181076935Y-78617942D01*
X181029316Y-78570323D01*
X180981697Y-78475085D01*
X180981697Y-78284609D01*
X181029316Y-78189371D01*
X181076935Y-78141752D01*
X181172173Y-78094133D01*
%TO.C,R19*%
X139795857Y-67199380D02*
X140129190Y-66723190D01*
X140367285Y-67199380D02*
X140367285Y-66199380D01*
X139986333Y-66199380D01*
X139891095Y-66247000D01*
X139843476Y-66294619D01*
X139795857Y-66389857D01*
X139795857Y-66532714D01*
X139843476Y-66627952D01*
X139891095Y-66675571D01*
X139986333Y-66723190D01*
X140367285Y-66723190D01*
X138843476Y-67199380D02*
X139414904Y-67199380D01*
X139129190Y-67199380D02*
X139129190Y-66199380D01*
X139224428Y-66342238D01*
X139319666Y-66437476D01*
X139414904Y-66485095D01*
X138367285Y-67199380D02*
X138176809Y-67199380D01*
X138081571Y-67151761D01*
X138033952Y-67104142D01*
X137938714Y-66961285D01*
X137891095Y-66770809D01*
X137891095Y-66389857D01*
X137938714Y-66294619D01*
X137986333Y-66247000D01*
X138081571Y-66199380D01*
X138272047Y-66199380D01*
X138367285Y-66247000D01*
X138414904Y-66294619D01*
X138462523Y-66389857D01*
X138462523Y-66627952D01*
X138414904Y-66723190D01*
X138367285Y-66770809D01*
X138272047Y-66818428D01*
X138081571Y-66818428D01*
X137986333Y-66770809D01*
X137938714Y-66723190D01*
X137891095Y-66627952D01*
%TO.C,R27*%
X140223014Y-48233973D02*
X140556347Y-47757783D01*
X140794442Y-48233973D02*
X140794442Y-47233973D01*
X140413490Y-47233973D01*
X140318252Y-47281593D01*
X140270633Y-47329212D01*
X140223014Y-47424450D01*
X140223014Y-47567307D01*
X140270633Y-47662545D01*
X140318252Y-47710164D01*
X140413490Y-47757783D01*
X140794442Y-47757783D01*
X139842061Y-47329212D02*
X139794442Y-47281593D01*
X139699204Y-47233973D01*
X139461109Y-47233973D01*
X139365871Y-47281593D01*
X139318252Y-47329212D01*
X139270633Y-47424450D01*
X139270633Y-47519688D01*
X139318252Y-47662545D01*
X139889680Y-48233973D01*
X139270633Y-48233973D01*
X138937299Y-47233973D02*
X138270633Y-47233973D01*
X138699204Y-48233973D01*
%TO.C,R18*%
X135847935Y-48083286D02*
X136181268Y-47607096D01*
X136419363Y-48083286D02*
X136419363Y-47083286D01*
X136038411Y-47083286D01*
X135943173Y-47130906D01*
X135895554Y-47178525D01*
X135847935Y-47273763D01*
X135847935Y-47416620D01*
X135895554Y-47511858D01*
X135943173Y-47559477D01*
X136038411Y-47607096D01*
X136419363Y-47607096D01*
X134895554Y-48083286D02*
X135466982Y-48083286D01*
X135181268Y-48083286D02*
X135181268Y-47083286D01*
X135276506Y-47226144D01*
X135371744Y-47321382D01*
X135466982Y-47369001D01*
X134324125Y-47511858D02*
X134419363Y-47464239D01*
X134466982Y-47416620D01*
X134514601Y-47321382D01*
X134514601Y-47273763D01*
X134466982Y-47178525D01*
X134419363Y-47130906D01*
X134324125Y-47083286D01*
X134133649Y-47083286D01*
X134038411Y-47130906D01*
X133990792Y-47178525D01*
X133943173Y-47273763D01*
X133943173Y-47321382D01*
X133990792Y-47416620D01*
X134038411Y-47464239D01*
X134133649Y-47511858D01*
X134324125Y-47511858D01*
X134419363Y-47559477D01*
X134466982Y-47607096D01*
X134514601Y-47702334D01*
X134514601Y-47892810D01*
X134466982Y-47988048D01*
X134419363Y-48035667D01*
X134324125Y-48083286D01*
X134133649Y-48083286D01*
X134038411Y-48035667D01*
X133990792Y-47988048D01*
X133943173Y-47892810D01*
X133943173Y-47702334D01*
X133990792Y-47607096D01*
X134038411Y-47559477D01*
X134133649Y-47511858D01*
%TO.C,R22*%
X185895857Y-59699380D02*
X186229190Y-59223190D01*
X186467285Y-59699380D02*
X186467285Y-58699380D01*
X186086333Y-58699380D01*
X185991095Y-58747000D01*
X185943476Y-58794619D01*
X185895857Y-58889857D01*
X185895857Y-59032714D01*
X185943476Y-59127952D01*
X185991095Y-59175571D01*
X186086333Y-59223190D01*
X186467285Y-59223190D01*
X185514904Y-58794619D02*
X185467285Y-58747000D01*
X185372047Y-58699380D01*
X185133952Y-58699380D01*
X185038714Y-58747000D01*
X184991095Y-58794619D01*
X184943476Y-58889857D01*
X184943476Y-58985095D01*
X184991095Y-59127952D01*
X185562523Y-59699380D01*
X184943476Y-59699380D01*
X184562523Y-58794619D02*
X184514904Y-58747000D01*
X184419666Y-58699380D01*
X184181571Y-58699380D01*
X184086333Y-58747000D01*
X184038714Y-58794619D01*
X183991095Y-58889857D01*
X183991095Y-58985095D01*
X184038714Y-59127952D01*
X184610142Y-59699380D01*
X183991095Y-59699380D01*
%TO.C,C4*%
X174619666Y-78395827D02*
X174667285Y-78443446D01*
X174810142Y-78491065D01*
X174905380Y-78491065D01*
X175048238Y-78443446D01*
X175143476Y-78348208D01*
X175191095Y-78252970D01*
X175238714Y-78062494D01*
X175238714Y-77919637D01*
X175191095Y-77729161D01*
X175143476Y-77633923D01*
X175048238Y-77538685D01*
X174905380Y-77491065D01*
X174810142Y-77491065D01*
X174667285Y-77538685D01*
X174619666Y-77586304D01*
X173762523Y-77824399D02*
X173762523Y-78491065D01*
X174000619Y-77443446D02*
X174238714Y-78157732D01*
X173619666Y-78157732D01*
%TO.C,C9*%
X152592066Y-60885342D02*
X152639685Y-60932961D01*
X152782542Y-60980580D01*
X152877780Y-60980580D01*
X153020638Y-60932961D01*
X153115876Y-60837723D01*
X153163495Y-60742485D01*
X153211114Y-60552009D01*
X153211114Y-60409152D01*
X153163495Y-60218676D01*
X153115876Y-60123438D01*
X153020638Y-60028200D01*
X152877780Y-59980580D01*
X152782542Y-59980580D01*
X152639685Y-60028200D01*
X152592066Y-60075819D01*
X152115876Y-60980580D02*
X151925400Y-60980580D01*
X151830161Y-60932961D01*
X151782542Y-60885342D01*
X151687304Y-60742485D01*
X151639685Y-60552009D01*
X151639685Y-60171057D01*
X151687304Y-60075819D01*
X151734923Y-60028200D01*
X151830161Y-59980580D01*
X152020638Y-59980580D01*
X152115876Y-60028200D01*
X152163495Y-60075819D01*
X152211114Y-60171057D01*
X152211114Y-60409152D01*
X152163495Y-60504390D01*
X152115876Y-60552009D01*
X152020638Y-60599628D01*
X151830161Y-60599628D01*
X151734923Y-60552009D01*
X151687304Y-60504390D01*
X151639685Y-60409152D01*
%TO.C,U2*%
X160934304Y-75906380D02*
X160934304Y-76715904D01*
X160886685Y-76811142D01*
X160839066Y-76858761D01*
X160743828Y-76906380D01*
X160553352Y-76906380D01*
X160458114Y-76858761D01*
X160410495Y-76811142D01*
X160362876Y-76715904D01*
X160362876Y-75906380D01*
X159934304Y-76001619D02*
X159886685Y-75954000D01*
X159791447Y-75906380D01*
X159553352Y-75906380D01*
X159458114Y-75954000D01*
X159410495Y-76001619D01*
X159362876Y-76096857D01*
X159362876Y-76192095D01*
X159410495Y-76334952D01*
X159981923Y-76906380D01*
X159362876Y-76906380D01*
%TO.C,R3*%
X187619666Y-49699380D02*
X187953000Y-49223190D01*
X188191095Y-49699380D02*
X188191095Y-48699380D01*
X187810142Y-48699380D01*
X187714904Y-48747000D01*
X187667285Y-48794619D01*
X187619666Y-48889857D01*
X187619666Y-49032714D01*
X187667285Y-49127952D01*
X187714904Y-49175571D01*
X187810142Y-49223190D01*
X188191095Y-49223190D01*
X187286333Y-48699380D02*
X186667285Y-48699380D01*
X187000619Y-49080333D01*
X186857761Y-49080333D01*
X186762523Y-49127952D01*
X186714904Y-49175571D01*
X186667285Y-49270809D01*
X186667285Y-49508904D01*
X186714904Y-49604142D01*
X186762523Y-49651761D01*
X186857761Y-49699380D01*
X187143476Y-49699380D01*
X187238714Y-49651761D01*
X187286333Y-49604142D01*
D13*
%TO.C,J1*%
X116152999Y-64346997D02*
X114452999Y-64346997D01*
D11*
X126302999Y-62146997D02*
X125802999Y-61846997D01*
D13*
X114452999Y-56146997D02*
X114452999Y-64346997D01*
D11*
X126302999Y-61546997D02*
X125802999Y-61846997D01*
D13*
X116252999Y-56146997D02*
X114452999Y-56146997D01*
X120952999Y-56146997D02*
X120352999Y-56146997D01*
X120952999Y-64346997D02*
X120352999Y-64346997D01*
D11*
X126302999Y-62146997D02*
X126302999Y-61546997D01*
D14*
%TO.C,R21*%
X180664646Y-58507716D02*
X180664646Y-58961844D01*
X179194646Y-58507716D02*
X179194646Y-58961844D01*
%TO.C,C22*%
X185338767Y-93093000D02*
X185046233Y-93093000D01*
X185338767Y-92073000D02*
X185046233Y-92073000D01*
%TO.C,D24*%
X190194000Y-54182000D02*
X190194000Y-52912000D01*
D11*
X191464000Y-54309000D02*
X193242000Y-54309000D01*
X191464000Y-52785000D02*
X193242000Y-52785000D01*
D14*
%TO.C,C28*%
X174867835Y-89514000D02*
X174636165Y-89514000D01*
X174867835Y-88794000D02*
X174636165Y-88794000D01*
%TO.C,C10*%
X143079800Y-66718548D02*
X143079800Y-67241052D01*
X144549800Y-66718548D02*
X144549800Y-67241052D01*
D11*
%TO.C,D23*%
X131191000Y-74803000D02*
X129413000Y-74803000D01*
D14*
X132461000Y-73406000D02*
X132461000Y-74676000D01*
D11*
X131191000Y-73279000D02*
X129413000Y-73279000D01*
D14*
%TO.C,D31*%
X134620000Y-91948000D02*
X134620000Y-93218000D01*
D11*
X133350000Y-93345000D02*
X131572000Y-93345000D01*
X133350000Y-91821000D02*
X131572000Y-91821000D01*
D14*
%TO.C,R2*%
X162053600Y-65378064D02*
X162053600Y-64923936D01*
X163523600Y-65378064D02*
X163523600Y-64923936D01*
%TO.C,C11*%
X135355000Y-60571748D02*
X135355000Y-61094252D01*
X133885000Y-60571748D02*
X133885000Y-61094252D01*
%TO.C,R40*%
X155575724Y-97931500D02*
X155066276Y-97931500D01*
X155575724Y-96886500D02*
X155066276Y-96886500D01*
%TO.C,G\u002A\u002A\u002A*%
G36*
X157430828Y-71283453D02*
G01*
X157416642Y-71310729D01*
X157398771Y-71334435D01*
X157374432Y-71360667D01*
X157293978Y-71426423D01*
X157202362Y-71470132D01*
X157103642Y-71491075D01*
X157001127Y-71489313D01*
X156898126Y-71464908D01*
X156797947Y-71417919D01*
X156703898Y-71348408D01*
X156658609Y-71304301D01*
X156579425Y-71213361D01*
X156493910Y-71099491D01*
X156403240Y-70964192D01*
X156315746Y-70827080D01*
X156284582Y-70909386D01*
X156262097Y-70960937D01*
X156204085Y-71052392D01*
X156131358Y-71125077D01*
X156046541Y-71176659D01*
X155952267Y-71204799D01*
X155921130Y-71207947D01*
X155839144Y-71204632D01*
X155748815Y-71188399D01*
X155659289Y-71161210D01*
X155579717Y-71125021D01*
X155507979Y-71078462D01*
X155420062Y-71007089D01*
X155333562Y-70922902D01*
X155255258Y-70832022D01*
X155240154Y-70811892D01*
X155199645Y-70752880D01*
X155154266Y-70681550D01*
X155108061Y-70604727D01*
X155065074Y-70529235D01*
X155029350Y-70461900D01*
X155004930Y-70409546D01*
X155004624Y-70408802D01*
X154989279Y-70378194D01*
X154975318Y-70360200D01*
X154964592Y-70345539D01*
X154945104Y-70308444D01*
X154919016Y-70252750D01*
X154887703Y-70181845D01*
X154852546Y-70099114D01*
X154814922Y-70007948D01*
X154776210Y-69911732D01*
X154737788Y-69813857D01*
X154701034Y-69717707D01*
X154667327Y-69626672D01*
X154638044Y-69544140D01*
X154614565Y-69473497D01*
X154567674Y-69325338D01*
X154479310Y-69375139D01*
X154423455Y-69409203D01*
X154363003Y-69456124D01*
X154318624Y-69507033D01*
X154289839Y-69564708D01*
X154276173Y-69631925D01*
X154277150Y-69711462D01*
X154292291Y-69806097D01*
X154321121Y-69918607D01*
X154363162Y-70051768D01*
X154379950Y-70102125D01*
X154414860Y-70210356D01*
X154441443Y-70299488D01*
X154460697Y-70373590D01*
X154473622Y-70436737D01*
X154481217Y-70492999D01*
X154484480Y-70546451D01*
X154484113Y-70585616D01*
X154468046Y-70687078D01*
X154431182Y-70773928D01*
X154375312Y-70845052D01*
X154302230Y-70899338D01*
X154213730Y-70935673D01*
X154111604Y-70952940D01*
X153997643Y-70950028D01*
X153873643Y-70925824D01*
X153866468Y-70923831D01*
X153738433Y-70878623D01*
X153619149Y-70816178D01*
X153500537Y-70732307D01*
X153469392Y-70706604D01*
X153412037Y-70655402D01*
X153353433Y-70599163D01*
X153299044Y-70543377D01*
X153254334Y-70493536D01*
X153224767Y-70455130D01*
X153203773Y-70423019D01*
X153169821Y-70528838D01*
X153145112Y-70593093D01*
X153090144Y-70684776D01*
X153017870Y-70756257D01*
X152927689Y-70808068D01*
X152819002Y-70840745D01*
X152777450Y-70847939D01*
X152742424Y-70850297D01*
X152706113Y-70847038D01*
X152660445Y-70837434D01*
X152597347Y-70820759D01*
X152547273Y-70806096D01*
X152481690Y-70782428D01*
X152421981Y-70753585D01*
X152362063Y-70716046D01*
X152295856Y-70666293D01*
X152217280Y-70600807D01*
X152158923Y-70546775D01*
X152086912Y-70472976D01*
X152009835Y-70388169D01*
X151932751Y-70298106D01*
X151860719Y-70208536D01*
X151798799Y-70125207D01*
X151774975Y-70091586D01*
X151745963Y-70051215D01*
X151725482Y-70023438D01*
X151716909Y-70012883D01*
X151716527Y-70015507D01*
X151717967Y-70037736D01*
X151722006Y-70077777D01*
X151728084Y-70129757D01*
X151736098Y-70214449D01*
X151736984Y-70352155D01*
X151721184Y-70472779D01*
X151689156Y-70575377D01*
X151641360Y-70659007D01*
X151578256Y-70722728D01*
X151500303Y-70765594D01*
X151407960Y-70786665D01*
X151398910Y-70787487D01*
X151275770Y-70784571D01*
X151149499Y-70756384D01*
X151021827Y-70703789D01*
X150894483Y-70627647D01*
X150769199Y-70528818D01*
X150647702Y-70408165D01*
X150575782Y-70328841D01*
X150552243Y-70415430D01*
X150552011Y-70416286D01*
X150508403Y-70536267D01*
X150447516Y-70636972D01*
X150367436Y-70720910D01*
X150266247Y-70790590D01*
X150194615Y-70825841D01*
X150095862Y-70858634D01*
X149984422Y-70878435D01*
X149854319Y-70886636D01*
X149781469Y-70885631D01*
X149611724Y-70864850D01*
X149440666Y-70819023D01*
X149270549Y-70749007D01*
X149103628Y-70655660D01*
X148942156Y-70539837D01*
X148842731Y-70460060D01*
X148861342Y-70506586D01*
X148863303Y-70511495D01*
X148877744Y-70548068D01*
X148887959Y-70574582D01*
X148886874Y-70597479D01*
X148866245Y-70629874D01*
X148829150Y-70664990D01*
X148780308Y-70699552D01*
X148724435Y-70730288D01*
X148666248Y-70753922D01*
X148610467Y-70767179D01*
X148608550Y-70767430D01*
X148592175Y-70768712D01*
X148577513Y-70765957D01*
X148561542Y-70756333D01*
X148541246Y-70737009D01*
X148513605Y-70705152D01*
X148475599Y-70657933D01*
X148424208Y-70592522D01*
X148409007Y-70573169D01*
X148263781Y-70394209D01*
X148123513Y-70232093D01*
X147989571Y-70088236D01*
X147863322Y-69964052D01*
X147746131Y-69860955D01*
X147639367Y-69780361D01*
X147554535Y-69731561D01*
X147441784Y-69685693D01*
X147426690Y-69680721D01*
X147371706Y-69664093D01*
X147330763Y-69655702D01*
X147295066Y-69654261D01*
X147255822Y-69658484D01*
X147220979Y-69665321D01*
X147162128Y-69689159D01*
X147122803Y-69727615D01*
X147099666Y-69783365D01*
X147097403Y-69794258D01*
X147095039Y-69858371D01*
X147105928Y-69938411D01*
X147129068Y-70029021D01*
X147163460Y-70124845D01*
X147186676Y-70181424D01*
X147215646Y-70252095D01*
X147241977Y-70316386D01*
X147282854Y-70432335D01*
X147306985Y-70547308D01*
X147308830Y-70649175D01*
X147288284Y-70738902D01*
X147245238Y-70817457D01*
X147179590Y-70885806D01*
X147128723Y-70917169D01*
X147054580Y-70945094D01*
X146968036Y-70964841D01*
X146876284Y-70974806D01*
X146786512Y-70973388D01*
X146739392Y-70966431D01*
X146637213Y-70935064D01*
X146530498Y-70882677D01*
X146423123Y-70811671D01*
X146318963Y-70724447D01*
X146221892Y-70623410D01*
X146202035Y-70599818D01*
X146145167Y-70527947D01*
X146084556Y-70446339D01*
X146025510Y-70362459D01*
X145973341Y-70283773D01*
X145933358Y-70217746D01*
X145877532Y-70118315D01*
X145913827Y-70079806D01*
X145921484Y-70071937D01*
X145945175Y-70050949D01*
X145959159Y-70043718D01*
X145967262Y-70051006D01*
X145986742Y-70075318D01*
X146011601Y-70110351D01*
X146015567Y-70116208D01*
X146121866Y-70264776D01*
X146226960Y-70395935D01*
X146329705Y-70508793D01*
X146428954Y-70602453D01*
X146523562Y-70676022D01*
X146612380Y-70728603D01*
X146694265Y-70759302D01*
X146768071Y-70767224D01*
X146832648Y-70751475D01*
X146844610Y-70745110D01*
X146880388Y-70710063D01*
X146897452Y-70658974D01*
X146895739Y-70591319D01*
X146875187Y-70506565D01*
X146835733Y-70404183D01*
X146777314Y-70283647D01*
X146717806Y-70164893D01*
X146669247Y-70054034D01*
X146635620Y-69956318D01*
X146616066Y-69867750D01*
X146609718Y-69784332D01*
X146615713Y-69702067D01*
X146633187Y-69616962D01*
X146642126Y-69583472D01*
X146657593Y-69532699D01*
X146673293Y-69495764D01*
X146693056Y-69464528D01*
X146720709Y-69430850D01*
X146756815Y-69394146D01*
X146841087Y-69335698D01*
X146938459Y-69299977D01*
X147048139Y-69287120D01*
X147169337Y-69297263D01*
X147301261Y-69330543D01*
X147389525Y-69364380D01*
X147528405Y-69435650D01*
X147671861Y-69529797D01*
X147817689Y-69645325D01*
X147963689Y-69780738D01*
X147990423Y-69807187D01*
X148026562Y-69842235D01*
X148052621Y-69866609D01*
X148064252Y-69876181D01*
X148062847Y-69865316D01*
X148054095Y-69834082D01*
X148039426Y-69787304D01*
X148020291Y-69729816D01*
X147992406Y-69642998D01*
X147967650Y-69553205D01*
X147951070Y-69476563D01*
X147943468Y-69416850D01*
X147945644Y-69377840D01*
X147968293Y-69330371D01*
X148012246Y-69291757D01*
X148073040Y-69269888D01*
X148147908Y-69265702D01*
X148234082Y-69280136D01*
X148302724Y-69300964D01*
X148353991Y-69325112D01*
X148387812Y-69355657D01*
X148408893Y-69396936D01*
X148421935Y-69453284D01*
X148433620Y-69515442D01*
X148471373Y-69649355D01*
X148526760Y-69778009D01*
X148602166Y-69906436D01*
X148699977Y-70039662D01*
X148830529Y-70188953D01*
X148981593Y-70330664D01*
X149139644Y-70448286D01*
X149303644Y-70541055D01*
X149472553Y-70608204D01*
X149496685Y-70615666D01*
X149602695Y-70643116D01*
X149695328Y-70656418D01*
X149781824Y-70656206D01*
X149869420Y-70643120D01*
X149876023Y-70641655D01*
X149965963Y-70608482D01*
X150039703Y-70555173D01*
X150096193Y-70483471D01*
X150134383Y-70395120D01*
X150153216Y-70291862D01*
X150151645Y-70175440D01*
X150148798Y-70150001D01*
X150141941Y-70124695D01*
X150126938Y-70113556D01*
X150097491Y-70108840D01*
X150053982Y-70102885D01*
X149974217Y-70088074D01*
X149882205Y-70067745D01*
X149785628Y-70043835D01*
X149692172Y-70018275D01*
X149609523Y-69992998D01*
X149545363Y-69969939D01*
X149467268Y-69936363D01*
X149302329Y-69851856D01*
X149157588Y-69757661D01*
X149033957Y-69654851D01*
X148932346Y-69544502D01*
X148853669Y-69427687D01*
X148798836Y-69305483D01*
X148768759Y-69178963D01*
X148765066Y-69070362D01*
X149054541Y-69070362D01*
X149060654Y-69131946D01*
X149078828Y-69202552D01*
X149107008Y-69274764D01*
X149143136Y-69341168D01*
X149147520Y-69347865D01*
X149224999Y-69446424D01*
X149324939Y-69544152D01*
X149443509Y-69637994D01*
X149576876Y-69724897D01*
X149721209Y-69801808D01*
X149734133Y-69807821D01*
X149790581Y-69831419D01*
X149852614Y-69854048D01*
X149915159Y-69874254D01*
X149973148Y-69890577D01*
X150021509Y-69901565D01*
X150055171Y-69905759D01*
X150069067Y-69901704D01*
X150065328Y-69886341D01*
X150049343Y-69851696D01*
X150023257Y-69802536D01*
X149989518Y-69742928D01*
X149950574Y-69676944D01*
X149908872Y-69608649D01*
X149866862Y-69542114D01*
X149826990Y-69481407D01*
X149791705Y-69430596D01*
X149763455Y-69393752D01*
X149734880Y-69360515D01*
X149636391Y-69257254D01*
X149535381Y-69167349D01*
X149435357Y-69093474D01*
X149339834Y-69038302D01*
X149252319Y-69004507D01*
X149182597Y-68989869D01*
X149120887Y-68988549D01*
X149079598Y-69004073D01*
X149058576Y-69036465D01*
X149054541Y-69070362D01*
X148765066Y-69070362D01*
X148764347Y-69049201D01*
X148774636Y-68977958D01*
X148800220Y-68915005D01*
X148844515Y-68863434D01*
X148911485Y-68816985D01*
X148944772Y-68799350D01*
X149042561Y-68764477D01*
X149149581Y-68750604D01*
X149268443Y-68757561D01*
X149401758Y-68785178D01*
X149436244Y-68795130D01*
X149583232Y-68852762D01*
X149729913Y-68933428D01*
X149873522Y-69034339D01*
X150011292Y-69152702D01*
X150140455Y-69285730D01*
X150258246Y-69430631D01*
X150361898Y-69584615D01*
X150448644Y-69744892D01*
X150515719Y-69908671D01*
X150535387Y-69957902D01*
X150579041Y-70038352D01*
X150582966Y-70045583D01*
X150644442Y-70132739D01*
X150716499Y-70216500D01*
X150795815Y-70294001D01*
X150879072Y-70362371D01*
X150962953Y-70418742D01*
X151044135Y-70460245D01*
X151119300Y-70484013D01*
X151185130Y-70487176D01*
X151198550Y-70484949D01*
X151230171Y-70473567D01*
X151252276Y-70451733D01*
X151266748Y-70415412D01*
X151275470Y-70360569D01*
X151280323Y-70283167D01*
X151280341Y-70143933D01*
X151269034Y-69991445D01*
X151245861Y-69828357D01*
X151210450Y-69653417D01*
X151162417Y-69465373D01*
X151101388Y-69262973D01*
X151026982Y-69044967D01*
X150938823Y-68810103D01*
X150836533Y-68557129D01*
X150719731Y-68284794D01*
X150588042Y-67991845D01*
X150584145Y-67983333D01*
X150552565Y-67913754D01*
X150513885Y-67827715D01*
X150471206Y-67732164D01*
X150427633Y-67634050D01*
X150386273Y-67540317D01*
X150386101Y-67539927D01*
X150327784Y-67405909D01*
X150280298Y-67293352D01*
X150242854Y-67199724D01*
X150214664Y-67122490D01*
X150194938Y-67059117D01*
X150182888Y-67007074D01*
X150177726Y-66963825D01*
X150178661Y-66926839D01*
X150184907Y-66893582D01*
X150204412Y-66845372D01*
X150242867Y-66804456D01*
X150299816Y-66781633D01*
X150301125Y-66781352D01*
X150347967Y-66779166D01*
X150395120Y-66793401D01*
X150444051Y-66825498D01*
X150496229Y-66876895D01*
X150553120Y-66949033D01*
X150616193Y-67043351D01*
X150686917Y-67161288D01*
X150710775Y-67203330D01*
X150767949Y-67309434D01*
X150825723Y-67424587D01*
X150884973Y-67550852D01*
X150946572Y-67690293D01*
X151011394Y-67844976D01*
X151080312Y-68016964D01*
X151154203Y-68208322D01*
X151233939Y-68421113D01*
X151320393Y-68657404D01*
X151322834Y-68664141D01*
X151379769Y-68820896D01*
X151429046Y-68955529D01*
X151471836Y-69070948D01*
X151509316Y-69170062D01*
X151542656Y-69255778D01*
X151573030Y-69331004D01*
X151601612Y-69398649D01*
X151629576Y-69461620D01*
X151658092Y-69522826D01*
X151688336Y-69585173D01*
X151721481Y-69651572D01*
X151736998Y-69681598D01*
X151804013Y-69799033D01*
X151881925Y-69920063D01*
X151966562Y-70039023D01*
X152053746Y-70150247D01*
X152139306Y-70248070D01*
X152219065Y-70326826D01*
X152296509Y-70390804D01*
X152391859Y-70454042D01*
X152477559Y-70492997D01*
X152552567Y-70508364D01*
X152615842Y-70500833D01*
X152666340Y-70471098D01*
X152703024Y-70419849D01*
X152724849Y-70347778D01*
X152730774Y-70255578D01*
X152719757Y-70143938D01*
X152690757Y-70013554D01*
X152671193Y-69950521D01*
X152638346Y-69860318D01*
X152599003Y-69763567D01*
X152556889Y-69669347D01*
X152515727Y-69586739D01*
X152510678Y-69577546D01*
X152474590Y-69519047D01*
X152426549Y-69449069D01*
X152371708Y-69374455D01*
X152315216Y-69302043D01*
X152262223Y-69238675D01*
X152217880Y-69191187D01*
X152217002Y-69190336D01*
X152168461Y-69147046D01*
X152109911Y-69100112D01*
X152053828Y-69059543D01*
X151972791Y-69012944D01*
X151879974Y-68975075D01*
X151786676Y-68951036D01*
X151698052Y-68941742D01*
X151619254Y-68948106D01*
X151555434Y-68971046D01*
X151513725Y-68995127D01*
X151485854Y-68946852D01*
X151470769Y-68914563D01*
X151461134Y-68853890D01*
X151475771Y-68798721D01*
X151513108Y-68753184D01*
X151571577Y-68721407D01*
X151613876Y-68709379D01*
X151679586Y-68700701D01*
X151753395Y-68703274D01*
X151840515Y-68717402D01*
X151946154Y-68743392D01*
X152016452Y-68763376D01*
X152075500Y-68782555D01*
X152123767Y-68802140D01*
X152169207Y-68825392D01*
X152219777Y-68855573D01*
X152358721Y-68949807D01*
X152526402Y-69088045D01*
X152679462Y-69244788D01*
X152819317Y-69421691D01*
X152947382Y-69620406D01*
X153065073Y-69842584D01*
X153091294Y-69896476D01*
X153135928Y-69984577D01*
X153176002Y-70057346D01*
X153215184Y-70120922D01*
X153257143Y-70181446D01*
X153305548Y-70245059D01*
X153362478Y-70314189D01*
X153482990Y-70439628D01*
X153616864Y-70551537D01*
X153648358Y-70574561D01*
X153698817Y-70606357D01*
X153749283Y-70629092D01*
X153812182Y-70648967D01*
X153864859Y-70662718D01*
X153904599Y-70669563D01*
X153934036Y-70668690D01*
X153960876Y-70660706D01*
X153965679Y-70658721D01*
X153991994Y-70643509D01*
X154008184Y-70620312D01*
X154021125Y-70579914D01*
X154021236Y-70579487D01*
X154027820Y-70546930D01*
X154029733Y-70513155D01*
X154026164Y-70474213D01*
X154016310Y-70426155D01*
X153999360Y-70365032D01*
X153974508Y-70286897D01*
X153940946Y-70187800D01*
X153908704Y-70091087D01*
X153875745Y-69980447D01*
X153853580Y-69886462D01*
X153841658Y-69804979D01*
X153839423Y-69731843D01*
X153846324Y-69662905D01*
X153861805Y-69594012D01*
X153887323Y-69522526D01*
X153925224Y-69455244D01*
X153977409Y-69392847D01*
X154046759Y-69332443D01*
X154136158Y-69271139D01*
X154248490Y-69206043D01*
X154267438Y-69195647D01*
X154329666Y-69160487D01*
X154384316Y-69128125D01*
X154426055Y-69101781D01*
X154449550Y-69084675D01*
X154450840Y-69083506D01*
X154465885Y-69068501D01*
X154473956Y-69053159D01*
X154475603Y-69031004D01*
X154471377Y-68995563D01*
X154461829Y-68940360D01*
X154458000Y-68918480D01*
X154450516Y-68866668D01*
X154449337Y-68829732D01*
X154454706Y-68799327D01*
X154466865Y-68767106D01*
X154489943Y-68725827D01*
X154530195Y-68687186D01*
X154576309Y-68672715D01*
X154625077Y-68683156D01*
X154673293Y-68719257D01*
X154695823Y-68745223D01*
X154741848Y-68816816D01*
X154775231Y-68896555D01*
X154794919Y-68978858D01*
X154799858Y-69058145D01*
X154788997Y-69128834D01*
X154761279Y-69185347D01*
X154752833Y-69197340D01*
X154745982Y-69213613D01*
X154744640Y-69234861D01*
X154749259Y-69266253D01*
X154760285Y-69312956D01*
X154778166Y-69380138D01*
X154783797Y-69400649D01*
X154808204Y-69485029D01*
X154835373Y-69573081D01*
X154864008Y-69661152D01*
X154892804Y-69745589D01*
X154920462Y-69822740D01*
X154945682Y-69888954D01*
X154967163Y-69940577D01*
X154983604Y-69973956D01*
X154993704Y-69985439D01*
X154994057Y-69985419D01*
X155007133Y-69996967D01*
X155024288Y-70027683D01*
X155042063Y-70071419D01*
X155065787Y-70135375D01*
X155120435Y-70263988D01*
X155182562Y-70390216D01*
X155248944Y-70508130D01*
X155316352Y-70611797D01*
X155381557Y-70695287D01*
X155460823Y-70778381D01*
X155543294Y-70849100D01*
X155619110Y-70897028D01*
X155687380Y-70921992D01*
X155747217Y-70923822D01*
X155797731Y-70902346D01*
X155838034Y-70857392D01*
X155867236Y-70788791D01*
X155876801Y-70734855D01*
X155875399Y-70665810D01*
X155861089Y-70583341D01*
X155833337Y-70484464D01*
X155791609Y-70366199D01*
X155756841Y-70273560D01*
X155729823Y-70198714D01*
X155710910Y-70141611D01*
X155699135Y-70098707D01*
X155693528Y-70066456D01*
X155693123Y-70041315D01*
X155696950Y-70019740D01*
X155707086Y-69989844D01*
X155729672Y-69956374D01*
X155766428Y-69932812D01*
X155823598Y-69913942D01*
X155898606Y-69894219D01*
X155833798Y-69876854D01*
X155774480Y-69854521D01*
X155724686Y-69818738D01*
X155951394Y-69818738D01*
X155953103Y-69857943D01*
X155958949Y-69878805D01*
X155969534Y-69885660D01*
X155978746Y-69893717D01*
X156000110Y-69924252D01*
X156031605Y-69976167D01*
X156072390Y-70048013D01*
X156121622Y-70138339D01*
X156178459Y-70245692D01*
X156251406Y-70383328D01*
X156336806Y-70538741D01*
X156414608Y-70672958D01*
X156486118Y-70787975D01*
X156552643Y-70885787D01*
X156615491Y-70968388D01*
X156675967Y-71037773D01*
X156735376Y-71095938D01*
X156735515Y-71096063D01*
X156791007Y-71138299D01*
X156850378Y-71171142D01*
X156906280Y-71191217D01*
X156951364Y-71195148D01*
X156978161Y-71188373D01*
X157015444Y-71162452D01*
X157042192Y-71116245D01*
X157060467Y-71046952D01*
X157066833Y-71003243D01*
X157071121Y-70900210D01*
X157061863Y-70783805D01*
X157038804Y-70649383D01*
X157036138Y-70636700D01*
X156993852Y-70469748D01*
X156940125Y-70308497D01*
X156876440Y-70155022D01*
X156804279Y-70011397D01*
X156725125Y-69879698D01*
X156640459Y-69761999D01*
X156551765Y-69660377D01*
X156460525Y-69576906D01*
X156368221Y-69513661D01*
X156276335Y-69472716D01*
X156186351Y-69456148D01*
X156130162Y-69458336D01*
X156076451Y-69475900D01*
X156033507Y-69513119D01*
X155995639Y-69573496D01*
X155988669Y-69587414D01*
X155972139Y-69625101D01*
X155962061Y-69661057D01*
X155956329Y-69704746D01*
X155952831Y-69765635D01*
X155951394Y-69818738D01*
X155724686Y-69818738D01*
X155711398Y-69809189D01*
X155669137Y-69748172D01*
X155648864Y-69673330D01*
X155651744Y-69586525D01*
X155670081Y-69517807D01*
X155714660Y-69435799D01*
X155780171Y-69366536D01*
X155864378Y-69311762D01*
X155965045Y-69273220D01*
X156079936Y-69252651D01*
X156095666Y-69251471D01*
X156207301Y-69254665D01*
X156326655Y-69275467D01*
X156445032Y-69311872D01*
X156553738Y-69361877D01*
X156584082Y-69379178D01*
X156733639Y-69478623D01*
X156871429Y-69595854D01*
X156999514Y-69733033D01*
X157119958Y-69892322D01*
X157234821Y-70075882D01*
X157250229Y-70103103D01*
X157347859Y-70298050D01*
X157422289Y-70490814D01*
X157472386Y-70678525D01*
X157473938Y-70686167D01*
X157492342Y-70784253D01*
X157503243Y-70864368D01*
X157506629Y-70933636D01*
X157502490Y-70999186D01*
X157490812Y-71068143D01*
X157471583Y-71147635D01*
X157459260Y-71193806D01*
X157450133Y-71225553D01*
X157444107Y-71246511D01*
X157430828Y-71283453D01*
G37*
G36*
X170405654Y-72265841D02*
G01*
X170514681Y-72302775D01*
X170628156Y-72357077D01*
X170743014Y-72427115D01*
X170856188Y-72511256D01*
X170964613Y-72607870D01*
X171065224Y-72715322D01*
X171103797Y-72764898D01*
X171157261Y-72843995D01*
X171211822Y-72934149D01*
X171263019Y-73027541D01*
X171306392Y-73116348D01*
X171337478Y-73192745D01*
X171388082Y-73371990D01*
X171419427Y-73566039D01*
X171428468Y-73761765D01*
X171414986Y-73954091D01*
X171378758Y-74137944D01*
X171330204Y-74285148D01*
X171263846Y-74420885D01*
X171181840Y-74535522D01*
X171083633Y-74629693D01*
X170968667Y-74704037D01*
X170836388Y-74759190D01*
X170784208Y-74774883D01*
X170714121Y-74791776D01*
X170639663Y-74804482D01*
X170557676Y-74813148D01*
X170465002Y-74817916D01*
X170358483Y-74818931D01*
X170234962Y-74816338D01*
X170091280Y-74810280D01*
X169924278Y-74800903D01*
X169882267Y-74798384D01*
X169747550Y-74791226D01*
X169634098Y-74787020D01*
X169537808Y-74785839D01*
X169454577Y-74787754D01*
X169380303Y-74792836D01*
X169310884Y-74801158D01*
X169242219Y-74812790D01*
X169229895Y-74815221D01*
X169093318Y-74853826D01*
X168976632Y-74910154D01*
X168879665Y-74984368D01*
X168802241Y-75076632D01*
X168744186Y-75187110D01*
X168705324Y-75315964D01*
X168693767Y-75404150D01*
X168700109Y-75517170D01*
X168730431Y-75633949D01*
X168785236Y-75757266D01*
X168825110Y-75825942D01*
X168910448Y-75942950D01*
X169011381Y-76051706D01*
X169124338Y-76149825D01*
X169245743Y-76234922D01*
X169372024Y-76304610D01*
X169499606Y-76356507D01*
X169624915Y-76388226D01*
X169744379Y-76397383D01*
X169811278Y-76392994D01*
X169942868Y-76366806D01*
X170061042Y-76318698D01*
X170164841Y-76249959D01*
X170253306Y-76161871D01*
X170325476Y-76055722D01*
X170380393Y-75932795D01*
X170417097Y-75794376D01*
X170434629Y-75641750D01*
X170432028Y-75476204D01*
X170428759Y-75432563D01*
X170424677Y-75376631D01*
X170421663Y-75333619D01*
X170420208Y-75310360D01*
X170420880Y-75298608D01*
X170427929Y-75295911D01*
X170446358Y-75306143D01*
X170481050Y-75330959D01*
X170575025Y-75408349D01*
X170673131Y-75513129D01*
X170749921Y-75625545D01*
X170804382Y-75743303D01*
X170835499Y-75864107D01*
X170842255Y-75985663D01*
X170823638Y-76105675D01*
X170821343Y-76113950D01*
X170787983Y-76203059D01*
X170738487Y-76299612D01*
X170677402Y-76395610D01*
X170609270Y-76483051D01*
X170605387Y-76487471D01*
X170503949Y-76582459D01*
X170385234Y-76659839D01*
X170252963Y-76718283D01*
X170110861Y-76756468D01*
X169962651Y-76773068D01*
X169812057Y-76766758D01*
X169803639Y-76765656D01*
X169733716Y-76752367D01*
X169648589Y-76730889D01*
X169556190Y-76703685D01*
X169464449Y-76673217D01*
X169381299Y-76641948D01*
X169314672Y-76612340D01*
X169222926Y-76562794D01*
X169062560Y-76458064D01*
X168914997Y-76338027D01*
X168781929Y-76205115D01*
X168665050Y-76061759D01*
X168566051Y-75910391D01*
X168486625Y-75753442D01*
X168428464Y-75593344D01*
X168393261Y-75432528D01*
X168382708Y-75273424D01*
X168387405Y-75196033D01*
X168415798Y-75046961D01*
X168468411Y-74900548D01*
X168543749Y-74760527D01*
X168640316Y-74630632D01*
X168685528Y-74581459D01*
X168731568Y-74540193D01*
X168785216Y-74502080D01*
X168854964Y-74460387D01*
X168926419Y-74422868D01*
X169000235Y-74391140D01*
X169077680Y-74365789D01*
X169161598Y-74346509D01*
X169254835Y-74332993D01*
X169360230Y-74324935D01*
X169480628Y-74322027D01*
X169618872Y-74323962D01*
X169777808Y-74330435D01*
X169960275Y-74341138D01*
X170048576Y-74346777D01*
X170168806Y-74353856D01*
X170268150Y-74358666D01*
X170350095Y-74361197D01*
X170418126Y-74361439D01*
X170475728Y-74359384D01*
X170526386Y-74355020D01*
X170573584Y-74348338D01*
X170620809Y-74339331D01*
X170662436Y-74329569D01*
X170766733Y-74292935D01*
X170852698Y-74240935D01*
X170924684Y-74170465D01*
X170987043Y-74078424D01*
X171013639Y-74025267D01*
X171053825Y-73908344D01*
X171079370Y-73776110D01*
X171090042Y-73633303D01*
X171085609Y-73484664D01*
X171065841Y-73334933D01*
X171030505Y-73188848D01*
X171027638Y-73179678D01*
X170998163Y-73102507D01*
X170957604Y-73016112D01*
X170909870Y-72927398D01*
X170858874Y-72843266D01*
X170808526Y-72770615D01*
X170762736Y-72716349D01*
X170710010Y-72667798D01*
X170639814Y-72613088D01*
X170566498Y-72564392D01*
X170497058Y-72526308D01*
X170438488Y-72503426D01*
X170409980Y-72497039D01*
X170346946Y-72496175D01*
X170293904Y-72518510D01*
X170246420Y-72565478D01*
X170235835Y-72581295D01*
X170209714Y-72634826D01*
X170180917Y-72711368D01*
X170150159Y-72808569D01*
X170118155Y-72924082D01*
X170085618Y-73055554D01*
X170053265Y-73200635D01*
X170051433Y-73209251D01*
X170018886Y-73351053D01*
X169986503Y-73468447D01*
X169953104Y-73563539D01*
X169917509Y-73638433D01*
X169878538Y-73695235D01*
X169835012Y-73736050D01*
X169785749Y-73762983D01*
X169729573Y-73778139D01*
X169720119Y-73779442D01*
X169666672Y-73780526D01*
X169616873Y-73773584D01*
X169601047Y-73769281D01*
X169574799Y-73758354D01*
X169564517Y-73740784D01*
X169562908Y-73707664D01*
X169567227Y-73584275D01*
X169580708Y-73430904D01*
X169602259Y-73273619D01*
X169630811Y-73117505D01*
X169665300Y-72967653D01*
X169704656Y-72829150D01*
X169747815Y-72707085D01*
X169793710Y-72606547D01*
X169826438Y-72549941D01*
X169900610Y-72448601D01*
X169983348Y-72366569D01*
X170071264Y-72307494D01*
X170072822Y-72306688D01*
X170121964Y-72282853D01*
X170166823Y-72263763D01*
X170197866Y-72253484D01*
X170213206Y-72250609D01*
X170304140Y-72247909D01*
X170405654Y-72265841D01*
G37*
G36*
X165910168Y-70001314D02*
G01*
X166006548Y-70018768D01*
X166085561Y-70046671D01*
X166144704Y-70086305D01*
X166186840Y-70139619D01*
X166214830Y-70208558D01*
X166219842Y-70228735D01*
X166231281Y-70290199D01*
X166243470Y-70374195D01*
X166256172Y-70477920D01*
X166269146Y-70598572D01*
X166282153Y-70733346D01*
X166294953Y-70879439D01*
X166307306Y-71034048D01*
X166318972Y-71194371D01*
X166329713Y-71357602D01*
X166339289Y-71520938D01*
X166347460Y-71681577D01*
X166353986Y-71836717D01*
X166360083Y-72023597D01*
X166366181Y-72351262D01*
X166365483Y-72656278D01*
X166357951Y-72940692D01*
X166343543Y-73206552D01*
X166322220Y-73455906D01*
X166303509Y-73638375D01*
X166341365Y-73558794D01*
X166348605Y-73542820D01*
X166367316Y-73499473D01*
X166393980Y-73436282D01*
X166427368Y-73356219D01*
X166466243Y-73262259D01*
X166509373Y-73157378D01*
X166555524Y-73044550D01*
X166603463Y-72926751D01*
X166603984Y-72925466D01*
X166704276Y-72680846D01*
X166797072Y-72459876D01*
X166883230Y-72260892D01*
X166963610Y-72082231D01*
X167039069Y-71922229D01*
X167110464Y-71779219D01*
X167178654Y-71651541D01*
X167244497Y-71537528D01*
X167308850Y-71435516D01*
X167372572Y-71343843D01*
X167436521Y-71260842D01*
X167501555Y-71184850D01*
X167558144Y-71127352D01*
X167646086Y-71055275D01*
X167736362Y-70999610D01*
X167824507Y-70962972D01*
X167906052Y-70947979D01*
X168014922Y-70955192D01*
X168131247Y-70987079D01*
X168247914Y-71042508D01*
X168362577Y-71120118D01*
X168472887Y-71218548D01*
X168576495Y-71336439D01*
X168637609Y-71422078D01*
X168709022Y-71546821D01*
X168765266Y-71676547D01*
X168805492Y-71807535D01*
X168828853Y-71936064D01*
X168834501Y-72058415D01*
X168821587Y-72170865D01*
X168789263Y-72269697D01*
X168779232Y-72290279D01*
X168720307Y-72385402D01*
X168648950Y-72466577D01*
X168568679Y-72531361D01*
X168483011Y-72577309D01*
X168395464Y-72601979D01*
X168309552Y-72602930D01*
X168286770Y-72599409D01*
X168253282Y-72590443D01*
X168237328Y-72575804D01*
X168238336Y-72551439D01*
X168255733Y-72513297D01*
X168288945Y-72457325D01*
X168304924Y-72430032D01*
X168351402Y-72334583D01*
X168393494Y-72225628D01*
X168428392Y-72111947D01*
X168453289Y-72002320D01*
X168465376Y-71905529D01*
X168466750Y-71851674D01*
X168455718Y-71719663D01*
X168424376Y-71600716D01*
X168373717Y-71496585D01*
X168304738Y-71409018D01*
X168218434Y-71339766D01*
X168115799Y-71290580D01*
X168112025Y-71289264D01*
X168069922Y-71275614D01*
X168043660Y-71271606D01*
X168024731Y-71277451D01*
X168004625Y-71293364D01*
X167991821Y-71306690D01*
X167969839Y-71344617D01*
X167952195Y-71401622D01*
X167950149Y-71412310D01*
X167947154Y-71436140D01*
X167944095Y-71470628D01*
X167940946Y-71516614D01*
X167937682Y-71574941D01*
X167934279Y-71646452D01*
X167930711Y-71731990D01*
X167926954Y-71832395D01*
X167922984Y-71948511D01*
X167918774Y-72081181D01*
X167914300Y-72231246D01*
X167909538Y-72399549D01*
X167904462Y-72586931D01*
X167899047Y-72794236D01*
X167893269Y-73022307D01*
X167887103Y-73271984D01*
X167880522Y-73544111D01*
X167873504Y-73839530D01*
X167866022Y-74159082D01*
X167858054Y-74503612D01*
X167849572Y-74873960D01*
X167847918Y-74941420D01*
X167845218Y-75038225D01*
X167842107Y-75138397D01*
X167838733Y-75238179D01*
X167835237Y-75333821D01*
X167831763Y-75421571D01*
X167828456Y-75497675D01*
X167825460Y-75558380D01*
X167822920Y-75599934D01*
X167820978Y-75618585D01*
X167813715Y-75620917D01*
X167791402Y-75609441D01*
X167758901Y-75584620D01*
X167720946Y-75549715D01*
X167691282Y-75516400D01*
X167647606Y-75448353D01*
X167611827Y-75364055D01*
X167583448Y-75261533D01*
X167561967Y-75138817D01*
X167546888Y-74993933D01*
X167537710Y-74824907D01*
X167536563Y-74785106D01*
X167535719Y-74729862D01*
X167535601Y-74667979D01*
X167536267Y-74598210D01*
X167537771Y-74519305D01*
X167540169Y-74430016D01*
X167543517Y-74329093D01*
X167547869Y-74215290D01*
X167553281Y-74087357D01*
X167559808Y-73944044D01*
X167567506Y-73784103D01*
X167576430Y-73606285D01*
X167586636Y-73409343D01*
X167598180Y-73192025D01*
X167611114Y-72953087D01*
X167625497Y-72691275D01*
X167641383Y-72405344D01*
X167658828Y-72094044D01*
X167661455Y-72046642D01*
X167666600Y-71949232D01*
X167670834Y-71862575D01*
X167674026Y-71789846D01*
X167676039Y-71734216D01*
X167676741Y-71698861D01*
X167675997Y-71686953D01*
X167671643Y-71691509D01*
X167654882Y-71718339D01*
X167628383Y-71767320D01*
X167592871Y-71836941D01*
X167549074Y-71925694D01*
X167497715Y-72032069D01*
X167439520Y-72154558D01*
X167375213Y-72291652D01*
X167305520Y-72441841D01*
X167231166Y-72603617D01*
X167152876Y-72775472D01*
X167052783Y-72995098D01*
X166958391Y-73199725D01*
X166872791Y-73382184D01*
X166795255Y-73543725D01*
X166725053Y-73685602D01*
X166661455Y-73809064D01*
X166603734Y-73915367D01*
X166551159Y-74005760D01*
X166503002Y-74081495D01*
X166458533Y-74143826D01*
X166417023Y-74194002D01*
X166377744Y-74233276D01*
X166339966Y-74262901D01*
X166302959Y-74284127D01*
X166265996Y-74298207D01*
X166243924Y-74302797D01*
X166180397Y-74300704D01*
X166116510Y-74280580D01*
X166062986Y-74245224D01*
X166024559Y-74209138D01*
X166051772Y-73921284D01*
X166056821Y-73866627D01*
X166074951Y-73646656D01*
X166090484Y-73418926D01*
X166103389Y-73186293D01*
X166113633Y-72951610D01*
X166121188Y-72717733D01*
X166126022Y-72487519D01*
X166128103Y-72263819D01*
X166127402Y-72049491D01*
X166123887Y-71847389D01*
X166117527Y-71660368D01*
X166108290Y-71491283D01*
X166096147Y-71342989D01*
X166081066Y-71218342D01*
X166068300Y-71132099D01*
X166035752Y-71282120D01*
X166033484Y-71292569D01*
X165995722Y-71465764D01*
X165962267Y-71617281D01*
X165932122Y-71751325D01*
X165904288Y-71872104D01*
X165877768Y-71983825D01*
X165851566Y-72090694D01*
X165824682Y-72196919D01*
X165796118Y-72306706D01*
X165764879Y-72424264D01*
X165737800Y-72524516D01*
X165693820Y-72682706D01*
X165653083Y-72821914D01*
X165614032Y-72946645D01*
X165575113Y-73061403D01*
X165534768Y-73170695D01*
X165491442Y-73279027D01*
X165443577Y-73390903D01*
X165389619Y-73510830D01*
X165326634Y-73643060D01*
X165259376Y-73770350D01*
X165195327Y-73874470D01*
X165132966Y-73956911D01*
X165070778Y-74019163D01*
X165007244Y-74062715D01*
X164940846Y-74089058D01*
X164870067Y-74099681D01*
X164793388Y-74096073D01*
X164790662Y-74095708D01*
X164748394Y-74087270D01*
X164697303Y-74073488D01*
X164644332Y-74056703D01*
X164596424Y-74039258D01*
X164560523Y-74023498D01*
X164543573Y-74011765D01*
X164546468Y-74004895D01*
X164564156Y-73982061D01*
X164594437Y-73947866D01*
X164633565Y-73906682D01*
X164691389Y-73844048D01*
X164745451Y-73775608D01*
X164794508Y-73700471D01*
X164842659Y-73612317D01*
X164893995Y-73504830D01*
X164912591Y-73463500D01*
X164970978Y-73327269D01*
X165029504Y-73180462D01*
X165089082Y-73020498D01*
X165150626Y-72844793D01*
X165215046Y-72650767D01*
X165283257Y-72435837D01*
X165356172Y-72197420D01*
X165368969Y-72154612D01*
X165422302Y-71969997D01*
X165475457Y-71776542D01*
X165527729Y-71577363D01*
X165578417Y-71375582D01*
X165626816Y-71174314D01*
X165672223Y-70976680D01*
X165713934Y-70785799D01*
X165751245Y-70604789D01*
X165783454Y-70436768D01*
X165809857Y-70284855D01*
X165829749Y-70152169D01*
X165842430Y-70041830D01*
X165846799Y-69993314D01*
X165910168Y-70001314D01*
G37*
G36*
X162064508Y-68640190D02*
G01*
X162092662Y-68647475D01*
X162143128Y-68660994D01*
X162213811Y-68680175D01*
X162302613Y-68704441D01*
X162407438Y-68733220D01*
X162526193Y-68765934D01*
X162656781Y-68802012D01*
X162797105Y-68840877D01*
X162945070Y-68881955D01*
X163049840Y-68911120D01*
X163237003Y-68963547D01*
X163401926Y-69010329D01*
X163546953Y-69052255D01*
X163674423Y-69090112D01*
X163786681Y-69124690D01*
X163886067Y-69156777D01*
X163974925Y-69187162D01*
X164055595Y-69216632D01*
X164130421Y-69245977D01*
X164201744Y-69275984D01*
X164271905Y-69307443D01*
X164343248Y-69341143D01*
X164418115Y-69377869D01*
X164488927Y-69414301D01*
X164644147Y-69504778D01*
X164773037Y-69596913D01*
X164875809Y-69690957D01*
X164952681Y-69787161D01*
X165003869Y-69885777D01*
X165029586Y-69987055D01*
X165030050Y-70091247D01*
X165027159Y-70112704D01*
X165021135Y-70142210D01*
X165015652Y-70152957D01*
X165015161Y-70152780D01*
X164998988Y-70144655D01*
X164964682Y-70126449D01*
X164916918Y-70100665D01*
X164860369Y-70069807D01*
X164843577Y-70060701D01*
X164754010Y-70014423D01*
X164645354Y-69961238D01*
X164522371Y-69903295D01*
X164389822Y-69842746D01*
X164252468Y-69781742D01*
X164115068Y-69722433D01*
X163982384Y-69666970D01*
X163859177Y-69617505D01*
X163832049Y-69606894D01*
X163756903Y-69577591D01*
X163692009Y-69552414D01*
X163641009Y-69532769D01*
X163607547Y-69520062D01*
X163595263Y-69515695D01*
X163595550Y-69525514D01*
X163597218Y-69559454D01*
X163600178Y-69615098D01*
X163604284Y-69689807D01*
X163609388Y-69780946D01*
X163615346Y-69885875D01*
X163622008Y-70001959D01*
X163629230Y-70126559D01*
X163642410Y-70359505D01*
X163660410Y-70706338D01*
X163675010Y-71028943D01*
X163686237Y-71328674D01*
X163694123Y-71606888D01*
X163698694Y-71864940D01*
X163699980Y-72104185D01*
X163698010Y-72325978D01*
X163692812Y-72531676D01*
X163684416Y-72722634D01*
X163679102Y-72807483D01*
X163671827Y-72886119D01*
X163661922Y-72955219D01*
X163648054Y-73023871D01*
X163628889Y-73101160D01*
X163611410Y-73166624D01*
X163596579Y-73217259D01*
X163583261Y-73253419D01*
X163568862Y-73280994D01*
X163550791Y-73305873D01*
X163526457Y-73333944D01*
X163459324Y-73394987D01*
X163379456Y-73436819D01*
X163285796Y-73457424D01*
X163237129Y-73458886D01*
X163173749Y-73451425D01*
X163094063Y-73433362D01*
X163046303Y-73420576D01*
X163008370Y-73409041D01*
X162988822Y-73400051D01*
X162983516Y-73391576D01*
X162988310Y-73381589D01*
X162999114Y-73363235D01*
X163019056Y-73318800D01*
X163042003Y-73259080D01*
X163065813Y-73190342D01*
X163088347Y-73118853D01*
X163107469Y-73050880D01*
X163121037Y-72992689D01*
X163130550Y-72942661D01*
X163141672Y-72877731D01*
X163151591Y-72810185D01*
X163160891Y-72735223D01*
X163170154Y-72648047D01*
X163179964Y-72543855D01*
X163190904Y-72417852D01*
X163201059Y-72293749D01*
X163220731Y-72028780D01*
X163238383Y-71756972D01*
X163253878Y-71482026D01*
X163267076Y-71207640D01*
X163277836Y-70937517D01*
X163286021Y-70675356D01*
X163291490Y-70424859D01*
X163294105Y-70189725D01*
X163293726Y-69973656D01*
X163290214Y-69780351D01*
X163290074Y-69775398D01*
X163287749Y-69690531D01*
X163285729Y-69611719D01*
X163284135Y-69544112D01*
X163283088Y-69492861D01*
X163282711Y-69463113D01*
X163282451Y-69452525D01*
X163277915Y-69419518D01*
X163269521Y-69402358D01*
X163260512Y-69398283D01*
X163229409Y-69385657D01*
X163180907Y-69366615D01*
X163119467Y-69342907D01*
X163049554Y-69316276D01*
X162948020Y-69276394D01*
X162790721Y-69208695D01*
X162643724Y-69138177D01*
X162510172Y-69066563D01*
X162393212Y-68995577D01*
X162295990Y-68926946D01*
X162221651Y-68862391D01*
X162212405Y-68852993D01*
X162171190Y-68808023D01*
X162132008Y-68760953D01*
X162098039Y-68716153D01*
X162072459Y-68677991D01*
X162058450Y-68650835D01*
X162059186Y-68639055D01*
X162064508Y-68640190D01*
G37*
G36*
X158767003Y-67686756D02*
G01*
X158887575Y-67711071D01*
X159010287Y-67749671D01*
X159129489Y-67801462D01*
X159239972Y-67863667D01*
X159395396Y-67974691D01*
X159544191Y-68108565D01*
X159685300Y-68263289D01*
X159817662Y-68436865D01*
X159940221Y-68627297D01*
X160051917Y-68832586D01*
X160151691Y-69050734D01*
X160238485Y-69279745D01*
X160311240Y-69517619D01*
X160368898Y-69762360D01*
X160410399Y-70011968D01*
X160434685Y-70264448D01*
X160440425Y-70418128D01*
X160432944Y-70669341D01*
X160403415Y-70910985D01*
X160351463Y-71147008D01*
X160340100Y-71188499D01*
X160308507Y-71295584D01*
X160277560Y-71385468D01*
X160244522Y-71464953D01*
X160206657Y-71540845D01*
X160161226Y-71619946D01*
X160130471Y-71668559D01*
X160022802Y-71809519D01*
X159901167Y-71929326D01*
X159767118Y-72027131D01*
X159622205Y-72102081D01*
X159467979Y-72153329D01*
X159305992Y-72180020D01*
X159137794Y-72181307D01*
X159119562Y-72179561D01*
X159051039Y-72167615D01*
X158970037Y-72147656D01*
X158884322Y-72122121D01*
X158801654Y-72093448D01*
X158729798Y-72064076D01*
X158676515Y-72036442D01*
X158560338Y-71951728D01*
X158439942Y-71837530D01*
X158327385Y-71702597D01*
X158225465Y-71549948D01*
X158161707Y-71442983D01*
X158120730Y-71571341D01*
X158105887Y-71615356D01*
X158073478Y-71692558D01*
X158037020Y-71751178D01*
X157992682Y-71796691D01*
X157936635Y-71834575D01*
X157916080Y-71844864D01*
X157858664Y-71865561D01*
X157802533Y-71877294D01*
X157774707Y-71879539D01*
X157730282Y-71880405D01*
X157699871Y-71877563D01*
X157669599Y-71870172D01*
X157731039Y-71676128D01*
X157772693Y-71532091D01*
X157808906Y-71380399D01*
X157836967Y-71232323D01*
X157855605Y-71094601D01*
X157863549Y-70973971D01*
X157863817Y-70957384D01*
X157863629Y-70872945D01*
X157861038Y-70773102D01*
X157855932Y-70655637D01*
X157848206Y-70518330D01*
X157837748Y-70358957D01*
X157824451Y-70175304D01*
X157817507Y-70075078D01*
X157813243Y-69992487D01*
X157812250Y-69934596D01*
X157814510Y-69900494D01*
X157820013Y-69889270D01*
X157822031Y-69889224D01*
X157848385Y-69887978D01*
X157895830Y-69885283D01*
X157959647Y-69881439D01*
X158035112Y-69876746D01*
X158117505Y-69871502D01*
X158202102Y-69866009D01*
X158284183Y-69860568D01*
X158359025Y-69855476D01*
X158421907Y-69851035D01*
X158558466Y-69845617D01*
X158703442Y-69852597D01*
X158826911Y-69874482D01*
X158929281Y-69911383D01*
X159010955Y-69963413D01*
X159072343Y-70030685D01*
X159072914Y-70031526D01*
X159092460Y-70068869D01*
X159112387Y-70120303D01*
X159130508Y-70178110D01*
X159144639Y-70234575D01*
X159152592Y-70281981D01*
X159152184Y-70312611D01*
X159146056Y-70315420D01*
X159119894Y-70313488D01*
X159072094Y-70304389D01*
X159001379Y-70287869D01*
X158906477Y-70263674D01*
X158892702Y-70260085D01*
X158735221Y-70221728D01*
X158593641Y-70192901D01*
X158460226Y-70172194D01*
X158327239Y-70158198D01*
X158242655Y-70151256D01*
X158237678Y-70199268D01*
X158229411Y-70293734D01*
X158222415Y-70525809D01*
X158234779Y-70748857D01*
X158266103Y-70960639D01*
X158315990Y-71158910D01*
X158384040Y-71341430D01*
X158469856Y-71505955D01*
X158502142Y-71556103D01*
X158545163Y-71616784D01*
X158586549Y-71669366D01*
X158620597Y-71706267D01*
X158676951Y-71754002D01*
X158786649Y-71823017D01*
X158901502Y-71867013D01*
X159019421Y-71886184D01*
X159138321Y-71880726D01*
X159256115Y-71850831D01*
X159370714Y-71796697D01*
X159480033Y-71718518D01*
X159581985Y-71616490D01*
X159648373Y-71529051D01*
X159728685Y-71389138D01*
X159794580Y-71230276D01*
X159846069Y-71054490D01*
X159883159Y-70863803D01*
X159905859Y-70660241D01*
X159914178Y-70445828D01*
X159908123Y-70222591D01*
X159887703Y-69992554D01*
X159852926Y-69757742D01*
X159803801Y-69520180D01*
X159740336Y-69281892D01*
X159662539Y-69044905D01*
X159570418Y-68811242D01*
X159539429Y-68743561D01*
X159482670Y-68633889D01*
X159417717Y-68521376D01*
X159348871Y-68413006D01*
X159280432Y-68315765D01*
X159216699Y-68236638D01*
X159174208Y-68189628D01*
X159109520Y-68123699D01*
X159049638Y-68071681D01*
X158988278Y-68028330D01*
X158919157Y-67988408D01*
X158876905Y-67967322D01*
X158773566Y-67928709D01*
X158681173Y-67913300D01*
X158600905Y-67920426D01*
X158533939Y-67949418D01*
X158481452Y-67999606D01*
X158444618Y-68070323D01*
X158424618Y-68160897D01*
X158422625Y-68270663D01*
X158427696Y-68325522D01*
X158452364Y-68462835D01*
X158492615Y-68604901D01*
X158545561Y-68742453D01*
X158608312Y-68866229D01*
X158662621Y-68958900D01*
X158610904Y-69003700D01*
X158590346Y-69020689D01*
X158531867Y-69057461D01*
X158474483Y-69073101D01*
X158410848Y-69070042D01*
X158403144Y-69068618D01*
X158329617Y-69040811D01*
X158263735Y-68990610D01*
X158206292Y-68921106D01*
X158158084Y-68835393D01*
X158119908Y-68736561D01*
X158092559Y-68627702D01*
X158076833Y-68511909D01*
X158073524Y-68392274D01*
X158083430Y-68271885D01*
X158107346Y-68153839D01*
X158146067Y-68041224D01*
X158186947Y-67960277D01*
X158257733Y-67862108D01*
X158342425Y-67782241D01*
X158438080Y-67723299D01*
X158541760Y-67687909D01*
X158554890Y-67685347D01*
X158654225Y-67677818D01*
X158767003Y-67686756D01*
G37*
%TO.C,C15*%
X196799252Y-83587000D02*
X195376748Y-83587000D01*
X196799252Y-81767000D02*
X195376748Y-81767000D01*
%TO.C,C14*%
X196799252Y-79777000D02*
X195376748Y-79777000D01*
X196799252Y-77957000D02*
X195376748Y-77957000D01*
%TO.C,R33*%
X144530064Y-90127000D02*
X143075936Y-90127000D01*
X144530064Y-91947000D02*
X143075936Y-91947000D01*
%TO.C,R42*%
X155575724Y-101966500D02*
X155066276Y-101966500D01*
X155575724Y-103011500D02*
X155066276Y-103011500D01*
D11*
%TO.C,D32*%
X133350000Y-95885000D02*
X131572000Y-95885000D01*
D14*
X134620000Y-94488000D02*
X134620000Y-95758000D01*
D11*
X133350000Y-94361000D02*
X131572000Y-94361000D01*
D14*
%TO.C,R32*%
X144530064Y-88137000D02*
X143075936Y-88137000D01*
X144530064Y-86317000D02*
X143075936Y-86317000D01*
%TO.C,U1*%
X178405646Y-62671780D02*
X175865646Y-62671780D01*
X175865646Y-62671780D02*
X175865646Y-71434780D01*
X175865646Y-71434780D02*
X178405646Y-71434780D01*
X178405646Y-71434780D02*
X178405646Y-62671780D01*
X178405646Y-62798780D02*
X175865646Y-62798780D01*
X175865646Y-62798780D02*
X175865646Y-63941780D01*
X175865646Y-63941780D02*
X178405646Y-63941780D01*
X178405646Y-63941780D02*
X178405646Y-62798780D01*
G36*
X178405646Y-62798780D02*
G01*
X175865646Y-62798780D01*
X175865646Y-63941780D01*
X178405646Y-63941780D01*
X178405646Y-62798780D01*
G37*
D15*
X180355636Y-62290780D02*
G75*
G03*
X180355636Y-62290780I-171990J0D01*
G01*
D14*
%TO.C,R28*%
X136933000Y-56465736D02*
X136933000Y-56919864D01*
X138403000Y-56465736D02*
X138403000Y-56919864D01*
%TO.C,D22*%
X170307000Y-83947000D02*
X170307000Y-85217000D01*
D11*
X169037000Y-85344000D02*
X167259000Y-85344000D01*
X169037000Y-83820000D02*
X167259000Y-83820000D01*
D14*
%TO.C,D27*%
X134620000Y-81788000D02*
X134620000Y-83058000D01*
D11*
X133350000Y-81661000D02*
X131572000Y-81661000D01*
X133350000Y-83185000D02*
X131572000Y-83185000D01*
D14*
%TO.C,D33*%
X134620000Y-97028000D02*
X134620000Y-98298000D01*
D11*
X133350000Y-96901000D02*
X131572000Y-96901000D01*
X133350000Y-98425000D02*
X131572000Y-98425000D01*
D14*
%TO.C,R48*%
X166156621Y-96648000D02*
X165821379Y-96648000D01*
X166156621Y-97408000D02*
X165821379Y-97408000D01*
%TO.C,R46*%
X166156621Y-92328000D02*
X165821379Y-92328000D01*
X166156621Y-91568000D02*
X165821379Y-91568000D01*
%TO.C,C2*%
X188587748Y-68607000D02*
X189110252Y-68607000D01*
X188587748Y-70077000D02*
X189110252Y-70077000D01*
D11*
%TO.C,D36*%
X122555000Y-75565000D02*
X120777000Y-75565000D01*
D14*
X124460000Y-75692000D02*
X124460000Y-77216000D01*
D11*
X122555000Y-77343000D02*
X120777000Y-77343000D01*
D14*
%TO.C,C12*%
X196799252Y-72157000D02*
X195376748Y-72157000D01*
X196799252Y-70337000D02*
X195376748Y-70337000D01*
%TO.C,C24*%
X185338767Y-98173000D02*
X185046233Y-98173000D01*
X185338767Y-97153000D02*
X185046233Y-97153000D01*
%TO.C,R5*%
X190981000Y-81888064D02*
X190981000Y-81433936D01*
X189511000Y-81888064D02*
X189511000Y-81433936D01*
D11*
%TO.C,D37*%
X122555000Y-79375000D02*
X120777000Y-79375000D01*
D14*
X124460000Y-79502000D02*
X124460000Y-81026000D01*
D11*
X122555000Y-81153000D02*
X120777000Y-81153000D01*
D14*
%TO.C,C3*%
X184930148Y-63831800D02*
X185452652Y-63831800D01*
X184930148Y-65301800D02*
X185452652Y-65301800D01*
%TO.C,R49*%
X166156621Y-99188000D02*
X165821379Y-99188000D01*
X166156621Y-99948000D02*
X165821379Y-99948000D01*
%TO.C,R30*%
X144530064Y-80517000D02*
X143075936Y-80517000D01*
X144530064Y-78697000D02*
X143075936Y-78697000D01*
%TO.C,C7*%
X144676800Y-51188252D02*
X144676800Y-50665748D01*
X143206800Y-51188252D02*
X143206800Y-50665748D01*
%TO.C,R44*%
X155575724Y-108091500D02*
X155066276Y-108091500D01*
X155575724Y-107046500D02*
X155066276Y-107046500D01*
%TO.C,C25*%
X185338767Y-99693000D02*
X185046233Y-99693000D01*
X185338767Y-100713000D02*
X185046233Y-100713000D01*
D11*
%TO.C,D38*%
X122555000Y-83185000D02*
X120777000Y-83185000D01*
D14*
X124460000Y-83312000D02*
X124460000Y-84836000D01*
D11*
X122555000Y-84963000D02*
X120777000Y-84963000D01*
D14*
%TO.C,C26*%
X185338767Y-103253000D02*
X185046233Y-103253000D01*
X185338767Y-102233000D02*
X185046233Y-102233000D01*
D11*
%TO.C,D30*%
X133350000Y-90805000D02*
X131572000Y-90805000D01*
D14*
X134620000Y-89408000D02*
X134620000Y-90678000D01*
D11*
X133350000Y-89281000D02*
X131572000Y-89281000D01*
%TO.C,D21*%
X169037000Y-82677000D02*
X167259000Y-82677000D01*
X169037000Y-81153000D02*
X167259000Y-81153000D01*
D14*
X170307000Y-81280000D02*
X170307000Y-82550000D01*
%TO.C,R35*%
X144530064Y-99567000D02*
X143075936Y-99567000D01*
X144530064Y-97747000D02*
X143075936Y-97747000D01*
%TO.C,G\u002A\u002A\u002A*%
G36*
X148553238Y-107129357D02*
G01*
X148628369Y-107354333D01*
X148708078Y-107596701D01*
X148727101Y-107654954D01*
X148764390Y-107769531D01*
X148795909Y-107867386D01*
X148822004Y-107950079D01*
X148843020Y-108019174D01*
X148859302Y-108076234D01*
X148871194Y-108122822D01*
X148879044Y-108160499D01*
X148883194Y-108190830D01*
X148883992Y-108215376D01*
X148881782Y-108235700D01*
X148876909Y-108253366D01*
X148869718Y-108269936D01*
X148860555Y-108286973D01*
X148834949Y-108320667D01*
X148788896Y-108359209D01*
X148730481Y-108392774D01*
X148663897Y-108419028D01*
X148593339Y-108435638D01*
X148574831Y-108437760D01*
X148554007Y-108438265D01*
X148553055Y-108437827D01*
X148549386Y-108432473D01*
X148544053Y-108420378D01*
X148536813Y-108400706D01*
X148527424Y-108372620D01*
X148515644Y-108335283D01*
X148501229Y-108287858D01*
X148483938Y-108229508D01*
X148463528Y-108159397D01*
X148439757Y-108076687D01*
X148412381Y-107980543D01*
X148381159Y-107870127D01*
X148345848Y-107744602D01*
X148306206Y-107603131D01*
X148261989Y-107444878D01*
X148212956Y-107269007D01*
X148158864Y-107074679D01*
X148111050Y-106902795D01*
X148049575Y-106897701D01*
X148048194Y-106897586D01*
X148013334Y-106894716D01*
X147965060Y-106890762D01*
X147909566Y-106886231D01*
X147853048Y-106881630D01*
X147825406Y-106879268D01*
X147638421Y-106856995D01*
X147460534Y-106824778D01*
X147293156Y-106783127D01*
X147137697Y-106732553D01*
X146995564Y-106673563D01*
X146868169Y-106606669D01*
X146756920Y-106532381D01*
X146663227Y-106451208D01*
X146638897Y-106425986D01*
X146566193Y-106335767D01*
X146511727Y-106240364D01*
X146474179Y-106137104D01*
X146452234Y-106023316D01*
X146449601Y-105998700D01*
X146447764Y-105884073D01*
X146451019Y-105863026D01*
X146792749Y-105863026D01*
X146794746Y-105924389D01*
X146810178Y-106031165D01*
X146841785Y-106130395D01*
X146890667Y-106226161D01*
X146897676Y-106237185D01*
X146934263Y-106285960D01*
X146981457Y-106339448D01*
X147034365Y-106392658D01*
X147088098Y-106440600D01*
X147137766Y-106478286D01*
X147170860Y-106499642D01*
X147291376Y-106565678D01*
X147427347Y-106624307D01*
X147576025Y-106674561D01*
X147734659Y-106715477D01*
X147900501Y-106746087D01*
X147928963Y-106750150D01*
X147974489Y-106755927D01*
X148012520Y-106759896D01*
X148036928Y-106761372D01*
X148070880Y-106761372D01*
X148006435Y-106548788D01*
X147956286Y-106386196D01*
X147890670Y-106182180D01*
X147826550Y-105992799D01*
X147764291Y-105819073D01*
X147704263Y-105662021D01*
X147646833Y-105522660D01*
X147592368Y-105402009D01*
X147531325Y-105273875D01*
X147479603Y-105277904D01*
X147438921Y-105281987D01*
X147333694Y-105300224D01*
X147229916Y-105328350D01*
X147133606Y-105364554D01*
X147050782Y-105407023D01*
X147011958Y-105432445D01*
X146933137Y-105499127D01*
X146871816Y-105575509D01*
X146827984Y-105661608D01*
X146801631Y-105757441D01*
X146792749Y-105863026D01*
X146451019Y-105863026D01*
X146464318Y-105777023D01*
X146499563Y-105676639D01*
X146553801Y-105582010D01*
X146627331Y-105492223D01*
X146675988Y-105443878D01*
X146744659Y-105386197D01*
X146820293Y-105335424D01*
X146909335Y-105286866D01*
X147012952Y-105239339D01*
X147135897Y-105195112D01*
X147262300Y-105163530D01*
X147396932Y-105143443D01*
X147544564Y-105133701D01*
X147570138Y-105132985D01*
X147669495Y-105132613D01*
X147760182Y-105137052D01*
X147848990Y-105147010D01*
X147942708Y-105163198D01*
X148048124Y-105186325D01*
X148093784Y-105197701D01*
X148162033Y-105216494D01*
X148232152Y-105237582D01*
X148301499Y-105260009D01*
X148367431Y-105282817D01*
X148427302Y-105305050D01*
X148478471Y-105325752D01*
X148518293Y-105343967D01*
X148544125Y-105358737D01*
X148553323Y-105369108D01*
X148552634Y-105375397D01*
X148540519Y-105402407D01*
X148516683Y-105433894D01*
X148485556Y-105465672D01*
X148451569Y-105493554D01*
X148419151Y-105513353D01*
X148392731Y-105520884D01*
X148385932Y-105519298D01*
X148362386Y-105510310D01*
X148326553Y-105494718D01*
X148281896Y-105474052D01*
X148231882Y-105449842D01*
X148190628Y-105429914D01*
X148103032Y-105390597D01*
X148020493Y-105357509D01*
X147946942Y-105332171D01*
X147886309Y-105316104D01*
X147854544Y-105309540D01*
X147957210Y-105547764D01*
X147967754Y-105572279D01*
X148033139Y-105726612D01*
X148096809Y-105881162D01*
X148159464Y-106037836D01*
X148221803Y-106198543D01*
X148284526Y-106365190D01*
X148348331Y-106539687D01*
X148413919Y-106723942D01*
X148426923Y-106761372D01*
X148481988Y-106919862D01*
X148553238Y-107129357D01*
G37*
G36*
X145429457Y-107973164D02*
G01*
X145411619Y-108053453D01*
X145377917Y-108123541D01*
X145329820Y-108181847D01*
X145268796Y-108226791D01*
X145196315Y-108256792D01*
X145113844Y-108270271D01*
X145057271Y-108270469D01*
X145001363Y-108263356D01*
X144947414Y-108247454D01*
X144893202Y-108221484D01*
X144836506Y-108184168D01*
X144775105Y-108134226D01*
X144706776Y-108070379D01*
X144629297Y-107991348D01*
X144504769Y-107860420D01*
X144493427Y-107916892D01*
X144492343Y-107922099D01*
X144469125Y-107994552D01*
X144433412Y-108060667D01*
X144387909Y-108117043D01*
X144335324Y-108160280D01*
X144278365Y-108186979D01*
X144223917Y-108197485D01*
X144158990Y-108201249D01*
X144093019Y-108198084D01*
X144034931Y-108187954D01*
X143973835Y-108167975D01*
X143874114Y-108119720D01*
X143774512Y-108052399D01*
X143675820Y-107966577D01*
X143578827Y-107862815D01*
X143532812Y-107808803D01*
X143527023Y-107847809D01*
X143516152Y-107913951D01*
X143500791Y-107983835D01*
X143482286Y-108040755D01*
X143458988Y-108088664D01*
X143429250Y-108131515D01*
X143391425Y-108173264D01*
X143376654Y-108187603D01*
X143325691Y-108229237D01*
X143270426Y-108261035D01*
X143205657Y-108285591D01*
X143126187Y-108305495D01*
X143115009Y-108307341D01*
X143074049Y-108310232D01*
X143023249Y-108310142D01*
X142969853Y-108307209D01*
X142921106Y-108301572D01*
X142856582Y-108288612D01*
X142735210Y-108249723D01*
X142613751Y-108192455D01*
X142493837Y-108117758D01*
X142377101Y-108026581D01*
X142265175Y-107919874D01*
X142174467Y-107824856D01*
X142163268Y-107913577D01*
X142153320Y-107971983D01*
X142127277Y-108055021D01*
X142088458Y-108123639D01*
X142036128Y-108179008D01*
X141969552Y-108222301D01*
X141892052Y-108251894D01*
X141801250Y-108267404D01*
X141703200Y-108266892D01*
X141600586Y-108250155D01*
X141554962Y-108235720D01*
X141498947Y-108212724D01*
X141438671Y-108184070D01*
X141380216Y-108152649D01*
X141329663Y-108121353D01*
X141313844Y-108110149D01*
X141262575Y-108069401D01*
X141205531Y-108018893D01*
X141147466Y-107963131D01*
X141093136Y-107906618D01*
X141047294Y-107853859D01*
X140995348Y-107789749D01*
X140989326Y-107869162D01*
X140988842Y-107875091D01*
X140972819Y-107961857D01*
X140940436Y-108037924D01*
X140890973Y-108105020D01*
X140853973Y-108139147D01*
X140800221Y-108170912D01*
X140735910Y-108190670D01*
X140657396Y-108199902D01*
X140644465Y-108200460D01*
X140543407Y-108196509D01*
X140447971Y-108176623D01*
X140354399Y-108139716D01*
X140258934Y-108084702D01*
X140229906Y-108063441D01*
X140184841Y-108025489D01*
X140135557Y-107979892D01*
X140086705Y-107931158D01*
X140042938Y-107883796D01*
X140008907Y-107842318D01*
X139983189Y-107807825D01*
X139976670Y-107877965D01*
X139968474Y-107935725D01*
X139941145Y-108029500D01*
X139898173Y-108111439D01*
X139840400Y-108180626D01*
X139768669Y-108236143D01*
X139683821Y-108277074D01*
X139586700Y-108302500D01*
X139546683Y-108307788D01*
X139438458Y-108308776D01*
X139325967Y-108291790D01*
X139210855Y-108257508D01*
X139094764Y-108206605D01*
X138979338Y-108139759D01*
X138866221Y-108057645D01*
X138757055Y-107960941D01*
X138744344Y-107948691D01*
X138709916Y-107916797D01*
X138681689Y-107892523D01*
X138662299Y-107878058D01*
X138654380Y-107875593D01*
X138653391Y-107878831D01*
X138647261Y-107899004D01*
X138638826Y-107926831D01*
X138608109Y-108001991D01*
X138557527Y-108078660D01*
X138492201Y-108144343D01*
X138414236Y-108196971D01*
X138325737Y-108234475D01*
X138315917Y-108237354D01*
X138255687Y-108249148D01*
X138183115Y-108256018D01*
X138104100Y-108257966D01*
X138024539Y-108254995D01*
X137950329Y-108247107D01*
X137887370Y-108234304D01*
X137881107Y-108232559D01*
X137738404Y-108182076D01*
X137601822Y-108113152D01*
X137472600Y-108026721D01*
X137351977Y-107923717D01*
X137241193Y-107805075D01*
X137141486Y-107671730D01*
X137129545Y-107653364D01*
X137104744Y-107612806D01*
X137079586Y-107569103D01*
X137056240Y-107526292D01*
X137036877Y-107488408D01*
X137023668Y-107459486D01*
X137018782Y-107443564D01*
X137021224Y-107438623D01*
X137035338Y-107423257D01*
X137057835Y-107403601D01*
X137096888Y-107372217D01*
X137148225Y-107459678D01*
X137212397Y-107558422D01*
X137295732Y-107664287D01*
X137388308Y-107762345D01*
X137487732Y-107850672D01*
X137591609Y-107927347D01*
X137697547Y-107990448D01*
X137803150Y-108038051D01*
X137906027Y-108068236D01*
X137989522Y-108079927D01*
X138073441Y-108078961D01*
X138147872Y-108064071D01*
X138210816Y-108035673D01*
X138260275Y-107994186D01*
X138264647Y-107989134D01*
X138297072Y-107944272D01*
X138318156Y-107896808D01*
X138329715Y-107841236D01*
X138333566Y-107772049D01*
X138334300Y-107677291D01*
X138219255Y-107653916D01*
X138180614Y-107645636D01*
X138018426Y-107600831D01*
X137867927Y-107542442D01*
X137730358Y-107471091D01*
X137606958Y-107387402D01*
X137498971Y-107292000D01*
X137472436Y-107264409D01*
X137408319Y-107188654D01*
X137360968Y-107115612D01*
X137328902Y-107042148D01*
X137310636Y-106965129D01*
X137304689Y-106881419D01*
X137304872Y-106865752D01*
X137529704Y-106865752D01*
X137534413Y-106911466D01*
X137545343Y-106959561D01*
X137562042Y-107005009D01*
X137576273Y-107033390D01*
X137627824Y-107111971D01*
X137695480Y-107189782D01*
X137776473Y-107264640D01*
X137868031Y-107334361D01*
X137967383Y-107396761D01*
X138071760Y-107449656D01*
X138178390Y-107490862D01*
X138211085Y-107501032D01*
X138246264Y-107509811D01*
X138266917Y-107510786D01*
X138275400Y-107503916D01*
X138274068Y-107489158D01*
X138272822Y-107485104D01*
X138258890Y-107449444D01*
X138236956Y-107402234D01*
X138209437Y-107348092D01*
X138178750Y-107291631D01*
X138147311Y-107237469D01*
X138117538Y-107190221D01*
X138086262Y-107147032D01*
X138041916Y-107092561D01*
X137991075Y-107035086D01*
X137937388Y-106978447D01*
X137884508Y-106926481D01*
X137836083Y-106883028D01*
X137795767Y-106851924D01*
X137762938Y-106831848D01*
X137709406Y-106806610D01*
X137656891Y-106789828D01*
X137609197Y-106782311D01*
X137570131Y-106784868D01*
X137543497Y-106798307D01*
X137540753Y-106801579D01*
X137531667Y-106827447D01*
X137529704Y-106865752D01*
X137304872Y-106865752D01*
X137305171Y-106840194D01*
X137308141Y-106800041D01*
X137314600Y-106768803D01*
X137325459Y-106740279D01*
X137341199Y-106712417D01*
X137382633Y-106668174D01*
X137437501Y-106635041D01*
X137503564Y-106613237D01*
X137578583Y-106602980D01*
X137660320Y-106604490D01*
X137746536Y-106617984D01*
X137834991Y-106643683D01*
X137923447Y-106681806D01*
X137925365Y-106682779D01*
X138046827Y-106754797D01*
X138163405Y-106843669D01*
X138272954Y-106946702D01*
X138373327Y-107061207D01*
X138462376Y-107184493D01*
X138537956Y-107313869D01*
X138597919Y-107446645D01*
X138616025Y-107503916D01*
X138640120Y-107580129D01*
X138662939Y-107673177D01*
X138753720Y-107769265D01*
X138834165Y-107848568D01*
X138942042Y-107936972D01*
X139050824Y-108005908D01*
X139160251Y-108055239D01*
X139270065Y-108084832D01*
X139380006Y-108094553D01*
X139395550Y-108094410D01*
X139443757Y-108091688D01*
X139482008Y-108084534D01*
X139518082Y-108071659D01*
X139570019Y-108039032D01*
X139610223Y-107991859D01*
X139638577Y-107931804D01*
X139655102Y-107860473D01*
X139659820Y-107779472D01*
X139652755Y-107690404D01*
X139633928Y-107594875D01*
X139603363Y-107494491D01*
X139561081Y-107390856D01*
X139507105Y-107285575D01*
X139449437Y-107192034D01*
X139384065Y-107102661D01*
X139316110Y-107025186D01*
X139247167Y-106961084D01*
X139178832Y-106911828D01*
X139112700Y-106878891D01*
X139050368Y-106863747D01*
X139037269Y-106862804D01*
X138997151Y-106866085D01*
X138970199Y-106881178D01*
X138955536Y-106909510D01*
X138952285Y-106952509D01*
X138959570Y-107011603D01*
X138964976Y-107037984D01*
X138981591Y-107091580D01*
X139006962Y-107141655D01*
X139044688Y-107196005D01*
X139047610Y-107199837D01*
X139066066Y-107225071D01*
X139073790Y-107240532D01*
X139072218Y-107251577D01*
X139062784Y-107263562D01*
X139046813Y-107278720D01*
X139000637Y-107303388D01*
X138943198Y-107311589D01*
X138916857Y-107310372D01*
X138896427Y-107304329D01*
X138876381Y-107290022D01*
X138849987Y-107264013D01*
X138835014Y-107247369D01*
X138792968Y-107182665D01*
X138765523Y-107105792D01*
X138752190Y-107015508D01*
X138751017Y-106968988D01*
X138758888Y-106901933D01*
X138780111Y-106844506D01*
X138815900Y-106792446D01*
X138826867Y-106780260D01*
X138869046Y-106744525D01*
X138919683Y-106719212D01*
X138984304Y-106701330D01*
X139032891Y-106694875D01*
X139114926Y-106695946D01*
X139202758Y-106709216D01*
X139291111Y-106733773D01*
X139374710Y-106768708D01*
X139397443Y-106780568D01*
X139503139Y-106848147D01*
X139603359Y-106932234D01*
X139695989Y-107030113D01*
X139778914Y-107139070D01*
X139850021Y-107256390D01*
X139907193Y-107379356D01*
X139948318Y-107505255D01*
X139962085Y-107547252D01*
X139997631Y-107620009D01*
X140046585Y-107694784D01*
X140105778Y-107768121D01*
X140172041Y-107836562D01*
X140242206Y-107896650D01*
X140313104Y-107944929D01*
X140381566Y-107977940D01*
X140414852Y-107987135D01*
X140465177Y-107993957D01*
X140516980Y-107994887D01*
X140563406Y-107989895D01*
X140597597Y-107978947D01*
X140617868Y-107966106D01*
X140642669Y-107940060D01*
X140659446Y-107903651D01*
X140670940Y-107852137D01*
X140675557Y-107809108D01*
X140673823Y-107735903D01*
X140660536Y-107655917D01*
X140635259Y-107567930D01*
X140597552Y-107470717D01*
X140546978Y-107363058D01*
X140483099Y-107243730D01*
X140405476Y-107111510D01*
X140362266Y-107039637D01*
X140326406Y-106977531D01*
X140299561Y-106927351D01*
X140280616Y-106886697D01*
X140268461Y-106853170D01*
X140261982Y-106824370D01*
X140260066Y-106797898D01*
X140262066Y-106765888D01*
X140270726Y-106743034D01*
X140289655Y-106721744D01*
X140290117Y-106721315D01*
X140331762Y-106695438D01*
X140381705Y-106687475D01*
X140440395Y-106697352D01*
X140475853Y-106712924D01*
X140524620Y-106746528D01*
X140576084Y-106793416D01*
X140627266Y-106850814D01*
X140675187Y-106915950D01*
X140709644Y-106971263D01*
X140761017Y-107065560D01*
X140811541Y-107171247D01*
X140859011Y-107283325D01*
X140901219Y-107396797D01*
X140935960Y-107506665D01*
X140955113Y-107556623D01*
X140992870Y-107623791D01*
X141043642Y-107694322D01*
X141104660Y-107765277D01*
X141173156Y-107833721D01*
X141246360Y-107896715D01*
X141321506Y-107951323D01*
X141395824Y-107994606D01*
X141397234Y-107995313D01*
X141458752Y-108023521D01*
X141512351Y-108041329D01*
X141565660Y-108050687D01*
X141626312Y-108053548D01*
X141650162Y-108053121D01*
X141707268Y-108045490D01*
X141751332Y-108026673D01*
X141786189Y-107994509D01*
X141815671Y-107946839D01*
X141820986Y-107936131D01*
X141831175Y-107913888D01*
X141838062Y-107893383D01*
X141842269Y-107870266D01*
X141844418Y-107840189D01*
X141845133Y-107798802D01*
X141845035Y-107741758D01*
X141845007Y-107737003D01*
X141841900Y-107649813D01*
X141833377Y-107564262D01*
X141818698Y-107477177D01*
X141797123Y-107385382D01*
X141767909Y-107285702D01*
X141730316Y-107174963D01*
X141683604Y-107049989D01*
X141638511Y-106933447D01*
X141481994Y-106926765D01*
X141479737Y-106926668D01*
X141413507Y-106923440D01*
X141335430Y-106919043D01*
X141250051Y-106913785D01*
X141161918Y-106907976D01*
X141075579Y-106901924D01*
X140995582Y-106895937D01*
X140926473Y-106890325D01*
X140872800Y-106885397D01*
X140810275Y-106879088D01*
X140810275Y-106739033D01*
X140872800Y-106745565D01*
X140912172Y-106749112D01*
X140974941Y-106753579D01*
X141049208Y-106757965D01*
X141130283Y-106762055D01*
X141213477Y-106765633D01*
X141294100Y-106768483D01*
X141367464Y-106770389D01*
X141428879Y-106771137D01*
X141562292Y-106771376D01*
X141495526Y-106645180D01*
X141491257Y-106637159D01*
X141466797Y-106592255D01*
X141434617Y-106534393D01*
X141396694Y-106467071D01*
X141355006Y-106393783D01*
X141311530Y-106318025D01*
X141268242Y-106243293D01*
X141252290Y-106215871D01*
X141201601Y-106128261D01*
X141159987Y-106055315D01*
X141126470Y-105995098D01*
X141100073Y-105945676D01*
X141079820Y-105905114D01*
X141064734Y-105871480D01*
X141053838Y-105842839D01*
X141046155Y-105817257D01*
X141040709Y-105792800D01*
X141036459Y-105765179D01*
X141036629Y-105733821D01*
X141044902Y-105705528D01*
X141052388Y-105691490D01*
X141079652Y-105661410D01*
X141114575Y-105639479D01*
X141149751Y-105630964D01*
X141171230Y-105633500D01*
X141216724Y-105652304D01*
X141267341Y-105688569D01*
X141322376Y-105741269D01*
X141381124Y-105809377D01*
X141442878Y-105891867D01*
X141506935Y-105987711D01*
X141572587Y-106095883D01*
X141639130Y-106215357D01*
X141705859Y-106345106D01*
X141772069Y-106484102D01*
X141837053Y-106631321D01*
X141856016Y-106674569D01*
X141877714Y-106719287D01*
X141894030Y-106746373D01*
X141904582Y-106755124D01*
X141908198Y-106754815D01*
X141929931Y-106752985D01*
X141964033Y-106750131D01*
X142004886Y-106746723D01*
X142090779Y-106739568D01*
X142090779Y-106870644D01*
X142052719Y-106880892D01*
X142050132Y-106881584D01*
X142014913Y-106890373D01*
X141982692Y-106897534D01*
X141980520Y-106897990D01*
X141959405Y-106905095D01*
X141950724Y-106913097D01*
X141952625Y-106921519D01*
X141959982Y-106945864D01*
X141971586Y-106981393D01*
X141986059Y-107023782D01*
X142001838Y-107070592D01*
X142027164Y-107150251D01*
X142053604Y-107237795D01*
X142079199Y-107326541D01*
X142101991Y-107409807D01*
X142120022Y-107480909D01*
X142137338Y-107537333D01*
X142165393Y-107597383D01*
X142204877Y-107658686D01*
X142257725Y-107724211D01*
X142325872Y-107796931D01*
X142380694Y-107849637D01*
X142487023Y-107936678D01*
X142594270Y-108004836D01*
X142701894Y-108053841D01*
X142809352Y-108083420D01*
X142916104Y-108093302D01*
X142944148Y-108092876D01*
X143012780Y-108086624D01*
X143066772Y-108071591D01*
X143109296Y-108046089D01*
X143143524Y-108008434D01*
X143172627Y-107956940D01*
X143190667Y-107910457D01*
X143206867Y-107829361D01*
X143207283Y-107739390D01*
X143191886Y-107639443D01*
X143160644Y-107528419D01*
X143128669Y-107442728D01*
X143080880Y-107338664D01*
X143026116Y-107240543D01*
X142965863Y-107150049D01*
X142901602Y-107068862D01*
X142834820Y-106998665D01*
X142766999Y-106941139D01*
X142699623Y-106897967D01*
X142634176Y-106870831D01*
X142572143Y-106861411D01*
X142552808Y-106862453D01*
X142525700Y-106871141D01*
X142509458Y-106890881D01*
X142502434Y-106924359D01*
X142502984Y-106974260D01*
X142516266Y-107054167D01*
X142547341Y-107131711D01*
X142594891Y-107199025D01*
X142631116Y-107239121D01*
X142591009Y-107275355D01*
X142588205Y-107277872D01*
X142560912Y-107299170D01*
X142536348Y-107309126D01*
X142505417Y-107311589D01*
X142472303Y-107308667D01*
X142424600Y-107290990D01*
X142383801Y-107256493D01*
X142348935Y-107204247D01*
X142319031Y-107133325D01*
X142299403Y-107054647D01*
X142294827Y-106974771D01*
X142306156Y-106900201D01*
X142332952Y-106833732D01*
X142374777Y-106778159D01*
X142380187Y-106772824D01*
X142414558Y-106743537D01*
X142450271Y-106723335D01*
X142493543Y-106709419D01*
X142550594Y-106698989D01*
X142622603Y-106693991D01*
X142722679Y-106703360D01*
X142825105Y-106730358D01*
X142927694Y-106774186D01*
X143028257Y-106834041D01*
X143124605Y-106909123D01*
X143191735Y-106973723D01*
X143285156Y-107083955D01*
X143366830Y-107205933D01*
X143434102Y-107335525D01*
X143484314Y-107468600D01*
X143504858Y-107523194D01*
X143539400Y-107590081D01*
X143582943Y-107656835D01*
X143633664Y-107721953D01*
X143689738Y-107783931D01*
X143749342Y-107841266D01*
X143810652Y-107892453D01*
X143871844Y-107935990D01*
X143931095Y-107970372D01*
X143986580Y-107994096D01*
X144036477Y-108005658D01*
X144078960Y-108003554D01*
X144112207Y-107986282D01*
X144141629Y-107950955D01*
X144159087Y-107906484D01*
X144162522Y-107853569D01*
X144151761Y-107791225D01*
X144126629Y-107718470D01*
X144086951Y-107634321D01*
X144032552Y-107537797D01*
X143998351Y-107479379D01*
X143965382Y-107417564D01*
X143944160Y-107367933D01*
X143934516Y-107328360D01*
X143936287Y-107296717D01*
X143949307Y-107270878D01*
X143973409Y-107248716D01*
X144008429Y-107228106D01*
X144055028Y-107204424D01*
X144016240Y-107197147D01*
X143978082Y-107187166D01*
X143923135Y-107159930D01*
X143881901Y-107121193D01*
X143856728Y-107072785D01*
X143856136Y-107070800D01*
X143851181Y-107036480D01*
X144097476Y-107036480D01*
X144097901Y-107073799D01*
X144100698Y-107120113D01*
X144105580Y-107157390D01*
X144112023Y-107181976D01*
X144119504Y-107190214D01*
X144121602Y-107189995D01*
X144138402Y-107190357D01*
X144143232Y-107194059D01*
X144159173Y-107211616D01*
X144183957Y-107241594D01*
X144215793Y-107281760D01*
X144252892Y-107329882D01*
X144293463Y-107383728D01*
X144341782Y-107448323D01*
X144404749Y-107531491D01*
X144459540Y-107602319D01*
X144508128Y-107663217D01*
X144552484Y-107716594D01*
X144594583Y-107764861D01*
X144636397Y-107810427D01*
X144679899Y-107855702D01*
X144703414Y-107879204D01*
X144772612Y-107942469D01*
X144837636Y-107993141D01*
X144896420Y-108029712D01*
X144946904Y-108050675D01*
X144970743Y-108056245D01*
X145019680Y-108059338D01*
X145056886Y-108048536D01*
X145080729Y-108024163D01*
X145084913Y-108015250D01*
X145095817Y-107969499D01*
X145097573Y-107909816D01*
X145090438Y-107839157D01*
X145074669Y-107760478D01*
X145050523Y-107676732D01*
X145036283Y-107637864D01*
X145008952Y-107573425D01*
X144975430Y-107502102D01*
X144938541Y-107429598D01*
X144901106Y-107361616D01*
X144865950Y-107303858D01*
X144838641Y-107263056D01*
X144757668Y-107154125D01*
X144674710Y-107059535D01*
X144590852Y-106980144D01*
X144507181Y-106916810D01*
X144424782Y-106870390D01*
X144344742Y-106841743D01*
X144268148Y-106831726D01*
X144233004Y-106833336D01*
X144182013Y-106845515D01*
X144144001Y-106870677D01*
X144117930Y-106910064D01*
X144102767Y-106964918D01*
X144097476Y-107036480D01*
X143851181Y-107036480D01*
X143850291Y-107030319D01*
X143851182Y-106980600D01*
X143858148Y-106930441D01*
X143870530Y-106888638D01*
X143871341Y-106886763D01*
X143908839Y-106824315D01*
X143962819Y-106771708D01*
X144034202Y-106728038D01*
X144115224Y-106696183D01*
X144215142Y-106676223D01*
X144319534Y-106674711D01*
X144427456Y-106691341D01*
X144537963Y-106725809D01*
X144650109Y-106777808D01*
X144762949Y-106847033D01*
X144875538Y-106933178D01*
X144986930Y-107035939D01*
X145062774Y-107115920D01*
X145152274Y-107223928D01*
X145229434Y-107335714D01*
X145298225Y-107456646D01*
X145319711Y-107496308D01*
X145349789Y-107547566D01*
X145379398Y-107594050D01*
X145404453Y-107629125D01*
X145447903Y-107679637D01*
X145507087Y-107739068D01*
X145572530Y-107797079D01*
X145640544Y-107850782D01*
X145707441Y-107897285D01*
X145769530Y-107933699D01*
X145823123Y-107957133D01*
X145823729Y-107957334D01*
X145879556Y-107970959D01*
X145933933Y-107975682D01*
X145981387Y-107971472D01*
X146016444Y-107958295D01*
X146024711Y-107952726D01*
X146035909Y-107942386D01*
X146041259Y-107928509D01*
X146042206Y-107905624D01*
X146040192Y-107868260D01*
X146039241Y-107855584D01*
X146035364Y-107825298D01*
X146028293Y-107795299D01*
X146016559Y-107761058D01*
X145998693Y-107718044D01*
X145973226Y-107661726D01*
X145938340Y-107585405D01*
X145908513Y-107518032D01*
X145885543Y-107462953D01*
X145868341Y-107417269D01*
X145855822Y-107378081D01*
X145846900Y-107342490D01*
X145840487Y-107307597D01*
X145838666Y-107294693D01*
X145836004Y-107206942D01*
X145849980Y-107123388D01*
X145879932Y-107048369D01*
X145890638Y-107030764D01*
X145929249Y-106982386D01*
X145982169Y-106930378D01*
X146046376Y-106877543D01*
X146118850Y-106826684D01*
X146134315Y-106816576D01*
X146195360Y-106774010D01*
X146238450Y-106738713D01*
X146264001Y-106710312D01*
X146272425Y-106688434D01*
X146272416Y-106687826D01*
X146269300Y-106668267D01*
X146261685Y-106636591D01*
X146251136Y-106599351D01*
X146240854Y-106558524D01*
X146237515Y-106509962D01*
X146248059Y-106468037D01*
X146273147Y-106427594D01*
X146278876Y-106421057D01*
X146308362Y-106403353D01*
X146343232Y-106402704D01*
X146381029Y-106418215D01*
X146419296Y-106448990D01*
X146455574Y-106494131D01*
X146473391Y-106523194D01*
X146504645Y-106591922D01*
X146520401Y-106658626D01*
X146520170Y-106720445D01*
X146503464Y-106774518D01*
X146484405Y-106811901D01*
X146531835Y-106934195D01*
X146543230Y-106963437D01*
X146570756Y-107032518D01*
X146596816Y-107094997D01*
X146623586Y-107155727D01*
X146653240Y-107219559D01*
X146687954Y-107291345D01*
X146729904Y-107375936D01*
X146814574Y-107545325D01*
X146786757Y-107603525D01*
X146772400Y-107631690D01*
X146759449Y-107653412D01*
X146751819Y-107661726D01*
X146750137Y-107660320D01*
X146740045Y-107645545D01*
X146722700Y-107616826D01*
X146699583Y-107576842D01*
X146672171Y-107528273D01*
X146641946Y-107473796D01*
X146610387Y-107416090D01*
X146578972Y-107357833D01*
X146549182Y-107301705D01*
X146522497Y-107250384D01*
X146500395Y-107206547D01*
X146489670Y-107184464D01*
X146463426Y-107128675D01*
X146436057Y-107068623D01*
X146411999Y-107013971D01*
X146395834Y-106978124D01*
X146378421Y-106943564D01*
X146364389Y-106920087D01*
X146355788Y-106911431D01*
X146354040Y-106911726D01*
X146337898Y-106919738D01*
X146311808Y-106936475D01*
X146280505Y-106958950D01*
X146252233Y-106981736D01*
X146216118Y-107019200D01*
X146189893Y-107060783D01*
X146182233Y-107076761D01*
X146169487Y-107111015D01*
X146162791Y-107145982D01*
X146162612Y-107184088D01*
X146169417Y-107227762D01*
X146183675Y-107279429D01*
X146205854Y-107341517D01*
X146236420Y-107416453D01*
X146275843Y-107506665D01*
X146296353Y-107553003D01*
X146328446Y-107627988D01*
X146352866Y-107689784D01*
X146370484Y-107741443D01*
X146382173Y-107786016D01*
X146388803Y-107826556D01*
X146391245Y-107866115D01*
X146390373Y-107907744D01*
X146387624Y-107940034D01*
X146372456Y-108006221D01*
X146343824Y-108060844D01*
X146300132Y-108107430D01*
X146241092Y-108146036D01*
X146167399Y-108173063D01*
X146084885Y-108185804D01*
X145996164Y-108184314D01*
X145903847Y-108168648D01*
X145810548Y-108138864D01*
X145718878Y-108095015D01*
X145673728Y-108068097D01*
X145602591Y-108020822D01*
X145535476Y-107970837D01*
X145479613Y-107923328D01*
X145432095Y-107879075D01*
X145432020Y-107909816D01*
X145431976Y-107927963D01*
X145429457Y-107973164D01*
G37*
G36*
X140088236Y-105963296D02*
G01*
X140156917Y-105980819D01*
X140219208Y-106009408D01*
X140272391Y-106047032D01*
X140313746Y-106091662D01*
X140340554Y-106141268D01*
X140350094Y-106193820D01*
X140349731Y-106205091D01*
X140344088Y-106242394D01*
X140333488Y-106271193D01*
X140325518Y-106282437D01*
X140292535Y-106311405D01*
X140247930Y-106335089D01*
X140197836Y-106349927D01*
X140197770Y-106349939D01*
X140125393Y-106353295D01*
X140053677Y-106338513D01*
X139986195Y-106307249D01*
X139926521Y-106261156D01*
X139878227Y-106201890D01*
X139876479Y-106199079D01*
X139855383Y-106150247D01*
X139848086Y-106099225D01*
X139854674Y-106051488D01*
X139875234Y-106012512D01*
X139878069Y-106009253D01*
X139916361Y-105980080D01*
X139968190Y-105963370D01*
X140034970Y-105958646D01*
X140088236Y-105963296D01*
G37*
G36*
X130698444Y-107214555D02*
G01*
X130720854Y-107289724D01*
X130738941Y-107354532D01*
X130751377Y-107404782D01*
X130761984Y-107445795D01*
X130776576Y-107484450D01*
X130797673Y-107524903D01*
X130828382Y-107573980D01*
X130837913Y-107588386D01*
X130912538Y-107693324D01*
X130983674Y-107779041D01*
X131051150Y-107845328D01*
X131129433Y-107907713D01*
X131201648Y-107955050D01*
X131266532Y-107986881D01*
X131323340Y-108003194D01*
X131371326Y-108003979D01*
X131409747Y-107989223D01*
X131437857Y-107958915D01*
X131454911Y-107913043D01*
X131460164Y-107851597D01*
X131458670Y-107826460D01*
X131450972Y-107784474D01*
X131435756Y-107737578D01*
X131411897Y-107683001D01*
X131378272Y-107617969D01*
X131333758Y-107539711D01*
X131328795Y-107531242D01*
X131295000Y-107472686D01*
X131270361Y-107427702D01*
X131253535Y-107393308D01*
X131243179Y-107366524D01*
X131237950Y-107344369D01*
X131236506Y-107323863D01*
X131236611Y-107319512D01*
X131248173Y-107279903D01*
X131277921Y-107245805D01*
X131324525Y-107218803D01*
X131357522Y-107204946D01*
X131301900Y-107192498D01*
X131249532Y-107173776D01*
X131203016Y-107140310D01*
X131170004Y-107096226D01*
X131151021Y-107044168D01*
X131150428Y-107036480D01*
X131397223Y-107036480D01*
X131397347Y-107068578D01*
X131399865Y-107119963D01*
X131405846Y-107154997D01*
X131415806Y-107176007D01*
X131430263Y-107185321D01*
X131440052Y-107191971D01*
X131461375Y-107213881D01*
X131491358Y-107249277D01*
X131528562Y-107296447D01*
X131571550Y-107353675D01*
X131576458Y-107360339D01*
X131677698Y-107495527D01*
X131769993Y-107614055D01*
X131854091Y-107716712D01*
X131930744Y-107804284D01*
X132000701Y-107877559D01*
X132064711Y-107937324D01*
X132123525Y-107984366D01*
X132177892Y-108019472D01*
X132228563Y-108043430D01*
X132251828Y-108051527D01*
X132297041Y-108060677D01*
X132333045Y-108056169D01*
X132363774Y-108037842D01*
X132369016Y-108033200D01*
X132381389Y-108019225D01*
X132388743Y-108001966D01*
X132392791Y-107975850D01*
X132395244Y-107935301D01*
X132392579Y-107861623D01*
X132375987Y-107767452D01*
X132346021Y-107665410D01*
X132303816Y-107558052D01*
X132250509Y-107447929D01*
X132187235Y-107337597D01*
X132115132Y-107229608D01*
X132035335Y-107126516D01*
X131988373Y-107072834D01*
X131900962Y-106986738D01*
X131814264Y-106919239D01*
X131728770Y-106870644D01*
X131644972Y-106841262D01*
X131563363Y-106831399D01*
X131541753Y-106832183D01*
X131488421Y-106843459D01*
X131447939Y-106868740D01*
X131419671Y-106908812D01*
X131402978Y-106964463D01*
X131397223Y-107036480D01*
X131150428Y-107036480D01*
X131146591Y-106986775D01*
X131157237Y-106926689D01*
X131183483Y-106866551D01*
X131225853Y-106809004D01*
X131229199Y-106805396D01*
X131292750Y-106752012D01*
X131369043Y-106711982D01*
X131455583Y-106685842D01*
X131549871Y-106674129D01*
X131649412Y-106677378D01*
X131751709Y-106696125D01*
X131765699Y-106700059D01*
X131825610Y-106721677D01*
X131894353Y-106752388D01*
X131966591Y-106789495D01*
X132036989Y-106830305D01*
X132100211Y-106872122D01*
X132148371Y-106908470D01*
X132256582Y-107003556D01*
X132360242Y-107112555D01*
X132456400Y-107231641D01*
X132542103Y-107356987D01*
X132614397Y-107484763D01*
X132670330Y-107611144D01*
X132686280Y-107645647D01*
X132723801Y-107704254D01*
X132774073Y-107766265D01*
X132833903Y-107828451D01*
X132900095Y-107887582D01*
X132969455Y-107940426D01*
X133038788Y-107983754D01*
X133043788Y-107986472D01*
X133121627Y-108021864D01*
X133197992Y-108044384D01*
X133270501Y-108054124D01*
X133336774Y-108051175D01*
X133394429Y-108035628D01*
X133441085Y-108007574D01*
X133474361Y-107967104D01*
X133480082Y-107956093D01*
X133503473Y-107888353D01*
X133515275Y-107805608D01*
X133515622Y-107708858D01*
X133504650Y-107599105D01*
X133482495Y-107477349D01*
X133449292Y-107344591D01*
X133405176Y-107201830D01*
X133350283Y-107050069D01*
X133305292Y-106933606D01*
X133153746Y-106927044D01*
X133101079Y-106924520D01*
X133030223Y-106920642D01*
X132951390Y-106915942D01*
X132868572Y-106910688D01*
X132785765Y-106905149D01*
X132706962Y-106899593D01*
X132636157Y-106894286D01*
X132577344Y-106889499D01*
X132534517Y-106885497D01*
X132476994Y-106879455D01*
X132476994Y-106739033D01*
X132539519Y-106745565D01*
X132578901Y-106749113D01*
X132641669Y-106753580D01*
X132715933Y-106757965D01*
X132797004Y-106762055D01*
X132880193Y-106765633D01*
X132960809Y-106768483D01*
X133034164Y-106770389D01*
X133095569Y-106771137D01*
X133228953Y-106771376D01*
X133166602Y-106653830D01*
X133162314Y-106645799D01*
X133138919Y-106602996D01*
X133107777Y-106547153D01*
X133070807Y-106481660D01*
X133029931Y-106409906D01*
X132987069Y-106335281D01*
X132944141Y-106261175D01*
X132898171Y-106181856D01*
X132845422Y-106089520D01*
X132802027Y-106011409D01*
X132767313Y-105945927D01*
X132740608Y-105891478D01*
X132721241Y-105846465D01*
X132708540Y-105809294D01*
X132701834Y-105778367D01*
X132700451Y-105752089D01*
X132703719Y-105728863D01*
X132710966Y-105707095D01*
X132718489Y-105692807D01*
X132745904Y-105661922D01*
X132780946Y-105639589D01*
X132816471Y-105630964D01*
X132843484Y-105635008D01*
X132889187Y-105656174D01*
X132940000Y-105694485D01*
X132995166Y-105748841D01*
X133053931Y-105818145D01*
X133115539Y-105901297D01*
X133179236Y-105997198D01*
X133244265Y-106104749D01*
X133309873Y-106222852D01*
X133375304Y-106350408D01*
X133439803Y-106486318D01*
X133502615Y-106629482D01*
X133521073Y-106672041D01*
X133543406Y-106718708D01*
X133560001Y-106746374D01*
X133570904Y-106755124D01*
X133574565Y-106754817D01*
X133596457Y-106752988D01*
X133630688Y-106750133D01*
X133671605Y-106746723D01*
X133757498Y-106739568D01*
X133757498Y-106870644D01*
X133719438Y-106880892D01*
X133716851Y-106881584D01*
X133681632Y-106890373D01*
X133649411Y-106897534D01*
X133647311Y-106897981D01*
X133626147Y-106906155D01*
X133617443Y-106916490D01*
X133619150Y-106925029D01*
X133626510Y-106949863D01*
X133638346Y-106985632D01*
X133653197Y-107027784D01*
X133662048Y-107053110D01*
X133679492Y-107106097D01*
X133699253Y-107168961D01*
X133719515Y-107235883D01*
X133738461Y-107301040D01*
X133761653Y-107385946D01*
X133795638Y-107528110D01*
X133818930Y-107654908D01*
X133831523Y-107767343D01*
X133833413Y-107866417D01*
X133824592Y-107953130D01*
X133805057Y-108028486D01*
X133774802Y-108093484D01*
X133733821Y-108149127D01*
X133679526Y-108196393D01*
X133609076Y-108234365D01*
X133528458Y-108258931D01*
X133440840Y-108269144D01*
X133349391Y-108264056D01*
X133297792Y-108255183D01*
X133201944Y-108229064D01*
X133110164Y-108190053D01*
X133019742Y-108136664D01*
X132927968Y-108067415D01*
X132832134Y-107980822D01*
X132732095Y-107883829D01*
X132729642Y-107935301D01*
X132729402Y-107940344D01*
X132728709Y-107951567D01*
X132719079Y-108016825D01*
X132701385Y-108078577D01*
X132677839Y-108128739D01*
X132674896Y-108133290D01*
X132642230Y-108170720D01*
X132597638Y-108207244D01*
X132547823Y-108237999D01*
X132499491Y-108258122D01*
X132464242Y-108266392D01*
X132380685Y-108271949D01*
X132295972Y-108259364D01*
X132214172Y-108229052D01*
X132199455Y-108221416D01*
X132130657Y-108177564D01*
X132055953Y-108117919D01*
X131977516Y-108044338D01*
X131897522Y-107958676D01*
X131892646Y-107953148D01*
X131860982Y-107918253D01*
X131834260Y-107890467D01*
X131815165Y-107872490D01*
X131806382Y-107867022D01*
X131804227Y-107869970D01*
X131798523Y-107887928D01*
X131793444Y-107915600D01*
X131784520Y-107954769D01*
X131761289Y-108013630D01*
X131729107Y-108070611D01*
X131692035Y-108117615D01*
X131644731Y-108155348D01*
X131580312Y-108184659D01*
X131506710Y-108199997D01*
X131426666Y-108201344D01*
X131342920Y-108188679D01*
X131258212Y-108161984D01*
X131175282Y-108121239D01*
X131114606Y-108081273D01*
X131037558Y-108020475D01*
X130961389Y-107950599D01*
X130891356Y-107876527D01*
X130832720Y-107803142D01*
X130801334Y-107759354D01*
X130794984Y-107828086D01*
X130791284Y-107860656D01*
X130771943Y-107953643D01*
X130741281Y-108033544D01*
X130700039Y-108099086D01*
X130648959Y-108148994D01*
X130588783Y-108181996D01*
X130546396Y-108194151D01*
X130470590Y-108202710D01*
X130388210Y-108198675D01*
X130304413Y-108182437D01*
X130224357Y-108154388D01*
X130221739Y-108153219D01*
X130149515Y-108113357D01*
X130072957Y-108057803D01*
X129995173Y-107989288D01*
X129919273Y-107910541D01*
X129848364Y-107824290D01*
X129835860Y-107807875D01*
X129813412Y-107779081D01*
X129797181Y-107759187D01*
X129790038Y-107751762D01*
X129789660Y-107752326D01*
X129789088Y-107765575D01*
X129790018Y-107792826D01*
X129792312Y-107829292D01*
X129792964Y-107838984D01*
X129794158Y-107908500D01*
X129789965Y-107977966D01*
X129781038Y-108042441D01*
X129768032Y-108096984D01*
X129751602Y-108136653D01*
X129747772Y-108142823D01*
X129712757Y-108179646D01*
X129668312Y-108202074D01*
X129619136Y-108209311D01*
X129569928Y-108200558D01*
X129525388Y-108175020D01*
X129520486Y-108170745D01*
X129505761Y-108155500D01*
X129491296Y-108135792D01*
X129475897Y-108109236D01*
X129458368Y-108073446D01*
X129437516Y-108026037D01*
X129412146Y-107964622D01*
X129381062Y-107886815D01*
X129320118Y-107739026D01*
X129245239Y-107574493D01*
X129170434Y-107428838D01*
X129095824Y-107302246D01*
X129021528Y-107194904D01*
X128947667Y-107106997D01*
X128874360Y-107038711D01*
X128801728Y-106990231D01*
X128762728Y-106973171D01*
X128704067Y-106957595D01*
X128644352Y-106951258D01*
X128589554Y-106954672D01*
X128545646Y-106968348D01*
X128507546Y-106996363D01*
X128479158Y-107037491D01*
X128465352Y-107086054D01*
X128466043Y-107138848D01*
X128481144Y-107192668D01*
X128510571Y-107244309D01*
X128554238Y-107290566D01*
X128600964Y-107325180D01*
X128662001Y-107360240D01*
X128735421Y-107393085D01*
X128823755Y-107424834D01*
X128929534Y-107456607D01*
X128988493Y-107473046D01*
X128982573Y-107554881D01*
X128972508Y-107633707D01*
X128952578Y-107726230D01*
X128924886Y-107821320D01*
X128891263Y-107911825D01*
X128870856Y-107956470D01*
X128821826Y-108040415D01*
X128765117Y-108111545D01*
X128702559Y-108168063D01*
X128635983Y-108208171D01*
X128567219Y-108230071D01*
X128560215Y-108231239D01*
X128472960Y-108234956D01*
X128385125Y-108218875D01*
X128297050Y-108183169D01*
X128209078Y-108128012D01*
X128121551Y-108053578D01*
X128034810Y-107960040D01*
X127987250Y-107903215D01*
X127976073Y-107947601D01*
X127966454Y-107980846D01*
X127928369Y-108066534D01*
X127874876Y-108140212D01*
X127807229Y-108200667D01*
X127726685Y-108246688D01*
X127634500Y-108277066D01*
X127609267Y-108281609D01*
X127549752Y-108286935D01*
X127481202Y-108288010D01*
X127410477Y-108285020D01*
X127344440Y-108278155D01*
X127289952Y-108267603D01*
X127279377Y-108264700D01*
X127174586Y-108225019D01*
X127080358Y-108169060D01*
X126998147Y-108098291D01*
X126929407Y-108014178D01*
X126875590Y-107918187D01*
X126838151Y-107811785D01*
X126835483Y-107800470D01*
X126826939Y-107743698D01*
X126826359Y-107734976D01*
X127156033Y-107734976D01*
X127158734Y-107791770D01*
X127164949Y-107832901D01*
X127191201Y-107912569D01*
X127233929Y-107987807D01*
X127290291Y-108049211D01*
X127359354Y-108095785D01*
X127440187Y-108126535D01*
X127467326Y-108133028D01*
X127499162Y-108139145D01*
X127519643Y-108141240D01*
X127548881Y-108137289D01*
X127589762Y-108126858D01*
X127629733Y-108112902D01*
X127659310Y-108098334D01*
X127672997Y-108088200D01*
X127711567Y-108045919D01*
X127743669Y-107990333D01*
X127767400Y-107926196D01*
X127780857Y-107858266D01*
X127782138Y-107791298D01*
X127776581Y-107747321D01*
X127763331Y-107701315D01*
X127741659Y-107667397D01*
X127709523Y-107641351D01*
X127707989Y-107640406D01*
X127682697Y-107627136D01*
X127661609Y-107624496D01*
X127633629Y-107630970D01*
X127620579Y-107635868D01*
X127586395Y-107654473D01*
X127554981Y-107677990D01*
X127516135Y-107713086D01*
X127481213Y-107659895D01*
X127469754Y-107641524D01*
X127445210Y-107588930D01*
X127438206Y-107543707D01*
X127448482Y-107504628D01*
X127458678Y-107488911D01*
X127481500Y-107461849D01*
X127508989Y-107434326D01*
X127535557Y-107411811D01*
X127555620Y-107399769D01*
X127557731Y-107397576D01*
X127553377Y-107382599D01*
X127535331Y-107353798D01*
X127503449Y-107310928D01*
X127503406Y-107310873D01*
X127471737Y-107268753D01*
X127433990Y-107216461D01*
X127394894Y-107160649D01*
X127359177Y-107107968D01*
X127280476Y-106989381D01*
X127257593Y-107077956D01*
X127251341Y-107102325D01*
X127218900Y-107235892D01*
X127193728Y-107353827D01*
X127175397Y-107458529D01*
X127163479Y-107552395D01*
X127157545Y-107637824D01*
X127156776Y-107660726D01*
X127156033Y-107734976D01*
X126826359Y-107734976D01*
X126822420Y-107675686D01*
X126822009Y-107603178D01*
X126825792Y-107532918D01*
X126833855Y-107471652D01*
X126838157Y-107449736D01*
X126845252Y-107417938D01*
X126854054Y-107384086D01*
X126865433Y-107345394D01*
X126880259Y-107299075D01*
X126899402Y-107242344D01*
X126923732Y-107172414D01*
X126954119Y-107086500D01*
X126959512Y-107071280D01*
X126991835Y-106977223D01*
X127016744Y-106897888D01*
X127034740Y-106830115D01*
X127046325Y-106770745D01*
X127051999Y-106716619D01*
X127052264Y-106664577D01*
X127047621Y-106611460D01*
X127038571Y-106554109D01*
X127038159Y-106551547D01*
X127042589Y-106518370D01*
X127062467Y-106489451D01*
X127093556Y-106469016D01*
X127131620Y-106461291D01*
X127161110Y-106464174D01*
X127205768Y-106482600D01*
X127243121Y-106518409D01*
X127273444Y-106572011D01*
X127297009Y-106643815D01*
X127314090Y-106734229D01*
X127319634Y-106764829D01*
X127336865Y-106819383D01*
X127365793Y-106879286D01*
X127383401Y-106910622D01*
X127451739Y-107020882D01*
X127529748Y-107132358D01*
X127612451Y-107238209D01*
X127694872Y-107331596D01*
X127756639Y-107396622D01*
X127772113Y-107374113D01*
X127779506Y-107364107D01*
X127793247Y-107353297D01*
X127804278Y-107360683D01*
X127815311Y-107387078D01*
X127829987Y-107414864D01*
X127864860Y-107446441D01*
X127899752Y-107473550D01*
X127943879Y-107526991D01*
X127976145Y-107592371D01*
X127994303Y-107665881D01*
X128000899Y-107695290D01*
X128019828Y-107738860D01*
X128051334Y-107786958D01*
X128054944Y-107791298D01*
X128096843Y-107841671D01*
X128157780Y-107905081D01*
X128163459Y-107910639D01*
X128230870Y-107966880D01*
X128298696Y-108006334D01*
X128365295Y-108028437D01*
X128429025Y-108032628D01*
X128488245Y-108018343D01*
X128492772Y-108016294D01*
X128529111Y-107991322D01*
X128567283Y-107952428D01*
X128603399Y-107904095D01*
X128633569Y-107850806D01*
X128636161Y-107845187D01*
X128648685Y-107814567D01*
X128663299Y-107774771D01*
X128678732Y-107729798D01*
X128693713Y-107683646D01*
X128706972Y-107640315D01*
X128717236Y-107603802D01*
X128723236Y-107578106D01*
X128723700Y-107567227D01*
X128719320Y-107565746D01*
X128699044Y-107560435D01*
X128666305Y-107552475D01*
X128625478Y-107542949D01*
X128538249Y-107517617D01*
X128446274Y-107479123D01*
X128361599Y-107431513D01*
X128287396Y-107376853D01*
X128226837Y-107317213D01*
X128183095Y-107254658D01*
X128178374Y-107245630D01*
X128149775Y-107167882D01*
X128139172Y-107086463D01*
X128145996Y-107004600D01*
X128169677Y-106925517D01*
X128209647Y-106852439D01*
X128265336Y-106788591D01*
X128304252Y-106756372D01*
X128381925Y-106710177D01*
X128464413Y-106682737D01*
X128550495Y-106673982D01*
X128638951Y-106683845D01*
X128728560Y-106712256D01*
X128818103Y-106759149D01*
X128906359Y-106824455D01*
X128959910Y-106873702D01*
X129025870Y-106944603D01*
X129091767Y-107027338D01*
X129158633Y-107123409D01*
X129227501Y-107234319D01*
X129299405Y-107361570D01*
X129375377Y-107506665D01*
X129400372Y-107555419D01*
X129422117Y-107596765D01*
X129438818Y-107627350D01*
X129449176Y-107644795D01*
X129451890Y-107646720D01*
X129448976Y-107630107D01*
X129444715Y-107598777D01*
X129440468Y-107561687D01*
X129439388Y-107552268D01*
X129432914Y-107507871D01*
X129423135Y-107450660D01*
X129411073Y-107385837D01*
X129397750Y-107318603D01*
X129384188Y-107254159D01*
X129371410Y-107197705D01*
X129360436Y-107154442D01*
X129343853Y-107097352D01*
X129312765Y-106998690D01*
X129278482Y-106898011D01*
X129244275Y-106805146D01*
X129232254Y-106774223D01*
X129217600Y-106739180D01*
X129204766Y-106715403D01*
X129190524Y-106698390D01*
X129171643Y-106683642D01*
X129144896Y-106666658D01*
X129076130Y-106620408D01*
X128983864Y-106548173D01*
X128890778Y-106464906D01*
X128801231Y-106374558D01*
X128719581Y-106281082D01*
X128697441Y-106253387D01*
X128615078Y-106140800D01*
X128543309Y-106026936D01*
X128482522Y-105913300D01*
X128433108Y-105801401D01*
X128395457Y-105692746D01*
X128369957Y-105588842D01*
X128368077Y-105574672D01*
X128556376Y-105574672D01*
X128558585Y-105606626D01*
X128565080Y-105646894D01*
X128575315Y-105691423D01*
X128588744Y-105736160D01*
X128597995Y-105762007D01*
X128641725Y-105861809D01*
X128699493Y-105964391D01*
X128772291Y-106071240D01*
X128861109Y-106183845D01*
X128966938Y-106303692D01*
X128974394Y-106311718D01*
X129007745Y-106346768D01*
X129036071Y-106375197D01*
X129056574Y-106394265D01*
X129066458Y-106401230D01*
X129066217Y-106395744D01*
X129058397Y-106375041D01*
X129043449Y-106341357D01*
X129022666Y-106297271D01*
X128997339Y-106245360D01*
X128968759Y-106188202D01*
X128938218Y-106128373D01*
X128907006Y-106068450D01*
X128876417Y-106011013D01*
X128847740Y-105958637D01*
X128822268Y-105913900D01*
X128787670Y-105855980D01*
X128744986Y-105787566D01*
X128703392Y-105723950D01*
X128664375Y-105667218D01*
X128629419Y-105619459D01*
X128600013Y-105582760D01*
X128577644Y-105559209D01*
X128563796Y-105550895D01*
X128558998Y-105555084D01*
X128556376Y-105574672D01*
X128368077Y-105574672D01*
X128357000Y-105491198D01*
X128356975Y-105401319D01*
X128370270Y-105320715D01*
X128397277Y-105250892D01*
X128438384Y-105193359D01*
X128444031Y-105187668D01*
X128480666Y-105162498D01*
X128521199Y-105154608D01*
X128566782Y-105164205D01*
X128618564Y-105191498D01*
X128677697Y-105236695D01*
X128705862Y-105262249D01*
X128774367Y-105334582D01*
X128846563Y-105423688D01*
X128921537Y-105527750D01*
X128998374Y-105644951D01*
X129076163Y-105773472D01*
X129153990Y-105911498D01*
X129230941Y-106057211D01*
X129306103Y-106208793D01*
X129378563Y-106364428D01*
X129394612Y-106401230D01*
X129447407Y-106522298D01*
X129511723Y-106680587D01*
X129570596Y-106837476D01*
X129623114Y-106991149D01*
X129668364Y-107139788D01*
X129705431Y-107281577D01*
X129722231Y-107347890D01*
X129744636Y-107420656D01*
X129770279Y-107484844D01*
X129801798Y-107546866D01*
X129841831Y-107613132D01*
X129858639Y-107638963D01*
X129926352Y-107735037D01*
X129994213Y-107819134D01*
X130060607Y-107889502D01*
X130123914Y-107944389D01*
X130182518Y-107982044D01*
X130185242Y-107983410D01*
X130237489Y-108001676D01*
X130291823Y-108007954D01*
X130342259Y-108002179D01*
X130382811Y-107984284D01*
X130390225Y-107978592D01*
X130423576Y-107939249D01*
X130447302Y-107883972D01*
X130461447Y-107812415D01*
X130466059Y-107724233D01*
X130461181Y-107619078D01*
X130446860Y-107496607D01*
X130425172Y-107347011D01*
X130388165Y-107317710D01*
X130354404Y-107288716D01*
X130309658Y-107246621D01*
X130258328Y-107195725D01*
X130203605Y-107139370D01*
X130148680Y-107080900D01*
X130096742Y-107023658D01*
X130050983Y-106970988D01*
X130014594Y-106926234D01*
X130013870Y-106925296D01*
X129899501Y-106769566D01*
X129791210Y-106607245D01*
X129690395Y-106441016D01*
X129598454Y-106273563D01*
X129516784Y-106107570D01*
X129446783Y-105945720D01*
X129389849Y-105790697D01*
X129347379Y-105645184D01*
X129328836Y-105556321D01*
X129327222Y-105539995D01*
X129516379Y-105539995D01*
X129520934Y-105577039D01*
X129531193Y-105626016D01*
X129546585Y-105684573D01*
X129566540Y-105750356D01*
X129590486Y-105821013D01*
X129617853Y-105894191D01*
X129660272Y-105995185D01*
X129713161Y-106109116D01*
X129773394Y-106229666D01*
X129838503Y-106352189D01*
X129906018Y-106472042D01*
X129973470Y-106584580D01*
X130038389Y-106685158D01*
X130041098Y-106689143D01*
X130064546Y-106722522D01*
X130095847Y-106765797D01*
X130131241Y-106813812D01*
X130166967Y-106861411D01*
X130173184Y-106869583D01*
X130209362Y-106916284D01*
X130245108Y-106961168D01*
X130276592Y-106999482D01*
X130299986Y-107026476D01*
X130345755Y-107076496D01*
X130301956Y-106951447D01*
X130261184Y-106839405D01*
X130182584Y-106642317D01*
X130095226Y-106443814D01*
X130001199Y-106248168D01*
X129902591Y-106059647D01*
X129801491Y-105882523D01*
X129699990Y-105721065D01*
X129692159Y-105709381D01*
X129657695Y-105660354D01*
X129622760Y-105613984D01*
X129589681Y-105573062D01*
X129560783Y-105540376D01*
X129538390Y-105518719D01*
X129524828Y-105510880D01*
X129518100Y-105517236D01*
X129516379Y-105539995D01*
X129327222Y-105539995D01*
X129320516Y-105472156D01*
X129324495Y-105395307D01*
X129341037Y-105321190D01*
X129370404Y-105245219D01*
X129378100Y-105229140D01*
X129410489Y-105176780D01*
X129445742Y-105143935D01*
X129484630Y-105130285D01*
X129527923Y-105135506D01*
X129576394Y-105159278D01*
X129596609Y-105173308D01*
X129653826Y-105222499D01*
X129716508Y-105288515D01*
X129783784Y-105369881D01*
X129854783Y-105465122D01*
X129928634Y-105572761D01*
X130004465Y-105691323D01*
X130081407Y-105819333D01*
X130158588Y-105955315D01*
X130235136Y-106097793D01*
X130310182Y-106245292D01*
X130382853Y-106396337D01*
X130452280Y-106549452D01*
X130517591Y-106703161D01*
X130577915Y-106855989D01*
X130592082Y-106894168D01*
X130618528Y-106968831D01*
X130645955Y-107049914D01*
X130654596Y-107076496D01*
X130673035Y-107133220D01*
X130698444Y-107214555D01*
G37*
G36*
X134530468Y-105133370D02*
G01*
X134548100Y-105134049D01*
X134650770Y-105141416D01*
X134741273Y-105155158D01*
X134825929Y-105176838D01*
X134911061Y-105208020D01*
X135002989Y-105250268D01*
X135072548Y-105286596D01*
X135145269Y-105330575D01*
X135211177Y-105378757D01*
X135276034Y-105435423D01*
X135345602Y-105504855D01*
X135419913Y-105588623D01*
X135508178Y-105710157D01*
X135578541Y-105837766D01*
X135632101Y-105973245D01*
X135633960Y-105979045D01*
X135654307Y-106056130D01*
X135668269Y-106135789D01*
X135674921Y-106211233D01*
X135673337Y-106275677D01*
X135670788Y-106297043D01*
X135656443Y-106372862D01*
X135633557Y-106443771D01*
X135600963Y-106510998D01*
X135557494Y-106575771D01*
X135501984Y-106639320D01*
X135433266Y-106702872D01*
X135350174Y-106767657D01*
X135251542Y-106834903D01*
X135136202Y-106905839D01*
X135002989Y-106981693D01*
X135002105Y-106982181D01*
X134890860Y-107044524D01*
X134795930Y-107099818D01*
X134715458Y-107149353D01*
X134647591Y-107194419D01*
X134590472Y-107236306D01*
X134542247Y-107276305D01*
X134501060Y-107315705D01*
X134465058Y-107355796D01*
X134449236Y-107375644D01*
X134396853Y-107459517D01*
X134363894Y-107548175D01*
X134350367Y-107641597D01*
X134356276Y-107739763D01*
X134358902Y-107755616D01*
X134375780Y-107825181D01*
X134401497Y-107884724D01*
X134439218Y-107940256D01*
X134492106Y-107997789D01*
X134511522Y-108016044D01*
X134599285Y-108082093D01*
X134700613Y-108135454D01*
X134813513Y-108175530D01*
X134935990Y-108201725D01*
X135066052Y-108213443D01*
X135201706Y-108210087D01*
X135234801Y-108206736D01*
X135343806Y-108185101D01*
X135442033Y-108148848D01*
X135528337Y-108099091D01*
X135601569Y-108036944D01*
X135660581Y-107963521D01*
X135704227Y-107879936D01*
X135731358Y-107787303D01*
X135740827Y-107686736D01*
X135738321Y-107628013D01*
X135720522Y-107525230D01*
X135685098Y-107423069D01*
X135631414Y-107319878D01*
X135558834Y-107214003D01*
X135532381Y-107178971D01*
X135509431Y-107147820D01*
X135493894Y-107125846D01*
X135488180Y-107116377D01*
X135494289Y-107114119D01*
X135516320Y-107114608D01*
X135550534Y-107118197D01*
X135592845Y-107124351D01*
X135639168Y-107132535D01*
X135685418Y-107142213D01*
X135771062Y-107167373D01*
X135865270Y-107211116D01*
X135945437Y-107268112D01*
X136010831Y-107337699D01*
X136060724Y-107419219D01*
X136094385Y-107512010D01*
X136097808Y-107527016D01*
X136105992Y-107584494D01*
X136110232Y-107652284D01*
X136110443Y-107723313D01*
X136106539Y-107790509D01*
X136098435Y-107846799D01*
X136087998Y-107887985D01*
X136049709Y-107984785D01*
X135994256Y-108076997D01*
X135923627Y-108162069D01*
X135839812Y-108237447D01*
X135744800Y-108300580D01*
X135738054Y-108304322D01*
X135643022Y-108348822D01*
X135535731Y-108386063D01*
X135422741Y-108414075D01*
X135310616Y-108430889D01*
X135273127Y-108434407D01*
X135222912Y-108438397D01*
X135181842Y-108440097D01*
X135143223Y-108439527D01*
X135100362Y-108436707D01*
X135046565Y-108431657D01*
X134953117Y-108419427D01*
X134808214Y-108388478D01*
X134672062Y-108344513D01*
X134545965Y-108288447D01*
X134431226Y-108221193D01*
X134329148Y-108143667D01*
X134241035Y-108056782D01*
X134168190Y-107961453D01*
X134111917Y-107858593D01*
X134073518Y-107749118D01*
X134065742Y-107714455D01*
X134053753Y-107624830D01*
X134050785Y-107530697D01*
X134057342Y-107441640D01*
X134064072Y-107400876D01*
X134090143Y-107305494D01*
X134130786Y-107216899D01*
X134187728Y-107131769D01*
X134262697Y-107046783D01*
X134285374Y-107024144D01*
X134316947Y-106994415D01*
X134349803Y-106966072D01*
X134385767Y-106937928D01*
X134426666Y-106908797D01*
X134474325Y-106877490D01*
X134530572Y-106842821D01*
X134597230Y-106803602D01*
X134676127Y-106758647D01*
X134769088Y-106706769D01*
X134877939Y-106646779D01*
X134964824Y-106598105D01*
X135051280Y-106546685D01*
X135122733Y-106499972D01*
X135181079Y-106456410D01*
X135228212Y-106414442D01*
X135266029Y-106372510D01*
X135296424Y-106329057D01*
X135321293Y-106282527D01*
X135322118Y-106280760D01*
X135337876Y-106244003D01*
X135347031Y-106212413D01*
X135351306Y-106177615D01*
X135352423Y-106131234D01*
X135350153Y-106079033D01*
X135335753Y-105994704D01*
X135307070Y-105907606D01*
X135262926Y-105813566D01*
X135220868Y-105740537D01*
X135172693Y-105671939D01*
X135115725Y-105605449D01*
X135045505Y-105535360D01*
X134942752Y-105450224D01*
X134829766Y-105379936D01*
X134711071Y-105328309D01*
X134679159Y-105317731D01*
X134640353Y-105307163D01*
X134601510Y-105300248D01*
X134555972Y-105295888D01*
X134497085Y-105292984D01*
X134479741Y-105292357D01*
X134430234Y-105291135D01*
X134394636Y-105291761D01*
X134368236Y-105294675D01*
X134346321Y-105300316D01*
X134324180Y-105309125D01*
X134300371Y-105321967D01*
X134269997Y-105351602D01*
X134253016Y-105392661D01*
X134247839Y-105448034D01*
X134249259Y-105478364D01*
X134254304Y-105515275D01*
X134263664Y-105558333D01*
X134278029Y-105609997D01*
X134298088Y-105672726D01*
X134324531Y-105748978D01*
X134358047Y-105841212D01*
X134373569Y-105883324D01*
X134401655Y-105960043D01*
X134423783Y-106021865D01*
X134440672Y-106071400D01*
X134453037Y-106111261D01*
X134461594Y-106144058D01*
X134467060Y-106172402D01*
X134470151Y-106198903D01*
X134471584Y-106226173D01*
X134472075Y-106256822D01*
X134472130Y-106285085D01*
X134470858Y-106320928D01*
X134466849Y-106346125D01*
X134458931Y-106366572D01*
X134445929Y-106388162D01*
X134417105Y-106421134D01*
X134375902Y-106449345D01*
X134363811Y-106455081D01*
X134335647Y-106467237D01*
X134314661Y-106471454D01*
X134297432Y-106465846D01*
X134280536Y-106448527D01*
X134260549Y-106417613D01*
X134234049Y-106371218D01*
X134179506Y-106269338D01*
X134118443Y-106140406D01*
X134066496Y-106012877D01*
X134024550Y-105889417D01*
X133993491Y-105772688D01*
X133974206Y-105665356D01*
X133967581Y-105570085D01*
X133967635Y-105561702D01*
X133977099Y-105463554D01*
X134002558Y-105375819D01*
X134043608Y-105299520D01*
X134099844Y-105235683D01*
X134137941Y-105205674D01*
X134193463Y-105174849D01*
X134257990Y-105152798D01*
X134334008Y-105138928D01*
X134424005Y-105132649D01*
X134530468Y-105133370D01*
G37*
%TO.C,C31*%
X174867835Y-96414000D02*
X174636165Y-96414000D01*
X174867835Y-97134000D02*
X174636165Y-97134000D01*
%TO.C,R17*%
X160808936Y-49430000D02*
X161263064Y-49430000D01*
X160808936Y-50900000D02*
X161263064Y-50900000D01*
%TO.C,C34*%
X174867835Y-104754000D02*
X174636165Y-104754000D01*
X174867835Y-104034000D02*
X174636165Y-104034000D01*
%TO.C,C35*%
X174867835Y-106574000D02*
X174636165Y-106574000D01*
X174867835Y-107294000D02*
X174636165Y-107294000D01*
%TO.C,C5*%
X169776898Y-67397780D02*
X169254394Y-67397780D01*
X169776898Y-68867780D02*
X169254394Y-68867780D01*
D11*
%TO.C,D39*%
X122555000Y-88773000D02*
X120777000Y-88773000D01*
D14*
X124460000Y-87122000D02*
X124460000Y-88646000D01*
D11*
X122555000Y-86995000D02*
X120777000Y-86995000D01*
D14*
%TO.C,R23*%
X170504710Y-61755780D02*
X170050582Y-61755780D01*
X170504710Y-60285780D02*
X170050582Y-60285780D01*
%TO.C,R7*%
X185139000Y-81888064D02*
X185139000Y-81433936D01*
X183669000Y-81888064D02*
X183669000Y-81433936D01*
D11*
%TO.C,D26*%
X191464000Y-56685000D02*
X193242000Y-56685000D01*
X191464000Y-58209000D02*
X193242000Y-58209000D01*
D14*
X190194000Y-58082000D02*
X190194000Y-56812000D01*
%TO.C,C27*%
X185338767Y-104773000D02*
X185046233Y-104773000D01*
X185338767Y-105793000D02*
X185046233Y-105793000D01*
%TO.C,R4*%
X190323800Y-63803264D02*
X190323800Y-63349136D01*
X191793800Y-63803264D02*
X191793800Y-63349136D01*
%TO.C,C20*%
X185338767Y-86993000D02*
X185046233Y-86993000D01*
X185338767Y-88013000D02*
X185046233Y-88013000D01*
%TO.C,C19*%
X196799252Y-98827000D02*
X195376748Y-98827000D01*
X196799252Y-97007000D02*
X195376748Y-97007000D01*
%TO.C,R26*%
X152881000Y-50699936D02*
X152881000Y-51154064D01*
X151411000Y-50699936D02*
X151411000Y-51154064D01*
%TO.C,C17*%
X196799252Y-89387000D02*
X195376748Y-89387000D01*
X196799252Y-91207000D02*
X195376748Y-91207000D01*
%TO.C,R39*%
X155575724Y-95391500D02*
X155066276Y-95391500D01*
X155575724Y-94346500D02*
X155066276Y-94346500D01*
%TO.C,C23*%
X185338759Y-94613000D02*
X185046225Y-94613000D01*
X185338759Y-95633000D02*
X185046225Y-95633000D01*
%TO.C,R24*%
X169288582Y-64095780D02*
X169742710Y-64095780D01*
X169288582Y-65565780D02*
X169742710Y-65565780D01*
D11*
%TO.C,D34*%
X133350000Y-100965000D02*
X131572000Y-100965000D01*
X133350000Y-99441000D02*
X131572000Y-99441000D01*
D14*
X134620000Y-99568000D02*
X134620000Y-100838000D01*
%TO.C,R45*%
X166156621Y-89028000D02*
X165821379Y-89028000D01*
X166156621Y-89788000D02*
X165821379Y-89788000D01*
%TO.C,R43*%
X155575724Y-105551500D02*
X155066276Y-105551500D01*
X155575724Y-104506500D02*
X155066276Y-104506500D01*
%TO.C,C1*%
X172844646Y-58996032D02*
X172844646Y-58473528D01*
X174314646Y-58996032D02*
X174314646Y-58473528D01*
D11*
%TO.C,D42*%
X122555000Y-100203000D02*
X120777000Y-100203000D01*
D14*
X124460000Y-98552000D02*
X124460000Y-100076000D01*
D11*
X122555000Y-98425000D02*
X120777000Y-98425000D01*
D14*
%TO.C,R6*%
X188060000Y-81888064D02*
X188060000Y-81433936D01*
X186590000Y-81888064D02*
X186590000Y-81433936D01*
D11*
%TO.C,D28*%
X133350000Y-85725000D02*
X131572000Y-85725000D01*
X133350000Y-84201000D02*
X131572000Y-84201000D01*
D14*
X134620000Y-84328000D02*
X134620000Y-85598000D01*
%TO.C,C6*%
X155906800Y-75143543D02*
X155906800Y-74621039D01*
X157376800Y-75143543D02*
X157376800Y-74621039D01*
%TO.C,C33*%
X174867835Y-101494000D02*
X174636165Y-101494000D01*
X174867835Y-102214000D02*
X174636165Y-102214000D01*
%TO.C,D41*%
X124460000Y-94742000D02*
X124460000Y-96266000D01*
D11*
X122555000Y-96393000D02*
X120777000Y-96393000D01*
X122555000Y-94615000D02*
X120777000Y-94615000D01*
D14*
%TO.C,C8*%
X155548000Y-51061252D02*
X155548000Y-50538748D01*
X154078000Y-51061252D02*
X154078000Y-50538748D01*
%TO.C,R25*%
X147423200Y-50649136D02*
X147423200Y-51103264D01*
X148893200Y-50649136D02*
X148893200Y-51103264D01*
%TO.C,U3*%
X147599400Y-53822600D02*
X145059400Y-53822600D01*
X145059400Y-53822600D02*
X145059400Y-54965600D01*
X145059400Y-54965600D02*
X147599400Y-54965600D01*
X147599400Y-54965600D02*
X147599400Y-53822600D01*
G36*
X147599400Y-53822600D02*
G01*
X145059400Y-53822600D01*
X145059400Y-54965600D01*
X147599400Y-54965600D01*
X147599400Y-53822600D01*
G37*
X147599400Y-53695600D02*
X145059400Y-53695600D01*
X145059400Y-53695600D02*
X145059400Y-62458600D01*
X145059400Y-62458600D02*
X147599400Y-62458600D01*
X147599400Y-62458600D02*
X147599400Y-53695600D01*
D15*
X149549390Y-53314600D02*
G75*
G03*
X149549390Y-53314600I-171990J0D01*
G01*
D14*
%TO.C,C13*%
X196799252Y-74147000D02*
X195376748Y-74147000D01*
X196799252Y-75967000D02*
X195376748Y-75967000D01*
%TO.C,D25*%
X132562000Y-69612000D02*
X132562000Y-70882000D01*
D11*
X131292000Y-71009000D02*
X129514000Y-71009000D01*
X131292000Y-69485000D02*
X129514000Y-69485000D01*
D14*
%TO.C,C30*%
X174867835Y-93874000D02*
X174636165Y-93874000D01*
X174867835Y-94594000D02*
X174636165Y-94594000D01*
%TO.C,D29*%
X134620000Y-86868000D02*
X134620000Y-88138000D01*
D11*
X133350000Y-86741000D02*
X131572000Y-86741000D01*
X133350000Y-88265000D02*
X131572000Y-88265000D01*
%TO.C,G\u002A\u002A\u002A*%
G36*
X129121780Y-47043385D02*
G01*
X129112106Y-47083505D01*
X129090674Y-47149289D01*
X129060414Y-47232381D01*
X129024253Y-47324428D01*
X128985120Y-47417074D01*
X128971654Y-47443687D01*
X128928247Y-47514341D01*
X128869416Y-47599142D01*
X128803926Y-47685124D01*
X128761018Y-47737532D01*
X128709198Y-47797225D01*
X128672530Y-47834963D01*
X128657037Y-47844222D01*
X128658663Y-47830776D01*
X128673057Y-47782612D01*
X128698922Y-47709342D01*
X128733019Y-47620500D01*
X128745702Y-47589404D01*
X128837521Y-47405144D01*
X128957221Y-47230359D01*
X129001085Y-47174487D01*
X129056179Y-47106267D01*
X129097646Y-47057277D01*
X129118850Y-47035519D01*
X129121780Y-47043385D01*
G37*
G36*
X128789869Y-48341076D02*
G01*
X128840380Y-48357948D01*
X128915976Y-48385856D01*
X129008083Y-48421737D01*
X129027114Y-48429395D01*
X129170861Y-48494343D01*
X129294907Y-48566721D01*
X129420886Y-48658963D01*
X129480817Y-48706865D01*
X129545315Y-48759543D01*
X129589280Y-48796847D01*
X129605530Y-48812794D01*
X129605223Y-48815246D01*
X129598756Y-48818594D01*
X129578610Y-48814556D01*
X129537899Y-48800908D01*
X129469733Y-48775430D01*
X129367224Y-48735896D01*
X129303860Y-48710341D01*
X129184690Y-48653769D01*
X129075958Y-48586845D01*
X128957855Y-48498061D01*
X128890888Y-48443671D01*
X128827917Y-48390651D01*
X128786397Y-48353402D01*
X128773029Y-48337733D01*
X128789869Y-48341076D01*
G37*
G36*
X129584814Y-47529702D02*
G01*
X129551863Y-47563244D01*
X129495236Y-47613171D01*
X129421175Y-47673727D01*
X129407546Y-47684461D01*
X129281299Y-47775494D01*
X129157860Y-47845770D01*
X129014937Y-47908151D01*
X128926885Y-47942378D01*
X128842593Y-47973235D01*
X128796409Y-47985355D01*
X128787735Y-47977077D01*
X128815974Y-47946738D01*
X128880527Y-47892674D01*
X128980796Y-47813223D01*
X129009858Y-47791615D01*
X129091886Y-47738263D01*
X129188811Y-47682601D01*
X129291852Y-47628877D01*
X129392232Y-47581344D01*
X129481173Y-47544253D01*
X129549895Y-47521854D01*
X129589620Y-47518398D01*
X129584814Y-47529702D01*
G37*
G36*
X128290194Y-48499775D02*
G01*
X128274299Y-48550056D01*
X128246919Y-48625011D01*
X128211344Y-48715279D01*
X128179227Y-48789801D01*
X128090174Y-48956795D01*
X127975625Y-49119784D01*
X127924387Y-49184335D01*
X127872137Y-49247543D01*
X127835197Y-49289116D01*
X127819378Y-49302268D01*
X127822070Y-49285863D01*
X127837922Y-49235574D01*
X127864712Y-49160091D01*
X127899467Y-49068107D01*
X127926357Y-49001264D01*
X127983691Y-48879332D01*
X128049951Y-48770602D01*
X128137024Y-48654375D01*
X128188681Y-48591243D01*
X128240906Y-48531039D01*
X128277490Y-48493194D01*
X128292654Y-48484031D01*
X128290194Y-48499775D01*
G37*
G36*
X127366890Y-47522157D02*
G01*
X127416250Y-47536653D01*
X127490842Y-47562414D01*
X127581761Y-47596502D01*
X127587438Y-47598710D01*
X127732371Y-47661901D01*
X127856530Y-47732907D01*
X127982361Y-47824505D01*
X128037425Y-47868813D01*
X128102252Y-47923268D01*
X128146790Y-47963584D01*
X128163642Y-47983282D01*
X128154505Y-47986085D01*
X128114777Y-47977070D01*
X128054047Y-47955577D01*
X128018310Y-47941387D01*
X127920396Y-47902512D01*
X127828485Y-47866022D01*
X127823955Y-47864155D01*
X127770010Y-47836239D01*
X127699076Y-47792776D01*
X127618918Y-47739394D01*
X127537304Y-47681717D01*
X127462000Y-47625372D01*
X127400771Y-47575985D01*
X127361385Y-47539180D01*
X127351608Y-47520585D01*
X127366890Y-47522157D01*
G37*
G36*
X128483834Y-46875213D02*
G01*
X128494394Y-46929442D01*
X128507089Y-47010149D01*
X128520175Y-47106889D01*
X128531998Y-47215552D01*
X128537391Y-47325782D01*
X128533282Y-47435575D01*
X128519644Y-47566793D01*
X128509407Y-47643193D01*
X128496275Y-47724691D01*
X128484588Y-47780228D01*
X128476032Y-47800752D01*
X128468976Y-47786600D01*
X128456637Y-47736552D01*
X128441889Y-47658871D01*
X128426584Y-47562489D01*
X128425819Y-47557231D01*
X128410956Y-47446700D01*
X128403743Y-47360818D01*
X128404257Y-47282520D01*
X128412575Y-47194742D01*
X128428776Y-47080421D01*
X128443084Y-46993334D01*
X128458049Y-46917537D01*
X128470524Y-46870091D01*
X128478754Y-46858780D01*
X128483834Y-46875213D01*
G37*
G36*
X127831176Y-47038719D02*
G01*
X127864907Y-47075600D01*
X127914894Y-47135317D01*
X127975290Y-47211075D01*
X128021748Y-47272783D01*
X128126104Y-47436648D01*
X128210308Y-47615092D01*
X128237146Y-47682162D01*
X128268496Y-47763937D01*
X128289919Y-47824172D01*
X128297851Y-47853179D01*
X128297858Y-47856192D01*
X128296861Y-47865091D01*
X128290813Y-47864292D01*
X128275158Y-47848831D01*
X128245344Y-47813748D01*
X128196815Y-47754079D01*
X128125018Y-47664863D01*
X128097267Y-47629588D01*
X128021608Y-47520944D01*
X127959516Y-47406387D01*
X127900335Y-47267050D01*
X127869982Y-47186961D01*
X127841729Y-47108004D01*
X127823998Y-47052893D01*
X127819736Y-47030293D01*
X127831176Y-47038719D01*
G37*
G36*
X129950978Y-49006185D02*
G01*
X129982611Y-49020238D01*
X130052411Y-49054521D01*
X130150654Y-49104593D01*
X130271694Y-49167430D01*
X130409887Y-49240006D01*
X130559585Y-49319300D01*
X130715145Y-49402286D01*
X130870919Y-49485941D01*
X131021263Y-49567242D01*
X131160531Y-49643164D01*
X131283077Y-49710683D01*
X131383255Y-49766777D01*
X131455420Y-49808420D01*
X131493927Y-49832590D01*
X131605732Y-49932672D01*
X131716663Y-50076193D01*
X131801841Y-50239737D01*
X131810760Y-50262493D01*
X131824665Y-50304997D01*
X131835592Y-50353117D01*
X131844186Y-50413303D01*
X131851091Y-50492005D01*
X131856949Y-50595675D01*
X131862405Y-50730763D01*
X131868103Y-50903719D01*
X131869961Y-50969424D01*
X131873525Y-51129033D01*
X131876853Y-51321097D01*
X131879851Y-51537724D01*
X131882428Y-51771021D01*
X131884491Y-52013096D01*
X131885948Y-52256058D01*
X131886707Y-52492015D01*
X131886983Y-52707688D01*
X131886953Y-52917158D01*
X131886418Y-53090218D01*
X131885232Y-53231097D01*
X131883252Y-53344024D01*
X131880336Y-53433230D01*
X131876339Y-53502943D01*
X131871117Y-53557393D01*
X131864527Y-53600809D01*
X131856426Y-53637421D01*
X131846670Y-53671457D01*
X131846575Y-53671763D01*
X131781480Y-53837703D01*
X131694292Y-53977436D01*
X131574720Y-54107459D01*
X131536680Y-54136900D01*
X131462604Y-54187016D01*
X131357739Y-54254285D01*
X131226122Y-54336348D01*
X131071788Y-54430846D01*
X130898771Y-54535420D01*
X130711107Y-54647710D01*
X130512831Y-54765357D01*
X130307979Y-54886002D01*
X130100584Y-55007286D01*
X129894683Y-55126848D01*
X129694311Y-55242331D01*
X129503503Y-55351374D01*
X129326293Y-55451619D01*
X129166718Y-55540705D01*
X129028812Y-55616275D01*
X128916610Y-55675968D01*
X128834148Y-55717425D01*
X128785460Y-55738287D01*
X128668415Y-55765452D01*
X128497164Y-55778495D01*
X128323047Y-55766188D01*
X128164867Y-55728817D01*
X128119092Y-55708478D01*
X128037962Y-55667163D01*
X127924824Y-55606682D01*
X127782758Y-55528754D01*
X127614847Y-55435097D01*
X127424170Y-55327430D01*
X127213811Y-55207472D01*
X126986850Y-55076941D01*
X126746368Y-54937558D01*
X126606295Y-54856040D01*
X126354739Y-54709323D01*
X126137368Y-54581782D01*
X125951381Y-54471430D01*
X125793979Y-54376282D01*
X125662359Y-54294352D01*
X125553722Y-54223655D01*
X125465266Y-54162204D01*
X125394190Y-54108015D01*
X125337693Y-54059100D01*
X125292974Y-54013476D01*
X125257234Y-53969156D01*
X125227669Y-53924154D01*
X125201481Y-53876485D01*
X125175867Y-53824162D01*
X125145133Y-53751825D01*
X125110355Y-53650837D01*
X125088342Y-53563405D01*
X125085675Y-53538517D01*
X125082137Y-53466336D01*
X125079317Y-53357549D01*
X125077185Y-53216855D01*
X125075712Y-53048950D01*
X125074868Y-52858531D01*
X125074623Y-52650296D01*
X125074949Y-52428941D01*
X125075816Y-52199164D01*
X125077195Y-51965662D01*
X125079055Y-51733132D01*
X125081367Y-51506270D01*
X125084103Y-51289774D01*
X125087231Y-51088341D01*
X125090724Y-50906669D01*
X125094552Y-50749453D01*
X125098684Y-50621392D01*
X125103092Y-50527182D01*
X125107746Y-50471520D01*
X125129418Y-50362532D01*
X125193271Y-50184971D01*
X125286282Y-50023960D01*
X125402228Y-49891752D01*
X125403868Y-49890276D01*
X125462015Y-49845155D01*
X125549489Y-49786256D01*
X125661106Y-49716387D01*
X125791682Y-49638354D01*
X125936033Y-49554965D01*
X126088975Y-49469027D01*
X126245324Y-49383348D01*
X126399897Y-49300735D01*
X126547508Y-49223995D01*
X126682975Y-49155936D01*
X126801113Y-49099364D01*
X126896738Y-49057088D01*
X126964667Y-49031914D01*
X126999715Y-49026650D01*
X126996421Y-49039825D01*
X126961369Y-49074218D01*
X126897820Y-49126237D01*
X126810408Y-49192581D01*
X126703771Y-49269950D01*
X126582543Y-49355045D01*
X126451361Y-49444566D01*
X126314859Y-49535212D01*
X126177675Y-49623683D01*
X126044444Y-49706680D01*
X126003149Y-49731996D01*
X125877102Y-49810671D01*
X125761202Y-49885001D01*
X125662431Y-49950392D01*
X125587765Y-50002252D01*
X125544183Y-50035984D01*
X125495161Y-50090326D01*
X125438063Y-50171258D01*
X125389035Y-50257482D01*
X125316787Y-50404380D01*
X125323624Y-51900777D01*
X125324442Y-52060756D01*
X125326519Y-52362339D01*
X125329132Y-52633910D01*
X125332245Y-52873425D01*
X125335817Y-53078838D01*
X125339812Y-53248104D01*
X125344191Y-53379178D01*
X125348914Y-53470015D01*
X125353945Y-53518570D01*
X125377430Y-53639965D01*
X125519005Y-53490530D01*
X125542833Y-53465904D01*
X125665205Y-53357348D01*
X125776886Y-53289659D01*
X125893192Y-53238223D01*
X125967333Y-52974156D01*
X126022506Y-52788859D01*
X126105959Y-52551270D01*
X126197306Y-52343342D01*
X126300994Y-52156386D01*
X126421473Y-51981717D01*
X126563192Y-51810647D01*
X126600137Y-51768275D01*
X126653819Y-51698983D01*
X126696072Y-51628618D01*
X126734687Y-51543307D01*
X126777455Y-51429180D01*
X126861396Y-51193577D01*
X126991115Y-51178901D01*
X127052758Y-51170843D01*
X127099334Y-51158546D01*
X127122608Y-51138066D01*
X127134227Y-51103248D01*
X127155548Y-51051133D01*
X127196804Y-50996065D01*
X127245987Y-50949859D01*
X127297202Y-51081938D01*
X127323691Y-51145427D01*
X127348248Y-51194742D01*
X127363230Y-51213392D01*
X127366588Y-51212293D01*
X127392443Y-51185509D01*
X127432649Y-51128849D01*
X127482601Y-51050229D01*
X127537694Y-50957564D01*
X127593321Y-50858768D01*
X127644879Y-50761758D01*
X127687760Y-50674448D01*
X127717360Y-50604755D01*
X127738520Y-50549405D01*
X127774770Y-50471996D01*
X127811593Y-50425738D01*
X127856413Y-50402839D01*
X127916652Y-50395504D01*
X127930329Y-50396081D01*
X127968361Y-50416244D01*
X127999768Y-50471520D01*
X128001079Y-50474687D01*
X128033170Y-50552193D01*
X128065420Y-50630072D01*
X128073155Y-50647995D01*
X128094718Y-50689746D01*
X128107516Y-50702105D01*
X128110759Y-50691711D01*
X128122483Y-50643182D01*
X128141376Y-50559761D01*
X128166305Y-50446603D01*
X128196139Y-50308861D01*
X128229748Y-50151687D01*
X128265999Y-49980234D01*
X128415921Y-49267308D01*
X128467707Y-49301239D01*
X128502384Y-49333524D01*
X128519492Y-49372108D01*
X128527109Y-49431130D01*
X128550001Y-49526756D01*
X128585939Y-49650689D01*
X128632680Y-49796562D01*
X128687979Y-49958006D01*
X128749591Y-50128652D01*
X128815271Y-50302132D01*
X128882775Y-50472077D01*
X128949858Y-50632119D01*
X129014275Y-50775888D01*
X129056573Y-50864270D01*
X129207421Y-51153433D01*
X129381513Y-51454713D01*
X129570976Y-51755444D01*
X129767938Y-52042961D01*
X129964527Y-52304599D01*
X130007505Y-52358708D01*
X130104778Y-52479672D01*
X130181134Y-52571220D01*
X130240864Y-52637619D01*
X130288255Y-52683136D01*
X130327599Y-52712038D01*
X130363185Y-52728591D01*
X130399303Y-52737062D01*
X130425415Y-52743156D01*
X130470639Y-52763838D01*
X130525568Y-52802259D01*
X130596960Y-52863391D01*
X130691569Y-52952209D01*
X130719544Y-52978896D01*
X130842593Y-53091781D01*
X130970483Y-53202757D01*
X131098514Y-53308328D01*
X131221987Y-53405000D01*
X131336202Y-53489279D01*
X131436460Y-53557670D01*
X131518061Y-53606677D01*
X131576305Y-53632807D01*
X131606493Y-53632564D01*
X131609760Y-53619588D01*
X131614509Y-53563755D01*
X131619017Y-53465160D01*
X131623264Y-53324743D01*
X131627230Y-53143447D01*
X131630895Y-52922213D01*
X131634240Y-52661983D01*
X131637245Y-52363699D01*
X131639891Y-52028301D01*
X131641715Y-51769871D01*
X131643624Y-51489111D01*
X131644929Y-51246794D01*
X131645382Y-51039670D01*
X131644735Y-50864492D01*
X131642742Y-50718011D01*
X131639154Y-50596979D01*
X131633725Y-50498147D01*
X131626207Y-50418267D01*
X131616353Y-50354091D01*
X131603915Y-50302369D01*
X131588645Y-50259855D01*
X131570297Y-50223298D01*
X131548623Y-50189452D01*
X131523376Y-50155067D01*
X131494308Y-50116896D01*
X131470282Y-50087348D01*
X131430970Y-50047191D01*
X131379152Y-50003457D01*
X131309663Y-49952405D01*
X131217341Y-49890295D01*
X131097023Y-49813388D01*
X130943544Y-49717943D01*
X130783651Y-49617933D01*
X130627636Y-49517776D01*
X130478864Y-49419883D01*
X130340681Y-49326653D01*
X130216434Y-49240487D01*
X130109468Y-49163783D01*
X130023129Y-49098941D01*
X129960765Y-49048361D01*
X129925721Y-49014441D01*
X129921343Y-48999583D01*
X129950978Y-49006185D01*
G37*
G36*
X129434599Y-48104233D02*
G01*
X129555515Y-48120643D01*
X129623861Y-48131034D01*
X129712085Y-48144234D01*
X129777818Y-48153808D01*
X129810402Y-48158186D01*
X129807792Y-48161136D01*
X129771681Y-48170433D01*
X129705388Y-48184304D01*
X129616612Y-48201046D01*
X129481963Y-48221372D01*
X129320771Y-48231627D01*
X129156712Y-48223733D01*
X128971044Y-48197589D01*
X128959533Y-48195557D01*
X128892282Y-48181575D01*
X128860052Y-48169074D01*
X128864673Y-48156999D01*
X128907972Y-48144292D01*
X128991778Y-48129897D01*
X129117921Y-48112759D01*
X129133322Y-48110822D01*
X129243281Y-48099678D01*
X129337114Y-48097363D01*
X129434599Y-48104233D01*
G37*
G36*
X128164155Y-48349636D02*
G01*
X128154038Y-48362415D01*
X128114949Y-48397832D01*
X128053344Y-48448698D01*
X127976599Y-48508758D01*
X127813967Y-48619789D01*
X127583899Y-48734816D01*
X127525633Y-48758028D01*
X127444646Y-48789007D01*
X127384751Y-48810301D01*
X127355879Y-48818274D01*
X127352959Y-48814471D01*
X127370358Y-48790504D01*
X127411289Y-48751753D01*
X127471807Y-48700604D01*
X127608119Y-48594160D01*
X127724694Y-48517646D01*
X127826865Y-48467416D01*
X127865605Y-48452073D01*
X127964241Y-48412974D01*
X128054047Y-48377341D01*
X128099004Y-48360879D01*
X128146152Y-48347975D01*
X128164155Y-48349636D01*
G37*
G36*
X128660600Y-48487573D02*
G01*
X128691031Y-48516848D01*
X128738758Y-48570227D01*
X128798171Y-48641696D01*
X128859577Y-48720514D01*
X128926174Y-48817404D01*
X128982343Y-48917553D01*
X129035294Y-49034169D01*
X129092237Y-49180464D01*
X129113294Y-49240065D01*
X129128274Y-49289089D01*
X129130655Y-49307908D01*
X129117669Y-49295415D01*
X129082258Y-49254394D01*
X129030549Y-49191574D01*
X128968413Y-49113972D01*
X128873405Y-48984782D01*
X128797169Y-48855973D01*
X128733728Y-48714866D01*
X128711498Y-48657807D01*
X128681097Y-48576162D01*
X128660229Y-48515343D01*
X128652476Y-48485470D01*
X128660600Y-48487573D01*
G37*
G36*
X127738414Y-48101060D02*
G01*
X127840165Y-48112770D01*
X127926840Y-48124895D01*
X128024824Y-48141031D01*
X128081481Y-48154759D01*
X128098543Y-48166807D01*
X128077740Y-48177904D01*
X128020801Y-48188776D01*
X127990630Y-48193358D01*
X127899815Y-48208156D01*
X127821324Y-48222168D01*
X127808889Y-48224481D01*
X127735988Y-48235837D01*
X127677258Y-48241863D01*
X127667957Y-48241842D01*
X127618987Y-48238068D01*
X127545037Y-48229849D01*
X127455963Y-48218573D01*
X127361621Y-48205622D01*
X127271869Y-48192383D01*
X127196563Y-48180240D01*
X127145560Y-48170579D01*
X127128716Y-48164784D01*
X127148444Y-48160226D01*
X127203846Y-48150609D01*
X127285943Y-48137552D01*
X127385802Y-48122523D01*
X127456098Y-48112603D01*
X127562860Y-48100623D01*
X127651472Y-48096894D01*
X127738414Y-48101060D01*
G37*
D14*
%TO.C,D35*%
X124460000Y-71882000D02*
X124460000Y-73406000D01*
D11*
X122555000Y-73533000D02*
X120777000Y-73533000D01*
X122555000Y-71755000D02*
X120777000Y-71755000D01*
D14*
%TO.C,C16*%
X196799252Y-85577000D02*
X195376748Y-85577000D01*
X196799252Y-87397000D02*
X195376748Y-87397000D01*
%TO.C,R36*%
X144530064Y-101557000D02*
X143075936Y-101557000D01*
X144530064Y-103377000D02*
X143075936Y-103377000D01*
%TO.C,R20*%
X156056064Y-66283000D02*
X155601936Y-66283000D01*
X156056064Y-64813000D02*
X155601936Y-64813000D01*
%TO.C,R31*%
X144530064Y-82507000D02*
X143075936Y-82507000D01*
X144530064Y-84327000D02*
X143075936Y-84327000D01*
%TO.C,R41*%
X155575724Y-99426500D02*
X155066276Y-99426500D01*
X155575724Y-100471500D02*
X155066276Y-100471500D01*
%TO.C,R34*%
X144530064Y-93937000D02*
X143075936Y-93937000D01*
X144530064Y-95757000D02*
X143075936Y-95757000D01*
%TO.C,R1*%
X169317936Y-52474800D02*
X169772064Y-52474800D01*
X169317936Y-51004800D02*
X169772064Y-51004800D01*
%TO.C,C21*%
X185338767Y-89533000D02*
X185046233Y-89533000D01*
X185338767Y-90553000D02*
X185046233Y-90553000D01*
%TO.C,R51*%
X166156621Y-105028000D02*
X165821379Y-105028000D01*
X166156621Y-104268000D02*
X165821379Y-104268000D01*
%TO.C,R8*%
X180875000Y-81888064D02*
X180875000Y-81433936D01*
X182345000Y-81888064D02*
X182345000Y-81433936D01*
%TO.C,R19*%
X138914200Y-64108064D02*
X138914200Y-63653936D01*
X140384200Y-64108064D02*
X140384200Y-63653936D01*
%TO.C,R27*%
X140435000Y-51027064D02*
X140435000Y-50572936D01*
X138965000Y-51027064D02*
X138965000Y-50572936D01*
%TO.C,R29*%
X144530064Y-76707000D02*
X143075936Y-76707000D01*
X144530064Y-74887000D02*
X143075936Y-74887000D01*
%TO.C,R18*%
X135990000Y-50572936D02*
X135990000Y-51027064D01*
X134520000Y-50572936D02*
X134520000Y-51027064D01*
%TO.C,R50*%
X166156621Y-102488000D02*
X165821379Y-102488000D01*
X166156621Y-101728000D02*
X165821379Y-101728000D01*
%TO.C,R47*%
X166156621Y-94868000D02*
X165821379Y-94868000D01*
X166156621Y-94108000D02*
X165821379Y-94108000D01*
%TO.C,R52*%
X166156621Y-106808000D02*
X165821379Y-106808000D01*
X166156621Y-107568000D02*
X165821379Y-107568000D01*
%TO.C,R37*%
X155575724Y-90311500D02*
X155066276Y-90311500D01*
X155575724Y-89266500D02*
X155066276Y-89266500D01*
%TO.C,R22*%
X184938936Y-60352000D02*
X185393064Y-60352000D01*
X184938936Y-61822000D02*
X185393064Y-61822000D01*
D11*
%TO.C,D40*%
X122555000Y-92583000D02*
X120777000Y-92583000D01*
X122555000Y-90805000D02*
X120777000Y-90805000D01*
D14*
X124460000Y-90932000D02*
X124460000Y-92456000D01*
%TO.C,C18*%
X196799252Y-95017000D02*
X195376748Y-95017000D01*
X196799252Y-93197000D02*
X195376748Y-93197000D01*
%TO.C,C4*%
X175076646Y-74983528D02*
X175076646Y-75506032D01*
X173606646Y-74983528D02*
X173606646Y-75506032D01*
%TO.C,R38*%
X155575724Y-91806500D02*
X155066276Y-91806500D01*
X155575724Y-92851500D02*
X155066276Y-92851500D01*
%TO.C,C9*%
X153084200Y-57117348D02*
X153084200Y-57639852D01*
X151614200Y-57117348D02*
X151614200Y-57639852D01*
%TO.C,C29*%
X174867835Y-91334000D02*
X174636165Y-91334000D01*
X174867835Y-92054000D02*
X174636165Y-92054000D01*
%TO.C,C32*%
X174867835Y-98954000D02*
X174636165Y-98954000D01*
X174867835Y-99674000D02*
X174636165Y-99674000D01*
%TO.C,U2*%
X161467800Y-78311291D02*
X158927800Y-78311291D01*
X158927800Y-78311291D02*
X158927800Y-87074291D01*
X158927800Y-87074291D02*
X161467800Y-87074291D01*
X161467800Y-87074291D02*
X161467800Y-78311291D01*
X161467800Y-78438291D02*
X158927800Y-78438291D01*
X158927800Y-78438291D02*
X158927800Y-79581291D01*
X158927800Y-79581291D02*
X161467800Y-79581291D01*
X161467800Y-79581291D02*
X161467800Y-78438291D01*
G36*
X161467800Y-78438291D02*
G01*
X158927800Y-78438291D01*
X158927800Y-79581291D01*
X161467800Y-79581291D01*
X161467800Y-78438291D01*
G37*
D15*
X163417790Y-77930291D02*
G75*
G03*
X163417790Y-77930291I-171990J0D01*
G01*
D14*
%TO.C,R3*%
X187602864Y-50496800D02*
X187148736Y-50496800D01*
X187602864Y-51966800D02*
X187148736Y-51966800D01*
%TD*%
M02*
