%TF.GenerationSoftware,KiCad,Pcbnew,(6.0.5)*%
%TF.CreationDate,2022-08-10T18:54:24-07:00*%
%TF.ProjectId,AlpenglowSMTGarden,416c7065-6e67-46c6-9f77-534d54476172,rev?*%
%TF.SameCoordinates,Original*%
%TF.FileFunction,Paste,Bot*%
%TF.FilePolarity,Positive*%
%FSLAX46Y46*%
G04 Gerber Fmt 4.6, Leading zero omitted, Abs format (unit mm)*
G04 Created by KiCad (PCBNEW (6.0.5)) date 2022-08-10 18:54:24*
%MOMM*%
%LPD*%
G01*
G04 APERTURE LIST*
G04 Aperture macros list*
%AMRoundRect*
0 Rectangle with rounded corners*
0 $1 Rounding radius*
0 $2 $3 $4 $5 $6 $7 $8 $9 X,Y pos of 4 corners*
0 Add a 4 corners polygon primitive as box body*
4,1,4,$2,$3,$4,$5,$6,$7,$8,$9,$2,$3,0*
0 Add four circle primitives for the rounded corners*
1,1,$1+$1,$2,$3*
1,1,$1+$1,$4,$5*
1,1,$1+$1,$6,$7*
1,1,$1+$1,$8,$9*
0 Add four rect primitives between the rounded corners*
20,1,$1+$1,$2,$3,$4,$5,0*
20,1,$1+$1,$4,$5,$6,$7,0*
20,1,$1+$1,$6,$7,$8,$9,0*
20,1,$1+$1,$8,$9,$2,$3,0*%
G04 Aperture macros list end*
%ADD10O,3.500000X1.800000*%
%ADD11RoundRect,0.250000X-0.450000X0.350000X-0.450000X-0.350000X0.450000X-0.350000X0.450000X0.350000X0*%
%ADD12RoundRect,0.237500X0.300000X0.237500X-0.300000X0.237500X-0.300000X-0.237500X0.300000X-0.237500X0*%
%ADD13R,1.000000X1.000000*%
%ADD14RoundRect,0.155000X0.212500X0.155000X-0.212500X0.155000X-0.212500X-0.155000X0.212500X-0.155000X0*%
%ADD15RoundRect,0.250000X-0.475000X0.337500X-0.475000X-0.337500X0.475000X-0.337500X0.475000X0.337500X0*%
%ADD16RoundRect,0.250000X0.450000X-0.350000X0.450000X0.350000X-0.450000X0.350000X-0.450000X-0.350000X0*%
%ADD17RoundRect,0.237500X0.250000X0.237500X-0.250000X0.237500X-0.250000X-0.237500X0.250000X-0.237500X0*%
%ADD18RoundRect,0.250000X0.412500X0.650000X-0.412500X0.650000X-0.412500X-0.650000X0.412500X-0.650000X0*%
%ADD19RoundRect,0.250000X0.400000X0.625000X-0.400000X0.625000X-0.400000X-0.625000X0.400000X-0.625000X0*%
%ADD20RoundRect,0.150000X0.825000X0.150000X-0.825000X0.150000X-0.825000X-0.150000X0.825000X-0.150000X0*%
%ADD21RoundRect,0.160000X0.197500X0.160000X-0.197500X0.160000X-0.197500X-0.160000X0.197500X-0.160000X0*%
%ADD22RoundRect,0.250000X-0.337500X-0.475000X0.337500X-0.475000X0.337500X0.475000X-0.337500X0.475000X0*%
%ADD23R,1.300000X1.700000*%
%ADD24RoundRect,0.952500X2.222500X0.952500X-2.222500X0.952500X-2.222500X-0.952500X2.222500X-0.952500X0*%
%ADD25RoundRect,0.250000X0.475000X-0.337500X0.475000X0.337500X-0.475000X0.337500X-0.475000X-0.337500X0*%
%ADD26RoundRect,0.250000X-0.350000X-0.450000X0.350000X-0.450000X0.350000X0.450000X-0.350000X0.450000X0*%
%ADD27RoundRect,0.250000X0.337500X0.475000X-0.337500X0.475000X-0.337500X-0.475000X0.337500X-0.475000X0*%
%ADD28RoundRect,0.250000X0.350000X0.450000X-0.350000X0.450000X-0.350000X-0.450000X0.350000X-0.450000X0*%
G04 APERTURE END LIST*
D10*
%TO.C,J1*%
X118302999Y-56546998D03*
X123052999Y-63946996D03*
X118302999Y-63946996D03*
X123052999Y-56546998D03*
%TD*%
D11*
%TO.C,R21*%
X179929646Y-57734780D03*
X179929646Y-59734780D03*
%TD*%
D12*
%TO.C,C22*%
X186055000Y-92583000D03*
X184330000Y-92583000D03*
%TD*%
D13*
%TO.C,D24*%
X193603000Y-53547000D03*
X191103000Y-53547000D03*
%TD*%
D14*
%TO.C,C28*%
X175319500Y-89154000D03*
X174184500Y-89154000D03*
%TD*%
D15*
%TO.C,C10*%
X143814800Y-65942300D03*
X143814800Y-68017300D03*
%TD*%
D13*
%TO.C,D23*%
X129052000Y-74041000D03*
X131552000Y-74041000D03*
%TD*%
%TO.C,D31*%
X131211000Y-92583000D03*
X133711000Y-92583000D03*
%TD*%
D16*
%TO.C,R2*%
X162788600Y-66151000D03*
X162788600Y-64151000D03*
%TD*%
D15*
%TO.C,C11*%
X134620000Y-59795500D03*
X134620000Y-61870500D03*
%TD*%
D17*
%TO.C,R40*%
X156233500Y-97409000D03*
X154408500Y-97409000D03*
%TD*%
D18*
%TO.C,C15*%
X197650500Y-82677000D03*
X194525500Y-82677000D03*
%TD*%
%TO.C,C14*%
X197650500Y-78867000D03*
X194525500Y-78867000D03*
%TD*%
D19*
%TO.C,R33*%
X145353000Y-91037000D03*
X142253000Y-91037000D03*
%TD*%
D17*
%TO.C,R42*%
X156233500Y-102489000D03*
X154408500Y-102489000D03*
%TD*%
D13*
%TO.C,D32*%
X131211000Y-95123000D03*
X133711000Y-95123000D03*
%TD*%
D19*
%TO.C,R32*%
X145353000Y-87227000D03*
X142253000Y-87227000D03*
%TD*%
D20*
%TO.C,U1*%
X179610646Y-63306780D03*
X179610646Y-64576780D03*
X179610646Y-65846780D03*
X179610646Y-67116780D03*
X179610646Y-68386780D03*
X179610646Y-69656780D03*
X179610646Y-70926780D03*
X174660646Y-70926780D03*
X174660646Y-69656780D03*
X174660646Y-68386780D03*
X174660646Y-67116780D03*
X174660646Y-65846780D03*
X174660646Y-64576780D03*
X174660646Y-63306780D03*
%TD*%
D11*
%TO.C,R28*%
X137668000Y-55692800D03*
X137668000Y-57692800D03*
%TD*%
D13*
%TO.C,D22*%
X166898000Y-84582000D03*
X169398000Y-84582000D03*
%TD*%
%TO.C,D27*%
X131211000Y-82423000D03*
X133711000Y-82423000D03*
%TD*%
%TO.C,D33*%
X131211000Y-97663000D03*
X133711000Y-97663000D03*
%TD*%
D21*
%TO.C,R48*%
X166586500Y-97028000D03*
X165391500Y-97028000D03*
%TD*%
%TO.C,R46*%
X166586500Y-91948000D03*
X165391500Y-91948000D03*
%TD*%
D22*
%TO.C,C2*%
X187811500Y-69342000D03*
X189886500Y-69342000D03*
%TD*%
D23*
%TO.C,D36*%
X119916000Y-76454000D03*
X123416000Y-76454000D03*
%TD*%
D18*
%TO.C,C12*%
X197650500Y-71247000D03*
X194525500Y-71247000D03*
%TD*%
D24*
%TO.C,J2*%
X199353000Y-58472000D03*
X199353000Y-64822000D03*
%TD*%
D12*
%TO.C,C24*%
X186055000Y-97663000D03*
X184330000Y-97663000D03*
%TD*%
D16*
%TO.C,R5*%
X190246000Y-82661000D03*
X190246000Y-80661000D03*
%TD*%
D23*
%TO.C,D37*%
X119916000Y-80264000D03*
X123416000Y-80264000D03*
%TD*%
D22*
%TO.C,C3*%
X184153900Y-64566800D03*
X186228900Y-64566800D03*
%TD*%
D21*
%TO.C,R49*%
X166586500Y-99568000D03*
X165391500Y-99568000D03*
%TD*%
D19*
%TO.C,R30*%
X145353000Y-79607000D03*
X142253000Y-79607000D03*
%TD*%
D25*
%TO.C,C7*%
X143941800Y-51964500D03*
X143941800Y-49889500D03*
%TD*%
D17*
%TO.C,R44*%
X156233500Y-107569000D03*
X154408500Y-107569000D03*
%TD*%
D12*
%TO.C,C25*%
X186055000Y-100203000D03*
X184330000Y-100203000D03*
%TD*%
D23*
%TO.C,D38*%
X119916000Y-84074000D03*
X123416000Y-84074000D03*
%TD*%
D12*
%TO.C,C26*%
X186055000Y-102743000D03*
X184330000Y-102743000D03*
%TD*%
D13*
%TO.C,D30*%
X131211000Y-90043000D03*
X133711000Y-90043000D03*
%TD*%
%TO.C,D21*%
X166898000Y-81915000D03*
X169398000Y-81915000D03*
%TD*%
D19*
%TO.C,R35*%
X145353000Y-98657000D03*
X142253000Y-98657000D03*
%TD*%
D14*
%TO.C,C31*%
X175319500Y-96774000D03*
X174184500Y-96774000D03*
%TD*%
D26*
%TO.C,R17*%
X160036000Y-50165000D03*
X162036000Y-50165000D03*
%TD*%
D14*
%TO.C,C34*%
X175319500Y-104394000D03*
X174184500Y-104394000D03*
%TD*%
%TO.C,C35*%
X175319500Y-106934000D03*
X174184500Y-106934000D03*
%TD*%
D27*
%TO.C,C5*%
X170553146Y-68132780D03*
X168478146Y-68132780D03*
%TD*%
D23*
%TO.C,D39*%
X119916000Y-87884000D03*
X123416000Y-87884000D03*
%TD*%
D28*
%TO.C,R23*%
X171277646Y-61020780D03*
X169277646Y-61020780D03*
%TD*%
D16*
%TO.C,R7*%
X184404000Y-82661000D03*
X184404000Y-80661000D03*
%TD*%
D13*
%TO.C,D26*%
X193603000Y-57447000D03*
X191103000Y-57447000D03*
%TD*%
D12*
%TO.C,C27*%
X186055000Y-105283000D03*
X184330000Y-105283000D03*
%TD*%
D16*
%TO.C,R4*%
X191058800Y-64576200D03*
X191058800Y-62576200D03*
%TD*%
D12*
%TO.C,C20*%
X186055000Y-87503000D03*
X184330000Y-87503000D03*
%TD*%
D18*
%TO.C,C19*%
X197650500Y-97917000D03*
X194525500Y-97917000D03*
%TD*%
D11*
%TO.C,R26*%
X152146000Y-49927000D03*
X152146000Y-51927000D03*
%TD*%
D18*
%TO.C,C17*%
X197650500Y-90297000D03*
X194525500Y-90297000D03*
%TD*%
D17*
%TO.C,R39*%
X156233500Y-94869000D03*
X154408500Y-94869000D03*
%TD*%
D12*
%TO.C,C23*%
X186054992Y-95123000D03*
X184329992Y-95123000D03*
%TD*%
D26*
%TO.C,R24*%
X168515646Y-64830780D03*
X170515646Y-64830780D03*
%TD*%
D13*
%TO.C,D34*%
X131211000Y-100203000D03*
X133711000Y-100203000D03*
%TD*%
D21*
%TO.C,R45*%
X166586500Y-89408000D03*
X165391500Y-89408000D03*
%TD*%
D17*
%TO.C,R43*%
X156233500Y-105029000D03*
X154408500Y-105029000D03*
%TD*%
D25*
%TO.C,C1*%
X173579646Y-59772280D03*
X173579646Y-57697280D03*
%TD*%
D23*
%TO.C,D42*%
X119916000Y-99314000D03*
X123416000Y-99314000D03*
%TD*%
D16*
%TO.C,R6*%
X187325000Y-82661000D03*
X187325000Y-80661000D03*
%TD*%
D13*
%TO.C,D28*%
X131211000Y-84963000D03*
X133711000Y-84963000D03*
%TD*%
D25*
%TO.C,C6*%
X156641800Y-75919791D03*
X156641800Y-73844791D03*
%TD*%
D14*
%TO.C,C33*%
X175319500Y-101854000D03*
X174184500Y-101854000D03*
%TD*%
D23*
%TO.C,D41*%
X119916000Y-95504000D03*
X123416000Y-95504000D03*
%TD*%
D25*
%TO.C,C8*%
X154813000Y-51837500D03*
X154813000Y-49762500D03*
%TD*%
D11*
%TO.C,R25*%
X148158200Y-49876200D03*
X148158200Y-51876200D03*
%TD*%
D20*
%TO.C,U3*%
X148804400Y-54330600D03*
X148804400Y-55600600D03*
X148804400Y-56870600D03*
X148804400Y-58140600D03*
X148804400Y-59410600D03*
X148804400Y-60680600D03*
X148804400Y-61950600D03*
X143854400Y-61950600D03*
X143854400Y-60680600D03*
X143854400Y-59410600D03*
X143854400Y-58140600D03*
X143854400Y-56870600D03*
X143854400Y-55600600D03*
X143854400Y-54330600D03*
%TD*%
D18*
%TO.C,C13*%
X197650500Y-75057000D03*
X194525500Y-75057000D03*
%TD*%
D13*
%TO.C,D25*%
X129153000Y-70247000D03*
X131653000Y-70247000D03*
%TD*%
D14*
%TO.C,C30*%
X175319500Y-94234000D03*
X174184500Y-94234000D03*
%TD*%
D13*
%TO.C,D29*%
X131211000Y-87503000D03*
X133711000Y-87503000D03*
%TD*%
D23*
%TO.C,D35*%
X119916000Y-72644000D03*
X123416000Y-72644000D03*
%TD*%
D18*
%TO.C,C16*%
X197650500Y-86487000D03*
X194525500Y-86487000D03*
%TD*%
D19*
%TO.C,R36*%
X145353000Y-102467000D03*
X142253000Y-102467000D03*
%TD*%
D28*
%TO.C,R20*%
X156829000Y-65548000D03*
X154829000Y-65548000D03*
%TD*%
D19*
%TO.C,R31*%
X145353000Y-83417000D03*
X142253000Y-83417000D03*
%TD*%
D17*
%TO.C,R41*%
X156233500Y-99949000D03*
X154408500Y-99949000D03*
%TD*%
D19*
%TO.C,R34*%
X145353000Y-94847000D03*
X142253000Y-94847000D03*
%TD*%
D26*
%TO.C,R1*%
X168545000Y-51739800D03*
X170545000Y-51739800D03*
%TD*%
D12*
%TO.C,C21*%
X186055000Y-90043000D03*
X184330000Y-90043000D03*
%TD*%
D21*
%TO.C,R51*%
X166586500Y-104648000D03*
X165391500Y-104648000D03*
%TD*%
D16*
%TO.C,R8*%
X181610000Y-82661000D03*
X181610000Y-80661000D03*
%TD*%
%TO.C,R19*%
X139649200Y-64881000D03*
X139649200Y-62881000D03*
%TD*%
%TO.C,R27*%
X139700000Y-51800000D03*
X139700000Y-49800000D03*
%TD*%
D19*
%TO.C,R29*%
X145353000Y-75797000D03*
X142253000Y-75797000D03*
%TD*%
D11*
%TO.C,R18*%
X135255000Y-49800000D03*
X135255000Y-51800000D03*
%TD*%
D21*
%TO.C,R50*%
X166586500Y-102108000D03*
X165391500Y-102108000D03*
%TD*%
%TO.C,R47*%
X166586500Y-94488000D03*
X165391500Y-94488000D03*
%TD*%
%TO.C,R52*%
X166586500Y-107188000D03*
X165391500Y-107188000D03*
%TD*%
D17*
%TO.C,R37*%
X156233500Y-89789000D03*
X154408500Y-89789000D03*
%TD*%
D26*
%TO.C,R22*%
X184166000Y-61087000D03*
X186166000Y-61087000D03*
%TD*%
D23*
%TO.C,D40*%
X119916000Y-91694000D03*
X123416000Y-91694000D03*
%TD*%
D18*
%TO.C,C18*%
X197650500Y-94107000D03*
X194525500Y-94107000D03*
%TD*%
D15*
%TO.C,C4*%
X174341646Y-74207280D03*
X174341646Y-76282280D03*
%TD*%
D17*
%TO.C,R38*%
X156233500Y-92329000D03*
X154408500Y-92329000D03*
%TD*%
D15*
%TO.C,C9*%
X152349200Y-56341100D03*
X152349200Y-58416100D03*
%TD*%
D14*
%TO.C,C29*%
X175319500Y-91694000D03*
X174184500Y-91694000D03*
%TD*%
%TO.C,C32*%
X175319500Y-99314000D03*
X174184500Y-99314000D03*
%TD*%
D20*
%TO.C,U2*%
X162672800Y-78946291D03*
X162672800Y-80216291D03*
X162672800Y-81486291D03*
X162672800Y-82756291D03*
X162672800Y-84026291D03*
X162672800Y-85296291D03*
X162672800Y-86566291D03*
X157722800Y-86566291D03*
X157722800Y-85296291D03*
X157722800Y-84026291D03*
X157722800Y-82756291D03*
X157722800Y-81486291D03*
X157722800Y-80216291D03*
X157722800Y-78946291D03*
%TD*%
D28*
%TO.C,R3*%
X188375800Y-51231800D03*
X186375800Y-51231800D03*
%TD*%
M02*
