%TF.GenerationSoftware,KiCad,Pcbnew,(6.0.5)*%
%TF.CreationDate,2022-08-10T18:54:24-07:00*%
%TF.ProjectId,AlpenglowSMTGarden,416c7065-6e67-46c6-9f77-534d54476172,rev?*%
%TF.SameCoordinates,Original*%
%TF.FileFunction,Paste,Top*%
%TF.FilePolarity,Positive*%
%FSLAX46Y46*%
G04 Gerber Fmt 4.6, Leading zero omitted, Abs format (unit mm)*
G04 Created by KiCad (PCBNEW (6.0.5)) date 2022-08-10 18:54:24*
%MOMM*%
%LPD*%
G01*
G04 APERTURE LIST*
G04 Aperture macros list*
%AMRoundRect*
0 Rectangle with rounded corners*
0 $1 Rounding radius*
0 $2 $3 $4 $5 $6 $7 $8 $9 X,Y pos of 4 corners*
0 Add a 4 corners polygon primitive as box body*
4,1,4,$2,$3,$4,$5,$6,$7,$8,$9,$2,$3,0*
0 Add four circle primitives for the rounded corners*
1,1,$1+$1,$2,$3*
1,1,$1+$1,$4,$5*
1,1,$1+$1,$6,$7*
1,1,$1+$1,$8,$9*
0 Add four rect primitives between the rounded corners*
20,1,$1+$1,$2,$3,$4,$5,0*
20,1,$1+$1,$4,$5,$6,$7,0*
20,1,$1+$1,$6,$7,$8,$9,0*
20,1,$1+$1,$8,$9,$2,$3,0*%
G04 Aperture macros list end*
%ADD10RoundRect,0.250000X0.119744X-0.557370X0.569696X-0.021139X-0.119744X0.557370X-0.569696X0.021139X0*%
%ADD11RoundRect,0.250000X0.503745X-0.233165X0.379719X0.404893X-0.503745X0.233165X-0.379719X-0.404893X0*%
%ADD12RoundRect,0.250000X0.386728X-0.398204X0.499599X0.241921X-0.386728X0.398204X-0.499599X-0.241921X0*%
%ADD13RoundRect,0.250000X0.499599X-0.241921X0.386728X0.398204X-0.499599X0.241921X-0.386728X-0.398204X0*%
%ADD14RoundRect,0.250000X0.056458X0.552211X-0.506458X0.227211X-0.056458X-0.552211X0.506458X-0.227211X0*%
%ADD15RoundRect,0.250000X0.554409X-0.027480X0.200394X0.517656X-0.554409X0.027480X-0.200394X-0.517656X0*%
%ADD16RoundRect,0.250000X0.335316X-0.442366X0.525358X0.179232X-0.335316X0.442366X-0.525358X-0.179232X0*%
%ADD17RoundRect,0.250000X-0.242056X0.516148X-0.559850X-0.107557X0.242056X-0.516148X0.559850X0.107557X0*%
%ADD18RoundRect,0.250000X0.276182X0.481507X-0.370257X0.413563X-0.276182X-0.481507X0.370257X-0.413563X0*%
%ADD19RoundRect,0.250000X-0.450000X0.350000X-0.450000X-0.350000X0.450000X-0.350000X0.450000X0.350000X0*%
%ADD20RoundRect,0.250000X0.450000X-0.325000X0.450000X0.325000X-0.450000X0.325000X-0.450000X-0.325000X0*%
%ADD21RoundRect,0.250000X0.197457X0.518783X-0.430394X0.350550X-0.197457X-0.518783X0.430394X-0.350550X0*%
%ADD22RoundRect,0.250000X0.163796X-0.530373X0.554976X-0.011260X-0.163796X0.530373X-0.554976X0.011260X0*%
%ADD23RoundRect,0.250000X-0.545540X0.165488X-0.294682X-0.488019X0.545540X-0.165488X0.294682X0.488019X0*%
%ADD24RoundRect,0.250000X0.398204X0.386728X-0.241921X0.499599X-0.398204X-0.386728X0.241921X-0.499599X0*%
%ADD25RoundRect,0.250000X-0.040290X0.553626X-0.538219X0.135814X0.040290X-0.553626X0.538219X-0.135814X0*%
%ADD26RoundRect,0.250000X-0.309448X-0.478792X0.387888X-0.417783X0.309448X0.478792X-0.387888X0.417783X0*%
%ADD27RoundRect,0.250000X-0.557370X-0.119744X-0.021139X-0.569696X0.557370X0.119744X0.021139X0.569696X0*%
%ADD28RoundRect,0.250000X0.419962X-0.362983X0.476613X0.284543X-0.419962X0.362983X-0.476613X-0.284543X0*%
%ADD29RoundRect,0.250000X0.430394X0.350550X-0.197457X0.518783X-0.430394X-0.350550X0.197457X-0.518783X0*%
%ADD30RoundRect,0.250000X-0.135814X0.538219X-0.553626X0.040290X0.135814X-0.538219X0.553626X-0.040290X0*%
%ADD31RoundRect,0.250000X-0.386728X0.398204X-0.499599X-0.241921X0.386728X-0.398204X0.499599X0.241921X0*%
%ADD32RoundRect,0.250000X0.459309X0.311705X-0.151491X0.534018X-0.459309X-0.311705X0.151491X-0.534018X0*%
%ADD33RoundRect,0.250000X-0.403991X0.402232X-0.489300X-0.292550X0.403991X-0.402232X0.489300X0.292550X0*%
%ADD34RoundRect,0.250000X-0.008115X-0.555031X0.524334X-0.182206X0.008115X0.555031X-0.524334X0.182206X0*%
%ADD35RoundRect,0.250000X-0.569240X-0.031078X-0.109999X-0.559375X0.569240X0.031078X0.109999X0.559375X0*%
%ADD36RoundRect,0.250000X-0.538219X-0.135814X-0.040290X-0.553626X0.538219X0.135814X0.040290X0.553626X0*%
G04 APERTURE END LIST*
D10*
%TO.C,R12*%
X153713012Y-89872335D03*
X154998588Y-88340247D03*
%TD*%
D11*
%TO.C,D16*%
X128328421Y-77606832D03*
X128719579Y-79619168D03*
%TD*%
D12*
%TO.C,D20*%
X152273189Y-62871572D03*
X151917211Y-64890428D03*
%TD*%
D13*
%TO.C,D9*%
X156921011Y-73793572D03*
X157276989Y-75812428D03*
%TD*%
D14*
%TO.C,D7*%
X185040324Y-78871500D03*
X186815676Y-77846500D03*
%TD*%
D15*
%TO.C,D13*%
X121869745Y-79658363D03*
X122986255Y-81377637D03*
%TD*%
D16*
%TO.C,D15*%
X135935681Y-78267788D03*
X135336319Y-80228212D03*
%TD*%
D17*
%TO.C,R14*%
X139264990Y-79753993D03*
X138357010Y-81536007D03*
%TD*%
D13*
%TO.C,D19*%
X139496611Y-62846172D03*
X139852589Y-64865028D03*
%TD*%
D18*
%TO.C,D6*%
X190623615Y-76815142D03*
X192662385Y-76600858D03*
%TD*%
D19*
%TO.C,R9*%
X160528000Y-73549000D03*
X160528000Y-75549000D03*
%TD*%
D20*
%TO.C,D2*%
X162839400Y-63999000D03*
X162839400Y-66049000D03*
%TD*%
D21*
%TO.C,D11*%
X151333726Y-86069581D03*
X153313874Y-85539001D03*
%TD*%
D22*
%TO.C,D14*%
X142094860Y-81731399D03*
X140861140Y-83368601D03*
%TD*%
D23*
%TO.C,R16*%
X124863632Y-78441420D03*
X125580368Y-80308580D03*
%TD*%
D24*
%TO.C,D5*%
X197364572Y-76911011D03*
X199383428Y-77266989D03*
%TD*%
D25*
%TO.C,D17*%
X156745604Y-52703457D03*
X158315996Y-51385743D03*
%TD*%
D26*
%TO.C,R11*%
X150819605Y-82843447D03*
X152811995Y-82669135D03*
%TD*%
D27*
%TO.C,R10*%
X153081756Y-76017503D03*
X154613844Y-77303079D03*
%TD*%
D28*
%TO.C,D4*%
X194221535Y-64137073D03*
X194042865Y-66179273D03*
%TD*%
D29*
%TO.C,D3*%
X186346491Y-51068110D03*
X188326639Y-51598690D03*
%TD*%
D30*
%TO.C,D8*%
X180824143Y-83208196D03*
X182141857Y-81637804D03*
%TD*%
D31*
%TO.C,D12*%
X157225811Y-91639719D03*
X157581789Y-89620863D03*
%TD*%
D32*
%TO.C,D10*%
X151106615Y-79103720D03*
X153032985Y-79804862D03*
%TD*%
D33*
%TO.C,R15*%
X132201869Y-77620454D03*
X131958131Y-79605546D03*
%TD*%
D34*
%TO.C,D1*%
X170384631Y-51228084D03*
X168705369Y-52403916D03*
%TD*%
D35*
%TO.C,R13*%
X118850941Y-81668290D03*
X120163059Y-83177710D03*
%TD*%
D36*
%TO.C,D18*%
X135731352Y-53051269D03*
X134160960Y-51733555D03*
%TD*%
M02*
