M48
; DRILL file {KiCad (6.0.5)} date Wed Aug 10 18:54:27 2022
; FORMAT={-:-/ absolute / inch / decimal}
; #@! TF.CreationDate,2022-08-10T18:54:27-07:00
; #@! TF.GenerationSoftware,Kicad,Pcbnew,(6.0.5)
; #@! TF.FileFunction,Plated,1,2,PTH
FMAT,2
INCH
; #@! TA.AperFunction,Plated,PTH,ViaDrill
T1C0.0150
; #@! TA.AperFunction,Plated,PTH,ComponentDrill
T2C0.0256
; #@! TA.AperFunction,Plated,PTH,ComponentDrill
T3C0.0315
; #@! TA.AperFunction,Plated,PTH,ComponentDrill
T4C0.1880
%
G90
G05
T1
X5.22Y-1.955
X5.475Y-2.3232
X5.506Y-2.4185
X5.51Y-2.93
X5.605Y-2.51
X5.825Y-2.72
X5.97Y-3.4703
X5.975Y-2.755
X5.975Y-2.813
X6.005Y-2.62
X6.1Y-2.165
X6.14Y-2.745
X6.22Y-2.175
X6.287Y-2.791
X6.292Y-3.054
X6.375Y-2.065
X6.405Y-3.025
X6.415Y-2.447
X6.417Y-2.734
X6.465Y-2.95
X6.495Y-3.055
X6.685Y-2.911
X6.697Y-2.763
X6.765Y-3.055
X6.785Y-1.96
X7.17Y-3.085
X7.235Y-1.95
X7.25Y-2.675
X7.285Y-3.01
X7.39Y-2.16
X7.47Y-2.955
X7.5218Y-2.179
X7.633Y-2.45
X7.895Y-2.98
T2
X4.8328Y-2.3404
X4.8328Y-2.4034
X4.88Y-2.3089
X4.88Y-2.3719
X4.88Y-2.4349
T4
X4.65Y-1.95
X4.65Y-4.15
X7.85Y-1.95
X7.85Y-4.15
T3
G00X4.6793Y-2.2263
M15
G01X4.6359Y-2.2263
M16
G05
G00X4.6793Y-2.5176
M15
G01X4.6359Y-2.5176
M16
G05
G00X4.8663Y-2.2263
M15
G01X4.823Y-2.2263
M16
G05
G00X4.8663Y-2.5176
M15
G01X4.823Y-2.5176
M16
G05
T0
M30
